<svg id="SvgjsSvg1000" xmlns="http://www.w3.org/2000/svg" version="1.1" xmlns:xlink="http://www.w3.org/1999/xlink" xmlns:svgjs="http://svgjs.com/svgjs" width="24" height="24"><defs id="SvgjsDefs1001"></defs><path id="SvgjsPath1007" d="M548.093 864.017C548.5889999999999 864.017 548.9789999999999 864.407 548.9789999999999 864.884L548.9789999999999 886.154C548.9789999999999 886.657 548.5889999999999 887.046 548.093 887.046L526.8309999999999 887.046C526.3399999999999 887.046 525.9449999999999 886.657 525.9449999999999 886.154L525.9449999999999 864.884C525.9449999999999 864.407 526.3399999999999 864.017 526.8309999999999 864.017ZM530.343 867.989C529.8589999999999 867.989 529.463 867.587 529.463 867.1030000000001L529.463 865.7760000000001L527.717 865.7760000000001L527.717 869.9000000000001L547.207 869.9000000000001L547.207 865.7760000000001L545.472 865.7760000000001L545.472 867.1030000000001C545.472 867.5870000000001 545.0649999999999 867.989 544.581 867.989C544.091 867.989 543.695 867.587 543.695 867.1030000000001L543.695 865.7760000000001L540.7230000000001 865.7760000000001L540.7230000000001 867.1030000000001C540.7230000000001 867.5870000000001 540.321 867.989 539.831 867.989C539.347 867.989 538.951 867.587 538.951 867.1030000000001L538.951 865.7760000000001L535.985 865.7760000000001L535.985 867.1030000000001C535.985 867.5870000000001 535.583 867.989 535.087 867.989C534.603 867.989 534.207 867.587 534.207 867.1030000000001L534.207 865.7760000000001L531.235 865.7760000000001L531.235 867.1030000000001C531.235 867.5870000000001 530.845 867.989 530.343 867.989ZM539.504 872.628C539.102 872.628 538.7180000000001 872.798 538.442 873.08C538.172 873.3570000000001 537.996 873.7280000000001 537.996 874.149C537.996 874.564 538.172 874.934 538.442 875.205C538.712 875.4820000000001 539.089 875.657 539.504 875.657C539.919 875.657 540.308 875.4820000000001 540.572 875.205C540.848 874.9340000000001 541.0120000000001 874.5640000000001 541.0120000000001 874.149C541.0120000000001 873.728 540.8480000000001 873.357 540.572 873.08L540.566 873.08C540.296 872.798 539.919 872.628 539.504 872.628ZM543.6 872.628C543.186 872.628 542.802 872.798 542.5260000000001 873.08C542.2550000000001 873.3570000000001 542.0930000000001 873.7280000000001 542.0930000000001 874.149C542.0930000000001 874.564 542.2550000000001 874.934 542.5260000000001 875.205C542.802 875.4820000000001 543.186 875.657 543.6 875.657C544.009 875.657 544.392 875.4820000000001 544.6560000000001 875.205C544.9330000000001 874.9340000000001 545.1080000000001 874.5640000000001 545.1080000000001 874.149C545.1080000000001 873.728 544.9330000000001 873.357 544.6560000000001 873.08C544.392 872.798 544.009 872.628 543.6 872.628ZM535.419 872.628C535.005 872.628 534.6279999999999 872.798 534.351 873.08C534.081 873.3570000000001 533.912 873.7280000000001 533.912 874.149C533.912 874.564 534.081 874.934 534.351 875.205C534.628 875.4820000000001 535.005 875.657 535.419 875.657C535.834 875.657 536.211 875.4820000000001 536.482 875.205C536.752 874.9340000000001 536.9209999999999 874.5640000000001 536.9209999999999 874.149C536.9209999999999 873.728 536.752 873.357 536.482 873.08C536.211 872.798 535.834 872.628 535.419 872.628ZM531.329 880.654C530.915 880.654 530.544 880.83 530.2679999999999 881.1L530.261 881.1C529.991 881.3770000000001 529.8209999999999 881.754 529.8209999999999 882.162C529.8209999999999 882.5840000000001 529.9909999999999 882.955 530.261 883.231L530.2679999999999 883.231C530.5439999999999 883.508 530.915 883.671 531.329 883.671C531.75 883.671 532.121 883.508 532.391 883.231C532.668 882.955 532.837 882.584 532.837 882.162C532.837 881.748 532.668 881.3770000000001 532.391 881.1C532.121 880.83 531.75 880.654 531.329 880.654ZM539.504 880.654C539.102 880.654 538.7180000000001 880.83 538.442 881.1C538.172 881.3770000000001 537.996 881.754 537.996 882.162C537.996 882.5840000000001 538.172 882.955 538.442 883.231C538.718 883.508 539.102 883.671 539.504 883.671C539.919 883.671 540.296 883.508 540.566 883.231L540.572 883.231C540.848 882.955 541.0120000000001 882.584 541.0120000000001 882.162C541.0120000000001 881.748 540.8480000000001 881.3770000000001 540.572 881.1L540.566 881.1C540.296 880.83 539.919 880.654 539.504 880.654ZM531.329 876.638C530.915 876.638 530.544 876.801 530.2679999999999 877.0840000000001L530.261 877.0840000000001C529.991 877.36 529.8209999999999 877.744 529.8209999999999 878.1460000000001C529.8209999999999 878.5670000000001 529.9909999999999 878.951 530.261 879.215L530.2679999999999 879.215C530.5439999999999 879.498 530.915 879.6550000000001 531.329 879.6550000000001C531.75 879.6550000000001 532.121 879.498 532.391 879.215C532.668 878.951 532.837 878.567 532.837 878.1460000000001C532.837 877.744 532.668 877.3600000000001 532.391 877.0840000000001C532.121 876.801 531.75 876.638 531.329 876.638ZM539.504 876.638C539.102 876.638 538.7180000000001 876.801 538.442 877.0840000000001C538.172 877.36 537.996 877.744 537.996 878.1460000000001C537.996 878.5670000000001 538.172 878.951 538.442 879.215C538.718 879.498 539.102 879.6550000000001 539.504 879.6550000000001C539.919 879.6550000000001 540.296 879.498 540.566 879.215L540.572 879.215C540.848 878.951 541.0120000000001 878.567 541.0120000000001 878.1460000000001C541.0120000000001 877.744 540.8480000000001 877.3600000000001 540.572 877.0840000000001L540.566 877.0840000000001C540.296 876.801 539.919 876.638 539.504 876.638ZM543.6 876.638C543.186 876.638 542.802 876.801 542.5260000000001 877.0840000000001C542.2550000000001 877.36 542.0930000000001 877.744 542.0930000000001 878.1460000000001C542.0930000000001 878.5670000000001 542.2550000000001 878.951 542.5260000000001 879.215C542.802 879.498 543.186 879.6550000000001 543.6 879.6550000000001C544.009 879.6550000000001 544.392 879.498 544.6560000000001 879.215C544.9330000000001 878.951 545.1080000000001 878.567 545.1080000000001 878.1460000000001C545.1080000000001 877.744 544.9330000000001 877.3600000000001 544.6560000000001 877.0840000000001C544.392 876.801 544.009 876.638 543.6 876.638ZM535.419 880.654C535.005 880.654 534.6279999999999 880.83 534.351 881.1C534.081 881.3770000000001 533.912 881.754 533.912 882.162C533.912 882.5840000000001 534.081 882.955 534.351 883.231C534.628 883.508 535.005 883.671 535.419 883.671C535.834 883.671 536.211 883.508 536.482 883.231C536.752 882.955 536.9209999999999 882.584 536.9209999999999 882.162C536.9209999999999 881.748 536.752 881.3770000000001 536.482 881.1C536.211 880.83 535.834 880.654 535.419 880.654ZM535.419 876.638C535.005 876.638 534.6279999999999 876.801 534.351 877.0840000000001C534.081 877.36 533.912 877.744 533.912 878.1460000000001C533.912 878.5670000000001 534.081 878.951 534.351 879.215C534.628 879.498 535.005 879.6550000000001 535.419 879.6550000000001C535.834 879.6550000000001 536.211 879.498 536.482 879.215C536.752 878.951 536.9209999999999 878.567 536.9209999999999 878.1460000000001C536.9209999999999 877.744 536.752 877.3600000000001 536.482 877.0840000000001C536.211 876.801 535.834 876.638 535.419 876.638ZM539.818 873.822L539.818 873.834C539.906 873.9029999999999 539.9499999999999 874.0169999999999 539.9499999999999 874.149C539.9499999999999 874.2620000000001 539.906 874.369 539.818 874.457C539.742 874.526 539.629 874.5889999999999 539.504 874.5889999999999C539.378 874.5889999999999 539.265 874.526 539.19 874.457C539.114 874.375 539.0580000000001 874.275 539.0580000000001 874.149C539.0580000000001 874.017 539.1140000000001 873.903 539.19 873.834L539.19 873.822C539.2650000000001 873.74 539.378 873.696 539.504 873.696C539.629 873.696 539.7420000000001 873.74 539.818 873.822ZM535.734 873.822L535.734 873.834C535.821 873.9029999999999 535.866 874.0169999999999 535.866 874.149C535.866 874.2620000000001 535.821 874.369 535.734 874.457C535.659 874.526 535.539 874.5889999999999 535.419 874.5889999999999C535.287 874.5889999999999 535.1809999999999 874.526 535.0989999999999 874.457C535.0169999999999 874.375 534.9739999999999 874.275 534.9739999999999 874.149C534.9739999999999 874.017 535.0169999999999 873.903 535.0989999999999 873.834L535.0989999999999 873.822C535.1809999999999 873.74 535.2869999999999 873.696 535.419 873.696C535.539 873.696 535.659 873.74 535.734 873.822ZM543.915 873.822L543.915 873.834C543.99 873.9029999999999 544.04 874.0169999999999 544.04 874.149C544.04 874.2620000000001 543.99 874.369 543.915 874.457C543.833 874.526 543.713 874.5889999999999 543.5999999999999 874.5889999999999C543.4749999999999 874.5889999999999 543.3619999999999 874.526 543.2739999999999 874.457C543.1979999999999 874.375 543.1479999999999 874.275 543.1479999999999 874.149C543.1479999999999 874.017 543.1979999999999 873.903 543.2739999999999 873.834L543.2739999999999 873.822C543.3619999999999 873.74 543.4749999999999 873.696 543.5999999999999 873.696C543.713 873.696 543.8329999999999 873.74 543.915 873.822ZM539.818 881.848C539.906 881.93 539.9499999999999 882.0369999999999 539.9499999999999 882.1619999999999C539.9499999999999 882.2939999999999 539.906 882.4079999999999 539.818 882.477C539.742 882.571 539.629 882.615 539.504 882.615C539.378 882.615 539.265 882.571 539.19 882.477C539.114 882.408 539.0580000000001 882.294 539.0580000000001 882.1619999999999C539.0580000000001 882.0369999999999 539.1140000000001 881.93 539.19 881.848C539.2650000000001 881.7669999999999 539.378 881.723 539.504 881.723C539.629 881.723 539.7420000000001 881.7669999999999 539.818 881.848ZM535.734 881.848C535.821 881.93 535.866 882.0369999999999 535.866 882.1619999999999C535.866 882.2939999999999 535.821 882.4079999999999 535.734 882.477C535.659 882.571 535.539 882.615 535.419 882.615C535.287 882.615 535.1809999999999 882.571 535.0989999999999 882.477C535.0169999999999 882.408 534.9739999999999 882.294 534.9739999999999 882.1619999999999C534.9739999999999 882.0369999999999 535.0169999999999 881.93 535.0989999999999 881.848C535.1809999999999 881.7669999999999 535.2869999999999 881.723 535.419 881.723C535.539 881.723 535.659 881.7669999999999 535.734 881.848ZM531.643 881.848C531.725 881.93 531.775 882.0369999999999 531.775 882.1619999999999C531.775 882.2939999999999 531.725 882.4079999999999 531.643 882.477C531.5740000000001 882.571 531.461 882.615 531.3290000000001 882.615C531.2040000000001 882.615 531.0970000000001 882.571 531.0150000000001 882.477C530.9340000000001 882.408 530.8830000000002 882.294 530.8830000000002 882.1619999999999C530.8830000000002 882.0369999999999 530.9340000000002 881.93 531.0150000000001 881.848C531.0970000000001 881.7669999999999 531.2040000000001 881.723 531.3290000000001 881.723C531.461 881.723 531.5740000000001 881.7669999999999 531.643 881.848ZM539.818 877.838C539.906 877.92 539.9499999999999 878.033 539.9499999999999 878.146C539.9499999999999 878.2779999999999 539.906 878.391 539.818 878.4599999999999C539.742 878.5419999999999 539.629 878.593 539.504 878.593C539.378 878.593 539.265 878.5419999999999 539.19 878.4599999999999C539.114 878.391 539.0580000000001 878.2779999999999 539.0580000000001 878.146C539.0580000000001 878.0329999999999 539.1140000000001 877.92 539.19 877.838C539.2650000000001 877.757 539.378 877.706 539.504 877.706C539.629 877.706 539.7420000000001 877.7570000000001 539.818 877.838ZM531.643 877.838C531.725 877.92 531.775 878.033 531.775 878.146C531.775 878.2779999999999 531.725 878.391 531.643 878.4599999999999C531.5740000000001 878.5419999999999 531.461 878.593 531.3290000000001 878.593C531.2040000000001 878.593 531.0970000000001 878.5419999999999 531.0150000000001 878.4599999999999C530.9340000000001 878.391 530.8830000000002 878.2779999999999 530.8830000000002 878.146C530.8830000000002 878.0329999999999 530.9340000000002 877.92 531.0150000000001 877.838C531.0970000000001 877.757 531.2040000000001 877.706 531.3290000000001 877.706C531.461 877.706 531.5740000000001 877.7570000000001 531.643 877.838ZM535.734 877.838C535.821 877.92 535.866 878.033 535.866 878.146C535.866 878.2779999999999 535.821 878.391 535.734 878.4599999999999C535.659 878.5419999999999 535.539 878.593 535.419 878.593C535.287 878.593 535.1809999999999 878.5419999999999 535.0989999999999 878.4599999999999C535.0169999999999 878.391 534.9739999999999 878.2779999999999 534.9739999999999 878.146C534.9739999999999 878.0329999999999 535.0169999999999 877.92 535.0989999999999 877.838C535.1809999999999 877.757 535.2869999999999 877.706 535.419 877.706C535.539 877.706 535.659 877.7570000000001 535.734 877.838ZM543.915 877.838C543.99 877.92 544.04 878.033 544.04 878.146C544.04 878.2779999999999 543.99 878.391 543.915 878.4599999999999C543.833 878.5419999999999 543.713 878.593 543.5999999999999 878.593C543.4749999999999 878.593 543.3619999999999 878.5419999999999 543.2739999999999 878.4599999999999C543.1979999999999 878.391 543.1479999999999 878.2779999999999 543.1479999999999 878.146C543.1479999999999 878.0329999999999 543.1979999999999 877.92 543.2739999999999 877.838C543.3619999999999 877.757 543.4749999999999 877.706 543.5999999999999 877.706C543.713 877.706 543.8329999999999 877.7570000000001 543.915 877.838ZM527.717 885.274L547.207 885.274L547.207 870.955L527.717 870.955Z " fill="#848484" transform="matrix(1,0,0,1,-525,-864)"></path></svg>