<svg id="SvgjsSvg1014" xmlns="http://www.w3.org/2000/svg" version="1.1" xmlns:xlink="http://www.w3.org/1999/xlink" xmlns:svgjs="http://svgjs.com/svgjs" width="25" height="23"><defs id="SvgjsDefs1015"></defs><path id="SvgjsPath1016" d="M566.229 1103.57L565.0970000000001 1103.57L561.4250000000001 1097.08C561.4000000000001 1097.01 561.363 1096.96 561.325 1096.8999999999999C561.0730000000001 1096.5099999999998 560.7080000000001 1096.2399999999998 560.312 1096.11C559.885 1095.9699999999998 559.407 1095.99 558.986 1096.2099999999998C558.929 1096.2399999999998 558.885 1096.2599999999998 558.835 1096.2999999999997L545.908 1103.9199999999996L545.845 1103.9599999999996C545.417 1104.2099999999996 545.128 1104.6499999999996 545.028 1105.1299999999997C544.927 1105.5799999999997 545.003 1106.0799999999997 545.2470000000001 1106.5299999999997L549.3660000000001 1113.8199999999997L549.3660000000001 1116.0999999999997C549.3660000000001 1116.6099999999997 549.5550000000001 1117.0699999999997 549.8570000000001 1117.4199999999996C550.1830000000001 1117.7899999999995 550.6360000000001 1118.0099999999995 551.1510000000001 1118.0099999999995L566.229 1118.0099999999995C566.745 1118.0099999999995 567.197 1117.7899999999995 567.524 1117.4199999999996C567.826 1117.0699999999997 568.008 1116.6099999999997 568.008 1116.0999999999997L568.008 1105.4799999999998C568.008 1104.9699999999998 567.826 1104.4999999999998 567.524 1104.1599999999999C567.197 1103.79 566.732 1103.57 566.229 1103.57ZM549.366 1110.21L546.775 1105.6200000000001C546.75 1105.5800000000002 546.75 1105.5500000000002 546.75 1105.5100000000002L546.738 1105.5100000000002L546.75 1105.5000000000002L546.775 1105.4900000000002L559.778 1097.8300000000002C559.803 1097.8400000000001 559.835 1097.8700000000001 559.86 1097.9L559.872 1097.93L563.06 1103.5700000000002L551.151 1103.5700000000002C550.1579999999999 1103.5700000000002 549.366 1104.4500000000003 549.366 1105.4800000000002ZM566.21 1116.21L551.176 1116.21C551.1510000000001 1116.19 551.139 1116.15 551.139 1116.1000000000001L551.139 1105.45L551.151 1105.44L551.151 1105.4L551.164 1105.4L551.164 1105.38L551.1759999999999 1105.3700000000001L566.2099999999999 1105.3700000000001C566.2289999999999 1105.4 566.242 1105.43 566.242 1105.48L566.242 1116.1C566.242 1116.1499999999999 566.2289999999999 1116.1899999999998 566.2099999999999 1116.2099999999998ZM552.327 1108.11C552.032 1108.11 551.793 1108.36 551.793 1108.6599999999999L551.793 1112.1299999999999C551.793 1112.4399999999998 552.032 1112.6699999999998 552.327 1112.6699999999998L555.729 1112.6699999999998C556.0300000000001 1112.6699999999998 556.2570000000001 1112.4399999999998 556.2570000000001 1112.1299999999999L556.2570000000001 1108.6599999999999C556.2570000000001 1108.36 556.0300000000001 1108.11 555.729 1108.11ZM552.862 1111.59L552.862 1109.1999999999998L555.1949999999999 1109.1999999999998L555.1949999999999 1111.59ZM559.765 1114.24L559.765 1115.25C559.765 1115.56 559.9979999999999 1115.79 560.294 1115.79C560.5889999999999 1115.79 560.834 1115.56 560.834 1115.25L560.834 1114.24C560.834 1113.94 560.5889999999999 1113.69 560.294 1113.69C559.9979999999999 1113.69 559.765 1113.94 559.765 1114.24ZM558.282 1114.24L558.282 1115.25C558.282 1115.56 558.5210000000001 1115.79 558.816 1115.79C559.1120000000001 1115.79 559.351 1115.56 559.351 1115.25L559.351 1114.24C559.351 1113.94 559.112 1113.69 558.816 1113.69C558.5210000000001 1113.69 558.282 1113.94 558.282 1114.24ZM553.252 1114.24L553.252 1115.25C553.252 1115.56 553.49 1115.79 553.7919999999999 1115.79C554.0809999999999 1115.79 554.3199999999999 1115.56 554.3199999999999 1115.25L554.3199999999999 1114.24C554.3199999999999 1113.94 554.0809999999999 1113.69 553.7919999999999 1113.69C553.4899999999999 1113.69 553.252 1113.94 553.252 1114.24ZM563.312 1114.24L563.312 1115.25C563.312 1115.56 563.5500000000001 1115.79 563.852 1115.79C564.141 1115.79 564.38 1115.56 564.38 1115.25L564.38 1114.24C564.38 1113.94 564.141 1113.69 563.852 1113.69C563.55 1113.69 563.312 1113.94 563.312 1114.24ZM564.796 1114.24L564.796 1115.25C564.796 1115.56 565.0340000000001 1115.79 565.3240000000001 1115.79C565.619 1115.79 565.864 1115.56 565.864 1115.25L565.864 1114.24C565.864 1113.94 565.619 1113.69 565.3240000000001 1113.69C565.0340000000001 1113.69 564.796 1113.94 564.796 1114.24ZM561.834 1114.24L561.834 1115.25C561.834 1115.56 562.079 1115.79 562.3679999999999 1115.79C562.6569999999999 1115.79 562.8969999999999 1115.56 562.8969999999999 1115.25L562.8969999999999 1114.24C562.8969999999999 1113.94 562.6569999999999 1113.69 562.3679999999999 1113.69C562.079 1113.69 561.834 1113.94 561.834 1114.24ZM554.729 1114.24L554.729 1115.25C554.729 1115.56 554.974 1115.79 555.264 1115.79C555.565 1115.79 555.791 1115.56 555.791 1115.25L555.791 1114.24C555.791 1113.94 555.565 1113.69 555.264 1113.69C554.974 1113.69 554.729 1113.94 554.729 1114.24ZM551.78 1114.24L551.78 1115.25C551.78 1115.56 552.006 1115.79 552.302 1115.79C552.597 1115.79 552.837 1115.56 552.837 1115.25L552.837 1114.24C552.837 1113.94 552.597 1113.69 552.302 1113.69C552.006 1113.69 551.78 1113.94 551.78 1114.24ZM556.81 1114.24L556.81 1115.25C556.81 1115.56 557.049 1115.79 557.3389999999999 1115.79C557.6279999999999 1115.79 557.867 1115.56 557.867 1115.25L557.867 1114.24C557.867 1113.94 557.6279999999999 1113.69 557.3389999999999 1113.69C557.049 1113.69 556.81 1113.94 556.81 1114.24Z " fill="#9c9c9c" transform="matrix(1,0,0,1,-544,-1096)"></path></svg>