<svg id="SvgjsSvg1008" xmlns="http://www.w3.org/2000/svg" version="1.1" xmlns:xlink="http://www.w3.org/1999/xlink" xmlns:svgjs="http://svgjs.com/svgjs" width="36" height="17"><defs id="SvgjsDefs1009"></defs><path id="SvgjsPath1010" d="M1106 488L1106 486L1110 486L1110 482L1112 482L1112 486L1116 486L1116 488L1112 488L1112 492L1110 492L1110 488Z " fill="#c4c4c4" transform="matrix(1,0,0,1,-1106,-478)"></path><path id="SvgjsPath1011" d="M1127 481L1127 478L1142 478L1142 481ZM1127 488L1127 485L1142 485L1142 488ZM1121 481L1121 478L1124 478L1124 481ZM1121 488L1121 485L1124 485L1124 488ZM1121 495L1121 492L1124 492L1124 495ZM1127 495L1127 492L1142 492L1142 495Z " fill="#c4c4c4" transform="matrix(1,0,0,1,-1106,-478)"></path></svg>