<svg id="SvgjsSvg1000" xmlns="http://www.w3.org/2000/svg" version="1.1" xmlns:xlink="http://www.w3.org/1999/xlink" xmlns:svgjs="http://svgjs.com/svgjs" width="42" height="42"><defs id="SvgjsDefs1001"></defs><path id="SvgjsPath1007" d="M844 394.999L848.309 398.79200000000003L853.789 397.377L855.8149999999999 402.709L861.3359999999999 403.965L860.6159999999999 409.613L864.9109999999998 413.254L861.6089999999998 417.92600000000004L863.6959999999998 423.11600000000004L858.5689999999998 425.74100000000004L857.9679999999998 431.29200000000003L852.1909999999998 431.26800000000003L849.0409999999998 435.90900000000005L843.9359999999998 433.2420000000001L838.9589999999998 435.90900000000005L835.6959999999998 431.21000000000004L830.0309999999998 431.29200000000003L829.3589999999998 425.63800000000003L824.3039999999999 423.11600000000004L826.3749999999999 417.80100000000004L823.0889999999999 413.254L827.429 409.49600000000004L826.664 403.96500000000003L832.28 402.62500000000006L834.211 397.37700000000007L839.815 398.76200000000006Z " fill="#ec1c23" transform="matrix(1,0,0,1,-823,-394)"></path></svg>