<svg id="SvgjsSvg1012" xmlns="http://www.w3.org/2000/svg" version="1.1" xmlns:xlink="http://www.w3.org/1999/xlink" xmlns:svgjs="http://svgjs.com/svgjs" width="22" height="13"><defs id="SvgjsDefs1013"></defs><path id="SvgjsPath1014" d="M259.929 2949.15L268.99805999999995 2939.95035C269.05027999999993 2939.86495 269.11292 2939.78422 269.186 2939.71C269.44872999999995 2939.43856 269.79488 2939.30614 270.13899999999995 2939.31273C270.48311999999993 2939.30613 270.82926999999995 2939.4385500000003 271.0919999999999 2939.71C271.16549999999995 2939.7845 271.2284699999999 2939.86558 271.28090999999995 2939.95133L280.34899999999993 2949.15C280.86099999999993 2949.67 280.86099999999993 2950.52 280.34899999999993 2951.04C279.83599999999996 2951.56 279.00499999999994 2951.56 278.4919999999999 2951.04L270.1389999999999 2942.55775L261.7859999999999 2951.04C261.2729999999999 2951.56 260.4419999999999 2951.56 259.92899999999986 2951.04C259.41699999999986 2950.52 259.41699999999986 2949.67 259.92899999999986 2949.15Z " fill="#c3c3c3" transform="matrix(1,0,0,1,-259,-2939)"></path></svg>