<svg id="SvgjsSvg1011" xmlns="http://www.w3.org/2000/svg" version="1.1" xmlns:xlink="http://www.w3.org/1999/xlink" xmlns:svgjs="http://svgjs.com/svgjs" width="23" height="22"><defs id="SvgjsDefs1012"></defs><path id="SvgjsPath1013" d="M666.688 705.94C667.273 705.354 667.273 704.4040000000001 666.688 703.8190000000001C666.102 703.2330000000001 665.152 703.2330000000001 664.566 703.8190000000001L648.303 720.0820000000001C647.717 720.6680000000001 647.717 721.618 648.303 722.2030000000001C648.889 722.7890000000001 649.838 722.7890000000001 650.424 722.2030000000001ZM669 718.5C669 715.462 666.537 713 663.5 713C660.462 713 658 715.462 658 718.5C658 721.537 660.462 724 663.5 724C666.537 724 669 721.537 669 718.5ZM657 707.5C657 704.462 654.537 702 651.5 702C648.462 702 646 704.462 646 707.5C646 710.537 648.462 713 651.5 713C654.537 713 657 710.537 657 707.5ZM666 718.5C666 719.88 664.88 721 663.5 721C662.119 721 661 719.88 661 718.5C661 717.119 662.119 716 663.5 716C664.88 716 666 717.119 666 718.5ZM654 707.5C654 708.881 652.881 710 651.5 710C650.119 710 649 708.881 649 707.5C649 706.119 650.119 705 651.5 705C652.881 705 654 706.119 654 707.5Z " fill="#0774c4" transform="matrix(1,0,0,1,-646,-702)"></path></svg>