<svg id="SvgjsSvg1008" xmlns="http://www.w3.org/2000/svg" version="1.1" xmlns:xlink="http://www.w3.org/1999/xlink" xmlns:svgjs="http://svgjs.com/svgjs" width="18" height="22"><defs id="SvgjsDefs1009"></defs><path id="SvgjsPath1010" d="M1092.88 411.725C1091.95 411.725 1090.73 411.64000000000004 1089.98 411.58500000000004L1089.98 413.478L1097.56 413.478C1098.09 413.478 1098.52 413.897 1098.52 414.41200000000003C1098.52 414.927 1098.09 415.345 1097.56 415.345L1089.98 415.345L1089.98 419.45200000000006C1089.98 419.73100000000005 1089.77 420.01200000000006 1089.45 420.01200000000006L1087.89 420.01200000000006C1087.6000000000001 420.01200000000006 1087.3600000000001 419.76000000000005 1087.3600000000001 419.45200000000006L1087.3600000000001 415.345L1084.98 415.345C1084.44 415.345 1084.01 414.927 1084.01 414.41200000000003C1084.01 413.89700000000005 1084.44 413.478 1084.98 413.478L1087.3600000000001 413.478L1087.3600000000001 411.262L1084.98 411.262C1084.44 411.262 1084.01 410.844 1084.01 410.329C1084.01 409.813 1084.44 409.396 1084.98 409.396L1087.3600000000001 409.396L1087.3600000000001 399.937C1087.3600000000001 399.546 1087.6200000000001 399.29400000000004 1088.0600000000002 399.238C1089.3100000000002 399.098 1091.1900000000003 399.013 1092.88 399.013C1097.5800000000002 399.013 1101.0100000000002 400.58099999999996 1101.0100000000002 405.089L1101.0100000000002 405.453C1101.0100000000002 410.128 1097.5800000000002 411.72499999999997 1092.88 411.72499999999997ZM1098.36 405.089C1098.36 402.261 1096.62 401.169 1092.8799999999999 401.169C1091.9799999999998 401.169 1090.6699999999998 401.22499999999997 1089.9799999999998 401.281L1089.9799999999998 409.426C1090.0699999999997 409.442 1090.1599999999999 409.45799999999997 1090.2399999999998 409.497C1090.9699999999998 409.53000000000003 1092.2099999999998 409.59700000000004 1092.8799999999999 409.59700000000004C1096.86 409.59700000000004 1098.36 408.365 1098.36 405.45300000000003Z " fill="#b5b5b5" transform="matrix(1,0,0,1,-1084,-399)"></path></svg>