<svg id="SvgjsSvg1011" xmlns="http://www.w3.org/2000/svg" version="1.1" xmlns:xlink="http://www.w3.org/1999/xlink" xmlns:svgjs="http://svgjs.com/svgjs" width="23" height="18"><defs id="SvgjsDefs1012"></defs><path id="SvgjsPath1013" d="M548.484 1055.67C548.292 1055.48 548.292 1055.2 548.484 1055.02L554.118 1049.91L550.8870000000001 1049.91C550.6110000000001 1049.91 550.3760000000001 1049.71 550.3760000000001 1049.45C550.3760000000001 1049.2 550.6110000000001 1049 550.8870000000001 1049L555.355 1049C555.433 1049 555.523 1049.01 555.589 1049.05L555.595 1049.05L555.631 1049.07L555.692 1049.11L555.692 1049.12L555.697 1049.1299999999999L555.727 1049.1499999999999C555.746 1049.1699999999998 555.751 1049.1799999999998 555.775 1049.1999999999998L555.799 1049.2299999999998L555.799 1049.2399999999998C555.8349999999999 1049.2999999999997 555.848 1049.3799999999999 555.848 1049.4499999999998L555.848 1053.4899999999998C555.848 1053.7499999999998 555.631 1053.9599999999998 555.3549999999999 1053.9599999999998C555.0669999999999 1053.9599999999998 554.8389999999999 1053.7499999999998 554.8389999999999 1053.4899999999998L554.8389999999999 1050.5699999999997L549.2049999999999 1055.6699999999996C549.001 1055.8499999999997 548.6829999999999 1055.8499999999997 548.4839999999999 1055.6699999999996ZM553.781 1067C554.256 1067 554.6339999999999 1066.64 554.6339999999999 1066.22L554.6339999999999 1062.51L558.7299999999999 1062.51C559.199 1062.51 559.5709999999999 1062.17 559.5709999999999 1061.74L559.5709999999999 1058.04L563.6729999999999 1058.04C564.1479999999999 1058.04 564.5199999999999 1057.69 564.5199999999999 1057.27L564.5199999999999 1053.56L569.1499999999999 1053.56C569.6249999999999 1053.56 569.9969999999998 1053.21 569.9969999999998 1052.8C569.9969999999998 1052.37 569.6249999999999 1052.03 569.1499999999999 1052.03L563.6729999999999 1052.03C563.2099999999999 1052.03 562.8379999999999 1052.37 562.8379999999999 1052.8L562.8379999999999 1056.5L558.7299999999999 1056.5C558.262 1056.5 557.8829999999999 1056.85 557.8829999999999 1057.27L557.8829999999999 1060.98L553.781 1060.98C553.3249999999999 1060.98 552.9409999999999 1061.32 552.9409999999999 1061.74L552.9409999999999 1065.45L548.8449999999999 1065.45C548.3699999999999 1065.45 547.992 1065.8 547.992 1066.22C547.992 1066.64 548.37 1067 548.8449999999999 1067Z " fill="#a1a1a1" transform="matrix(1,0,0,1,-547,-1049)"></path></svg>