<svg id="SvgjsSvg1000" xmlns="http://www.w3.org/2000/svg" version="1.1" xmlns:xlink="http://www.w3.org/1999/xlink" xmlns:svgjs="http://svgjs.com/svgjs" width="21" height="22"><defs id="SvgjsDefs1001"></defs><path id="SvgjsPath1007" d="M558.971 1149.49L559.002 1149.46C559.9029999999999 1148.55 561.149 1148 562.519 1148C563.451 1148 564.327 1148.26 565.079 1148.7C565.8299999999999 1149.15 566.459 1149.8 566.891 1150.5800000000002C566.958 1150.69 567.005 1150.8300000000002 567.005 1150.9700000000003C567.005 1151.3700000000003 566.675 1151.6900000000003 566.273 1151.6900000000003L562.936 1151.6900000000003L562.5550000000001 1152.3400000000004L562.1840000000001 1152.9700000000005L562.5550000000001 1153.6200000000006L562.936 1154.2700000000007L566.273 1154.2700000000007C566.397 1154.2700000000007 566.51 1154.3000000000006 566.619 1154.3500000000006C566.969 1154.5500000000006 567.102 1154.9800000000007 566.912 1155.3300000000006C566.485 1156.1300000000006 565.846 1156.8000000000006 565.0790000000001 1157.2500000000007C564.3270000000001 1157.7000000000007 563.451 1157.9500000000007 562.5190000000001 1157.9500000000007C562.2720000000002 1157.9500000000007 562.0090000000001 1157.9400000000007 561.7570000000002 1157.9000000000008L561.7210000000002 1157.9000000000008C561.6080000000002 1157.8800000000008 561.5050000000002 1157.8600000000008 561.3860000000002 1157.8300000000008L556.3290000000002 1162.8900000000008C556.3550000000001 1163.0000000000007 556.3760000000002 1163.1100000000008 556.4060000000002 1163.2200000000007C556.4380000000002 1163.4900000000007 556.4630000000002 1163.7500000000007 556.4630000000002 1164.0200000000007L556.4580000000002 1164.0200000000007C556.4580000000002 1165.3700000000006 555.9220000000003 1166.6000000000006 555.0470000000003 1167.5100000000007L555.0010000000002 1167.5400000000006C554.1050000000002 1168.4500000000007 552.8530000000002 1169.0100000000007 551.4830000000002 1169.0100000000007C550.5520000000001 1169.0100000000007 549.6760000000002 1168.7500000000007 548.9240000000002 1168.3000000000006C548.1720000000003 1167.8400000000006 547.5440000000002 1167.2000000000007 547.1170000000002 1166.4300000000007C547.0440000000002 1166.3100000000009 547.0030000000002 1166.1800000000007 547.0030000000002 1166.0400000000006C547.0030000000002 1165.6400000000006 547.3270000000001 1165.3100000000006 547.7240000000002 1165.3100000000006L551.0710000000001 1165.3100000000006C551.3190000000002 1164.8800000000006 551.5760000000001 1164.4500000000007 551.8230000000001 1164.0200000000007L551.4730000000001 1163.4200000000008L551.4420000000001 1163.3800000000008L551.0710000000001 1162.7300000000007L547.7240000000002 1162.7300000000007C547.6110000000001 1162.7300000000007 547.4980000000002 1162.7100000000007 547.3840000000001 1162.6400000000008C547.0440000000001 1162.4600000000007 546.9000000000001 1162.020000000001 547.0860000000001 1161.6600000000008C547.5180000000001 1160.8800000000008 548.1570000000002 1160.2100000000007 548.9240000000001 1159.7400000000007C549.676 1159.3000000000006 550.5520000000001 1159.0400000000006 551.4830000000001 1159.0400000000006C551.7410000000001 1159.0400000000006 552.008 1159.0600000000006 552.2760000000001 1159.1100000000006C552.3900000000001 1159.1200000000006 552.503 1159.1400000000006 552.6110000000001 1159.1700000000005L557.6740000000001 1154.1100000000006C557.6530000000001 1153.9900000000007 557.6320000000001 1153.9000000000005 557.6010000000001 1153.7800000000007L557.6110000000001 1153.7800000000007L557.6010000000001 1153.7700000000007C557.3640000000001 1152.2300000000007 557.8590000000002 1150.6200000000006 558.9710000000001 1149.4900000000007ZM559.172 1154.1C559.259 1154.36 559.177 1154.6499999999999 558.9920000000001 1154.84L559.0020000000001 1154.84L553.3480000000001 1160.49C553.1210000000001 1160.72 552.8120000000001 1160.76 552.5440000000001 1160.65C552.3800000000001 1160.6000000000001 552.2250000000001 1160.5600000000002 552.0500000000001 1160.5300000000002C551.8750000000001 1160.5000000000002 551.6890000000001 1160.4900000000002 551.4830000000001 1160.4900000000002C550.8240000000001 1160.4900000000002 550.196 1160.6600000000003 549.666 1160.9900000000002C549.522 1161.0800000000002 549.3820000000001 1161.1700000000003 549.249 1161.2800000000002L551.4830000000001 1161.2800000000002C551.772 1161.2800000000002 552.0240000000001 1161.4600000000003 552.142 1161.6900000000003L552.6990000000001 1162.6400000000003L552.719 1162.7000000000003L553.2760000000001 1163.6700000000003C553.4100000000001 1163.8900000000003 553.3990000000001 1164.1800000000003 553.2760000000001 1164.3700000000003C552.8890000000001 1165.0600000000004 552.503 1165.7300000000002 552.1170000000001 1166.4000000000003C551.9780000000001 1166.6400000000003 551.7410000000001 1166.7600000000002 551.4830000000001 1166.7600000000002L549.249 1166.7600000000002C549.3820000000001 1166.88 549.522 1166.9700000000003 549.666 1167.0600000000002C550.196 1167.38 550.8140000000001 1167.5600000000002 551.4830000000001 1167.5600000000002C552.4620000000001 1167.5600000000002 553.3370000000001 1167.16 553.9760000000001 1166.5200000000002L554.0070000000001 1166.4800000000002C554.6300000000001 1165.8500000000001 555.0160000000001 1164.9900000000002 555.0160000000001 1164.0200000000002C555.0160000000001 1163.8200000000002 554.9960000000001 1163.63 554.965 1163.4600000000003C554.9440000000001 1163.2600000000002 554.892 1163.0800000000002 554.836 1162.9000000000003C554.743 1162.6400000000003 554.82 1162.3500000000004 555.006 1162.1600000000003L560.66 1156.5100000000002C560.866 1156.3000000000002 561.16 1156.2400000000002 561.4169999999999 1156.3300000000002C561.5869999999999 1156.4 561.7669999999999 1156.44 561.958 1156.4600000000003L561.968 1156.4600000000003C562.1379999999999 1156.5000000000002 562.329 1156.5100000000002 562.519 1156.5100000000002C563.194 1156.5100000000002 563.812 1156.3300000000002 564.337 1156.0200000000002C564.481 1155.9300000000003 564.62 1155.8300000000002 564.754 1155.7200000000003L562.514 1155.7200000000003C562.225 1155.7200000000003 561.968 1155.5400000000002 561.855 1155.2900000000002L561.304 1154.3400000000001L560.732 1153.3400000000001C560.5989999999999 1153.1100000000001 560.5989999999999 1152.8300000000002 560.732 1152.6100000000001L561.304 1151.6100000000001L561.304 1151.6000000000001L561.891 1150.6000000000001C562.02 1150.3700000000001 562.2669999999999 1150.2400000000002 562.514 1150.2400000000002L562.514 1150.2300000000002L564.754 1150.2300000000002C564.62 1150.1300000000003 564.481 1150.0300000000002 564.337 1149.9400000000003C563.812 1149.6300000000003 563.184 1149.4500000000003 562.519 1149.4500000000003C561.546 1149.4500000000003 560.665 1149.8500000000004 560.027 1150.4800000000002L560.0010000000001 1150.5100000000002C559.2180000000001 1151.3200000000002 558.868 1152.4500000000003 559.0330000000001 1153.5500000000002C559.0330000000001 1153.5500000000002 559.1560000000002 1154.0600000000002 559.1720000000001 1154.1000000000001Z " fill="#9c9c9c" transform="matrix(1,0,0,1,-547,-1148)"></path></svg>