<?xml version="1.0" encoding="utf-8"?>
<svg xmlns="http://www.w3.org/2000/svg"
	xmlns:xlink="http://www.w3.org/1999/xlink"
	width="37px" height="50px" viewBox="0 0 37 50">
<path fillRule="evenodd" d="M 18.16 46.16C 19.65 45.49 23.69 40.81 27.22 32.1 27.81 30.62 28.42 29.16 29.02 27.74 31.08 22.83 33.2 17.76 33.2 15.34 33.2 12.96 31.43 10.89 28.77 8.51 25.23 5.34 21.96 3.8 18.78 3.8 15.33 3.8 11.49 5.22 8.5 7.6 5.51 9.98 3.8 13.01 3.8 15.91 3.8 18.81 5.86 25.42 9.18 33.16 12.72 41.41 16.71 45.63 18.16 46.16M 18.22 50C 14.56 50 9.39 43.27 5.69 34.66 2.64 27.54-0 19.88-0 15.91-0 11.5 2.52 7.5 6.14 4.62 9.73 1.77 14.4-0 18.78-0 23.56-0 27.77 2.52 31.31 5.68 34.29 8.35 37 11.32 37 15.34 37 19.32 33.67 26.26 30.74 33.52 27.2 42.28 21.86 50 18.22 50 18.22 50 18.22 50 18.22 50Z" fill="rgb(27,37,35)"/><path fillRule="evenodd" d="M 17.67 26.41C 17.86 26.41 18.03 26.37 18.18 26.3 22.69 24.15 24.84 22.57 24.58 21.59 23.54 17.75 21.76 15.79 19.26 15.76 16.42 15.76 14.86 18.97 14.05 21.67 13.81 22.44 14.15 23.6 14.89 24.6 15.68 25.67 16.83 26.41 17.67 26.41M 17.67 29.06C 14.14 29.06 10.44 24.46 11.51 20.9 12.84 16.48 15.32 13.11 19.26 13.11 19.28 13.11 19.3 13.11 19.32 13.11 23.64 13.15 26.01 16.75 27.13 20.9 27.91 23.78 25.16 25.91 19.32 28.69 18.79 28.94 18.23 29.06 17.67 29.06 17.67 29.06 17.67 29.06 17.67 29.06Z" fill="rgb(13,21,19)"/></svg>