<?xml version="1.0" standalone="no"?>
<!DOCTYPE svg PUBLIC "-//W3C//DTD SVG 1.1//EN" "http://www.w3.org/Graphics/SVG/1.1/DTD/svg11.dtd" >
<svg>
<metadata>
Created by FontForge 20120731 at Sat Mar  5 16:42:55 2016
 By www
Copyright (c) 2011 by Hipopotam Studio. All rights reserved.
</metadata>
<defs>
<font id="MrsWhiteW00-Regular" horiz-adv-x="530" >
  <font-face 
    font-family="MrsWhiteW00-Regular"
    font-weight="400"
    font-stretch="normal"
    units-per-em="1000"
    panose-1="1 0 0 0 0 0 0 0 0 0"
    ascent="800"
    descent="-200"
    x-height="444"
    cap-height="813"
    bbox="-265 -455 1320.27 1007"
    underline-thickness="50"
    underline-position="-125"
    unicode-range="U+0020-2212"
  />
<missing-glyph horiz-adv-x="549" 
d="M85 0q-17 0 -28.5 11.5t-11.5 27.5v762q0 17 11.5 28.5t28.5 11.5h373q17 0 28.5 -11.5t11.5 -28.5v-762q0 -16 -11.5 -27.5t-28.5 -11.5h-373zM419 79v683h-295v-683h295z" />
    <glyph glyph-name="b_ae.liga" unicode="b&#xe6;" horiz-adv-x="1035" 
d="M1083 226q33 -11 21 -42q-9 -26 -19.5 -45.5t-25.5 -39.5q-30 -39 -70 -62q-55 -34 -124 -34q-11 0 -23 1t-23 3q-50 9 -85 40q-13 -11 -29 -20q-42 -22 -112 -23h-3q-45 0 -73 17t-42 34q-23 27 -32 63.5t-2 72.5q7 33 26 60q19 25 48 40q32 16 72 16t84 -15q2 17 5 32
t8 29q-12 17 -27 26t-29.5 13t-27 3.5t-19.5 -1.5q-17 -2 -37.5 -15t-43.5 -28q-17 -11 -35 -23t-38 -22t-41.5 -16t-45.5 -6h-1q-1 -1 -2 -1q14 -63 -17 -157q-19 -60 -61.5 -93t-102.5 -32h-3q-37 2 -66.5 18t-49.5 48q-36 54 -36 146q0 43 -0.5 76.5t-0.5 60.5t0.5 48.5
t0.5 39.5q1 32 1.5 65.5t1 61.5t1 46t0.5 19q0 17 11 23.5t28 6.5q16 0 28 -7t12 -24q0 -1 -0.5 -19t-1 -46t-1 -62t-1.5 -66q-1 -18 -1.5 -39t-0.5 -47.5t0.5 -59.5t0.5 -76q2 -71 24 -105q17 -29 54 -29q65 -1 89 70q15 47 16 79t-4 47q-3 9 -11 17t-18 15t-19 12t-15 8
q0 1 -1 1q-14 8 -15.5 21.5t5.5 28.5t18 22t26 0q6 -3 18.5 -8l27.5 -11t31 -11t30 -8q31 -2 60.5 14.5t60.5 38.5q26 18 54 34.5t59 21.5q17 2 42.5 1.5t54.5 -11.5q33 -13 58 -36q28 34 65 48q44 16 81 -4q41 -22 52 -65q15 -54 -23 -118q-32 -52 -105 -86
q-13 -5 -24.5 -9.5t-19.5 -7.5q4 -29 17 -54q22 -38 65 -45q69 -12 122.5 19.5t81.5 106.5q5 16 18.5 18.5t28.5 -3.5zM816 400q-12 -5 -27 -19.5t-26 -40.5t-16 -73q23 9 47.5 24.5t37.5 36.5q20 34 15 56q-3 10 -14 17q-2 1 -6 1q-5 0 -11 -2zM592 83q43 1 63 8t34 21
q-11 24 -15 49t-6 48q-35 16 -66 19t-52 -8q-24 -11 -32 -45q-3 -15 0.5 -34.5t16.5 -34.5q20 -24 57 -23z" />
    <glyph glyph-name="b_x.liga" unicode="bx" horiz-adv-x="973" 
d="M1022 226q15 -6 22 -18t2 -28q-8 -21 -21.5 -53t-34.5 -61q-26 -37 -57 -53q-26 -14 -55 -14q-17 0 -32 4q-21 6 -38.5 20t-33.5 33.5t-29.5 43t-26.5 47.5q-4 -7 -8 -13q-22 -38 -48 -74.5t-61 -50.5q-24 -9 -48 -9q-27 0 -52 12q-23 12 -39.5 31t-28 40t-18.5 41
t-10 32q-4 16 4.5 26.5t24.5 15.5q16 4 29.5 -1t17.5 -21q4 -13 9.5 -27.5t12.5 -27.5t15.5 -23.5t18.5 -15.5q5 -2 13 -3.5t22 3.5q4 2 11.5 7.5t19.5 22.5q11 14 20.5 29.5t19.5 32.5q5 8 10 16.5t10 16.5q3 5 6 9.5t6 9.5q-34 57 -62 91q-10 11 -17 18t-12 11t-9 6
q-20 6 -36.5 0.5t-42.5 -20.5q-28 -16 -65.5 -31.5t-92.5 -15.5h-3l-1 -1q12 -63 -17 -157q-20 -60 -62.5 -93t-102.5 -32h-2q-77 3 -117 66q-34 54 -36 146q0 43 -0.5 76.5t-0.5 60.5t0.5 48.5t0.5 39.5q1 32 2 65.5t1.5 61.5t0.5 46v19q0 17 11 23.5t28 6.5t28.5 -7
t11.5 -24q0 -1 -0.5 -19t-1 -46t-1 -62t-1.5 -66q0 -18 -0.5 -39t-0.5 -47.5v-59.5t1 -76q0 -70 23 -105q20 -29 54 -29q66 -2 89 70q15 47 16 79t-4 47q-4 13 -21 26l-2 2q-11 8 -22 14.5t-17 9.5l-1 1q-15 8 -16.5 21.5t5.5 28.5t18 22t26 0q7 -3 19.5 -8.5t28.5 -11.5
t32.5 -11t30.5 -8q42 0 69.5 12t52.5 26q28 16 62 27.5t79 -1.5q35 -11 74 -59q12 -14 24.5 -31.5t25.5 -37.5q18 28 36 55t33 50t27 40.5t20 28.5q10 13 24 14.5t28 -8.5t17.5 -24.5t-5.5 -27.5q-8 -11 -22 -31.5t-32 -47.5t-39 -59t-42 -65q2 -5 4.5 -9t4.5 -8l24 -46
t26 -42q17 -24 27 -31.5t14 -8.5q3 -1 8.5 -1.5t13 2t17 10t20.5 22.5q17 23 28 50t18 46q6 15 20.5 19t29.5 -1z" />
    <glyph glyph-name="b_z.liga" unicode="b&#x7a;" horiz-adv-x="779" 
d="M836 223q16 -8 13.5 -23.5t-9.5 -30.5q-24 -51 -52 -82.5t-58 -49.5t-61 -24t-61 -6q-42 0 -82.5 9.5t-73.5 22.5t-55 25t-26 17q-6 7 -7.5 17t1.5 19.5t11.5 18t21.5 11.5q58 15 99 54.5t75 91.5q-9 -4 -26 -6.5t-37 -4.5t-39 -3t-31 -1q-17 0 -46 0.5t-56 4.5
q14 -65 -17 -157q-19 -61 -61.5 -93.5t-102.5 -31.5h-3q-76 2 -116 65q-36 54 -36 147q0 43 -0.5 76.5t-0.5 60.5t0.5 48.5t0.5 39.5q1 31 1.5 64.5t1 61.5t1 46t0.5 19q0 17 11 24t28 7q16 -1 28 -8t12 -23q0 -1 -0.5 -19.5t-1 -46.5t-1 -61.5t-1.5 -65.5q-1 -18 -1.5 -39
t-0.5 -47.5t0.5 -60t0.5 -75.5q2 -71 24 -105q17 -28 54 -30q65 0 89 71q15 47 16 78.5t-4 46.5q-3 9 -11.5 17t-18 14.5t-19 12t-14.5 9.5q-13 10 -16 21.5t5 28.5q7 15 18 22t26 0q7 -3 23 -9.5t34 -13t36.5 -11.5t32.5 -6q7 0 17.5 -0.5t20 -0.5h16.5h8q24 0 47 1
q20 1 42 2.5t40 4.5q28 5 51 22t42 36q10 10 23.5 11.5t25.5 -5.5l2 -1q14 -7 20 -22.5t-1 -29.5q-20 -42 -45 -88t-60 -89q-19 -23 -40 -42t-42 -35q-7 -5 -14 -9.5t-14 -8.5q41 -15 79.5 -22.5t74.5 1.5t69 38.5t63 89.5q8 15 21 18t36 -8z" />
    <glyph glyph-name="c_z.liga" unicode="c&#x7a;" horiz-adv-x="826" 
d="M878 227q15 -8 19.5 -23.5t-3.5 -26.5q-22 -30 -48 -60.5t-56 -55.5t-64 -42t-72 -19q-20 -1 -46.5 7t-55.5 21.5t-58 31t-53 35.5q-8 6 -10.5 16t-0.5 20.5t8 19.5t17 13q54 20 97 59.5t74 85.5q-11 -4 -21.5 -6.5t-20.5 -2.5q-4 -1 -12 -1q-45 0 -107 20q-5 2 -8.5 2.5
t-6.5 2.5q-22 -87 -42.5 -142.5t-43.5 -91.5q-28 -42 -63 -63t-84 -26q-5 0 -10.5 -0.5t-10.5 -0.5q-69 0 -118 44q-42 38 -62 106q-10 32 -13 62t-3 50q-2 85 30 139q18 32 40 47t39 20q20 6 42 7.5t43 -3.5q51 -11 85 -51q11 -12 7.5 -26t-16.5 -25q-12 -11 -26 -11.5
t-25 11.5q-18 22 -43 25t-44 -2q-20 -6 -37 -36.5t-16 -93.5q0 -54 14 -96.5t38 -64.5q29 -26 79 -23q31 3 51 15.5t37 38.5q21 32 42.5 95t43.5 154q2 8 4 12q7 14 22 20t30 -1q8 -4 24.5 -10.5t36 -12.5t40 -9.5t38.5 -2.5q10 1 25 8t31.5 18t33 25t30.5 29
q11 10 24.5 11.5t24.5 -6.5l2 -1q15 -7 20.5 -22t-1.5 -30q-20 -43 -45 -89.5t-58 -89.5q-14 -18 -27.5 -33t-28.5 -28t-32.5 -24t-39.5 -22q4 -4 17 -12t29.5 -16t34 -14t30.5 -6q18 0 41 11.5t47 31t47 45t42 52.5q9 13 20.5 17.5t31.5 -6.5z" />
    <glyph glyph-name="d_z.liga" unicode="d&#x7a;" horiz-adv-x="920" 
d="M971 237q16 -9 19.5 -23.5t-7.5 -31.5q-19 -30 -39.5 -62t-44.5 -58.5t-52.5 -44t-62.5 -17.5q-54 0 -104 19t-94 50q-23 16 -31 30t-9 25q-2 22 6.5 34t23.5 17q30 8 54 23.5t43.5 36t35.5 44.5t30 50q-20 -10 -41.5 -18t-41.5 -11q-10 -2 -20 -2.5t-21 -0.5
q-25 0 -49.5 2.5t-44.5 6.5q-2 -32 -6 -73t-13 -81q-12 -56 -31 -88q-28 -49 -74 -57q-6 -1 -11.5 -1.5t-10.5 -0.5q-23 0 -38.5 6.5t-25.5 14.5q-14 12 -20 22q-5 -5 -10 -8.5t-11 -7.5q-47 -31 -104 -31h-11q-67 5 -110 71q-37 60 -39 150q-2 60 17 111.5t54 86.5
q48 47 109 45q36 -2 70 -21q1 22 4 56t6 66t5 56.5t2 26.5q2 17 13.5 25.5t28.5 6.5t27.5 -12t8.5 -27l-2 -26.5t-5 -61.5t-6 -70.5t-4 -53.5q-1 -19 -2 -53.5t-1 -71v-67.5t1 -44q1 -11 1.5 -26t3 -30t8 -28.5t15.5 -21.5q2 -1 7 -3t17 0q7 1 18.5 18.5t22.5 65.5
q9 41 12.5 86t5.5 75v18t3 17q4 16 18 24t30 4q9 -3 27 -7t39.5 -7t43.5 -4t40 2q16 3 38 12t44 21t40.5 24.5t27.5 21.5t24 10.5t28 -7.5q14 -11 19.5 -23t-2.5 -27q-4 -8 -7.5 -17t-8.5 -19q-17 -38 -37.5 -79t-48.5 -79q-26 -34 -55 -55.5t-62 -37.5q11 -8 37.5 -24
t68.5 -24q21 -4 38.5 2.5t32.5 18.5t27 26.5t21 27.5q4 6 10.5 16.5t14 22t14.5 23t12 19.5q9 15 24 14.5t27 -7.5zM159 80q22 -1 39.5 4.5t29.5 14t20 19t11 18.5q-2 14 -3 24.5t-2 24.5q-1 10 -1.5 28t-0.5 40t0.5 46.5t0.5 47.5q-9 10 -28.5 24t-41.5 15q-17 1 -30 -6.5
t-21 -15.5q-23 -23 -36 -60t-12 -81q2 -67 28 -109q6 -9 18 -21t29 -13z" />
    <glyph glyph-name="d_zacute.liga" unicode="d&#x17a;" horiz-adv-x="920" 
d="M971 237q16 -9 19.5 -23.5t-7.5 -31.5q-19 -30 -39.5 -62t-44.5 -58.5t-52.5 -44t-62.5 -17.5q-54 0 -104 19t-94 50q-23 16 -31 30t-9 25q-2 22 6.5 34t23.5 17q30 8 54 23.5t43.5 36t35.5 44.5t30 50q-20 -10 -41.5 -18t-41.5 -11q-10 -2 -20 -2.5t-21 -0.5
q-25 0 -49.5 2.5t-44.5 6.5q-2 -32 -6 -73t-13 -81q-12 -56 -31 -88q-28 -49 -74 -57q-6 -1 -11.5 -1.5t-10.5 -0.5q-23 0 -38.5 6.5t-25.5 14.5q-14 12 -20 22q-5 -5 -10 -8.5t-11 -7.5q-47 -31 -104 -31h-11q-67 5 -110 71q-37 60 -39 150q-2 60 17 111.5t54 86.5
q48 47 109 45q36 -2 70 -21q1 22 4 56t6 66t5 56.5t2 26.5q2 17 13.5 25.5t28.5 6.5t27.5 -12t8.5 -27l-2 -26.5t-5 -61.5t-6 -70.5t-4 -53.5q-1 -19 -2 -53.5t-1 -71v-67.5t1 -44q1 -11 1.5 -26t3 -30t8 -28.5t15.5 -21.5q2 -1 7 -3t17 0q7 1 18.5 18.5t22.5 65.5
q9 41 12.5 86t5.5 75v18t3 17q4 16 18 24t30 4q9 -3 27 -7t39.5 -7t43.5 -4t40 2q16 3 38 12t44 21t40.5 24.5t27.5 21.5t24 10.5t28 -7.5q14 -11 19.5 -23t-2.5 -27q-4 -8 -7.5 -17t-8.5 -19q-17 -38 -37.5 -79t-48.5 -79q-26 -34 -55 -55.5t-62 -37.5q11 -8 37.5 -24
t68.5 -24q21 -4 38.5 2.5t32.5 18.5t27 26.5t21 27.5q4 6 10.5 16.5t14 22t14.5 23t12 19.5q9 15 24 14.5t27 -7.5zM159 80q22 -1 39.5 4.5t29.5 14t20 19t11 18.5q-2 14 -3 24.5t-2 24.5q-1 10 -1.5 28t-0.5 40t0.5 46.5t0.5 47.5q-9 10 -28.5 24t-41.5 15q-17 1 -30 -6.5
t-21 -15.5q-23 -23 -36 -60t-12 -81q2 -67 28 -109q6 -9 18 -21t29 -13zM633 490q-12 0 -23 8q-14 10 -17 24t6 27l75 102q10 14 24 15t28 -9q13 -10 17.5 -24.5t-5.5 -27.5l-75 -102q-6 -8 -13.5 -10.5t-16.5 -2.5z" />
    <glyph glyph-name="d_zcaron.liga" unicode="d&#x17e;" horiz-adv-x="920" 
d="M971 237q16 -9 19.5 -23.5t-7.5 -31.5q-19 -30 -39.5 -62t-44.5 -58.5t-52.5 -44t-62.5 -17.5q-54 0 -104 19t-94 50q-23 16 -31 30t-9 25q-2 22 6.5 34t23.5 17q30 8 54 23.5t43.5 36t35.5 44.5t30 50q-20 -10 -41.5 -18t-41.5 -11q-10 -2 -20 -2.5t-21 -0.5
q-25 0 -49.5 2.5t-44.5 6.5q-2 -32 -6 -73t-13 -81q-12 -56 -31 -88q-28 -49 -74 -57q-6 -1 -11.5 -1.5t-10.5 -0.5q-23 0 -38.5 6.5t-25.5 14.5q-14 12 -20 22q-5 -5 -10 -8.5t-11 -7.5q-47 -31 -104 -31h-11q-67 5 -110 71q-37 60 -39 150q-2 60 17 111.5t54 86.5
q48 47 109 45q36 -2 70 -21q1 22 4 56t6 66t5 56.5t2 26.5q2 17 13.5 25.5t28.5 6.5t27.5 -12t8.5 -27l-2 -26.5t-5 -61.5t-6 -70.5t-4 -53.5q-1 -19 -2 -53.5t-1 -71v-67.5t1 -44q1 -11 1.5 -26t3 -30t8 -28.5t15.5 -21.5q2 -1 7 -3t17 0q7 1 18.5 18.5t22.5 65.5
q9 41 12.5 86t5.5 75v18t3 17q4 16 18 24t30 4q9 -3 27 -7t39.5 -7t43.5 -4t40 2q16 3 38 12t44 21t40.5 24.5t27.5 21.5t24 10.5t28 -7.5q14 -11 19.5 -23t-2.5 -27q-4 -8 -7.5 -17t-8.5 -19q-17 -38 -37.5 -79t-48.5 -79q-26 -34 -55 -55.5t-62 -37.5q11 -8 37.5 -24
t68.5 -24q21 -4 38.5 2.5t32.5 18.5t27 26.5t21 27.5q4 6 10.5 16.5t14 22t14.5 23t12 19.5q9 15 24 14.5t27 -7.5zM159 80q22 -1 39.5 4.5t29.5 14t20 19t11 18.5q-2 14 -3 24.5t-2 24.5q-1 10 -1.5 28t-0.5 40t0.5 46.5t0.5 47.5q-9 10 -28.5 24t-41.5 15q-17 1 -30 -6.5
t-21 -15.5q-23 -23 -36 -60t-12 -81q2 -67 28 -109q6 -9 18 -21t29 -13zM738 613q-9 -14 -21 -30.5t-23.5 -31.5t-20 -26.5t-10.5 -13.5q-8 -9 -14.5 -12t-14.5 -3q-19 0 -30 15l-75 102q-7 8 -7 20q0 14 12 26.5t29 12.5q9 0 16.5 -2.5t13.5 -10.5l41 -56l41 56
q6 8 13.5 10.5t16.5 2.5q17 0 28.5 -12.5t11.5 -26.5q0 -9 -7 -20z" />
    <glyph glyph-name="d_zdotaccent.liga" unicode="d&#x17c;" horiz-adv-x="920" 
d="M971 237q16 -9 19.5 -23.5t-7.5 -31.5q-19 -30 -39.5 -62t-44.5 -58.5t-52.5 -44t-62.5 -17.5q-54 0 -104 19t-94 50q-23 16 -31 30t-9 25q-2 22 6.5 34t23.5 17q30 8 54 23.5t43.5 36t35.5 44.5t30 50q-20 -10 -41.5 -18t-41.5 -11q-10 -2 -20 -2.5t-21 -0.5
q-25 0 -49.5 2.5t-44.5 6.5q-2 -32 -6 -73t-13 -81q-12 -56 -31 -88q-28 -49 -74 -57q-6 -1 -11.5 -1.5t-10.5 -0.5q-23 0 -38.5 6.5t-25.5 14.5q-14 12 -20 22q-5 -5 -10 -8.5t-11 -7.5q-47 -31 -104 -31h-11q-67 5 -110 71q-37 60 -39 150q-2 60 17 111.5t54 86.5
q48 47 109 45q36 -2 70 -21q1 22 4 56t6 66t5 56.5t2 26.5q2 17 13.5 25.5t28.5 6.5t27.5 -12t8.5 -27l-2 -26.5t-5 -61.5t-6 -70.5t-4 -53.5q-1 -19 -2 -53.5t-1 -71v-67.5t1 -44q1 -11 1.5 -26t3 -30t8 -28.5t15.5 -21.5q2 -1 7 -3t17 0q7 1 18.5 18.5t22.5 65.5
q9 41 12.5 86t5.5 75v18t3 17q4 16 18 24t30 4q9 -3 27 -7t39.5 -7t43.5 -4t40 2q16 3 38 12t44 21t40.5 24.5t27.5 21.5t24 10.5t28 -7.5q14 -11 19.5 -23t-2.5 -27q-4 -8 -7.5 -17t-8.5 -19q-17 -38 -37.5 -79t-48.5 -79q-26 -34 -55 -55.5t-62 -37.5q11 -8 37.5 -24
t68.5 -24q21 -4 38.5 2.5t32.5 18.5t27 26.5t21 27.5q4 6 10.5 16.5t14 22t14.5 23t12 19.5q9 15 24 14.5t27 -7.5zM159 80q22 -1 39.5 4.5t29.5 14t20 19t11 18.5q-2 14 -3 24.5t-2 24.5q-1 10 -1.5 28t-0.5 40t0.5 46.5t0.5 47.5q-9 10 -28.5 24t-41.5 15q-17 1 -30 -6.5
t-21 -15.5q-23 -23 -36 -60t-12 -81q2 -67 28 -109q6 -9 18 -21t29 -13zM692 546q-1 -21 -17 -35.5t-37 -13.5q-21 2 -35.5 17.5t-12.5 37.5q1 21 17 35.5t37 12.5q21 -1 35.5 -17t12.5 -37z" />
    <glyph glyph-name="f_ae.liga" unicode="f&#xe6;" horiz-adv-x="831" 
d="M878 228q15 -5 21.5 -15.5t0.5 -26.5q-10 -26 -20 -47.5t-26 -41.5q-31 -40 -69 -62q-28 -17 -59.5 -25.5t-64.5 -8.5q-11 0 -23 1t-24 3q-24 5 -45.5 14.5t-38.5 25.5q-13 -12 -30 -20q-40 -22 -112 -23h-3q-45 0 -72.5 17t-42.5 34q-23 27 -32 63.5t-1 72.5q6 34 26 60
q9 13 21.5 22.5t26.5 17.5q32 16 72 16t84 -15q2 17 5 32t7 29q-11 17 -20.5 27t-18.5 15t-18.5 6t-20.5 1q-10 0 -26.5 -8.5t-33.5 -18.5q-29 -16 -59 -32.5t-62 -30t-66.5 -23.5t-73.5 -12v-600q0 -17 -10.5 -26t-27.5 -9t-29 9t-12 26v603h-45q-17 0 -25.5 11.5
t-8.5 28.5t8.5 27t25.5 10h45v50v23v46.5t4 46.5q9 57 42 90q50 48 157 44q16 0 25.5 -10.5t8.5 -27.5t-11 -29t-26 -11q-72 3 -99 -22q-18 -18 -20.5 -52t-1.5 -74v-24v-51q29 1 57.5 9t56.5 20.5t55 27.5t53 30q25 14 49 25.5t50 11.5q39 0 67 -12t53 -40q28 32 64 46
q21 8 42 7t38 -11q40 -21 53 -65q15 -54 -23 -118q-32 -52 -106 -86q-12 -5 -23.5 -9.5t-20.5 -7.5q3 -15 7 -28.5t11 -25.5q20 -38 65 -45q69 -12 122 21.5t80 108.5q6 16 19.5 18.5t28.5 -3.5zM612 398q-12 -5 -27.5 -19.5t-26.5 -40.5q-5 -12 -9 -31t-6 -42q23 9 47 24.5
t37 36.5q21 34 15 56q-3 11 -13 17q-2 1 -7 1q-4 0 -10 -2zM387 81q44 1 64 8t34 21q-11 24 -15.5 49t-6.5 48q-35 16 -65.5 19t-51.5 -8q-26 -12 -32 -45q-3 -15 0.5 -34.5t16.5 -34.5q20 -25 56 -23z" />
    <glyph glyph-name="f_lslash.liga" unicode="f&#x142;" horiz-adv-x="586" 
d="M634 227q15 -5 22.5 -16.5t2.5 -27.5l-2 -6q-5 -16 -17 -45.5t-35 -58.5q-55 -72 -139 -72h-8t-8 1q-58 4 -98 38q-34 29 -50 78q-14 41 -16.5 78t-3.5 79v2h-200v-603q0 -17 -11 -26t-28 -9t-28.5 9t-11.5 26v603h-45q-17 0 -26.5 12t-9.5 29t9.5 27t26.5 10h45v66
q0 32 4 68.5t21 70.5q35 75 130 111q15 6 30 -0.5t20 -22.5q6 -15 -0.5 -30t-21.5 -20q-33 -12 -53.5 -29t-31.5 -38.5t-15 -49t-4 -60.5v-66h200v60v67v64v51h-20q-17 0 -25.5 13t-8.5 29q0 17 8.5 27t25.5 10h252q16 0 24.5 -10t8.5 -27q0 -16 -8.5 -29t-24.5 -13h-153
q0 -27 -0.5 -66t-0.5 -79t0.5 -76.5t0.5 -58.5v-25q0 -38 2 -77t13 -71t30 -47t51 -17h9q45 0 77 41q17 21 25.5 44.5t13.5 36.5q2 6 3 8q5 15 19 18.5t30 -1.5z" />
    <glyph glyph-name="f_x.liga" unicode="fx" horiz-adv-x="814" 
d="M276 355q15 29 34.5 46t43.5 26q14 5 27 6.5t24 1t19 -2t13 -2.5q28 -7 58.5 -37t68.5 -91q18 28 35.5 54.5t32.5 49.5t27 40.5t20 28.5q10 13 23.5 14t27.5 -9t18.5 -24t-5.5 -27q-8 -11 -22 -31.5t-32 -47.5t-39 -59.5t-42 -65.5l9 -17q12 -23 24.5 -45.5t26.5 -41.5
q17 -24 27 -31.5t14 -8.5q3 -1 8.5 -2t13 2t17 10.5t20.5 22.5q16 23 27.5 49t18.5 44q6 16 20 20t29 -1q15 -6 23 -18t2 -28q-8 -21 -21.5 -52t-34.5 -60q-28 -37 -57 -53q-25 -14 -56 -14q-8 0 -15.5 1t-15.5 3q-21 6 -38.5 20t-33.5 33.5t-29.5 43t-26.5 47.5
q-5 -7 -8 -14q-11 -18 -23 -37.5t-25.5 -36.5t-28.5 -30t-33 -20q-12 -5 -24 -7.5t-24 -2.5q-28 0 -51 13q-23 12 -39.5 31t-28 40t-18.5 41t-10 32q-5 16 4.5 27.5t25.5 16.5q16 4 28.5 -2t17.5 -22q3 -13 8.5 -27.5t12.5 -27.5t16 -23.5t19 -15.5q5 -3 13 -4t22 4
q3 2 10.5 7.5t19.5 21.5q11 14 20.5 30t19.5 32l20 34l12 19q-17 30 -32.5 52.5t-28.5 39.5q-19 23 -27.5 28t-9.5 5q-7 2 -16.5 3.5t-20.5 -2t-22.5 -16t-21.5 -37.5q-4 -10 -13 -17q-8 -7 -24 -7h-219v-505q0 -17 -11.5 -26t-28.5 -9t-28 9t-11 26v505h-45q-17 0 -26 11.5
t-9 28.5t9 27.5t26 10.5h45v73q0 23 0.5 47t4.5 46q9 57 42 90q49 48 157 45q34 -2 32 -37q-1 -17 -10 -30t-25 -12q-74 3 -99 -22q-18 -18 -21 -52t-3 -74v-74h196z" />
    <glyph glyph-name="f_z.liga" unicode="f&#x7a;" horiz-adv-x="623" 
d="M673 216q15 -6 19 -20.5t-4 -28.5q-21 -33 -46.5 -63t-55.5 -52.5t-63.5 -36.5t-70.5 -15t-72.5 6t-67 18t-56.5 25t-41 26q-7 5 -8.5 14.5t1 19t9 17.5t16.5 11q56 17 100.5 58t79.5 92l-12 -3q-17 -3 -37.5 -4.5t-40 -2t-35.5 -1t-23 -0.5h-33t-48.5 0.5t-54.5 0.5h-49
v-508q0 -16 -11 -24.5t-28 -8.5t-28.5 8.5t-11.5 24.5v508h-45q-17 0 -25.5 11.5t-8.5 27.5q0 17 8.5 28.5t25.5 11.5h45v49v27v44.5t4 43.5q9 56 42 89q51 49 157 45q17 -1 25.5 -11t7.5 -27t-10 -29t-26 -12q-74 3 -99 -22q-18 -17 -20.5 -48.5t-1.5 -71.5v-28v-49h219h2
q20 0 44.5 1.5t42.5 4.5q29 5 52.5 24.5t41.5 37.5q11 11 24.5 12.5t24.5 -6.5l2 -1q15 -7 20.5 -22t-1.5 -30q-20 -42 -45 -91t-60 -92q-25 -31 -52.5 -54t-59.5 -42q14 -6 31.5 -11.5t36.5 -8.5t38.5 -2.5t37.5 5.5q42 12 79.5 47.5t64.5 80.5q7 11 21.5 11.5t28.5 -4.5z
" />
    <glyph glyph-name="o_ae.liga" unicode="o&#xe6;" horiz-adv-x="1015" 
d="M1062 229q16 -5 22.5 -17.5t0.5 -27.5q-17 -51 -46 -88q-30 -37 -70 -62q-56 -33 -124 -33q-11 0 -23 1t-23 3q-49 7 -85 39q-13 -12 -30 -20q-41 -21 -111 -22h-3q-45 0 -73 17t-42 34q-23 27 -32 63.5t-2 71.5q8 35 26 61q21 26 48 39q32 16 72 16.5t84 -14.5
q2 17 5 32t8 29q-23 33 -52 45t-74 6q-48 -6 -86.5 -27.5t-76.5 -53.5q-4 -4 -8 -5q9 -36 7 -84q-1 -103 -50 -164q-52 -66 -142 -66h-4q-72 0 -118 48q-63 67 -60 213q3 92 50 150q23 28 58 45q21 9 41.5 12t43.5 3q87 -5 136 -69l9 -12q38 30 83.5 55t106.5 33
q110 15 177 -55q28 34 64 46q21 8 42 7t39 -10q41 -22 52 -65q15 -54 -23 -118q-32 -52 -105 -86q-13 -6 -24.5 -10t-19.5 -7q5 -32 17 -54q21 -38 65 -46q69 -11 122 21.5t81 107.5q5 16 18.5 20t28.5 -2zM296 234q0 27 -3.5 54.5t-15.5 50.5t-33 38.5t-55 17.5h-6
q-46 0 -73 -32q-30 -37 -31 -103q-3 -112 38 -155q22 -23 63 -25h2q51 0 80 36q16 20 24 50t10 68zM796 398q-12 -5 -27 -19.5t-26 -40.5t-16 -74q23 10 47.5 25.5t37.5 36.5q20 34 14 56q-3 10 -13 16q-4 2 -6 2q-5 0 -11 -2zM572 80q43 1 63 8.5t34 20.5q-11 24 -15 49.5
t-6 48.5q-35 15 -66 18.5t-52 -7.5q-25 -13 -32 -45q-3 -15 0.5 -34.5t16.5 -35.5q20 -23 57 -23z" />
    <glyph glyph-name="o_x.liga" unicode="ox" horiz-adv-x="913" 
d="M963 226q15 -6 22 -19t1 -28q-8 -21 -21 -50.5t-34 -58.5q-26 -37 -57 -53q-26 -15 -55 -15q-14 0 -32 5q-21 6 -38.5 20t-33.5 33.5t-29.5 42.5t-26.5 47q-2 -5 -5 -10.5t-6 -10.5q-9 -18 -19 -37t-23.5 -35.5t-30.5 -29t-40 -16.5q-11 -3 -22 -3q-41 0 -75 31
q-15 14 -25.5 30.5t-18.5 30.5q-5 8 -8.5 16.5t-4 16.5t3.5 16t16 16q14 9 28 7.5t22 -15.5q3 -4 5.5 -8t5.5 -9q17 -30 29 -43t29 -9q17 3 31 26.5t27 49.5q6 11 12 23t13 23q5 9 13 20q-28 47 -53.5 88.5t-44.5 70.5q-32 -26 -67 -45.5t-83 -32.5q7 -35 6 -78
q-1 -103 -50 -164q-52 -66 -142 -66h-4q-73 2 -118 48q-63 67 -60 213q3 94 50 150q25 30 58 45q37 16 75 16q6 0 10 -1q43 -2 77.5 -19.5t58.5 -49.5q4 -5 7 -9.5t6 -9.5q51 12 86 34.5t72 57.5q13 13 31 10q9 -1 16.5 -5.5t12.5 -11.5q10 -17 39 -62.5t64 -104.5
q18 28 36 54.5t33 49l27 40.5t20 28q9 14 22.5 15.5t27.5 -8.5t18.5 -24.5t-5.5 -28.5q-8 -10 -21.5 -30.5t-31.5 -47.5t-39 -59.5t-43 -65.5q2 -4 4.5 -8t4.5 -9q12 -23 24.5 -45.5t26.5 -42.5q17 -24 27 -31t14 -8q3 -1 8.5 -2t13 1.5t17 10t20.5 23.5q17 23 28 47.5
t18 42.5q5 16 20 20.5t30 -0.5zM296 235q0 27 -3.5 54.5t-15.5 50.5t-33 38.5t-55 17.5h-6q-46 0 -73 -32q-29 -37 -31 -102q-3 -113 38 -156q22 -23 63 -25h2q51 0 80 36q31 40 34 118z" />
    <glyph glyph-name="o_z.liga" unicode="o&#x7a;" horiz-adv-x="973" 
d="M1031 234q13 -11 16.5 -25.5t-7.5 -27.5q-91 -115 -182 -157q-51 -23 -98 -23q-59 0 -108 33q-93 61 -139 99t-48 40q-11 10 -12.5 24t5.5 26q5 12 17 18.5t26 4.5q60 -10 98 -7t70 17q40 18 68 46t43 48h-1q-15 0 -33 3q-22 4 -39.5 11t-31.5 15q-17 9 -31.5 16.5
t-40.5 7.5q-14 0 -27.5 -13.5t-21.5 -24.5q-85 -103 -166 -109h-8h-6v-23q-1 -103 -50 -165q-52 -66 -142 -66h-4q-73 2 -118 49q-63 66 -60 212q3 94 50 150q23 29 58 45q33 16 75 16h10q87 -5 136 -70q21 -27 32 -64q2 -1 8.5 -4t18.5 -1q13 2 39.5 17.5t65.5 62.5
q6 6 15 17.5t22.5 23t31 19.5t40.5 7q38 -2 63.5 -12t45.5 -21q13 -6 24 -11.5t25 -7.5q27 -5 47.5 2.5t40.5 30.5q11 13 27.5 13.5t28.5 -10.5q18 -17 9 -46q-1 -2 -1 -3t-1 -3q-7 -20 -21 -44t-33 -49q-15 -21 -35.5 -44.5t-45.5 -45t-53 -39t-58 -24.5q-28 -7 -56 -8
q18 -14 39 -28.5t47 -31.5q57 -38 130 -5q37 17 76 51t77 84q11 13 25.5 13.5t27.5 -9.5zM296 235q0 26 -3.5 54t-15.5 51t-33 38t-55 17h-6q-47 0 -73 -32q-29 -36 -31 -102q-3 -113 38 -156q22 -24 63 -24h2q51 0 80 36q16 20 24 50t10 68z" />
    <glyph glyph-name="o_zacute.liga" unicode="o&#x17a;" horiz-adv-x="977" 
d="M1031 234q13 -11 16.5 -25.5t-7.5 -27.5q-91 -115 -182 -157q-51 -23 -98 -23q-59 0 -108 33q-93 61 -139 99t-48 40q-11 10 -12.5 24t5.5 26q5 12 17 18.5t26 4.5q60 -10 98 -7t70 17q40 18 68 46t43 48h-1q-15 0 -33 3q-22 4 -39.5 11t-31.5 15q-17 9 -31.5 16.5
t-40.5 7.5q-14 0 -27.5 -13.5t-21.5 -24.5q-85 -103 -166 -109h-8h-6v-23q-1 -103 -50 -165q-52 -66 -142 -66h-4q-73 2 -118 49q-63 66 -60 212q3 94 50 150q23 29 58 45q33 16 75 16h10q87 -5 136 -70q21 -27 32 -64q2 -1 8.5 -4t18.5 -1q13 2 39.5 17.5t65.5 62.5
q6 6 15 17.5t22.5 23t31 19.5t40.5 7q38 -2 63.5 -12t45.5 -21q13 -6 24 -11.5t25 -7.5q27 -5 47.5 2.5t40.5 30.5q11 13 27.5 13.5t28.5 -10.5q18 -17 9 -46q-1 -2 -1 -3t-1 -3q-7 -20 -21 -44t-33 -49q-15 -21 -35.5 -44.5t-45.5 -45t-53 -39t-58 -24.5q-28 -7 -56 -8
q18 -14 39 -28.5t47 -31.5q57 -38 130 -5q37 17 76 51t77 84q11 13 25.5 13.5t27.5 -9.5zM296 235q0 26 -3.5 54t-15.5 51t-33 38t-55 17h-6q-47 0 -73 -32q-29 -36 -31 -102q-3 -113 38 -156q22 -24 63 -24h2q51 0 80 36q16 20 24 50t10 68zM705 535q-12 0 -23 8
q-14 10 -17 24t6 27l75 102q10 14 24 15t28 -9q13 -10 17.5 -24.5t-5.5 -27.5l-75 -102q-6 -8 -13.5 -10.5t-16.5 -2.5z" />
    <glyph glyph-name="o_zcaron.liga" unicode="o&#x17e;" horiz-adv-x="973" 
d="M1031 234q13 -11 16.5 -25.5t-7.5 -27.5q-91 -115 -182 -157q-51 -23 -98 -23q-59 0 -108 33q-93 61 -139 99t-48 40q-11 10 -12.5 24t5.5 26q5 12 17 18.5t26 4.5q60 -10 98 -7t70 17q40 18 68 46t43 48h-1q-15 0 -33 3q-22 4 -39.5 11t-31.5 15q-17 9 -31.5 16.5
t-40.5 7.5q-14 0 -27.5 -13.5t-21.5 -24.5q-85 -103 -166 -109h-8h-6v-23q-1 -103 -50 -165q-52 -66 -142 -66h-4q-73 2 -118 49q-63 66 -60 212q3 94 50 150q23 29 58 45q33 16 75 16h10q87 -5 136 -70q21 -27 32 -64q2 -1 8.5 -4t18.5 -1q13 2 39.5 17.5t65.5 62.5
q6 6 15 17.5t22.5 23t31 19.5t40.5 7q38 -2 63.5 -12t45.5 -21q13 -6 24 -11.5t25 -7.5q27 -5 47.5 2.5t40.5 30.5q11 13 27.5 13.5t28.5 -10.5q18 -17 9 -46q-1 -2 -1 -3t-1 -3q-7 -20 -21 -44t-33 -49q-15 -21 -35.5 -44.5t-45.5 -45t-53 -39t-58 -24.5q-28 -7 -56 -8
q18 -14 39 -28.5t47 -31.5q57 -38 130 -5q37 17 76 51t77 84q11 13 25.5 13.5t27.5 -9.5zM296 235q0 26 -3.5 54t-15.5 51t-33 38t-55 17h-6q-47 0 -73 -32q-29 -36 -31 -102q-3 -113 38 -156q22 -24 63 -24h2q51 0 80 36q16 20 24 50t10 68zM843 652q-9 -14 -21 -30.5
t-23.5 -31.5t-20 -26.5t-10.5 -13.5q-8 -9 -14.5 -12t-14.5 -3q-19 0 -30 15l-75 102q-7 8 -7 20q0 14 12 26.5t29 12.5q9 0 16.5 -2.5t13.5 -10.5l41 -56l41 56q6 8 13.5 10.5t16.5 2.5q17 0 28.5 -12.5t11.5 -26.5q0 -9 -7 -20z" />
    <glyph glyph-name="o_zdotaccent.liga" unicode="o&#x17c;" horiz-adv-x="977" 
d="M1031 234q13 -11 16.5 -25.5t-7.5 -27.5q-91 -115 -182 -157q-51 -23 -98 -23q-59 0 -108 33q-93 61 -139 99t-48 40q-11 10 -12.5 24t5.5 26q5 12 17 18.5t26 4.5q60 -10 98 -7t70 17q40 18 68 46t43 48h-1q-15 0 -33 3q-22 4 -39.5 11t-31.5 15q-17 9 -31.5 16.5
t-40.5 7.5q-14 0 -27.5 -13.5t-21.5 -24.5q-85 -103 -166 -109h-8h-6v-23q-1 -103 -50 -165q-52 -66 -142 -66h-4q-73 2 -118 49q-63 66 -60 212q3 94 50 150q23 29 58 45q33 16 75 16h10q87 -5 136 -70q21 -27 32 -64q2 -1 8.5 -4t18.5 -1q13 2 39.5 17.5t65.5 62.5
q6 6 15 17.5t22.5 23t31 19.5t40.5 7q38 -2 63.5 -12t45.5 -21q13 -6 24 -11.5t25 -7.5q27 -5 47.5 2.5t40.5 30.5q11 13 27.5 13.5t28.5 -10.5q18 -17 9 -46q-1 -2 -1 -3t-1 -3q-7 -20 -21 -44t-33 -49q-15 -21 -35.5 -44.5t-45.5 -45t-53 -39t-58 -24.5q-28 -7 -56 -8
q18 -14 39 -28.5t47 -31.5q57 -38 130 -5q37 17 76 51t77 84q11 13 25.5 13.5t27.5 -9.5zM296 235q0 26 -3.5 54t-15.5 51t-33 38t-55 17h-6q-47 0 -73 -32q-29 -36 -31 -102q-3 -113 38 -156q22 -24 63 -24h2q51 0 80 36q16 20 24 50t10 68zM767 572q-1 -21 -17 -35.5
t-37 -13.5q-21 2 -35.5 17.5t-12.5 37.5q1 21 17 35.5t37 12.5q21 -1 35.5 -17t12.5 -37z" />
    <glyph glyph-name="oacute_z.liga" unicode="&#xf3;&#x7a;" horiz-adv-x="973" 
d="M1031 234q13 -11 16.5 -25.5t-7.5 -27.5q-91 -115 -182 -157q-51 -23 -98 -23q-59 0 -108 33q-93 61 -139 99t-48 40q-11 10 -12.5 24t5.5 26q5 12 17 18.5t26 4.5q60 -10 98 -7t70 17q40 18 68 46t43 48h-1q-15 0 -33 3q-22 4 -39.5 11t-31.5 15q-17 9 -31.5 16.5
t-40.5 7.5q-14 0 -27.5 -13.5t-21.5 -24.5q-85 -103 -166 -109h-8h-6v-23q-1 -103 -50 -165q-52 -66 -142 -66h-4q-73 2 -118 49q-63 66 -60 212q3 94 50 150q23 29 58 45q33 16 75 16h10q87 -5 136 -70q21 -27 32 -64q2 -1 8.5 -4t18.5 -1q13 2 39.5 17.5t65.5 62.5
q6 6 15 17.5t22.5 23t31 19.5t40.5 7q38 -2 63.5 -12t45.5 -21q13 -6 24 -11.5t25 -7.5q27 -5 47.5 2.5t40.5 30.5q11 13 27.5 13.5t28.5 -10.5q18 -17 9 -46q-1 -2 -1 -3t-1 -3q-7 -20 -21 -44t-33 -49q-15 -21 -35.5 -44.5t-45.5 -45t-53 -39t-58 -24.5q-28 -7 -56 -8
q18 -14 39 -28.5t47 -31.5q57 -38 130 -5q37 17 76 51t77 84q11 13 25.5 13.5t27.5 -9.5zM296 235q0 26 -3.5 54t-15.5 51t-33 38t-55 17h-6q-47 0 -73 -32q-29 -36 -31 -102q-3 -113 38 -156q22 -24 63 -24h2q51 0 80 36q16 20 24 50t10 68zM184 535q-12 0 -23 8
q-14 10 -17 24t6 27l75 102q10 14 24 15t28 -9q13 -10 17.5 -24.5t-5.5 -27.5l-75 -102q-6 -8 -13.5 -10.5t-16.5 -2.5z" />
    <glyph glyph-name="oacute_zacute.liga" unicode="&#xf3;&#x17a;" horiz-adv-x="977" 
d="M1031 234q13 -11 16.5 -25.5t-7.5 -27.5q-91 -115 -182 -157q-51 -23 -98 -23q-59 0 -108 33q-93 61 -139 99t-48 40q-11 10 -12.5 24t5.5 26q5 12 17 18.5t26 4.5q60 -10 98 -7t70 17q40 18 68 46t43 48h-1q-15 0 -33 3q-22 4 -39.5 11t-31.5 15q-17 9 -31.5 16.5
t-40.5 7.5q-14 0 -27.5 -13.5t-21.5 -24.5q-85 -103 -166 -109h-8h-6v-23q-1 -103 -50 -165q-52 -66 -142 -66h-4q-73 2 -118 49q-63 66 -60 212q3 94 50 150q23 29 58 45q33 16 75 16h10q87 -5 136 -70q21 -27 32 -64q2 -1 8.5 -4t18.5 -1q13 2 39.5 17.5t65.5 62.5
q6 6 15 17.5t22.5 23t31 19.5t40.5 7q38 -2 63.5 -12t45.5 -21q13 -6 24 -11.5t25 -7.5q27 -5 47.5 2.5t40.5 30.5q11 13 27.5 13.5t28.5 -10.5q18 -17 9 -46q-1 -2 -1 -3t-1 -3q-7 -20 -21 -44t-33 -49q-15 -21 -35.5 -44.5t-45.5 -45t-53 -39t-58 -24.5q-28 -7 -56 -8
q18 -14 39 -28.5t47 -31.5q57 -38 130 -5q37 17 76 51t77 84q11 13 25.5 13.5t27.5 -9.5zM296 235q0 26 -3.5 54t-15.5 51t-33 38t-55 17h-6q-47 0 -73 -32q-29 -36 -31 -102q-3 -113 38 -156q22 -24 63 -24h2q51 0 80 36q16 20 24 50t10 68zM705 535q-12 0 -23 8
q-14 10 -17 24t6 27l75 102q10 14 24 15t28 -9q13 -10 17.5 -24.5t-5.5 -27.5l-75 -102q-6 -8 -13.5 -10.5t-16.5 -2.5zM195 535q-12 0 -23 8q-14 10 -17 24t6 27l75 102q10 14 24 15t28 -9q13 -10 17.5 -24.5t-5.5 -27.5l-75 -102q-6 -8 -13.5 -10.5t-16.5 -2.5z" />
    <glyph glyph-name="oacute_zdotaccent.liga" unicode="&#xf3;&#x17c;" horiz-adv-x="977" 
d="M1031 234q13 -11 16.5 -25.5t-7.5 -27.5q-91 -115 -182 -157q-51 -23 -98 -23q-59 0 -108 33q-93 61 -139 99t-48 40q-11 10 -12.5 24t5.5 26q5 12 17 18.5t26 4.5q60 -10 98 -7t70 17q40 18 68 46t43 48h-1q-15 0 -33 3q-22 4 -39.5 11t-31.5 15q-17 9 -31.5 16.5
t-40.5 7.5q-14 0 -27.5 -13.5t-21.5 -24.5q-85 -103 -166 -109h-8h-6v-23q-1 -103 -50 -165q-52 -66 -142 -66h-4q-73 2 -118 49q-63 66 -60 212q3 94 50 150q23 29 58 45q33 16 75 16h10q87 -5 136 -70q21 -27 32 -64q2 -1 8.5 -4t18.5 -1q13 2 39.5 17.5t65.5 62.5
q6 6 15 17.5t22.5 23t31 19.5t40.5 7q38 -2 63.5 -12t45.5 -21q13 -6 24 -11.5t25 -7.5q27 -5 47.5 2.5t40.5 30.5q11 13 27.5 13.5t28.5 -10.5q18 -17 9 -46q-1 -2 -1 -3t-1 -3q-7 -20 -21 -44t-33 -49q-15 -21 -35.5 -44.5t-45.5 -45t-53 -39t-58 -24.5q-28 -7 -56 -8
q18 -14 39 -28.5t47 -31.5q57 -38 130 -5q37 17 76 51t77 84q11 13 25.5 13.5t27.5 -9.5zM296 235q0 26 -3.5 54t-15.5 51t-33 38t-55 17h-6q-47 0 -73 -32q-29 -36 -31 -102q-3 -113 38 -156q22 -24 63 -24h2q51 0 80 36q16 20 24 50t10 68zM195 535q-12 0 -23 8
q-14 10 -17 24t6 27l75 102q10 14 24 15t28 -9q13 -10 17.5 -24.5t-5.5 -27.5l-75 -102q-6 -8 -13.5 -10.5t-16.5 -2.5zM775 572q-1 -21 -17 -35.5t-37 -13.5q-21 2 -35.5 17.5t-12.5 37.5q1 21 17 35.5t37 12.5q21 -1 35.5 -17t12.5 -37z" />
    <glyph glyph-name="odieresis_z.liga" unicode="&#xf6;&#x7a;" horiz-adv-x="973" 
d="M1031 234q13 -11 16.5 -25.5t-7.5 -27.5q-91 -115 -182 -157q-51 -23 -98 -23q-59 0 -108 33q-93 61 -139 99t-48 40q-11 10 -12.5 24t5.5 26q5 12 17 18.5t26 4.5q60 -10 98 -7t70 17q40 18 68 46t43 48h-1q-15 0 -33 3q-22 4 -39.5 11t-31.5 15q-17 9 -31.5 16.5
t-40.5 7.5q-14 0 -27.5 -13.5t-21.5 -24.5q-85 -103 -166 -109h-8h-6v-23q-1 -103 -50 -165q-52 -66 -142 -66h-4q-73 2 -118 49q-63 66 -60 212q3 94 50 150q23 29 58 45q33 16 75 16h10q87 -5 136 -70q21 -27 32 -64q2 -1 8.5 -4t18.5 -1q13 2 39.5 17.5t65.5 62.5
q6 6 15 17.5t22.5 23t31 19.5t40.5 7q38 -2 63.5 -12t45.5 -21q13 -6 24 -11.5t25 -7.5q27 -5 47.5 2.5t40.5 30.5q11 13 27.5 13.5t28.5 -10.5q18 -17 9 -46q-1 -2 -1 -3t-1 -3q-7 -20 -21 -44t-33 -49q-15 -21 -35.5 -44.5t-45.5 -45t-53 -39t-58 -24.5q-28 -7 -56 -8
q18 -14 39 -28.5t47 -31.5q57 -38 130 -5q37 17 76 51t77 84q11 13 25.5 13.5t27.5 -9.5zM296 235q0 26 -3.5 54t-15.5 51t-33 38t-55 17h-6q-47 0 -73 -32q-29 -36 -31 -102q-3 -113 38 -156q22 -24 63 -24h2q51 0 80 36q16 20 24 50t10 68zM157 572q-2 -21 -17.5 -35.5
t-37.5 -13.5q-21 2 -35.5 17.5t-12.5 37.5q1 21 17 35.5t37 12.5q22 -1 36 -17t13 -37zM324 572q-1 -21 -17 -35.5t-37 -13.5q-21 2 -35.5 17.5t-12.5 37.5q1 21 17 35.5t37 12.5q21 -1 35.5 -17t12.5 -37z" />
    <glyph glyph-name="r_ae.liga" unicode="r&#xe6;" horiz-adv-x="877" 
d="M924 229q15 -5 21.5 -15.5t0.5 -26.5q-10 -26 -19 -48t-25 -42q-31 -40 -69 -62q-28 -17 -59.5 -25.5t-64.5 -8.5q-11 0 -23 1t-24 3q-24 5 -45.5 14.5t-38.5 25.5q-13 -12 -30 -20q-40 -21 -111 -23h-3q-45 0 -73 17t-43 34q-23 27 -32 63.5t-1 72.5t26 60q19 25 48 40
q32 16 72 16t84 -15q5 35 12 61q-10 16 -18.5 24.5t-16 12.5t-15 4.5t-16.5 0.5q-27 0 -44.5 -11.5t-37.5 -29.5q-13 -12 -26.5 -23.5t-28.5 -20.5t-31.5 -15t-35.5 -6h-10q-49 5 -73 41q-7 8 -11 17.5t-7 19.5q-14 -12 -27.5 -27.5t-24.5 -35.5t-17.5 -44.5t-6.5 -55.5v-5
v-161q0 -17 -11.5 -25t-28.5 -8q-16 0 -27.5 8.5t-11.5 24.5v27.5v67v89.5v94.5t-0.5 82t-0.5 53.5q-1 17 10.5 26.5t27.5 10.5q17 1 28.5 -8.5t12.5 -26.5v-52q15 16 29 28t25 21q10 7 16 13q15 14 34 9q18 -3 28 -21q5 -11 8.5 -22t5.5 -21q4 -14 7 -22t6 -12t6.5 -5.5
t9.5 -2.5q16 -2 34 12.5t38 32.5q11 11 24.5 22t24.5 19q26 16 49.5 18.5t36.5 2.5q30 0 56 -9t52 -37q28 32 64 46q21 8 42 7t38 -11q40 -21 53 -65q15 -54 -23 -118q-32 -52 -105 -86q-26 -11 -45 -17q3 -15 7 -28.5t11 -25.5q20 -38 65 -45q69 -12 121 22t79 109
q6 16 19.5 18.5t28.5 -3.5zM660 398q-12 -5 -27.5 -19.5t-26.5 -40.5q-5 -12 -9 -31t-6 -42q23 9 47 24.5t38 36.5q20 34 14 56q-3 11 -13 17q-2 1 -7 1q-4 0 -10 -2zM435 81q44 1 64 8t34 21q-11 24 -15.5 49t-6.5 48q-35 16 -65.5 19t-51.5 -8q-26 -12 -32 -45
q-3 -15 0.5 -34.5t16.5 -34.5q20 -25 56 -23z" />
    <glyph glyph-name="r_x.liga" unicode="rx" horiz-adv-x="921" 
d="M969 230q15 -6 22.5 -19t2.5 -29q-8 -21 -21.5 -53t-34.5 -61q-26 -37 -57 -53q-26 -14 -55 -14q-17 0 -32 4q-21 6 -38.5 20t-33.5 33.5t-29.5 43t-26.5 47.5q-2 -3 -4 -6.5t-4 -6.5q-22 -38 -48 -74.5t-61 -50.5q-26 -9 -48 -9q-28 0 -52 12q-23 12 -39.5 31t-28 40
t-18.5 41t-10 32q-4 16 4.5 27t24.5 16q16 4 29.5 -1.5t17.5 -21.5q3 -13 8.5 -27.5t12.5 -27.5t16 -23.5t19 -15.5q5 -2 13 -3.5t22 3.5q4 2 11.5 7.5t19.5 22.5q10 14 19.5 29.5t19.5 32.5q5 8 10 16.5t10 16.5q3 5 6.5 9.5t6.5 9.5q-24 41 -42.5 65.5t-31 38t-20 18
t-9.5 5.5q-11 4 -35 2t-45 -15q-2 -2 -5.5 -4.5t-7.5 -6.5q-11 -9 -26 -19.5t-32.5 -19.5t-37.5 -14t-42 -2q-55 7 -101 64q-7 9 -13.5 18t-11.5 19q-14 -12 -29 -28t-27 -36.5t-19.5 -46.5t-7.5 -59v-165q0 -17 -11 -26t-28 -9t-28.5 9t-11.5 26v27v67v89.5v94.5t-0.5 82.5
t-0.5 53.5q-1 16 10.5 26t28.5 11t28 -8.5t12 -26.5v-52q15 16 29 28t25 21q13 9 23 17t27 5q19 -5 28 -22q4 -10 12.5 -26t20 -32t25.5 -28.5t30 -14.5q10 -1 20.5 2.5t21 9.5t20 13.5t16.5 13.5q6 5 11.5 9t10.5 7q34 20 76 26q41 5 72 -6q35 -14 74 -60q24 -29 49 -67
q18 28 35.5 54.5t33 49.5t27.5 40.5t20 28.5q9 13 23.5 14t28.5 -9t17.5 -24t-6.5 -27q-8 -11 -21.5 -31.5t-31.5 -47.5t-39 -59t-43 -65q2 -5 4.5 -9t4.5 -8q12 -23 24.5 -46t26.5 -42q17 -24 27 -31.5t14 -8.5q3 -1 8.5 -1.5t13 2t17 10t20.5 22.5q17 23 28 50t18 46
q5 15 19.5 20t29.5 0z" />
    <glyph glyph-name="r_z.liga" unicode="r&#x7a;" horiz-adv-x="628" 
d="M675 240q15 -6 21.5 -19t1.5 -28q-12 -41 -34.5 -75t-54 -58.5t-70 -39t-81.5 -16.5q-40 -2 -79 5t-72 17.5t-57.5 21.5t-35.5 17q-8 5 -12 16t-2 23q2 16 11.5 24t24.5 15q63 29 119.5 78.5t103.5 115.5q-93 -33 -159 -26q-63 8 -103 36q-19 14 -31 29q-15 -12 -30 -28
t-27.5 -37t-20.5 -47.5t-8 -60.5v-5v-160q0 -17 -11.5 -26t-27.5 -9q-17 0 -28.5 9t-11.5 26v27v66.5v89.5v94.5t-0.5 82t-0.5 53.5q-1 17 10 27t28 11q16 1 28 -9t13 -26v-52q15 15 29 27t25 22q5 4 9 7t7 5q7 7 16 9.5t18 0.5q19 -5 28 -22q9 -20 29.5 -38.5t67.5 -23.5
q59 -6 148 30q35 14 57 26.5t23 13.5q12 7 24 3.5t22 -13.5q9 -8 13 -19t-2 -23q-23 -48 -58.5 -100t-77.5 -97q-24 -27 -57.5 -53.5t-72.5 -50.5q0 -1 25.5 -12t79.5 -13q28 -1 57 7t55 25.5t48 44t36 62.5q6 14 19 20t28 0z" />
    <glyph glyph-name="r_zacute.liga" unicode="r&#x17a;" horiz-adv-x="628" 
d="M675 240q15 -6 21.5 -19t1.5 -28q-12 -41 -34.5 -75t-54 -58.5t-70 -39t-81.5 -16.5q-40 -2 -79 5t-72 17.5t-57.5 21.5t-35.5 17q-8 5 -12 16t-2 23q2 16 11.5 24t24.5 15q63 29 119.5 78.5t103.5 115.5q-93 -33 -159 -26q-63 8 -103 36q-19 14 -31 29q-15 -12 -30 -28
t-27.5 -37t-20.5 -47.5t-8 -60.5v-5v-160q0 -17 -11.5 -26t-27.5 -9q-17 0 -28.5 9t-11.5 26v27v66.5v89.5v94.5t-0.5 82t-0.5 53.5q-1 17 10 27t28 11q16 1 28 -9t13 -26v-52q15 15 29 27t25 22q5 4 9 7t7 5q7 7 16 9.5t18 0.5q19 -5 28 -22q9 -20 29.5 -38.5t67.5 -23.5
q59 -6 148 30q35 14 57 26.5t23 13.5q12 7 24 3.5t22 -13.5q9 -8 13 -19t-2 -23q-23 -48 -58.5 -100t-77.5 -97q-24 -27 -57.5 -53.5t-72.5 -50.5q0 -1 25.5 -12t79.5 -13q28 -1 57 7t55 25.5t48 44t36 62.5q6 14 19 20t28 0zM366 535q-12 0 -23 8q-14 10 -17 24t6 27
l75 102q10 14 24 15t28 -9q13 -10 17.5 -24.5t-5.5 -27.5l-75 -102q-6 -8 -13.5 -10.5t-16.5 -2.5z" />
    <glyph glyph-name="r_zcaron.liga" unicode="r&#x17e;" horiz-adv-x="628" 
d="M675 240q15 -6 21.5 -19t1.5 -28q-12 -41 -34.5 -75t-54 -58.5t-70 -39t-81.5 -16.5q-40 -2 -79 5t-72 17.5t-57.5 21.5t-35.5 17q-8 5 -12 16t-2 23q2 16 11.5 24t24.5 15q63 29 119.5 78.5t103.5 115.5q-93 -33 -159 -26q-63 8 -103 36q-19 14 -31 29q-15 -12 -30 -28
t-27.5 -37t-20.5 -47.5t-8 -60.5v-5v-160q0 -17 -11.5 -26t-27.5 -9q-17 0 -28.5 9t-11.5 26v27v66.5v89.5v94.5t-0.5 82t-0.5 53.5q-1 17 10 27t28 11q16 1 28 -9t13 -26v-52q15 15 29 27t25 22q5 4 9 7t7 5q7 7 16 9.5t18 0.5q19 -5 28 -22q9 -20 29.5 -38.5t67.5 -23.5
q59 -6 148 30q35 14 57 26.5t23 13.5q12 7 24 3.5t22 -13.5q9 -8 13 -19t-2 -23q-23 -48 -58.5 -100t-77.5 -97q-24 -27 -57.5 -53.5t-72.5 -50.5q0 -1 25.5 -12t79.5 -13q28 -1 57 7t55 25.5t48 44t36 62.5q6 14 19 20t28 0zM463 652q-9 -14 -21 -30.5t-23.5 -31.5
t-20 -26.5t-10.5 -13.5q-8 -9 -14.5 -12t-14.5 -3q-19 0 -30 15l-75 102q-7 8 -7 20q0 14 12 26.5t29 12.5q9 0 16.5 -2.5t13.5 -10.5l41 -56l41 56q6 8 13.5 10.5t16.5 2.5q17 0 28.5 -12.5t11.5 -26.5q0 -9 -7 -20z" />
    <glyph glyph-name="r_zdotaccent.liga" unicode="r&#x17c;" horiz-adv-x="628" 
d="M675 240q15 -6 21.5 -19t1.5 -28q-12 -41 -34.5 -75t-54 -58.5t-70 -39t-81.5 -16.5q-40 -2 -79 5t-72 17.5t-57.5 21.5t-35.5 17q-8 5 -12 16t-2 23q2 16 11.5 24t24.5 15q63 29 119.5 78.5t103.5 115.5q-93 -33 -159 -26q-63 8 -103 36q-19 14 -31 29q-15 -12 -30 -28
t-27.5 -37t-20.5 -47.5t-8 -60.5v-5v-160q0 -17 -11.5 -26t-27.5 -9q-17 0 -28.5 9t-11.5 26v27v66.5v89.5v94.5t-0.5 82t-0.5 53.5q-1 17 10 27t28 11q16 1 28 -9t13 -26v-52q15 15 29 27t25 22q5 4 9 7t7 5q7 7 16 9.5t18 0.5q19 -5 28 -22q9 -20 29.5 -38.5t67.5 -23.5
q59 -6 148 30q35 14 57 26.5t23 13.5q12 7 24 3.5t22 -13.5q9 -8 13 -19t-2 -23q-23 -48 -58.5 -100t-77.5 -97q-24 -27 -57.5 -53.5t-72.5 -50.5q0 -1 25.5 -12t79.5 -13q28 -1 57 7t55 25.5t48 44t36 62.5q6 14 19 20t28 0zM428 572q-1 -21 -17 -35.5t-37 -13.5
q-21 2 -35.5 17.5t-12.5 37.5q1 21 17 35.5t37 12.5q21 -1 35.5 -17t12.5 -37z" />
    <glyph glyph-name="s_s.liga" unicode="ss" horiz-adv-x="841" 
d="M739 115q-6 -37 -29 -64q-19 -23 -52.5 -38t-70.5 -15q-45 0 -83 9t-73 29q-28 17 -45 37q-6 -8 -14.5 -16t-16.5 -15q-47 -37 -114 -42q-7 -1 -13 -1h-12q-85 0 -143 47q-57 48 -76 139q-3 16 5.5 25.5t25.5 13.5q16 3 29.5 -2t17.5 -21q14 -69 52.5 -99.5t107.5 -25.5
q10 1 25 5t29.5 12.5t25 21t10.5 30.5q1 26 -15 42t-67 30q-14 4 -31.5 8t-34.5 8t-31 8t-22 7q-41 18 -58 54q-12 26 -10.5 54.5t15.5 54.5q17 29 47.5 47.5t68.5 22.5q18 2 37.5 0.5t37.5 -6t33.5 -11t26.5 -13.5q13 -10 13 -23t-9 -27t-22 -18.5t-27 3.5q-5 3 -13.5 6.5
t-20 6.5t-23.5 4t-24 0q-23 -3 -35.5 -11.5t-18 -19t-5 -21t4.5 -16.5q7 -11 22 -18t33.5 -11.5t37.5 -7.5t34 -7q20 -5 44 -15t45 -27q12 -11 24.5 -25.5t21.5 -35.5q10 -23 27.5 -44t41.5 -36.5t54 -24t66 -6.5q18 1 31.5 8t22 16.5t13 21t4.5 20.5q-1 22 -12.5 39
t-41.5 28q-25 8 -51.5 16.5t-49.5 19t-42 22.5t-29 28q-14 23 -15.5 53.5t12.5 58.5q16 30 47.5 49t71.5 24q18 2 37.5 0.5t37.5 -6t33.5 -11t26.5 -13.5q14 -10 14 -23t-9 -27q-10 -14 -23 -19t-27 4q-4 3 -13 7t-20 7.5t-24 5.5t-25 1q-21 -2 -39.5 -15.5t-15.5 -42.5
q1 -15 15.5 -25t34 -17.5t41.5 -13t39 -11.5q23 -8 40.5 -20t31.5 -27q8 -10 14 -20.5t10 -22.5q17 -2 44 0.5t69 22.5q14 8 29.5 3t23.5 -19t3 -29.5t-20 -23.5q-32 -17 -67.5 -24t-67.5 -7h-8z" />
    <glyph glyph-name="s_x.liga" unicode="sx" horiz-adv-x="926" 
d="M974 227q16 -6 23.5 -18t1.5 -28q-8 -21 -21.5 -53t-33.5 -61q-28 -37 -57 -53q-28 -14 -56 -14q-8 0 -15.5 1t-15.5 3q-21 6 -39 20t-33.5 33.5t-29.5 43t-27 47.5q-2 -3 -4 -6.5t-4 -7.5q-11 -18 -22.5 -37.5t-25 -36.5t-28.5 -30t-33 -20q-19 -8 -39 -8q-46 0 -95 39
q-27 21 -55 51q-5 -11 -10 -20.5t-13 -18.5q-39 -46 -102 -51q-6 0 -12.5 -0.5t-12.5 -0.5q-86 0 -142 47q-58 47 -76 139q-4 17 6 28t26 14q17 3 29 -3.5t16 -22.5q14 -68 52.5 -97.5t107.5 -24.5q29 1 48 22q8 10 12 22.5t2 24.5q-2 19 -12.5 34t-42.5 26q-12 5 -25 8.5
t-26 7.5q-18 5 -35 10t-32 13q-42 19 -58 55q-25 56 6 109q17 29 47 47.5t68 23.5q18 2 37.5 0t37.5 -6.5t33.5 -11t26.5 -13.5q14 -9 15.5 -22.5t-8.5 -27.5q-9 -14 -23.5 -19t-28.5 4q-4 3 -13 6.5t-20 6.5t-23.5 4.5t-24.5 0.5q-40 -5 -56 -32q-4 -6 -5.5 -16t3.5 -21
q6 -13 26.5 -20t47.5 -15q26 -7 58 -18q46 -18 71 -46q1 -1 6.5 -7t12 -13.5t13 -14.5t8.5 -10q17 -20 36.5 -41.5t39 -38.5t38 -26t32.5 -4q3 2 10.5 7.5t19.5 22.5q11 14 20.5 29.5t19.5 31.5q5 9 10 17.5t10 16.5q3 5 6 9.5t6 9.5q-38 64 -70.5 104.5t-46.5 52.5
q-5 4 -10.5 7.5t-13.5 5.5t-19.5 1.5t-28.5 -4.5q-16 -5 -27.5 5.5t-16.5 26.5q-4 16 2 28t22 16q53 14 92 2q19 -5 31 -13.5t18 -14.5q20 -16 50.5 -53t64.5 -91q18 28 36 55t33 50t27 40.5t20 28.5q10 13 24 14t27 -9q14 -10 18.5 -24t-5.5 -27q-8 -11 -22 -31.5
t-32 -47.5t-39 -59.5t-42 -65.5q2 -4 4.5 -8t4.5 -9q12 -23 24.5 -45.5t26.5 -41.5q17 -24 27 -31.5t13 -8.5t9 -2t13.5 2t17 10.5t20.5 22.5q16 23 27 50t18 46q6 15 20 19t29 -1z" />
    <glyph glyph-name="s_z.liga" unicode="s&#x7a;" horiz-adv-x="827" 
d="M877 228q14 -8 21 -21.5t0 -28.5q-19 -41 -45.5 -73.5t-58 -55.5t-67 -35.5t-71.5 -12.5q-39 0 -74 7q-44 8 -74 18t-49 20t-28.5 18t-12.5 12q-7 9 -8 19t2.5 19t10.5 16t18 10q32 9 60.5 27t53 42.5t46 53t39.5 58.5q-28 -8 -47 -11q-7 -1 -14 -1.5t-14 -0.5
q-24 0 -49 4t-45 8q-8 -27 -18 -49.5t-24 -40.5q-21 -31 -58 -54q3 -9 3 -18q3 -28 -5.5 -55.5t-26.5 -49.5q-39 -46 -102 -51q-6 -1 -12.5 -1h-12.5q-88 0 -142 47q-58 46 -76 136q-4 16 5.5 27.5t25.5 14.5q17 3 29.5 -3.5t16.5 -23.5q14 -68 52.5 -99.5t107.5 -26.5
q15 2 27 10.5t21 19.5q8 10 12 22.5t2 23.5q-2 19 -12.5 34t-42.5 27q-12 5 -25 8.5t-26 7.5q-18 5 -35 9.5t-32 12.5q-42 21 -58 56q-11 26 -10 54.5t16 53.5q17 30 47 48.5t68 22.5q18 2 37.5 0.5t37.5 -6t33.5 -11.5t26.5 -14q14 -9 15.5 -22.5t-8.5 -27.5
q-9 -14 -23.5 -19t-28.5 5q-4 3 -13 6.5t-20 6.5t-23.5 4t-24.5 0q-41 -5 -56 -31q-4 -7 -5.5 -16.5t3.5 -21.5q6 -13 26.5 -20t47.5 -15q14 -4 28.5 -8t29.5 -10q41 -15 64 -38q22 14 40 42t29 84q2 9 7 15.5t12 11.5q16 12 36 7q12 -3 28.5 -7t33.5 -7t33.5 -4t27.5 1
q33 5 66.5 19t48.5 29q11 11 25.5 10t26.5 -9q11 -8 18 -20.5t-1 -28.5q-19 -40 -45.5 -88.5t-63.5 -95.5q-53 -68 -114 -106q10 -5 24 -9q12 -4 29 -7t40 -4q60 -3 109 31t84 105q8 14 22 18t28 -4z" />
    <glyph glyph-name="scaron_scaron.liga" unicode="&#x161;&#x161;" horiz-adv-x="841" 
d="M739 115q-6 -37 -29 -64q-19 -23 -52.5 -38t-70.5 -15q-45 0 -83 9t-73 29q-28 17 -45 37q-6 -8 -14.5 -16t-16.5 -15q-47 -37 -114 -42q-7 -1 -13 -1h-12q-85 0 -143 47q-57 48 -76 139q-3 16 5.5 25.5t25.5 13.5q16 3 29.5 -2t17.5 -21q14 -69 52.5 -99.5t107.5 -25.5
q10 1 25 5t29.5 12.5t25 21t10.5 30.5q1 26 -15 42t-67 30q-14 4 -31.5 8t-34.5 8t-31 8t-22 7q-41 18 -58 54q-12 26 -10.5 54.5t15.5 54.5q17 29 47.5 47.5t68.5 22.5q18 2 37.5 0.5t37.5 -6t33.5 -11t26.5 -13.5q13 -10 13 -23t-9 -27t-22 -18.5t-27 3.5q-5 3 -13.5 6.5
t-20 6.5t-23.5 4t-24 0q-23 -3 -35.5 -11.5t-18 -19t-5 -21t4.5 -16.5q7 -11 22 -18t33.5 -11.5t37.5 -7.5t34 -7q20 -5 44 -15t45 -27q12 -11 24.5 -25.5t21.5 -35.5q10 -23 27.5 -44t41.5 -36.5t54 -24t66 -6.5q18 1 31.5 8t22 16.5t13 21t4.5 20.5q-1 22 -12.5 39
t-41.5 28q-25 8 -51.5 16.5t-49.5 19t-42 22.5t-29 28q-14 23 -15.5 53.5t12.5 58.5q16 30 47.5 49t71.5 24q18 2 37.5 0.5t37.5 -6t33.5 -11t26.5 -13.5q14 -10 14 -23t-9 -27q-10 -14 -23 -19t-27 4q-4 3 -13 7t-20 7.5t-24 5.5t-25 1q-21 -2 -39.5 -15.5t-15.5 -42.5
q1 -15 15.5 -25t34 -17.5t41.5 -13t39 -11.5q23 -8 40.5 -20t31.5 -27q8 -10 14 -20.5t10 -22.5q17 -2 44 0.5t69 22.5q14 8 29.5 3t23.5 -19t3 -29.5t-20 -23.5q-32 -17 -67.5 -24t-67.5 -7h-8zM305 652q-9 -14 -21 -30.5t-23.5 -31.5t-20 -26.5t-10.5 -13.5
q-8 -9 -14.5 -12t-14.5 -3q-19 0 -30 15l-75 102q-7 8 -7 20q0 14 12 26.5t29 12.5q9 0 16.5 -2.5t13.5 -10.5l41 -56l41 56q6 8 13.5 10.5t16.5 2.5q17 0 28.5 -12.5t11.5 -26.5q0 -9 -7 -20zM672 652q-9 -14 -21 -30.5t-23.5 -31.5t-20 -26.5t-10.5 -13.5q-8 -9 -14.5 -12
t-14.5 -3q-19 0 -30 15l-75 102q-7 8 -7 20q0 14 12 26.5t29 12.5q9 0 16.5 -2.5t13.5 -10.5l41 -56l41 56q6 8 13.5 10.5t16.5 2.5q17 0 28.5 -12.5t11.5 -26.5q0 -9 -7 -20z" />
    <glyph glyph-name="thorn_ae.liga" unicode="&#xfe;&#xe6;" horiz-adv-x="1039" 
d="M1087 227q15 -5 22 -16t1 -26q-10 -26 -21 -47t-27 -41q-31 -38 -69 -62q-56 -33 -124 -33q-11 0 -23 1t-24 3q-48 7 -84 39q-13 -12 -30 -20q-41 -21 -111 -22h-3q-45 0 -73 17t-43 34q-21 26 -30.5 59t-4.5 66q-18 -3 -35 -3q-8 0 -14 0.5t-11 1.5q-12 -85 -66 -129
q-41 -33 -103 -44q-15 -3 -31 -4t-34 -1q-17 0 -35.5 1t-38.5 4l3 -333q0 -16 -10.5 -23.5t-27.5 -7.5t-29 7t-12 24l-6 944q-1 16 10.5 23.5t28.5 8.5q16 0 27.5 -7.5t11.5 -24.5l2 -207q15 7 33 13.5t39 10t44 3.5t47 -6q78 -20 119 -95q19 -35 27 -78q10 -1 21 -2t25 0.5
t32.5 7.5t44.5 18q7 5 14 8q32 16 72 16.5t84 -14.5q5 35 12 61q-11 17 -20.5 27t-18.5 14.5t-18.5 5.5t-20.5 1q-39 0 -78 -17q-14 -7 -28 0t-21 21q-7 15 -2.5 29t18.5 21q53 25 111 25q39 0 67 -12t53 -40q29 32 64 46q43 15 80 -4q40 -21 53 -65q15 -54 -23 -118
q-32 -52 -105 -86q-13 -6 -24.5 -10t-20.5 -7q3 -15 7 -28.5t11 -25.5q21 -39 65 -46q69 -11 122.5 21.5t80.5 107.5q6 16 19.5 18.5t28.5 -3.5zM307 210q1 17 -3.5 39t-15 43t-28.5 38t-44 24q-26 6 -50 2t-44 -11.5t-33 -16t-16 -10.5l2 -234q37 -5 68.5 -5.5t56.5 3.5
q44 8 67 28q36 28 40 100zM820 399q-12 -5 -27.5 -19.5t-26.5 -40.5q-5 -12 -9 -31.5t-6 -42.5q23 10 47 25.5t38 36.5q20 34 14 56q-3 10 -13 16q-4 2 -7 2q-4 0 -10 -2zM595 81q44 1 64 8.5t34 20.5q-11 24 -15.5 49.5t-6.5 48.5q-35 15 -65.5 18.5t-51.5 -7.5
q-26 -14 -32 -45q-3 -15 0.5 -34.5t16.5 -35.5q20 -23 56 -23z" />
    <glyph glyph-name="thorn_z.liga" unicode="&#xfe;&#x7a;" horiz-adv-x="978" 
d="M372 335q6 -1 16 0q13 2 39.5 17.5t65.5 62.5q6 6 15 17.5t22.5 23t31 19.5t40.5 7q38 -2 63.5 -12t45.5 -21q13 -6 24 -11.5t25 -7.5q27 -5 47.5 2.5t40.5 30.5q11 13 27.5 13.5t28.5 -10.5q18 -17 9 -46l-2 -6q-7 -20 -21 -44t-33 -49q-15 -21 -35.5 -44.5t-45.5 -45
t-53 -39t-58 -24.5q-28 -7 -56 -8q18 -14 39 -28.5t47 -31.5q57 -38 130 -5q37 17 76 50t77 83q11 13 25.5 13.5t27.5 -9.5q13 -11 17 -24.5t-7 -26.5q-90 -114 -183 -157q-51 -23 -98 -23q-59 0 -108 33q-93 61 -139 99t-48 40q-11 10 -12.5 24t5.5 26q5 12 17 18.5t26 4.5
q60 -10 98 -7t70 17q40 18 68 46t43 48h-1q-15 0 -33 3q-22 4 -39.5 11t-31.5 15q-17 9 -31.5 16.5t-40.5 7.5q-14 0 -27.5 -13.5t-21.5 -24.5q-83 -100 -162 -109q1 -8 1 -15.5v-15.5q-6 -106 -69 -157q-41 -34 -103 -44q-15 -3 -31 -4t-33 -1t-35.5 1t-38.5 4l2 -333
q0 -17 -10.5 -26t-27.5 -9t-28.5 9t-11.5 26l-7 944q0 16 11.5 25.5t27.5 9.5q17 0 28 -9t12 -26l1 -207q30 14 72.5 23.5t90.5 -2.5q79 -20 120 -95zM314 229q1 17 -3.5 39t-15 43t-28 38t-43.5 24q-26 6 -50.5 2t-44 -11.5t-32.5 -16t-16 -10.5l1 -234q77 -11 126 -2
q43 8 66 28q37 30 40 100z" />
    <glyph glyph-name="v_ae.liga" unicode="v&#xe6;" horiz-adv-x="1033" 
d="M1080 229q16 -5 23 -17t2 -28q-10 -26 -21.5 -47t-26.5 -41q-30 -39 -70 -62q-55 -34 -124 -34q-11 0 -22.5 1t-23.5 3q-50 9 -84 40q-7 -5 -14.5 -10t-15.5 -10q-42 -22 -112 -23h-3q-45 0 -73 17t-42 34q-23 27 -32 63.5t-2 72.5q7 33 26 60q19 25 48 40q32 16 72 16
t84 -15q2 17 5 32t8 29q-12 19 -21 30t-16 16.5t-14.5 6.5t-16.5 1q-17 0 -30.5 -3.5t-30.5 -10.5q-30 -12 -49 -19t-46 -9q-49 -3 -93 11q-10 4 -14 5q-3 -30 -7.5 -68.5t-12.5 -76.5q-5 -28 -16.5 -54.5t-25.5 -51t-29 -45t-27.5 -35.5t-21 -24t-9.5 -10q-11 -11 -28 -11
q-15 0 -25 9q-2 1 -17.5 15.5t-37 40t-45.5 61.5t-43 81q-22 52 -25.5 98.5t-4.5 98.5v39q0 17 11 26.5t27 9.5h1q16 0 27.5 -9t12.5 -25v-41q0 -47 3 -86t20 -81q20 -48 47 -84t47 -57q10 13 23 30t24.5 36.5t21 41t13.5 42.5q7 34 11.5 70t7 65t3.5 47.5l1 18.5
q2 28 27 36q12 4 23.5 1t19.5 -13q1 -2 8.5 -10t23.5 -14.5t42.5 -8t66.5 10.5q15 3 30 8.5t30 10.5t31.5 9t34.5 4q48 0 81 -26q16 -13 30 -31q27 31 63 45q44 16 80 -4q41 -22 52 -65q15 -54 -23 -118q-32 -52 -105 -86q-13 -5 -24.5 -9.5t-19.5 -7.5q4 -29 17 -54
q22 -38 65 -45q69 -12 122 21t81 108q5 16 18.5 20t28.5 -2zM814 397q-12 -5 -27 -19.5t-26 -40.5t-16 -73q23 9 47.5 24.5t37.5 36.5q20 34 15 56q-3 10 -14 17q-2 1 -6 1q-5 0 -11 -2zM590 80q43 1 63 8t34 21q-11 24 -15 49t-6 48q-35 16 -66 19t-52 -8q-24 -11 -32 -45
q-3 -15 0.5 -34.5t16.5 -34.5q20 -24 57 -23z" />
    <glyph glyph-name="v_x.liga" unicode="vx" horiz-adv-x="983" 
d="M1030 226q16 -6 24 -18.5t2 -27.5q-8 -21 -21 -52.5t-34 -60.5q-28 -37 -57 -53q-27 -15 -55 -15q-15 0 -32 5q-21 6 -38.5 20.5t-33 34.5t-29 43.5t-26.5 47.5q-2 -4 -4.5 -7.5t-4.5 -8.5q-23 -38 -49 -74t-61 -50q-21 -9 -43 -9q-27 0 -50 13q-26 13 -44.5 35t-31.5 47
t-21 48t-12 38q-4 16 5 27.5t25 16.5q16 4 29 -2t17 -22q11 -45 29.5 -76.5t38.5 -41.5q14 -7 30 -1q3 2 10.5 7.5t19.5 21.5q11 14 20.5 30t19.5 32q5 9 10 17l10 16q3 5 6 9.5t6 9.5q-40 57 -77 105t-66 83q-37 -17 -69.5 -24t-60.5 -7q-17 0 -32 2t-28 5q-2 -32 -7.5 -74
t-13.5 -85q-8 -42 -28.5 -80.5t-42.5 -69t-39.5 -49.5t-18.5 -21q-13 -11 -28 -11t-25 9q-2 1 -17.5 15.5t-37 40t-45.5 61.5t-43 81q-22 52 -25.5 99t-4.5 98v40q0 16 11 26t27 10q17 0 28.5 -9t12.5 -26v-41q0 -47 3 -86t20 -81q20 -48 47 -84t47 -57q10 13 23 30
t24.5 36.5t21 41t13.5 42.5q7 35 11.5 70.5t7 65t3.5 48l1 18.5q1 11 6.5 19.5t15.5 13.5q20 11 39 -2q2 -1 15.5 -7t36.5 -9q34 -4 70 5t73 29q12 7 26 4.5t23 -13.5q42 -50 79 -97t70 -94q18 28 36 55.5t33.5 50.5t27.5 41t20 29q10 14 24 15t27 -9q14 -10 18.5 -24
t-5.5 -28q-8 -10 -21.5 -30.5t-31.5 -47.5l-39 -58.5t-42 -64.5l10 -18t10 -19q11 -20 22.5 -40.5t23.5 -36.5q14 -20 22.5 -25.5t11.5 -6.5t8.5 -2t13 1.5t17 10t20.5 23.5q16 23 27.5 49.5t18.5 44.5q5 16 18.5 20t28.5 -1z" />
    <glyph glyph-name="v_z.liga" unicode="v&#x7a;" horiz-adv-x="862" 
d="M912 219q14 -8 19.5 -22.5t-2.5 -28.5q-17 -31 -42 -61t-58 -53.5t-73 -38t-88 -14.5q-38 0 -75 6.5t-69 16.5t-56.5 23.5t-36.5 27.5q-8 9 -9 18.5t3 18t11.5 15.5t17.5 12q61 29 111 74t94 103q-20 -6 -36.5 -10t-31.5 -7t-31 -4.5t-35 -1.5h-2q-23 0 -48 5t-48 13.5
t-43.5 19.5t-34.5 23q-3 -28 -7.5 -59.5t-10.5 -63.5q-8 -42 -28.5 -80.5t-42.5 -69t-39.5 -49.5t-18.5 -21q-13 -11 -28 -11t-25 9q-2 1 -17.5 15.5t-37 40t-45.5 61.5t-43 81q-22 52 -25.5 99t-4.5 98v40q0 16 11 26t28 10h1q16 0 27 -9.5t12 -25.5v-41q0 -47 3 -86
t20 -81q20 -48 47 -84t47 -57q10 13 23 30t24.5 36.5t21 41t13.5 42.5q7 35 11.5 70.5t7 65t3.5 48l1 18.5q1 13 9 22.5t20 13.5q28 7 43 -16l16 -16t39 -33t54.5 -33t62.5 -15h1q31 0 68.5 8t70 17.5t54.5 17.5t23 8q11 5 23.5 3.5t20.5 -10.5t10 -20.5t-3 -22.5
q-15 -33 -39 -68t-52.5 -68.5t-59.5 -63.5t-62 -53q-14 -11 -28 -18q0 -1 13.5 -6.5t44.5 -12.5q40 -9 78 -3.5t71 22.5t60.5 44.5t45.5 62.5q8 14 22 16.5t29 -5.5z" />
    <glyph glyph-name="w_ae.liga" unicode="w&#xe6;" horiz-adv-x="1248" 
d="M1296 226q15 -5 21 -17t1 -28q-10 -26 -19.5 -47t-24.5 -41q-31 -40 -70 -62q-55 -34 -124 -34q-11 0 -22.5 1t-23.5 3q-50 9 -84 40q-7 -5 -14.5 -10t-15.5 -10q-42 -22 -112 -23h-3q-45 0 -72.5 17t-42.5 34q-23 27 -32 63.5t-2 72.5q7 33 26 60q19 25 48 40
q32 16 72 16t84 -15q2 17 5 32t8 29q-12 19 -21 30t-16 16.5t-14.5 6.5t-16.5 1q-17 0 -31 -4t-32 -10q-57 -23 -115.5 -26t-121.5 11q14 -34 25.5 -72.5t14.5 -73.5q1 -23 1.5 -48.5t-3.5 -50t-13 -47.5t-25 -41q-38 -40 -101 -41h-4q-68 0 -113 44q-9 9 -16.5 19.5
t-14.5 21.5q-10 -16 -20.5 -29t-22.5 -24q-22 -17 -48 -25t-55 -4q-87 11 -119 88q-13 32 -15.5 67t-1.5 64q1 40 6.5 78.5t12 69t11.5 49.5t6 21q5 16 18.5 21.5t29.5 0.5q15 -5 23.5 -16.5t3.5 -27.5q0 -1 -4.5 -18.5t-10.5 -45.5t-11 -63t-6 -71q-1 -23 1 -50t10 -49
q14 -36 55 -40q25 -3 44 12q15 12 25 32t16.5 41t9.5 39.5t4 28.5q2 16 13.5 26.5t27.5 9.5t27 -12t11 -27q0 -9 2 -25.5t7 -35.5t13.5 -38t22.5 -32q23 -22 61 -22q22 1 31.5 7.5t12.5 8.5q10 11 14.5 29t5.5 37t0.5 36t-1.5 26q-2 25 -10.5 55.5t-20 59t-22.5 52.5t-18 37
q-6 12 -4.5 25t11.5 22t23 11t24 -5q1 -1 24 -11.5t61 -19.5q48 -11 91 -7t86 19q23 8 45.5 15t48.5 7q48 0 81 -26q16 -13 30 -31q26 31 63 45q44 16 80 -4q41 -22 52 -65q15 -54 -23 -118q-32 -52 -105 -86q-13 -5 -24 -9.5t-20 -7.5q4 -29 17 -54q22 -38 65 -45
q69 -12 121 22.5t80 109.5q5 16 18.5 18.5t29.5 -3.5zM1031 394q-11 -5 -26.5 -19.5t-26.5 -40.5t-16 -73q23 9 47.5 24.5t37.5 36.5q21 35 15 56q-3 10 -14 17q-2 1 -6 1q-5 0 -11 -2zM807 77q43 1 63 8t34 21q-11 24 -15 49t-6 48q-35 16 -66 19t-52 -8q-24 -11 -32 -45
q-2 -15 1 -34.5t16 -34.5q20 -24 57 -23z" />
    <glyph glyph-name="w_x.liga" unicode="wx" horiz-adv-x="1199" 
d="M1250 228q15 -6 22 -19t2 -28q-8 -21 -21.5 -53t-34.5 -62q-26 -37 -57 -53q-26 -14 -55 -14q-17 0 -32 4q-21 6 -38.5 20.5t-32.5 34.5t-28.5 44t-26.5 48q-12 -20 -25 -41.5t-27 -41t-31 -35.5t-36 -23q-22 -8 -43 -8q-26 0 -51 12q-25 13 -43.5 35.5t-31.5 47
t-21 47.5t-12 38q-5 16 4 28t25 17q16 4 29 -2.5t18 -22.5q11 -44 29.5 -75.5t38.5 -42.5q14 -7 29 -1q4 2 11.5 7.5t19.5 22.5q11 14 20.5 29.5t19.5 32.5q5 8 10 16.5t10 16.5q3 5 6 9.5t6 9.5q-39 57 -76 104t-66 82q-38 -18 -76.5 -25t-75.5 -7q-23 0 -43.5 2t-39.5 5
q15 -35 28.5 -77.5t16.5 -80.5q1 -23 1.5 -48.5t-3.5 -50t-13 -47.5t-25 -41q-38 -40 -101 -41h-4q-68 0 -113 44q-9 9 -16.5 19.5t-14.5 21.5q-10 -16 -20.5 -29t-22.5 -24q-22 -17 -48 -25t-55 -4q-87 11 -119 88q-13 32 -15.5 67t-1.5 64q1 40 6.5 78.5t12 69t11.5 49.5
t6 21q5 16 18.5 22t29.5 1t24 -17t3 -28q0 -1 -4.5 -18.5t-10.5 -45.5t-11 -63t-6 -71q-1 -23 1 -50t10 -49q14 -36 55 -40q25 -3 44 12q15 12 25 32t16.5 41t9.5 39.5t4 28.5q2 16 13.5 26.5t27.5 9.5t27 -12t11 -27q0 -9 2 -25.5t7 -35.5t13.5 -38t22.5 -32q23 -22 61 -22
q22 1 31.5 7t12.5 9q10 11 14.5 29t5.5 37t0.5 36t-1.5 26q-2 25 -10.5 55.5t-20 59t-22.5 52.5t-18 37q-13 25 5 45q18 19 43 11q1 0 13.5 -4.5t33.5 -9t49 -8t58 -2t61.5 9t59.5 24.5q14 8 29 8.5t27 -13.5q42 -51 79 -98t70 -93q18 28 36 55.5t33.5 50.5t27.5 41t20 29
q10 13 24 14.5t28 -8.5t17.5 -24.5t-5.5 -27.5q-8 -11 -21.5 -31t-31.5 -47t-39 -59t-42 -65q5 -8 10 -17.5t10 -19.5q11 -20 22.5 -40t22.5 -37q14 -19 22.5 -25t11.5 -7t8.5 -1.5t13 2t17 10t20.5 22.5q17 23 28 50t18 46q6 15 20.5 20t29.5 0z" />
    <glyph glyph-name="w_z.liga" unicode="w&#x7a;" horiz-adv-x="1023" 
d="M1072 218q15 -6 21.5 -18t0.5 -28q-9 -20 -20.5 -45.5t-29 -49t-43 -43t-62.5 -27.5q-44 -10 -93 -6t-92.5 15.5t-77 27.5t-46.5 31q-6 6 -8 15.5t1 19t10.5 17.5t19.5 11q35 10 65 29t55 44.5t46.5 56t39.5 63.5q-53 -9 -101 -14t-92 -3q-22 1 -37.5 3t-28.5 5t-26 8
t-30 11q10 -28 17.5 -57t9.5 -56q1 -23 1.5 -48t-3.5 -50t-13 -47.5t-25 -40.5q-38 -41 -101 -42h-4q-66 0 -113 44q-17 17 -31 42q-21 -35 -43 -53q-44 -36 -103 -30q-87 11 -119 89q-13 32 -15.5 66.5t-1.5 63.5q1 40 6.5 78.5t12 69t11.5 49.5t6 21q5 16 18.5 22t28.5 1
q16 -5 24.5 -17t3.5 -28l-4.5 -17.5t-10.5 -45.5t-11 -63.5t-6 -71.5q-1 -23 1 -50t10 -49q14 -34 55 -40q25 -3 44 12q15 12 25 32t16.5 41t9.5 39.5t4 28.5q2 16 13 25.5t27 8.5t27.5 -11t11.5 -26q0 -9 2 -25.5t7 -35.5t13.5 -38t22.5 -32q23 -22 61 -22q23 1 32 7.5
t12 9.5q10 11 14.5 29t5.5 36.5t0.5 35.5t-1.5 26q-2 25 -12 57.5t-22 63t-23 53.5t-14 31q-6 13 2 26.5t21 17.5q12 5 25.5 2t19.5 -8l9.5 -9.5t14.5 -12.5t24.5 -15t41.5 -16q24 -8 51 -13.5t64.5 -6t90 6t127.5 23.5q8 2 17.5 4t19.5 -3q20 -9 22 -32q1 -14 -7 -30
q-19 -40 -44 -83t-57 -84q-26 -31 -55.5 -55.5t-59.5 -38.5q5 -3 19 -8.5t34 -10t44.5 -7t51.5 0.5q29 3 62.5 31.5t61.5 95.5q6 15 21 18.5t30 -2.5z" />
    <glyph glyph-name="w_zdotaccent.liga" unicode="w&#x17c;" horiz-adv-x="1023" 
d="M1072 218q15 -6 21.5 -18t0.5 -28q-9 -20 -20.5 -45.5t-29 -49t-43 -43t-62.5 -27.5q-44 -10 -93 -6t-92.5 15.5t-77 27.5t-46.5 31q-6 6 -8 15.5t1 19t10.5 17.5t19.5 11q35 10 65 29t55 44.5t46.5 56t39.5 63.5q-53 -9 -101 -14t-92 -3q-22 1 -37.5 3t-28.5 5t-26 8
t-30 11q10 -28 17.5 -57t9.5 -56q1 -23 1.5 -48t-3.5 -50t-13 -47.5t-25 -40.5q-38 -41 -101 -42h-4q-66 0 -113 44q-17 17 -31 42q-21 -35 -43 -53q-44 -36 -103 -30q-87 11 -119 89q-13 32 -15.5 66.5t-1.5 63.5q1 40 6.5 78.5t12 69t11.5 49.5t6 21q5 16 18.5 22t28.5 1
q16 -5 24.5 -17t3.5 -28l-4.5 -17.5t-10.5 -45.5t-11 -63.5t-6 -71.5q-1 -23 1 -50t10 -49q14 -34 55 -40q25 -3 44 12q15 12 25 32t16.5 41t9.5 39.5t4 28.5q2 16 13 25.5t27 8.5t27.5 -11t11.5 -26q0 -9 2 -25.5t7 -35.5t13.5 -38t22.5 -32q23 -22 61 -22q23 1 32 7.5
t12 9.5q10 11 14.5 29t5.5 36.5t0.5 35.5t-1.5 26q-2 25 -12 57.5t-22 63t-23 53.5t-14 31q-6 13 2 26.5t21 17.5q12 5 25.5 2t19.5 -8l9.5 -9.5t14.5 -12.5t24.5 -15t41.5 -16q24 -8 51 -13.5t64.5 -6t90 6t127.5 23.5q8 2 17.5 4t19.5 -3q20 -9 22 -32q1 -14 -7 -30
q-19 -40 -44 -83t-57 -84q-26 -31 -55.5 -55.5t-59.5 -38.5q5 -3 19 -8.5t34 -10t44.5 -7t51.5 0.5q29 3 62.5 31.5t61.5 95.5q6 15 21 18.5t30 -2.5zM836 572q-1 -21 -17 -35.5t-37 -13.5q-21 2 -35.5 17.5t-12.5 37.5q1 21 17 35.5t37 12.5q21 -1 35.5 -17t12.5 -37z" />
    <glyph glyph-name="uni0431_uni0445.liga" unicode="&#x431;&#x445;" horiz-adv-x="908" 
d="M58 44q-61 64 -58 191q3 94 44 149q40 55 114 63q11 2 21 1.5t21 -2.5q-14 19 -33 37t-38.5 34.5t-37 30t-28.5 22.5q-4 4 -12.5 13.5t-7.5 25.5q2 22 21 33q16 9 43.5 15.5t60.5 8.5t69 -2t69 -17q15 -5 19 -18.5t-2 -28.5q-5 -15 -17.5 -23.5t-27.5 -2.5
q-26 11 -54.5 13.5t-54.5 0.5q22 -18 47 -41.5t48 -54.5q18 -24 37 -56t32.5 -70.5t18.5 -83.5t-3 -95q33 -109 112 -112q23 -1 45.5 16.5t42 42t35.5 51t27 44.5q-38 65 -71 105t-47 52q-5 4 -10.5 7.5t-13.5 5.5t-19.5 1.5t-28.5 -4.5q-16 -4 -28 5.5t-17 25.5
q-4 16 2.5 28.5t22.5 16.5q53 14 92 2q19 -5 31 -13.5t19 -13.5q20 -16 50 -53t65 -91q18 28 35.5 54.5t33 49.5t27.5 40.5t19 28.5q10 14 24.5 15.5t27.5 -8.5q14 -10 18 -25t-6 -28q-8 -11 -21.5 -31.5t-31.5 -47.5t-39 -59t-43 -65l9 -17q12 -23 24.5 -46t26.5 -42
q17 -24 27 -32.5t14 -10.5q10 -3 23.5 2t35.5 34q17 23 27.5 48.5t17.5 44.5q5 15 19 20t29 0q16 -6 23.5 -19t1.5 -28q-8 -21 -20.5 -51.5t-33.5 -59.5q-25 -36 -57 -54q-28 -14 -55 -14q-8 0 -16 1t-16 3q-21 6 -38.5 20.5t-33.5 34t-29.5 42.5t-26.5 47
q-27 -38 -49.5 -65.5t-44.5 -45.5t-45 -26.5t-52 -8.5q-48 0 -83.5 20.5t-61.5 59.5q-4 -7 -7.5 -13.5t-8.5 -11.5q-24 -32 -60 -48q-8 -3 -14.5 -6t-14 -4.5t-17 -2t-24.5 -0.5q-71 0 -114 46zM79 233q-3 -94 36 -135q20 -21 54 -23q33 0 53.5 15.5t31.5 39t15.5 50.5
t4.5 49q0 12 -0.5 24t-1.5 23q-8 43 -36 69q-13 12 -29 19t-33 6q-37 -3 -65 -38t-30 -99z" />
    <glyph glyph-name=".notdef" horiz-adv-x="549" 
d="M85 0q-17 0 -28.5 11.5t-11.5 27.5v762q0 17 11.5 28.5t28.5 11.5h373q17 0 28.5 -11.5t11.5 -28.5v-762q0 -16 -11.5 -27.5t-28.5 -11.5h-373zM419 79v683h-295v-683h295z" />
    <glyph glyph-name=".null" horiz-adv-x="0" 
 />
    <glyph glyph-name="nonmarkingreturn" horiz-adv-x="333" 
 />
    <glyph glyph-name="space" unicode=" " horiz-adv-x="320" 
 />
    <glyph glyph-name="exclam" unicode="!" horiz-adv-x="261" 
d="M158 200q-17 0 -28 8t-11 25v483q0 16 11 26t28 10t28 -10t11 -26v-483q0 -17 -11 -25t-28 -8zM210 49q-2 -22 -17.5 -36t-37.5 -13q-21 2 -35.5 17.5t-12.5 37.5q2 21 17.5 35.5t36.5 12.5q22 -1 36.5 -17t12.5 -37z" />
    <glyph glyph-name="quotedbl" unicode="&#x22;" horiz-adv-x="300" 
d="M52 574q-16 0 -27.5 8.5t-11.5 25.5v126q0 17 11.5 26.5t27.5 9.5q17 0 28.5 -9.5t11.5 -26.5v-126q0 -17 -11.5 -25.5t-28.5 -8.5zM180 574q-16 0 -27.5 8.5t-11.5 25.5v126q0 17 11.5 26.5t27.5 9.5q17 0 28.5 -9.5t11.5 -26.5v-126q0 -17 -11.5 -25.5t-28.5 -8.5z" />
    <glyph glyph-name="numbersign" unicode="#" horiz-adv-x="1030" 
d="M931 301q17 1 25.5 -8.5t10.5 -26.5t-5 -29.5t-24 -14.5l-268 -22l-87 -243q-5 -12 -14 -16.5t-21 -4.5q-5 0 -13 2q-16 6 -24 18t-2 28l75 209l-293 -24l-77 -212q-4 -12 -13 -16.5t-21 -4.5q-5 0 -13 2q-16 6 -24 18t-3 28l65 178l-168 -13h-3q-15 0 -23 10t-10 26
q-2 17 5.5 28.5t24.5 13.5l203 17l62 173l-259 -21h-3q-15 0 -23.5 10.5t-10.5 26.5q-2 17 6 28t25 13l294 24l98 272q5 15 19 20t29 0q16 -5 23.5 -18t2.5 -29l-86 -238l294 24l86 241q6 15 20 20t29 0q16 -5 23.5 -18t1.5 -29l-74 -207l140 12q17 2 26 -8t11 -27
t-5.5 -29.5t-24.5 -14.5l-176 -14l-63 -173zM613 275l63 173l-294 -24l-62 -173z" />
    <glyph glyph-name="dollar" unicode="$" horiz-adv-x="430" 
d="M230 -58q-17 0 -28.5 7t-11.5 24v30q-52 11 -89 42q-56 47 -76 139q-3 16 7 26.5t26 13.5t28.5 -2.5t15.5 -21.5q19 -94 88 -116v145q-17 4 -32.5 8t-26.5 9q-41 20 -57 55q-12 26 -10.5 54.5t17.5 53.5q16 24 46 42.5t63 25.5v33q0 17 11 23t28 6t28.5 -6t11.5 -23v-34
q28 -5 53 -12.5t39 -17.5q25 -19 5 -48q-9 -14 -22.5 -20t-27.5 3q-5 3 -18 8t-29 9v-108l29 -9q46 -18 71 -47q30 -33 34 -79q3 -28 -5.5 -55.5t-26.5 -49.5q-39 -46 -102 -51v-26q0 -17 -11.5 -24t-27.5 -7zM310 100q18 21 15 47q-2 19 -12.5 34t-42.5 26h-1v-130
q26 5 41 23zM154 374q-7 -7 -9.5 -19t5.5 -23q6 -8 16.5 -13.5t23.5 -8.5v86q-20 -6 -36 -22z" />
    <glyph glyph-name="percent" unicode="%" horiz-adv-x="681" 
d="M149 -42q-10 0 -18 4q-14 8 -19.5 23t1.5 30l374 752q8 14 23.5 19.5t29.5 -2.5q15 -7 20 -22.5t-2 -29.5l-374 -752q-5 -11 -14.5 -16.5t-20.5 -5.5zM157 442q-32 0 -59.5 12t-47.5 35q-20 21 -30 49t-10 59q0 63 40 108q42 47 107 47q63 0 107 -47q19 -22 29.5 -49.5
t10.5 -58.5t-10.5 -59t-29.5 -49q-21 -23 -48.5 -35t-58.5 -12zM157 673q-34 0 -51 -23.5t-17 -52.5t17 -53t51 -24t51 24t17 53t-17 52.5t-51 23.5zM515 1q-65 0 -107 47q-20 21 -30 49t-10 59q0 63 40 108q42 47 107 47q64 0 106 -47q40 -45 40 -108q0 -31 -10 -59
t-30 -49q-42 -47 -106 -47zM515 232q-34 0 -51.5 -23.5t-17.5 -52.5t17.5 -52.5t51.5 -23.5q33 0 50.5 23.5t17.5 52.5t-17.5 52.5t-50.5 23.5z" />
    <glyph glyph-name="ampersand" unicode="&#x26;" horiz-adv-x="604" 
d="M249 -11q-17 0 -35 3q-30 6 -56 26.5t-45 52.5q-17 29 -24 61.5t-2 63.5q7 50 34 96.5t62 91.5q-24 44 -44.5 96t-22.5 103q-2 52 14 84.5t33 49.5q23 23 53.5 35t62.5 10q53 -2 91 -46q21 -24 30.5 -55t5.5 -61q-2 -22 -8.5 -40.5t-17 -37.5t-26 -40.5t-35.5 -49.5
l-8 -10q-8 -11 -16.5 -22t-16.5 -22l12 -18t13 -17q17 -24 38.5 -50t45.5 -52q10 32 15.5 61t7.5 51q2 16 14 24.5t28 6.5q17 -2 27.5 -12t9.5 -26q-3 -32 -13 -76.5t-27 -91.5q31 -31 61.5 -58t59.5 -48q14 -10 13 -25t-11 -28q-9 -14 -22 -17t-26 7q-26 19 -53.5 42.5
t-55.5 49.5q-31 -55 -73 -83.5t-93 -28.5zM228 312q-24 -32 -41.5 -64t-22.5 -63q-2 -18 2.5 -37t13.5 -35.5t22 -28t27 -14.5q7 -2 20.5 -2.5t31 6.5t36.5 25.5t37 56.5q2 2 2 3q-33 35 -63 70t-54 67q-2 4 -5 7.5t-6 8.5zM273 684q-32 0 -54 -22q-27 -27 -24 -75
q1 -29 11.5 -63t29.5 -72l6 8l6 8l8 11q20 27 33 46t21.5 33t12 26t5.5 26t-2.5 29t-15.5 26q-5 6 -13.5 12t-20.5 7h-3z" />
    <glyph glyph-name="quotesingle" unicode="'" horiz-adv-x="172" 
d="M52 574q-16 0 -27.5 8.5t-11.5 25.5v126q0 17 11.5 26.5t27.5 9.5q17 0 28.5 -9.5t11.5 -26.5v-126q0 -17 -11.5 -25.5t-28.5 -8.5z" />
    <glyph glyph-name="parenleft" unicode="(" horiz-adv-x="232" 
d="M163 -74q-22 0 -32 17q-30 50 -54 96t-40.5 95.5t-25 105.5t-8.5 126q0 75 6.5 130t21.5 101.5t38.5 90t57.5 95.5q9 14 24 15.5t29 -7.5t18 -23.5t-5 -28.5q-33 -49 -54.5 -93.5t-34.5 -88.5t-18 -90.5t-5 -99.5q1 -53 8.5 -101.5t22.5 -95t36.5 -93t50.5 -94.5
q8 -14 3 -29t-19 -23q-10 -5 -20 -5z" />
    <glyph glyph-name="parenright" unicode=")" horiz-adv-x="245" 
d="M64 -74q-10 0 -20 5q-14 8 -19 23t3 29q28 48 50 94.5t37 93t22.5 95t8.5 101.5q0 53 -5 99.5t-18 90.5t-34.5 88.5t-54.5 93.5q-9 14 -5 28.5t18 23.5t29 7.5t24 -15.5q34 -52 57.5 -95.5t38.5 -90t21.5 -101.5t6.5 -130q0 -70 -9 -126t-25.5 -105.5t-40 -95.5
t-53.5 -96q-10 -17 -32 -17z" />
    <glyph glyph-name="asterisk" unicode="*" horiz-adv-x="343" 
d="M330 700q5 -15 -1 -29.5t-21 -19.5l-78 -25l48 -67q10 -13 6.5 -27.5t-17.5 -24.5q-11 -8 -23 -8q-9 0 -16.5 3t-13.5 11l-48 66l-48 -66q-6 -8 -13.5 -11t-16.5 -3q-12 0 -23 8q-14 10 -17.5 24.5t6.5 27.5l48 67l-78 25q-15 5 -21 19.5t-1 30.5t18 23t29 2l78 -26v83
q0 16 11.5 26t27.5 10q17 0 28 -10t11 -26v-83l79 26q15 5 28 -2.5t18 -23.5z" />
    <glyph glyph-name="plus" unicode="+" horiz-adv-x="510" 
d="M400 290q17 0 28.5 -11t11.5 -28t-11.5 -28t-28.5 -11h-106v-106q0 -17 -11.5 -28.5t-27.5 -11.5q-17 0 -28.5 11.5t-11.5 28.5v106h-106q-16 0 -27.5 11t-11.5 28t11.5 28t27.5 11h106v107q0 16 11.5 27.5t28.5 11.5q16 0 27.5 -11.5t11.5 -27.5v-107h106v0z" />
    <glyph glyph-name="comma" unicode="," horiz-adv-x="243" 
d="M106 -132q-11 0 -20 6q-14 8 -20 22t2 28q11 18 18 34t11.5 33.5t6 38.5t1.5 48q0 17 11.5 25.5t28.5 8.5t27.5 -8.5t10.5 -25.5q0 -29 -1.5 -53.5t-7 -47.5t-14.5 -46t-24 -48q-6 -9 -12.5 -12t-17.5 -3z" />
    <glyph glyph-name="hyphen" unicode="-" horiz-adv-x="404" 
d="M144 212q-16 0 -27.5 11t-11.5 28t11.5 28t27.5 11h174q17 0 28.5 -11t11.5 -28t-11.5 -28t-28.5 -11h-174z" />
    <glyph glyph-name="period" unicode="." horiz-adv-x="251" 
d="M190 49q-2 -22 -17.5 -36t-37.5 -13q-21 2 -35.5 17.5t-12.5 37.5q2 21 17.5 35.5t36.5 12.5q22 -1 36.5 -17t12.5 -37z" />
    <glyph glyph-name="slash" unicode="/" horiz-adv-x="393" 
d="M125 -118q-10 -2 -18 1q-16 5 -25.5 15.5t-4.5 26.5l240 828q5 16 17.5 21t28.5 0q15 -5 24.5 -16t4.5 -27l-239 -828q-4 -11 -10.5 -15t-17.5 -6z" />
    <glyph glyph-name="zero" unicode="0" horiz-adv-x="416" 
d="M206 -2q-67 0 -112 45q-65 65 -63 212q0 96 43 156q23 31 57 50q33 18 75 18q72 0 119 -47q61 -61 61 -188q0 -107 -38 -169q-48 -77 -142 -77zM206 400q-33 0 -52.5 -18t-29 -42t-12 -48t-2.5 -37q-2 -115 40 -157q21 -21 56 -21q9 0 26 2.5t33.5 18.5t29 49.5
t12.5 96.5q0 95 -38 133q-23 23 -63 23z" />
    <glyph glyph-name="one" unicode="1" horiz-adv-x="364" 
d="M333 76q16 0 23.5 -11t7.5 -27q0 -17 -7.5 -28.5t-23.5 -11.5h-269q-17 0 -23.5 11t-6.5 27q0 17 6.5 28.5t23.5 11.5h93v291l-76 -60q-13 -10 -25.5 -6t-22.5 17q-11 13 -12.5 27t12.5 24l139 110q20 15 42 4q22 -10 22 -35v-372h97v0z" />
    <glyph glyph-name="two" unicode="2" horiz-adv-x="431" 
d="M193 20q-5 2 -12 5.5t-18 5.5q-21 2 -38 -7t-34 -21q-13 -10 -26 -6.5t-23 15.5q-11 13 -11.5 27t10.5 25q18 15 48 43t61.5 58.5t59.5 59.5t42 47q39 54 19 94q-9 17 -28 28.5t-42 11.5q-45 -2 -69 -30q-11 -13 -16 -29t-2 -31q3 -17 -5.5 -26.5t-25.5 -11.5
q-16 -3 -30 2.5t-17 21.5q-5 32 4 65.5t32 59.5q23 28 56.5 42.5t72.5 14.5q45 0 83 -22.5t57 -60.5q20 -40 14 -84q-8 -47 -40 -91q-17 -23 -49 -56.5t-67 -66.5q1 0 11.5 -5t16.5 -7q26 -13 41.5 -18.5t32.5 -3.5t26 9t16 22q8 16 21 19.5t29 -1.5q15 -5 22.5 -15.5
t2.5 -25.5q-1 -3 -6 -14.5t-16 -25.5q-17 -20 -44 -34t-59 -13t-53.5 9.5t-46.5 20.5z" />
    <glyph glyph-name="three" unicode="3" horiz-adv-x="410" 
d="M198 -166q-50 0 -87 25q-31 19 -52 54q-17 26 -22 46.5t-6 28.5q-2 14 5.5 22t27.5 12q20 3 30 -3t14 -19q2 -8 5.5 -19.5t14.5 -28.5q24 -40 70 -40q43 0 73 30q31 32 29 88q-1 61 -36 90q-16 12 -36 17.5t-40 7t-37 0t-26 -3.5q-13 -3 -22.5 2.5t-15.5 16.5
q-7 11 -8 23t7 22l154 183l-162 1q-17 0 -24 12t-7 28q0 17 7.5 28t23.5 11l247 -2q25 0 35 -23q5 -11 3.5 -22t-8.5 -19l-151 -180q65 -6 108 -40q30 -24 48 -60q17 -38 19 -90q1 -44 -12.5 -81t-39.5 -64q-51 -53 -128 -53h-1v0z" />
    <glyph glyph-name="four" unicode="4" horiz-adv-x="406" 
d="M368 76q16 0 22 -11t6 -28t-5.5 -28t-22.5 -11l-64 -1l-3 -111q0 -8 -7.5 -19t-30.5 -11t-31.5 11.5t-8.5 20.5l2 109l-155 -1q-22 0 -34 20q-11 21 1 41l9.5 16.5t21.5 44.5t23.5 65t15.5 78q4 43 4 72t-2 47.5t-5.5 29t-5.5 17.5q-5 17 2 28t24 16q16 6 28.5 2.5
t17.5 -14.5q2 -5 6.5 -18.5t8 -38.5t4.5 -61.5t-4 -87.5q-5 -54 -20 -99.5t-30 -78.5h92l2 137q1 8 9 18t31 11q23 0 31 -11.5t8 -19.5l-3 -134h63v0z" />
    <glyph glyph-name="five" unicode="5" horiz-adv-x="399" 
d="M37 -19q-5 15 2.5 25t19.5 14q14 5 28 2t24 -21q19 -35 41.5 -55t47.5 -19q26 1 40 11t23 23q18 24 24.5 60t-1.5 79q-9 44 -38 60q-16 9 -36 11.5t-39.5 1t-36 -5t-25.5 -6.5q-20 -7 -36 5q-16 11 -16 32v236q0 16 11.5 27.5t27.5 11.5l202 1h1q16 0 23.5 -10.5
t7.5 -27.5q0 -16 -7.5 -28t-23.5 -12l-163 -1v-147q4 0 14 2q82 9 134 -22q62 -36 77 -113q11 -62 2 -113q-10 -52 -41 -90q-23 -29 -55.5 -45t-67.5 -16q-54 0 -97.5 33t-66.5 97z" />
    <glyph glyph-name="six" unicode="6" horiz-adv-x="456" 
d="M111 33q-43 40 -62 108q-16 54 -18 123t9.5 131t34.5 110q24 52 59 84q39 36 89 42q53 6 93 -13q21 -10 47.5 -37.5t40.5 -78.5q3 -12 -6.5 -21.5t-23.5 -11.5t-27.5 1.5t-20.5 18.5q-9 22 -18.5 35.5t-21 20.5t-25 8.5t-29.5 -0.5q-17 -2 -30.5 -11t-24.5 -21
t-18.5 -25.5t-12.5 -23.5q-17 -35 -26 -80t-10 -96q3 3 10.5 9.5t21 14t33.5 14t47 9.5q44 4 81 -6t64 -33q52 -43 58 -118q4 -41 -7 -77.5t-35 -63.5q-17 -20 -52 -39.5t-88 -19.5q-40 0 -73.5 11.5t-58.5 35.5zM165 90q14 -14 34 -20.5t43 -6.5q32 -1 51.5 10t30.5 24
q17 23 20.5 47t2.5 35q-2 15 -7.5 33t-22.5 32q-30 26 -88 21q-29 -3 -51 -15.5t-34 -38.5q-6 -13 -8 -29t0.5 -32.5t9.5 -32t19 -27.5z" />
    <glyph glyph-name="seven" unicode="7" horiz-adv-x="435" 
d="M424 451q2 -15 -8 -34.5t-42 -47.5q-28 -42 -50.5 -86t-40.5 -93h64q17 0 24 -11t7 -28t-7 -28t-24 -11h-89q-33 -119 -49 -280q-3 -29 -38 -29q-17 0 -29.5 10t-10.5 27q8 79 19 146t26 126h-75q-17 0 -24.5 11.5t-7.5 27.5q0 17 7.5 28t24.5 11h99q8 30 22.5 66.5
t33.5 67.5q-7 1 -13.5 2t-14.5 3q-28 7 -46.5 24t-32.5 34q-13 15 -18.5 21.5t-13.5 5.5t-12 -9.5t-5 -19.5t-0.5 -23t0.5 -19q2 -17 -8 -23.5t-27 -8.5t-29 4t-14 22q-2 23 -1.5 45.5t7.5 43.5q8 28 28 44.5t49 21.5q37 5 67 -17q11 -8 19.5 -17.5t16.5 -19.5
q11 -11 20 -21t18 -12q38 -9 69 16q9 14 17 25.5t20 23.5q23 26 46 18q12 -4 18.5 -14t7.5 -23z" />
    <glyph glyph-name="eight" unicode="8" horiz-adv-x="452" 
d="M228 -8q-18 0 -39 3.5t-43 12t-42.5 21.5t-37.5 32q-26 30 -38 69t-5 84q7 43 33 73.5t78 67.5q-29 19 -51.5 46.5t-30.5 70.5q-7 32 1 63.5t29 57.5q25 30 61.5 47t78.5 17q38 0 72.5 -15t57.5 -42q22 -24 32 -54.5t5 -62.5q-4 -32 -21 -63t-58 -60q52 -34 81.5 -65
t37.5 -80q14 -91 -40 -152q-31 -37 -79 -55q-20 -8 -41 -12t-41 -4zM101 202q-6 -54 24 -89q21 -24 50.5 -33.5t52.5 -9.5q24 0 53 10.5t49 33.5q30 36 21 89q-3 22 -18.5 40t-35.5 31.5t-40.5 23t-33.5 14.5q-22 -11 -42 -21.5t-36.5 -23t-28 -28.5t-15.5 -37zM222 578
q-50 0 -79 -35q-7 -8 -12.5 -22t-1.5 -34q6 -32 28.5 -51.5t62.5 -36.5q38 19 62.5 39.5t28.5 54.5q2 14 -2.5 28.5t-15.5 26.5q-25 30 -71 30z" />
    <glyph glyph-name="nine" unicode="9" horiz-adv-x="437" 
d="M72 -101q-18 20 -25.5 37.5t-12.5 27.5q-4 11 4.5 22.5t22.5 15.5q17 5 29 2t19 -17q21 -39 44 -56t61 -17q21 0 35 4.5t22.5 11.5t13 16t8.5 19q10 24 14.5 55t6.5 58.5t2 48.5v26q-23 -14 -47.5 -21.5t-61.5 -6.5q-73 1 -123 50q-26 23 -38.5 54t-14.5 65q-5 86 49 141
q9 9 21 19t28 17.5t37 12t48 4.5q42 -1 70 -10.5t51 -28.5q28 -23 42.5 -55t16.5 -79q1 -14 1.5 -38.5t1 -52.5t0 -57t-1.5 -51q-2 -35 -4 -60t-5 -45.5t-7.5 -38.5t-12.5 -39q-9 -23 -25 -41t-36 -30t-41.5 -19t-52.5 -6q-46 1 -77 14t-62 48zM212 415q-27 0 -45.5 -10.5
t-32.5 -26.5q-17 -20 -21.5 -40t-3.5 -40q1 -18 7.5 -35t18.5 -30.5t30.5 -21.5t43.5 -7q38 0 59.5 11.5t32 28t13 34t2.5 29.5q0 24 -5.5 44t-22.5 37q-7 7 -13.5 12t-15 8.5t-20 5t-27.5 1.5z" />
    <glyph glyph-name="colon" unicode=":" horiz-adv-x="235" 
d="M184 49q-2 -22 -17.5 -36t-37.5 -13q-21 2 -35.5 17.5t-12.5 37.5q2 21 17.5 35.5t36.5 12.5q22 -1 36.5 -17t12.5 -37zM184 344q-2 -22 -17.5 -36t-37.5 -13q-21 2 -35.5 17.5t-12.5 37.5q2 21 17.5 35.5t36.5 12.5q22 -1 36.5 -17t12.5 -37z" />
    <glyph glyph-name="semicolon" unicode=";" horiz-adv-x="242" 
d="M191 344q-2 -22 -17.5 -36t-37.5 -13q-21 2 -35.5 17.5t-12.5 37.5q2 21 17.5 35.5t36.5 12.5q22 -1 36.5 -17t12.5 -37zM106 -132q-11 0 -20 6q-14 8 -20 22t2 28q11 18 18 34t11.5 33.5t6 38.5t1.5 48q0 17 11.5 25.5t28.5 8.5t27.5 -8.5t10.5 -25.5q0 -29 -1.5 -53.5
t-7 -47.5t-14.5 -46t-24 -48q-6 -9 -12.5 -12t-17.5 -3z" />
    <glyph glyph-name="less" unicode="&#x3c;" horiz-adv-x="468" 
d="M363 72q11 -11 10 -26t-13 -26q-11 -11 -26 -13t-27 9l-206 206q-11 13 -11 29q0 15 11 28l206 206q12 11 26.5 10.5t25.5 -12.5q11 -11 13 -26.5t-9 -27.5l-179 -178l179 -179v0z" />
    <glyph glyph-name="equal" unicode="=" horiz-adv-x="510" 
d="M109 290q-16 0 -27.5 11t-11.5 28t11.5 28t27.5 11h291q17 0 28.5 -11t11.5 -28t-11.5 -28t-28.5 -11h-291zM109 134q-16 0 -27.5 11t-11.5 28t11.5 28t27.5 11h291q17 0 28.5 -11t11.5 -28t-11.5 -28t-28.5 -11h-291z" />
    <glyph glyph-name="greater" unicode="&#x3e;" horiz-adv-x="468" 
d="M287 251l-179 178q-11 12 -9 27.5t13 26.5q11 12 26 12.5t26 -10.5l206 -206q11 -11 11 -28q0 -18 -11 -29l-206 -206q-11 -11 -26.5 -9t-26.5 13q-12 11 -13 26t10 26z" />
    <glyph glyph-name="question" unicode="?" horiz-adv-x="357" 
d="M153 214q-16 0 -27.5 11t-11.5 28v5q0 22 1 46t5.5 48t14.5 48t28 48q10 12 21.5 23.5t25.5 22.5q24 20 45 41.5t23 46.5q5 51 -22 84q-22 25 -56 28q-67 5 -96 -86q-5 -15 -19.5 -22.5t-30.5 -2.5q-15 5 -22.5 19.5t-2.5 29.5q23 73 71 109q48 35 106 31q67 -6 110 -55
q23 -28 33.5 -64t6.5 -78q-2 -24 -11.5 -44.5t-23 -37.5t-29 -31.5t-30.5 -26.5q-11 -10 -21 -18.5t-16 -16.5q-24 -32 -28 -67.5t-4 -73.5v-6q0 -17 -11.5 -28t-28.5 -11zM205 49q-2 -22 -17.5 -36t-37.5 -13q-21 2 -35.5 17.5t-12.5 37.5q2 21 17.5 35.5t36.5 12.5
q22 -1 36.5 -17t12.5 -37z" />
    <glyph glyph-name="at" unicode="@" horiz-adv-x="697" 
d="M751 146q13 -10 16 -24.5t-7 -27.5q-79 -104 -199 -147q-87 -33 -191 -33h-16.5t-16.5 1q-113 6 -195 57q-94 60 -132 173q-20 60 -23 121.5t11 120.5q12 51 36 96t56 80q35 38 85.5 63t109.5 33q55 8 107.5 1.5t94.5 -27.5q30 -15 57 -37t49 -51q23 -29 38 -61.5
t23 -66.5t8 -71.5t-8 -71.5q-20 -97 -92 -126q-52 -22 -114 -3q-5 2 -8.5 3t-8.5 3q-19 -17 -42 -25t-52 -9h-5q-62 0 -104 43q-24 24 -37.5 57t-13.5 68q1 32 9.5 61.5t24.5 52.5q15 21 44.5 41t79.5 20h7q24 -1 42.5 -7t32.5 -15t24 -19.5t16 -20.5q17 -26 22 -54t5 -50
q0 -20 -3 -37.5t-8 -34.5q11 -5 26 -8t32 5q21 8 31.5 29.5t14.5 41.5q7 31 6 60.5t-6 49.5q-11 52 -45 96t-80 67q-31 15 -71.5 20t-83 -1t-82 -24t-68.5 -49q-22 -24 -41.5 -59t-30 -78.5t-9.5 -95t19 -107.5q17 -51 46 -84.5t64.5 -53t73 -28t72.5 -9.5q40 -2 86.5 2
t94 20t92.5 46t83 79q10 14 25 14.5t29 -9.5zM334 195q7 0 19 2t23.5 11.5t20 29.5t8.5 56q0 32 -8 49.5t-19 26t-22 10t-17 1.5h-4q-39 0 -60 -28q-19 -27 -19 -69q0 -19 7.5 -37.5t20.5 -31.5q20 -20 48 -20h2z" />
    <glyph glyph-name="A" unicode="A" horiz-adv-x="727" 
d="M775 228q15 -6 21.5 -17.5t0.5 -26.5q-14 -36 -29.5 -64.5t-35.5 -50.5q-39 -40 -85 -52q-32 -8 -62.5 -1t-53.5 27q-19 16 -32.5 44.5t-22.5 64.5t-14.5 77.5t-9.5 84.5h-108q-11 -27 -23 -56t-24 -55t-22.5 -48t-17.5 -36q-11 -20 -25 -42t-33 -39q-39 -36 -85 -36
h-8.5t-8.5 1q-56 8 -91 57q-24 31 -36 81q-4 16 5 26.5t25 14.5t29 -1t17 -21q18 -73 62 -79q20 -3 38 14.5t42 60.5q12 23 31.5 66.5t39.5 91.5h-16q-17 0 -24 12t-7 29t7 27t24 10h48q5 13 9 23.5t7 18.5q6 15 17 45t24.5 65t27.5 72t26 67t19.5 49.5t7.5 20.5
q5 14 16.5 18t25.5 2t23.5 -10t10.5 -22q0 -1 1 -22t2.5 -54t3.5 -72.5t4.5 -77t4 -68t3.5 -45.5q0 -6 0.5 -13t1.5 -15q2 -31 5.5 -73.5t11.5 -85.5q6 -32 12 -53t11.5 -34t10 -18.5t6.5 -7.5q6 -5 18 -9t27 0q8 2 19.5 8.5t25 19.5t27.5 35t27 56q6 16 19.5 19t28.5 -3z
M381 406q-2 -3 -2.5 -6.5t-2.5 -7.5h70q0 2 -1 3q-2 20 -4.5 63t-4.5 93q-17 -45 -32.5 -85t-22.5 -60z" />
    <glyph glyph-name="B" unicode="B" horiz-adv-x="689" 
d="M645 296q5 -33 3.5 -67.5t-9.5 -63.5q-15 -55 -57 -95q-45 -45 -118 -62q-34 -7 -72 -7q-59 0 -122 19q-6 1 -11 5q-22 -23 -47.5 -31.5t-48.5 -8.5h-1q-58 0 -101 43q-29 28 -45 72q-15 45 -15 100q0 17 11 23.5t28 6.5q16 0 27.5 -6.5t11.5 -23.5q0 -38 9.5 -68.5
t27.5 -47.5q20 -20 46 -20q20 0 34 9.5t23 41.5q6 19 10.5 58.5t7.5 85.5t3.5 92t-0.5 79q-3 73 -7.5 122.5t-8.5 77.5q-36 -11 -70 -24t-60 -24t-42 -19l-16 -8q-14 -8 -26.5 0t-19.5 22q-8 16 -6.5 27.5t15.5 19.5q3 1 35 17t80 34.5t105 34t110 17.5q84 3 133 -27
q50 -32 65 -98q1 -6 2.5 -18.5t-0.5 -30t-8.5 -37.5t-20.5 -41q-2 -3 -4.5 -5.5t-4.5 -5.5q56 -11 88 -37q52 -43 66 -131zM332 648q-8 0 -15.5 -0.5t-15.5 -1.5q4 -26 8.5 -73t8.5 -116l12 3q2 1 3 1t3 1q71 18 99 58q16 23 16 41.5t-1 23.5q-3 13 -8.5 24.5t-18 20.5
t-34 14t-57.5 4zM563 186q5 19 6.5 45t-2.5 52t-13 48.5t-25 35.5q-29 23 -103 23q-16 0 -30 -1t-25 -3q-13 -2 -25 -3h-2q-6 -2 -12 -3t-13 -2q0 -36 -2 -77t-5 -80t-7 -72.5t-10 -53.5q83 -25 152 -10q30 7 51 19.5t34.5 26.5t20.5 29t10 26z" />
    <glyph glyph-name="C" unicode="C" horiz-adv-x="424" 
d="M265 4q-118 5 -183 80q-26 32 -39.5 64.5t-19.5 56.5q-16 60 -19.5 118t-2.5 100q2 51 7.5 91t11.5 62q19 78 54 116q40 44 105 53q58 8 104 -35q22 -20 34.5 -42.5t19.5 -39.5q6 -15 -2 -27t-23 -17q-15 -6 -29 -2.5t-20 19.5q-2 4 -7 16t-14.5 24t-22.5 20t-30 6
q-37 -6 -57 -27q-21 -24 -36 -83q-5 -20 -10 -56.5t-6 -82t3 -95.5t16 -98q6 -24 17 -49t29.5 -45t48 -33.5t73.5 -14.5q31 -1 56.5 10.5t45 30.5t33.5 42t22 46q6 16 19.5 20t29.5 -1q15 -5 21.5 -17t1.5 -28q-8 -20 -24.5 -54t-50.5 -66q-65 -62 -150 -62h-6z" />
    <glyph glyph-name="D" unicode="D" horiz-adv-x="641" 
d="M106 -51q-27 0 -48 9q-24 9 -42 24t-31.5 34t-21 39.5t-10.5 40.5q-4 35 3.5 65t25.5 50q11 11 30.5 22.5t51.5 11.5q33 0 63.5 -17.5t61.5 -42.5q1 8 1.5 16t0.5 17q3 53 4 102.5t0 75.5q-1 27 -3.5 61.5t-5.5 69.5t-5.5 66t-4.5 52q-35 -8 -57.5 -23.5t-51.5 -38.5
q-12 -11 -25 -6t-24 18t-12.5 25t11.5 23q25 21 47.5 37.5t49.5 27.5t62 17t86 7q53 1 98.5 -15t81.5 -42t61.5 -59.5t39.5 -67.5q27 -67 38 -133.5t8 -142.5q-2 -42 -7.5 -76t-15.5 -63q-13 -43 -38 -72q-29 -38 -72 -50q-27 -8 -55 -10t-56 3q-25 4 -49 13t-47 23l-2 -4
q-11 -28 -33 -47.5t-54 -30.5q-26 -9 -54 -9zM64 167q-11 0 -16 -3t-7 -5q-7 -8 -9.5 -22t-0.5 -31q3 -22 17 -44t37 -31q8 -3 22 -3t29 5q10 3 21.5 10t16.5 21q3 7 6 27q-3 3 -6.5 5.5t-6.5 5.5q-14 11 -28.5 22.5t-28 21t-25.5 15.5t-21 6zM264 125q2 -2 5 -4t5 -4
q80 -55 159 -31q38 12 59 72q15 47 18 117q3 68 -6.5 126t-33.5 118q-10 25 -29.5 50t-46.5 44t-60 30.5t-70 10.5q-7 0 -10 -1q2 -20 5 -52t6 -67.5t5 -71.5t3 -64q1 -27 0 -78t-3 -106q-3 -53 -6 -89z" />
    <glyph glyph-name="E" unicode="E" horiz-adv-x="407" 
d="M455 228q15 -6 22 -18t2 -27q-44 -113 -135 -157q-34 -17 -66 -22t-58 -5h-17q-34 2 -67 13.5t-59 31.5q-68 51 -74 137q-3 61 18 111q17 39 47 68q-26 14 -47 36q-17 19 -28 43.5t-13 51.5q-2 16 -0.5 53.5t15.5 79.5q17 51 52 83t85 43q68 15 127 -10q44 -20 79 -62
q11 -13 7.5 -27t-15.5 -25q-13 -11 -27.5 -11t-24.5 13q-10 11 -21.5 21.5t-27 17.5t-35.5 9t-46 -3q-37 -8 -56 -33t-26.5 -53.5t-7.5 -54t1 -35.5q2 -25 19 -47.5t55 -26.5q13 -1 30 0.5t33.5 4.5t30 6.5t21.5 5.5q16 5 27.5 -4t16.5 -25t-1 -29t-21 -18q-2 0 -11 -2.5
t-19.5 -5.5t-20 -5.5t-10.5 -2.5q-25 -8 -49 -19.5t-42 -30t-28.5 -45.5t-7.5 -67q2 -30 16 -50.5t33 -33t40 -18t36 -6.5q25 -2 53 2.5t55 19t51 41t41 70.5q6 16 19 19.5t29 -2.5z" />
    <glyph glyph-name="F" unicode="F" horiz-adv-x="513" 
d="M613 751q2 -16 -3.5 -29.5t-22.5 -15.5l-321 -35q2 -31 4 -78.5t4 -92.5l155 6q17 0 23 -10.5t7 -27.5t-4.5 -28.5t-22.5 -12.5l-155 -5v-10v-68v-75t-0.5 -68t-1.5 -47q-1 -14 -5 -37t-18 -47q-16 -30 -41 -46q-28 -20 -71 -23h-13q-73 0 -115 45q-42 47 -48 136
q-1 16 9.5 22t26.5 7q17 2 29 -2.5t13 -21.5q3 -35 11 -56.5t19 -33t25 -15t28 -3.5q20 0 34.5 6t24.5 23q8 14 10 28.5t2 21.5q1 15 1.5 45.5t0.5 67v74v66.5q0 17 -1 49t-2.5 68.5t-3 72.5t-3.5 62l-174 -19h-4q-14 -1 -19.5 11t-7.5 27q-2 17 2 27.5t21 12.5l572 62
q17 2 25 -7t10 -26z" />
    <glyph glyph-name="G" unicode="G" horiz-adv-x="617" 
d="M665 229q14 -8 21.5 -21.5t0.5 -27.5q-15 -30 -38 -65.5t-51 -73t-59 -76.5t-62 -76q0 -35 -0.5 -65.5t-1 -54.5t-0.5 -40v-22q0 -26 -7.5 -51t-21.5 -46q-39 -56 -107 -59q-2 -1 -6 -1q-53 0 -81 39q-19 25 -22 59q-2 31 7 56q9 24 43.5 68t97.5 121q5 6 10.5 12
t10.5 13q1 46 1.5 95.5t1.5 98.5l-18 -21q-35 -37 -80 -59q-48 -23 -108 -28q-5 -1 -9.5 -1h-9.5q-39 0 -70 12q-39 16 -65 46q-62 71 -59 220q1 59 8.5 106.5t12.5 67.5q7 32 25.5 79.5t47.5 94.5q17 26 34 46.5t36 35.5q47 38 100 38q73 0 117 -28q22 -14 36.5 -32.5
t25.5 -37.5q9 -14 5 -26t-18 -20t-30 -8.5t-24 13.5t-16.5 25.5t-20.5 19.5t-30 12t-45 4q-17 0 -32 -9t-28.5 -21.5t-24.5 -27t-18 -26.5q-24 -38 -40.5 -79t-22.5 -70q-2 -7 -5 -22.5t-6 -36.5t-5.5 -46.5t-2.5 -52.5q-3 -118 39 -168q31 -34 89 -30q50 4 85 23.5t58 46
t36.5 56t20.5 53.5q6 23 9.5 45.5t4.5 40.5t1 29v11q0 17 10.5 24t27.5 8q16 1 28 -6t13 -24v-19v-4q0 -2 -0.5 -33t-1.5 -80.5t-1.5 -111.5t-1.5 -125q44 54 80.5 105.5t56.5 92.5q8 15 21 18.5t28 -3.5zM396 -293q0 7 0.5 29.5t0.5 55.5q-13 -16 -24.5 -30t-21.5 -27
q-25 -32 -31.5 -43.5t-7.5 -13.5q-4 -11 -3 -23t6 -19q1 -2 5 -5t15 -2q19 1 30.5 10t18.5 21.5t9.5 25.5t2.5 21z" />
    <glyph glyph-name="H" unicode="H" horiz-adv-x="814" 
d="M178 1q-47 0 -85 32q-29 25 -40 58.5t-2 67.5q8 28 35.5 55t80.5 59q20 12 42.5 24.5t45.5 23.5q1 21 1 39t1 32v5q0 24 1 56.5t2.5 68t3.5 71.5t4 69q-40 -29 -80 -32h-10q-44 0 -74.5 20.5t-51.5 45.5q-2 -10 -3.5 -22t-3.5 -27q-2 -19 -3.5 -36.5t-2.5 -31t-1.5 -22
l-0.5 -8.5q-1 -17 -12.5 -22t-27.5 -4q-17 1 -28.5 7t-10.5 23q0 2 2 33t7 72q4 39 9 65t10 43t9.5 26.5t9.5 15.5q11 16 31 16t32 -15q8 -11 16 -24q23 -34 45 -56t54 -20q20 1 37 14.5t29 27.5q14 17 22 30l8 14q7 13 19.5 18.5t26.5 1.5q14 -3 22 -14.5t7 -25.5
q0 -1 -1.5 -21.5t-3.5 -53.5t-4 -74.5l-4 -83t-4 -80.5t-2 -66v-5v-31q4 2 5 3q5 2 10 4.5t10 4.5q47 23 101 66q2 47 4 96.5t5 88.5t14 74t28 61q20 29 43 45q28 19 59 17q46 -3 74 -43q24 -36 25 -87q2 -50 -15 -101q-7 -20 -22 -42t-32.5 -43t-34.5 -38.5t-28 -27.5
t-21 -19.5t-21 -18.5q-1 -29 -1 -51v-35q0 -17 5 -47.5t17 -62.5t32 -59.5t50 -38.5q67 -25 123 32q24 24 34.5 46.5t15.5 31.5q5 10 15.5 15.5t32.5 -4.5q21 -9 24 -21t1 -20q-2 -4 -6 -14t-12 -24t-19.5 -31t-27.5 -33q-39 -41 -86 -56q-60 -20 -123 4q-47 18 -77.5 56
t-47.5 81t-23.5 83t-6.5 62v25q-34 -23 -65 -38q-5 -2 -10 -4.5t-10 -4.5q-11 -5 -21.5 -10.5t-21.5 -10.5q-2 -19 -4 -37.5t-4 -37.5q-5 -32 -11.5 -58.5t-15.5 -47.5q-24 -59 -65 -77q-26 -12 -53 -12zM248 229q-11 -6 -21 -12t-20 -11q-39 -25 -59 -42q-14 -12 -17.5 -18
t-3.5 -7q-4 -14 2 -26t15 -20q4 -4 19.5 -11t35.5 2q2 1 7 6t12 18t14 37t13 63zM610 741q-7 0 -16.5 -8t-18.5 -23.5t-16.5 -39t-10.5 -54.5q-2 -23 -3 -50t-3 -56q36 36 56 63.5t25 41.5q14 38 12 70.5t-12 47.5q-5 6 -8 7t-5 1z" />
    <glyph glyph-name="I" unicode="I" horiz-adv-x="420" 
d="M181 -1q-57 0 -95 19q-38 17 -62 54q-20 29 -25.5 59.5t-7.5 48.5q0 2 -0.5 3.5t-0.5 3.5q-2 16 8 25.5t26 11.5q17 2 29.5 -5t14.5 -23q1 -3 1 -8q2 -15 5.5 -35.5t14.5 -37.5q27 -38 96 -37q29 0 47.5 14.5t29 41.5t14.5 65.5t5 86.5v10v55.5v78t-0.5 87t-0.5 83.5
q-41 -32 -88 -32q-34 -1 -60.5 9.5t-47.5 26.5q1 -32 0.5 -53.5t-0.5 -23.5q0 -17 -10.5 -25t-26.5 -8q-17 0 -29.5 8.5t-12.5 25.5l0.5 18t0.5 45t-0.5 58.5t-1.5 59.5q-1 13 6.5 23.5t19.5 14.5q13 5 25 1.5t20 -14.5l9 -12q11 -16 22 -30t24 -24.5t28 -16t33 -5.5
q26 1 45.5 20t42.5 50q4 4 8 10q8 11 20 14.5t24 -0.5t19 -14t8 -23q0 -11 0.5 -40.5t0.5 -68t0.5 -83t0.5 -86v-76.5v-54v-10q-1 -33 -4 -79t-17 -88q-16 -50 -51 -82q-40 -35 -102 -37h-5v0z" />
    <glyph glyph-name="J" unicode="J" horiz-adv-x="473" 
d="M164 -438q-35 0 -61 14.5t-40 40.5q-18 35 -14 80q5 40 25 71q17 24 57.5 67.5t95.5 100.5q6 7 12.5 14t13.5 14q2 67 0 121v48v39q0 42 0.5 98t1 115.5t1 118t0.5 105.5q-20 -16 -44 -27.5t-52 -11.5q-2 0 -3.5 0.5t-3.5 0.5q-46 3 -91 35q-5 4 -10 7.5t-10 8.5v-85
q-1 -16 -13.5 -25t-28.5 -9q-17 0 -27 9t-10 26v23t0.5 48.5t1 56.5t1.5 47q2 24 24 34t41 -6q6 -5 12.5 -11.5l14.5 -14.5q10 -11 22 -22t24.5 -20.5t25.5 -16t27 -7.5q13 -1 27 6.5t27 18.5t24.5 24t20.5 24q3 3 5.5 6t5.5 6q8 9 20 12.5t23 -1.5q12 -5 19 -15t6 -23
q0 -16 -0.5 -52.5t-0.5 -84t-0.5 -102.5t-0.5 -109.5t-0.5 -103t-0.5 -83.5v-39v-47v-38q46 49 84.5 93t56.5 74q8 14 23 15.5t29 -6.5t18.5 -21.5t-3.5 -27.5q-13 -23 -35 -50.5t-50 -59t-59.5 -65.5t-64.5 -68q-1 -26 -2.5 -51t-4.5 -51q-16 -173 -77 -232
q-33 -36 -82 -36h-1zM247 -156q-38 -39 -67 -71t-40 -49q-11 -15 -13 -35.5t5 -33.5q2 -3 8 -9t24 -6q15 0 27 13q14 13 30 54.5t25 130.5q0 2 0.5 3t0.5 3z" />
    <glyph glyph-name="K" unicode="K" horiz-adv-x="752" 
d="M802 228q15 -5 22.5 -17t1.5 -27q-31 -90 -90 -143q-26 -25 -56 -38t-60 -15q-2 0 -4 -0.5t-4 -0.5q-36 0 -65 17q-35 21 -51 56q-12 23 -18 59t-11 77q-2 23 -5 45.5t-8 41.5q-5 26 -9 35t-6 11q-8 9 -24 14.5t-39 5.5q-11 0 -19.5 -0.5t-15.5 -1.5q-8 -1 -15 -2
q-3 0 -5 -1v-41v-18q0 -40 -1.5 -82.5t-10.5 -82.5q-12 -47 -36 -76q-31 -39 -78 -46q-7 -2 -13.5 -2h-13.5q-34 0 -69 13q-36 13 -77 43q-32 23 -51.5 43.5t-20.5 22.5q-11 12 -7.5 26.5t16.5 25.5q12 11 26 11t25 -12q0 -1 17 -18t43 -37q11 -8 24.5 -16t28 -14t29.5 -8.5
t30 -0.5q21 4 33.5 22.5t18.5 47t7 65t1 75.5v18v45q-2 7 0 15v61t-1 65q0 32 -0.5 64.5t-0.5 61.5q-17 -12 -36 -20.5t-41 -9.5q-24 -1 -44 7t-37 19q-1 -31 -1 -56v-27q-1 -16 -11 -23.5t-27 -7.5t-29 8t-12 25l0.5 22t0.5 51t0.5 58.5t0.5 45.5q0 27 25 37q12 5 24 1.5
t20 -12.5q3 -3 6 -6.5t6 -7.5q8 -9 16.5 -19t18 -18t19.5 -13t21 -5t22.5 6.5t22 16t20 19.5t16.5 18q6 8 9 11q8 9 20.5 12t23.5 -2t18 -15t7 -22v-32v-46t0.5 -55.5t0.5 -60.5q3 6 7 12t8 13q23 38 45.5 68t43.5 53q59 63 113 69q60 6 102 -23q18 -11 29.5 -24.5
t19.5 -22.5q1 -2 3 -4q10 -14 7.5 -27t-15.5 -23t-28.5 -11t-25.5 12q-1 2 -4 5q-6 8 -13 16t-16 14t-21 9t-29 1q-5 0 -16 -5t-29 -20.5t-42.5 -46t-56.5 -81.5q-22 -35 -41 -70h17q81 -1 121 -48q22 -26 31 -73.5t15 -101.5q5 -32 9.5 -64t11.5 -47q16 -29 50 -28
q34 2 67 33q43 38 69 112q6 15 20.5 18.5t29.5 -1.5z" />
    <glyph glyph-name="L" unicode="L" horiz-adv-x="542" 
d="M80 167q-4 0 -8 -0.5t-6 -2.5q-1 -1 -4.5 -9t-1.5 -31q1 -11 8 -25.5t19 -25.5q13 -11 27 -9q26 3 54 52q-8 7 -16.5 13.5t-17.5 12.5q-23 17 -35 21t-16 4h-3zM110 -15q-40 0 -74 28q-23 20 -38 48.5t-17 57.5q-3 68 29 100q10 10 28.5 19.5t48.5 7.5q26 -2 53 -16
t56 -36q7 44 11 123t4 175q0 31 1 62t6 60q12 72 46 106q34 33 84 31q70 -2 101 -60q11 -21 14 -41t4 -31q2 -14 -7 -26.5t-26 -14.5q-16 -2 -29.5 5t-15.5 29q-4 38 -14.5 49t-28.5 12q-11 0 -17 -3t-10 -6q-11 -11 -17 -32.5t-8.5 -47t-3 -50.5t-0.5 -42q0 -51 -1.5 -102
t-3.5 -94q-7 -117 -22 -159q5 -4 8 -7t6 -5q7 -5 15 -12q14 -12 30 -22t42 -11q32 -2 60 8.5t51 29t40 42t27 49.5q6 16 20 20t29 -2q16 -6 21.5 -18.5t-0.5 -27.5q-14 -35 -36.5 -67t-53 -57.5t-68.5 -40.5t-83 -15h-10q-23 1 -41.5 7t-33 13.5t-26 16t-19.5 15.5
q-5 5 -11 9q-1 1 -2 1q-3 -5 -6.5 -9.5t-6.5 -9.5q-41 -54 -92 -58q-3 -1 -6.5 -1h-6.5z" />
    <glyph glyph-name="M" unicode="M" horiz-adv-x="943" 
d="M836 0q-10 0 -19 1.5t-19 3.5q-38 13 -64 46q-11 14 -20 32t-17 41q-13 35 -22.5 82t-14.5 106q-3 29 -4.5 59.5t-2.5 60.5q-19 -61 -38 -124t-35.5 -118t-29 -97.5t-18.5 -63.5q-4 -13 -13 -16.5t-23 -3.5t-25.5 4t-14.5 18q-5 21 -15 64.5t-22.5 100t-27 120.5
t-28.5 126q-5 -57 -10 -99t-10 -69q-8 -46 -19.5 -91.5t-32.5 -83.5q-28 -49 -65 -72q-44 -29 -104 -26q-56 3 -94 38q-31 28 -47 72q-13 37 -15 71t-2 48q0 17 11.5 24.5t27.5 7.5q17 0 28.5 -7.5t11.5 -24.5q0 -11 1.5 -38t10.5 -54q14 -37 33.5 -47t37.5 -11q3 -1 8 -1
q56 0 88 58q17 31 26.5 70.5t16.5 79.5q9 51 19 158.5t21 262.5v2q1 14 12 20.5t26 8.5q14 1 25.5 -4t14.5 -19q1 -7 7.5 -35t15.5 -70t21 -94t24.5 -107.5t24.5 -111t23 -103.5q20 68 44 148t47 155q23 78 41.5 138t25.5 82q4 14 17.5 17.5t28.5 1.5q14 -2 22.5 -8.5
t8.5 -21.5q0 -7 -0.5 -16.5t-0.5 -23.5q-1 -26 -2 -65.5t-1 -86t1.5 -97t6.5 -99.5q11 -108 33 -169q11 -29 23 -47t26 -22q4 -1 12 -2.5t18.5 1.5t24 14t28.5 34q9 15 16.5 29t12.5 25t7.5 18.5l2.5 7.5q5 15 20 19.5t30 -0.5q34 -11 23 -43q0 -1 -2.5 -10t-8 -23
t-13.5 -31.5t-20 -34.5q-32 -45 -67 -66q-31 -19 -68 -19z" />
    <glyph glyph-name="N" unicode="N" horiz-adv-x="717" 
d="M145 0q-66 2 -108 35q-38 30 -55 79q-15 41 -17 83.5t-2 70.5v15q0 16 11.5 24t28.5 8q16 0 27.5 -8t11.5 -24v-16q-1 -26 0.5 -60.5t13.5 -65.5q22 -62 90 -62q11 0 23.5 2t24 9t22.5 21t19 38q6 18 10 37t6 37t3 34t1 28q1 62 -0.5 160.5t-3.5 213.5l-1 31q0 14 8.5 25
t22.5 14t26.5 -3t17.5 -19q7 -16 24 -53.5t39.5 -87t48 -107.5t51.5 -114q14 -30 26.5 -59t25.5 -57q1 58 3 121.5t5 120t6.5 100t8.5 62.5q11 43 38 69q11 11 22 17.5t15 8.5q11 3 26 0t23 -17q7 -15 3.5 -30.5t-19.5 -23.5q-6 -4 -16 -12t-16 -31q-3 -14 -6.5 -49t-6 -84
t-4.5 -106.5t-3.5 -115.5t-2 -112.5t-0.5 -95.5q0 -14 -8.5 -25t-22.5 -14q-14 -2 -26.5 4t-17.5 19q-5 12 -17.5 39t-29 64t-37 82t-41.5 93q-22 48 -43 95.5t-41 90.5q2 -69 2.5 -120.5t-1.5 -95.5q0 -13 -1 -31.5t-3 -40t-7 -44.5t-13 -45q-19 -54 -55 -85
q-45 -37 -106 -37h-3z" />
    <glyph glyph-name="O" unicode="O" horiz-adv-x="499" 
d="M222 -4q-37 0 -67 13q-44 17 -76 56q-37 45 -57 118q-22 78 -22 193q0 113 20 193q9 37 23 66t31 52q56 70 148 70q28 0 58 -14q31 -14 61 -44q18 -18 37.5 -47t35 -72t25 -100.5t8.5 -133.5q-2 -109 -24 -184q-11 -34 -25 -61.5t-34 -47.5q-33 -34 -77 -48
q-20 -6 -37 -7.5t-28 -1.5zM222 678q-53 0 -86 -40q-24 -30 -40 -88q-17 -71 -17 -174q0 -58 5.5 -101t14.5 -74.5t19.5 -52t21.5 -33.5q33 -41 82 -41q19 0 41.5 5.5t43.5 27.5q59 64 61 240q1 69 -7.5 119.5t-21.5 86t-27.5 57.5t-26.5 34q-19 19 -35.5 26.5t-27.5 7.5z
" />
    <glyph glyph-name="P" unicode="P" horiz-adv-x="605" 
d="M534 694q45 -45 42 -125q-1 -61 -41 -107q-32 -37 -87 -61q-41 -17 -82 -24.5t-70 -9.5q0 -44 0.5 -77t0.5 -47v-1q0 -25 -1.5 -58.5t-10.5 -67.5q-8 -30 -20 -50t-26 -33.5t-29 -20.5t-28 -10q-13 -4 -25 -5t-23 -1q-40 0 -66.5 14.5t-43.5 31.5q-23 24 -35.5 51
t-17.5 44q-1 3 -3 7q-5 16 3.5 26.5t23.5 16.5q15 5 28 2.5t19 -17.5q1 -2 1.5 -4t1.5 -4q5 -14 13 -33.5t23 -34.5q9 -10 28 -18t55 0q20 5 31 24.5t16 44t6 51t1 44.5v1v41t-0.5 67t-1 82t-1 86.5t-1.5 80t-1 62.5q-39 -8 -76 -21t-65.5 -25.5t-46 -21.5l-17.5 -9
q-14 -8 -26 0t-20 22t-7 26.5t15 20.5q3 1 31.5 15.5t72.5 31.5t98 32t107 17q30 2 66.5 1.5t70.5 -5.5q78 -12 118 -52zM498 573q1 45 -20 66q-12 12 -32.5 19.5t-45 10.5t-52.5 3.5t-56 -0.5q0 -17 0.5 -42t1 -55t1 -63t0.5 -66q24 2 57 7.5t65 19.5q78 35 81 100z" />
    <glyph glyph-name="Q" unicode="Q" horiz-adv-x="489" 
d="M500 -6q15 -5 20.5 -18t2.5 -29q-2 -14 -9 -22.5t-21 -8.5h-7q-24 4 -45 16t-39.5 28t-34.5 35t-31 39q-5 -4 -9.5 -7.5t-9.5 -6.5q-20 -12 -43 -17.5t-51 -6.5h-1q-54 0 -100 37q-40 34 -67 89q-26 52 -40 119.5t-15 142.5q-2 105 21 188q24 90 74 140q54 54 125 54h1
q73 0 124 -53q46 -45 69 -128q11 -42 17 -92.5t5 -110.5q-2 -100 -13.5 -169t-35.5 -116l1 -2q26 -35 54.5 -63t57.5 -38zM97 551q-20 -71 -18 -166q1 -53 8.5 -100.5t21.5 -87.5q17 6 39 12.5t46 7.5q64 4 116 -35l10 -8t10 -9q11 35 18.5 87.5t8.5 130.5q1 54 -3.5 99.5
t-15.5 81.5q-8 32 -20.5 55t-27.5 39q-31 29 -69 29h-1q-39 0 -69 -30q-36 -36 -54 -106zM222 75q14 0 31.5 2.5t34.5 17.5q-12 15 -24 24q-29 22 -57.5 20t-63.5 -13q14 -21 33.5 -36t45.5 -15z" />
    <glyph glyph-name="R" unicode="R" horiz-adv-x="711" 
d="M761 230q14 -8 20 -21t-2 -27q-19 -35 -36 -65t-40 -51q-49 -47 -112 -47h-10.5t-10.5 1q-76 9 -109 71q-13 25 -18.5 52.5t-9.5 55.5q-2 9 -3 18.5t-3 18.5l-1 4q-5 25 -9 43t-11.5 33t-19.5 28t-32 27q-3 3 -5 4q-23 -6 -45 -10.5t-41 -8.5q2 -43 3 -77.5t-1 -54.5v-4
q-3 -34 -8 -70t-17 -67q-10 -27 -23.5 -44.5t-28.5 -28t-30.5 -15t-29.5 -5.5h-15q-54 0 -89 29q-36 30 -55 96q-4 16 4 27t24 16t29.5 -0.5t18.5 -21.5q12 -43 29 -57q5 -4 15.5 -8t33.5 -2q11 1 22.5 8t21.5 33q9 24 13 55.5t7 61.5v5q1 15 0.5 43t-2.5 63.5t-5 76.5
t-6.5 82t-7.5 79.5t-7 70.5q-59 -19 -94.5 -36.5t-36.5 -17.5q-14 -8 -27 -2t-21 20t-6 28t16 22q2 1 23.5 12t57.5 25.5t84.5 29.5t105.5 25q94 16 157 7.5t103 -40.5q57 -47 59 -138q3 -59 -38 -106q-32 -37 -88 -64q-5 -2 -8.5 -4t-8.5 -4q34 -34 46 -70t20 -79l1 -5
l6 -39q4 -24 8.5 -45.5t12.5 -37.5q5 -10 15 -18.5t33 -11.5q42 -5 70.5 27t61.5 94q8 14 22 16.5t28 -5.5zM236 668q2 -18 4.5 -44t5.5 -56.5t5.5 -64.5t5.5 -68q36 7 80.5 18.5t82.5 29.5q31 15 48 30t24.5 28t8.5 23.5t1 15.5q-1 55 -31 79q-25 20 -75 25q-49 3 -122 -9
q-10 -2 -19.5 -3.5t-18.5 -3.5z" />
    <glyph glyph-name="S" unicode="S" horiz-adv-x="506" 
d="M226 -7q-29 0 -60.5 5t-63.5 20q-98 47 -132 177q-5 16 5.5 26.5t26.5 14.5q16 5 27.5 0t16.5 -21q14 -52 37 -82t52.5 -44t63 -16.5t68.5 0.5q21 2 43.5 15.5t39.5 34.5q13 16 24 42t7 63q-3 25 -12 43.5t-25.5 33t-41.5 26.5t-59 26q-12 5 -23.5 9t-22.5 8
q-36 14 -66.5 26.5t-54.5 29.5q-29 20 -46.5 45.5t-24.5 60.5q-17 89 24 146q43 60 140 74q31 4 57 1t46.5 -11.5t36 -19.5t26.5 -23q23 -24 30.5 -41.5t12.5 -29.5t-3.5 -21.5t-23.5 -14.5t-28 -2t-20 16q-5 11 -9 18.5t-18 22.5q-37 36 -96 27q-63 -7 -87 -41
q-14 -20 -14.5 -43t3.5 -42q4 -20 13.5 -34t26.5 -25t42.5 -21.5t60.5 -23.5q11 -5 22.5 -9t23.5 -9q32 -13 63.5 -28t57.5 -37q29 -25 45.5 -56.5t21.5 -71.5q5 -45 -7 -87t-41 -77q-27 -33 -63 -53.5t-73 -24.5q-11 -1 -23 -1.5t-26 -0.5z" />
    <glyph glyph-name="T" unicode="T" horiz-adv-x="450" 
d="M575 764q2 -16 -5.5 -28.5t-24.5 -14.5l-205 -18q1 -35 3 -89t4.5 -111t4 -109t1.5 -82q0 -35 0.5 -81t-9.5 -91q-12 -55 -39 -87q-34 -43 -87 -52q-28 -5 -48 -5q-72 0 -114 44q-26 26 -37 57t-16 55q-3 16 5.5 26t25.5 13q16 4 29.5 -1.5t16.5 -21.5q9 -44 27.5 -68.5
t62.5 -24.5q14 0 34 3q7 1 16 5t17.5 12.5t16.5 23t13 38.5q8 37 8 78.5v74.5q0 29 -2 79.5t-4 106.5t-4.5 110t-3.5 90l-273 -23h-3q-15 0 -23 11t-9 26q-2 17 5 28t24 13l556 48q17 2 26 -8t11 -27z" />
    <glyph glyph-name="U" unicode="U" horiz-adv-x="647" 
d="M694 235q16 -4 23.5 -15t2.5 -27q-2 -7 -5 -20.5t-8.5 -30t-14 -34.5t-20.5 -34q-55 -72 -132 -72h-4q-55 0 -94 42q-18 19 -32 49q-14 -25 -35 -46q-30 -27 -66 -37q-30 -9 -66 -9h-18q-65 5 -105 49q-33 36 -50 103q-14 56 -17 124.5t-4 137.5v45q-2 70 -4 114.5
t-8 72.5q-6 26 -13 32t-13 8q-14 4 -22 2t-12 -5q-11 -7 -18 -21.5t-12.5 -32t-8.5 -34.5t-5 -29q-2 -17 -15.5 -23t-29.5 -3q-16 2 -25.5 11.5t-7.5 26.5q4 20 8 42t12 45q21 60 58 83q41 28 97 14q36 -9 57 -36q9 -12 15.5 -27.5t11.5 -36.5q7 -32 9.5 -79.5t3.5 -122.5
q0 -11 0.5 -22.5t0.5 -22.5q1 -66 3.5 -130.5t14.5 -113.5q7 -29 17 -47t21 -27.5t22.5 -13t22.5 -4.5q62 -4 92 24q33 31 43 101.5t12 171.5q0 64 0.5 126t1 111t0.5 79v31q0 17 12 24t29 7t27.5 -7.5t10.5 -23.5v-31.5t-0.5 -79t-1 -110.5t-1.5 -126v-21t-0.5 -23
t-0.5 -18.5v-8.5v-26q0 -12 1 -27.5t3 -32.5q11 -88 42 -122q15 -17 39 -18h1q29 0 49.5 20t33 44t19 45t6.5 23q4 17 17.5 22t29.5 1z" />
    <glyph glyph-name="V" unicode="V" horiz-adv-x="503" 
d="M242 0q-22 0 -33 19q-1 2 -10 16.5t-22.5 39t-30.5 57t-34 70t-33 78t-28 80.5q-9 31 -16.5 64.5t-13.5 67t-10.5 65t-7.5 58.5q-17 -18 -39 -38t-51 -41q-14 -11 -28 -6t-24 18q-10 14 -9.5 27t13.5 23q36 27 61 51t41 42.5t23.5 29.5t8.5 12q6 11 17.5 15t24.5 1
q13 -2 21.5 -11t9.5 -22q0 -1 3 -34t9.5 -82.5t17 -108t25.5 -109.5q10 -36 24.5 -73t30.5 -71.5t31.5 -65t28.5 -54.5q12 23 27 52.5t30 63.5t29 71.5t25 75.5q13 48 20 95.5t10 90t3.5 79t-0.5 61.5q-1 17 10.5 25.5t28.5 9.5t27.5 -7t11.5 -25q1 -27 1 -65.5t-3.5 -84.5
t-11 -97t-21.5 -102q-18 -65 -43.5 -126t-49.5 -108t-41.5 -76.5t-19.5 -32.5q-11 -18 -33 -18z" />
    <glyph glyph-name="W" unicode="W" horiz-adv-x="774" 
d="M234 -1q-69 2 -112 47q-67 68 -61 244q3 75 13 132.5t24 108.5q-31 -32 -66 -61.5t-71 -47.5q-14 -7 -24.5 -1t-16.5 19q-7 14 -6 26.5t15 19.5q27 14 55 36.5t53.5 48.5t47.5 52.5t38.5 48t26 35t9.5 14.5q8 11 20.5 14.5t24.5 -2.5t17.5 -18t1.5 -25q-12 -39 -24 -75
q-12 -37 -23.5 -73t-20.5 -74.5t-15 -82.5t-7 -97q-3 -72 8 -124q10 -47 33 -69q22 -24 61 -24l1 -1q20 0 36 14.5t28.5 35.5t21 45t13.5 44q8 30 13 59t8 51.5t4 37l1 14.5q1 14 12 21t25 6q14 0 24.5 -7.5t10.5 -22.5q0 -16 1 -34q1 -16 2 -36t5 -43q17 -117 60 -162
q22 -22 50 -22l1 -1q25 0 43 19q29 30 40.5 102t3.5 173q-3 39 -12 83.5t-21.5 88t-26 83.5t-25 70.5t-19 48.5t-7.5 19q-4 10 -2.5 20t9.5 18q16 17 38 9l13.5 -4t36.5 -9t53.5 -8.5t65.5 -2.5q14 1 21.5 -9t8.5 -25q0 -14 -6.5 -25t-21.5 -12q-35 -2 -66.5 1.5t-57.5 8.5
q12 -32 26.5 -74t27.5 -88.5t23 -95t13 -92.5q9 -110 -5 -192q-15 -91 -58 -137q-38 -41 -95 -41h-1q-59 2 -101 45q-36 36 -59 106q-16 -50 -41 -84q-14 -21 -29.5 -34t-30.5 -20.5t-28.5 -10t-25.5 -2.5h-2z" />
    <glyph glyph-name="X" unicode="X" horiz-adv-x="686" 
d="M734 230q15 -7 21.5 -21t-0.5 -29q-14 -27 -35 -57t-44 -55q-64 -67 -120 -67h-4q-82 3 -140 99q-24 42 -41 90q-13 -38 -27 -68q-21 -47 -46 -77q-32 -38 -71 -47q-19 -4 -42 -4q-59 0 -102 40q-23 21 -38 46.5t-26 47.5q-4 8 -8.5 16t-6.5 13q-7 15 -2.5 28.5
t17.5 22.5q14 9 27.5 8t22.5 -15q9 -15 21 -38t23 -42t24.5 -31t31 -16t41.5 1q8 2 24.5 17t38.5 63q16 35 29 76t25 82l-6 15q-29 73 -54 134t-46 107q-22 46 -39 73q-9 14 -14 19.5t-7 6.5q-3 1 -10 0.5t-20 -5.5q-12 -5 -24 -12t-20 -12q-14 -8 -27.5 -3t-22.5 19
q-8 14 -6.5 28.5t15.5 22.5q11 7 27 16t34.5 16t39 9t40.5 -5q25 -8 48.5 -38t52.5 -93q17 -36 36 -81t40 -98q5 14 9.5 29.5t9.5 29.5q30 95 53.5 153t55.5 81q21 15 40.5 21t37 5.5t32 -4.5t26.5 -8l3 -1q15 -5 20.5 -18.5t0.5 -28.5q-5 -16 -17.5 -24t-28.5 -3l-3 1
q-20 7 -33.5 8t-32.5 -12q-2 -2 -10.5 -13t-23.5 -49q-11 -28 -22.5 -61.5t-22.5 -70.5q-7 -20 -13 -40.5t-13 -40.5q-5 -15 -10.5 -32.5t-11.5 -37.5q3 -9 6.5 -18.5t6.5 -19.5q10 -29 22.5 -63.5t28.5 -64t36 -50t45 -21.5q6 0 22.5 8.5t41.5 34.5q19 20 36.5 45t28.5 47
q7 15 21.5 19t28.5 -3z" />
    <glyph glyph-name="Y" unicode="Y" horiz-adv-x="603" 
d="M412 -317q7 32 7 69t-1 69v5q-1 8 -1 20t-1 29l-14 -18l-14 -18q-29 -38 -46 -66.5t-26 -48t-11.5 -32t-2.5 -18.5q1 -12 6.5 -20t11.5 -13q11 -9 24.5 -14t26.5 -3q3 0 8.5 1.5t11.5 7.5t11.5 17.5t9.5 32.5zM655 227q14 -8 19.5 -22t-2.5 -28q-18 -33 -104 -127
q-17 -20 -36 -41t-38 -43q1 -50 1.5 -86t1.5 -52v-5q1 -33 1 -75.5t-8 -81.5q-7 -34 -19.5 -56.5t-27.5 -36t-31 -20t-31 -7.5q-5 -1 -16 -1q-26 0 -51 9.5t-45 26.5q-42 36 -45 89q-2 38 23 90.5t79 124.5q20 27 43 55t46 55q-1 27 -1.5 56t-1.5 60q-25 -44 -55 -68
q-53 -45 -121 -45q-132 0 -173 123q-18 52 -23 125t-7 170q-2 87 -4 145t-9 87q-3 14 -7 18t-15 6q-9 1 -17.5 -4.5t-15.5 -16t-13.5 -24.5t-11.5 -29q-2 -5 -3 -8.5t-3 -6.5q-7 -15 -20.5 -18t-28.5 4t-22.5 19t-0.5 27q1 2 1.5 5t2.5 6q5 14 14.5 35t23.5 40
q27 36 55.5 44t49.5 5q13 -2 27.5 -6.5t28.5 -16.5q21 -20 32 -61q3 -16 5.5 -37t4 -50.5t3 -69t2.5 -92.5q2 -92 6.5 -159.5t18.5 -111.5q13 -38 35 -54t64 -16q78 0 123 103q20 45 31.5 106.5t13.5 128.5q1 57 1.5 110t0.5 93.5v65v24.5q0 17 11 26.5t28 9.5t28 -9.5
t12 -26.5v-14.5v-40t-0.5 -60t-0.5 -74.5q0 -1 0.5 -41.5t2 -104t2.5 -140.5t3 -150q5 5 9 10t9 10q15 17 30 35t27.5 33.5t22 27.5t13.5 18q12 16 25 17.5t27 -6.5z" />
    <glyph glyph-name="Z" unicode="Z" horiz-adv-x="529" 
d="M580 228q15 -5 19.5 -17.5t-1.5 -27.5q-20 -54 -44.5 -93.5t-56.5 -64.5q-29 -22 -51.5 -28t-34.5 -5q-43 2 -70 19t-45 34q-12 10 -23 18.5t-28 15.5t-33 10t-31.5 0t-29.5 -14t-27 -33q-8 -14 -11.5 -19.5t-7.5 -10.5q-12 -17 -32 -17q-13 0 -23 7q-13 9 -16 24t6 30
q4 7 15.5 26.5t27 46.5t34.5 60.5t40 70.5q20 36 39.5 71t37.5 67.5t34 60t28 47.5q11 18 24 41.5t26 48.5q-1 0 -2 -0.5t-2 -0.5q-5 -1 -11 -1.5t-11 -0.5q-34 0 -67 16.5t-63 34.5q-15 9 -29.5 17t-23.5 10q-4 1 -10 2t-13.5 -2t-15.5 -11.5t-16 -26.5q-1 -1 -3 -16t3 -56
q3 -23 6.5 -40t4.5 -18q4 -16 -5 -26t-25 -15q-2 0 -5 -0.5t-5 -0.5q-13 0 -23 5t-14 18q0 2 -4 21t-8 45q-11 80 7 116q20 46 53 67q41 27 92 15q17 -5 35.5 -15t38.5 -22q23 -14 49.5 -27.5t46.5 -11.5q24 3 40.5 11.5t27 19t16 19.5t8.5 14q8 14 23.5 18.5t29.5 -3.5
t18.5 -23.5t-3.5 -30.5q-3 -5 -16 -31.5t-31 -62t-38.5 -73t-36.5 -64.5q-12 -20 -28 -47t-34 -59t-37.5 -67.5t-39.5 -70.5q-8 -14 -15 -27.5t-15 -25.5q36 0 79 -17q26 -11 43 -24t31 -24q15 -14 30.5 -23.5t32.5 -10.5q10 0 18.5 4t22.5 15q16 13 36.5 40.5t40.5 81.5
q6 15 21 19t30 -2z" />
    <glyph glyph-name="bracketleft" unicode="[" horiz-adv-x="200" 
d="M217 -83q17 0 26.5 -11.5t9.5 -27.5q0 -17 -9.5 -28.5t-26.5 -11.5h-173h-5q-16 0 -27.5 11t-11.5 28v927q0 7 1 10q2 14 13 24t26 10h177q17 0 26.5 -11t9.5 -27q0 -17 -9.5 -29t-26.5 -12h-138v-852h138v0z" />
    <glyph glyph-name="backslash" unicode="\" horiz-adv-x="434" 
d="M112 779q11 -2 17.5 -6t10.5 -15l239 -828q5 -16 -4.5 -27t-24.5 -16q-16 -5 -28.5 0t-17.5 21l-240 828q-5 16 4.5 26.5t25.5 15.5q8 3 18 1z" />
    <glyph glyph-name="bracketright" unicode="]" horiz-adv-x="249" 
d="M124 -83v852h-139q-16 0 -26 12t-10 29q0 16 10 27t26 11h177q15 0 26 -10t13 -24q1 -3 1 -10v-927q0 -17 -11 -28t-28 -11h-5h-173q-16 0 -25.5 11.5t-9.5 28.5q0 16 9.5 27.5t25.5 11.5h139z" />
    <glyph glyph-name="asciicircum" unicode="^" horiz-adv-x="410" 
d="M304 594q10 -13 6.5 -27t-16.5 -24q-11 -8 -23 -8q-9 0 -16.5 2.5t-13.5 10.5l-41 56l-41 -56q-6 -8 -13.5 -10.5t-16.5 -2.5q-12 0 -23 8q-14 10 -17 24t6 27l75 102q11 15 30 15t29 -15l75 -102v0z" />
    <glyph glyph-name="underscore" unicode="_" horiz-adv-x="397" 
d="M64 -138q-16 0 -27.5 11t-11.5 28t11.5 28t27.5 11h291q17 0 28.5 -11t11.5 -28t-11.5 -28t-28.5 -11h-291z" />
    <glyph glyph-name="grave" unicode="`" horiz-adv-x="833" 
d="M206 535q-9 0 -16.5 2.5t-13.5 10.5l-75 102q-10 13 -6 27.5t18 24.5q13 10 27.5 9t23.5 -15l75 -102q10 -13 6.5 -27t-16.5 -24q-11 -8 -23 -8z" />
    <glyph glyph-name="a" unicode="a" horiz-adv-x="510" 
d="M566 228q14 -8 16.5 -24.5t-5.5 -30.5q-17 -30 -38.5 -63.5t-53.5 -63.5q-27 -26 -52.5 -35.5t-48.5 -9.5q-16 0 -30 3.5t-25 8.5q-34 15 -53 48q-41 -59 -122 -59h-4q-60 0 -99 42q-57 62 -51 205q3 50 13 88t29 66q44 68 130 68h9t9 -1q76 -6 106 -63q18 -34 23 -93
q0 -11 0.5 -31.5t-0.5 -37.5q0 -21 1 -44t5 -44q3 -20 11 -42t25 -30q13 -5 30 -4.5t41 23.5q25 23 43 53.5t35 56.5q9 14 25.5 18.5t30.5 -4.5zM154 80q17 0 31 4t25 20.5t18.5 49t11.5 88.5q1 17 1 33.5v25.5q-2 24 -4.5 41t-9.5 28q-6 10 -17.5 16t-37.5 7
q-9 0 -23.5 -2.5t-29 -16t-26 -44t-14.5 -85.5q-2 -54 5.5 -91.5t24.5 -56.5q14 -15 42 -17h3z" />
    <glyph glyph-name="b" unicode="b" horiz-adv-x="439" 
d="M496 319q1 -17 -7 -29t-24 -13q-2 0 -25 -1t-58 1h-16t-16 1q-3 0 -6 0.5t-7 0.5q14 -63 -17 -157q-19 -60 -61.5 -93t-102.5 -32h-3q-37 2 -66.5 18t-49.5 48q-36 54 -36 146q0 43 -0.5 76.5t-0.5 60.5t0.5 48.5t0.5 39.5q1 32 1.5 65.5t1 61.5t1 46t0.5 19
q0 17 11 23.5t28 6.5q16 0 28 -7t12 -24q0 -1 -0.5 -19t-1 -46t-1 -62t-1.5 -66q-1 -18 -1.5 -39t-0.5 -47.5t0.5 -59.5t0.5 -76q2 -71 24 -105q18 -29 54 -29q65 -1 89 70q15 47 16 79t-4 47q-3 9 -11 17t-18 15t-19 12t-15 8q0 1 -1 1q-14 8 -15.5 21.5t5.5 28.5t18 22
t26 0q7 -4 23 -10.5t34 -13t36.5 -11.5t32.5 -6q43 -2 75 -1.5t33 0.5q16 1 24.5 -9t9.5 -27z" />
    <glyph glyph-name="c" unicode="c" horiz-adv-x="376" 
d="M211 6q-60 5 -104 31q-40 23 -66 67q-25 41 -32.5 85.5t-8.5 77.5q-2 85 30 139q18 32 40 47t39 20q20 6 42 7.5t43 -3.5q51 -11 85 -51q11 -12 9 -24.5t-14 -23.5q-13 -11 -28.5 -13t-26.5 10q-18 22 -43 25t-44 -2q-20 -6 -37 -36.5t-16 -93.5q0 -26 5.5 -60t23.5 -63
q34 -56 108 -60q37 -3 64 10t46.5 32.5t31 41t17.5 37.5q6 15 20.5 19.5t30.5 -0.5q15 -6 21 -18.5t0 -27.5q-16 -42 -36.5 -70.5t-48.5 -51.5q-60 -51 -137 -51h-14z" />
    <glyph glyph-name="d" unicode="d" horiz-adv-x="525" 
d="M574 227q15 -6 22 -16.5t2 -25.5q-12 -32 -29.5 -62t-39.5 -53q-57 -62 -128 -62h-7q-62 3 -101 48q-6 -7 -13 -13t-15 -11q-48 -31 -105 -31h-11q-67 5 -109 71q-39 62 -40 150q-1 60 17.5 111.5t53.5 86.5q48 47 109 45q36 -2 70 -21q1 22 4 56t6 66t5 56.5t2 26.5
q2 17 14.5 24t29.5 5q16 -2 26.5 -10.5t8.5 -25.5l-2.5 -26.5t-5.5 -61.5t-6 -70.5t-4 -53.5q-1 -19 -2 -53.5t-1 -71v-67.5t2 -44v-2q6 -56 22 -79.5t48 -25.5q38 -2 75 37q17 17 30.5 40t22.5 48q6 15 19.5 17.5t29.5 -2.5zM153 80q23 -2 39.5 3.5t27.5 13t17 14.5t8 10
q3 4 7 12q2 3 3 6v1q-4 26 -6 44v1q-1 10 -1.5 28t-1 40t0 46.5t0.5 47.5q-9 10 -28 24t-42 15q-17 1 -30 -6.5t-21 -15.5q-23 -23 -35.5 -60t-11.5 -81q0 -32 7 -60.5t20 -48.5q6 -9 18 -21t29 -13z" />
    <glyph glyph-name="e" unicode="e" horiz-adv-x="366" 
d="M198 4q-11 0 -23 1t-23 3q-81 14 -121 84q-11 19 -17 40t-9.5 41t-4 39t-0.5 35q2 34 7.5 67t15.5 56q15 38 41 65.5t58 38.5q44 16 81 -3q41 -22 52 -65q15 -55 -23 -118q-32 -52 -105 -86q-13 -6 -24.5 -10.5t-19.5 -7.5q2 -14 6 -28t11 -25q21 -38 65 -46
q69 -12 121 19t81 106q5 11 17.5 15.5t28.5 1.5q17 -3 22 -19t-1 -31q-27 -80 -88 -127.5t-148 -45.5zM160 402q-5 0 -11 -2q-12 -4 -27 -18.5t-26 -40.5t-16 -74q23 10 47.5 25.5t37.5 36.5q21 33 14 56q-3 10 -13 16q-2 1 -6 1z" />
    <glyph glyph-name="f" unicode="f" horiz-adv-x="265" 
d="M298 355q17 0 25.5 -11t8.5 -28t-8.5 -28t-25.5 -11h-219v-603q0 -17 -12 -26t-29 -9t-27.5 9t-10.5 26v603h-45q-17 0 -25 11t-8 28t8 28t25 11h45v45v28q-1 23 -0.5 47t4.5 46q9 57 42 90q49 48 157 45q34 -2 32 -37q-1 -17 -10 -30t-25 -12q-74 3 -99 -22
q-18 -18 -20 -52t-2 -74v-29v-45h219v0z" />
    <glyph glyph-name="g" unicode="g" horiz-adv-x="509" 
d="M215 -385q-31 0 -58 18q-33 22 -51 62q-17 39 -17 79q-1 50 43 89q17 15 38 28.5t47 28.5q16 9 33 19.5t35 21.5v72q-32 -20 -67 -27t-61 -3h-1q-14 1 -42.5 9.5t-56.5 37.5q-62 63 -57 207q5 117 56 171q48 53 131 51q76 -2 121 -50q63 -68 57 -212q-2 -36 -2 -76v-82
v-19t1 -19q39 36 76 84t68 117q6 14 20.5 19t29.5 -2t20.5 -20.5t-1.5 -28.5q-29 -68 -67.5 -122.5t-89.5 -101.5q-14 -13 -28.5 -24t-28.5 -22q-1 -32 -3 -62t-5 -57q-3 -23 -8.5 -49.5t-16 -51t-27 -44.5t-40.5 -30q-25 -11 -48 -11zM282 -133q-7 -4 -13.5 -7.5
t-12.5 -7.5q-43 -26 -66 -42.5t-23 -33.5q1 -25 10 -46.5t23 -30.5q5 -3 12.5 -4.5t20.5 3.5q4 2 10 7.5t12 18t11.5 33.5t10.5 54q2 13 3 27t2 29zM183 401q-46 0 -69 -26q-32 -35 -35 -121q-5 -109 35 -150q14 -14 28 -17.5t25 -5.5h1q14 -2 39 3t46 22q31 27 32 74v7
q0 8 0.5 17t0.5 17q3 55 -6 94t-29 60q-23 25 -65 26h-3z" />
    <glyph glyph-name="h" unicode="h" horiz-adv-x="547" 
d="M598 229q15 -6 21 -19t0 -28q-14 -35 -35.5 -67t-47.5 -56q-58 -56 -121 -56q-5 0 -10 0.5t-10 1.5q-56 8 -87 55q-12 19 -19 41.5t-8 48.5q0 20 1 36.5t3 32.5q2 17 3 33.5t1 38.5q0 25 -8 40t-19.5 23t-25.5 11t-27 4q-29 1 -54 -22q-20 -19 -33.5 -47.5t-22.5 -59
t-13.5 -59.5t-4.5 -49v-93q0 -17 -11.5 -28t-27.5 -11q-17 0 -28.5 11t-11.5 28v88v5v189v47.5t-0.5 66.5t-0.5 73.5t-0.5 68.5t-0.5 50.5v20.5q0 17 11.5 25.5t28.5 8.5t27.5 -8.5t11.5 -24.5v-29t0.5 -68.5t1 -86.5t0.5 -84q5 6 9.5 12t10.5 11q24 23 52.5 34t60.5 9
q41 -2 72 -17q31 -16 50 -40q31 -40 31 -98q1 -25 -0.5 -44t-3.5 -36q-2 -16 -3 -30t0 -30q0 -7 1.5 -18t6.5 -21.5t14.5 -19t24.5 -11.5q21 -3 41.5 8.5t34.5 25.5q20 19 36.5 44t27.5 52q7 15 21.5 19.5t29.5 -2.5z" />
    <glyph glyph-name="i" unicode="i" horiz-adv-x="303" 
d="M93 528q0 -20 -14.5 -34.5t-34.5 -14.5t-34.5 14.5t-14.5 34.5t14.5 34.5t34.5 14.5t34.5 -14.5t14.5 -34.5zM173 1q-11 0 -21.5 1.5t-21.5 3.5q-50 11 -82 50q-25 31 -37 81q-11 42 -11.5 88t0.5 88v9q0 17 12.5 25t29.5 8q17 -1 27 -9.5t9 -24.5v-9q-1 -43 0 -82.5
t8 -70t21 -51t40 -25.5q52 -11 90 24q20 20 36.5 49t29.5 58q7 14 22.5 17t30.5 -4t20.5 -19.5t-1.5 -26.5q-17 -35 -36.5 -70t-47.5 -61q-52 -49 -118 -49z" />
    <glyph glyph-name="j" unicode="j" horiz-adv-x="211" 
d="M88 524q-2 -20 -17 -34t-35 -12t-34 17t-12 35q1 20 16.5 34t35.5 12q20 -1 34 -16.5t12 -35.5zM-65 -320q-47 0 -81 37q-21 23 -31.5 56t-5.5 62q4 25 18.5 46t36 39.5t49.5 35.5t58 35q5 4 11.5 7t12.5 7q0 45 -0.5 100t-1.5 102.5t-1.5 80t-0.5 33.5q0 17 11 25t28 9
h1q16 0 27 -8t12 -24q0 -3 0.5 -29t1 -64.5t1 -84.5t0.5 -89q43 30 76.5 64t52.5 85q6 15 19 19t29 -2q15 -6 23 -18t3 -27q-15 -39 -37 -70.5t-49 -57.5t-57 -47.5t-60 -40.5v-16q-2 -39 -5.5 -81.5t-15.5 -79.5q-10 -30 -24 -49.5t-30 -31t-32 -16.5t-31 -6q-3 -1 -8 -1z
M1 -87q-41 -24 -72 -47t-35 -44q-1 -8 3 -24t15 -28q8 -8 14 -10t11 -1q29 2 44 38.5t20 115.5z" />
    <glyph glyph-name="k" unicode="k" horiz-adv-x="452" 
d="M506 227q14 -8 16 -22t-6 -29q-14 -27 -29 -54.5t-41 -56.5q-56 -63 -123 -63q-60 0 -107 50q-17 17 -33 41t-31 53q-14 31 -24.5 59t-16.5 47q-11 -10 -19.5 -17.5t-12.5 -10.5v-196q0 -17 -10.5 -24t-27.5 -7t-29 7t-12 24v621q0 17 12 23.5t29 6.5t27.5 -6.5
t10.5 -23.5v-322q18 17 36.5 33t30.5 28q4 3 16 13.5t28 22.5q39 29 65 33q17 4 32 2.5t27 -6t21.5 -10t15.5 -9.5q16 -10 20 -24t-7 -30q-8 -14 -21 -19.5t-27 2.5q-9 6 -20.5 13t-24.5 4q-9 -2 -30 -16.5t-41 -33.5q-5 -5 -11.5 -11t-13.5 -12q4 -17 11 -37
q6 -17 15 -40.5t23 -49.5q7 -14 17 -31.5t22.5 -32.5t27.5 -25t32 -10q25 0 44.5 15t35.5 36.5t28.5 45t24.5 39.5q9 14 23.5 15.5t26.5 -5.5z" />
    <glyph glyph-name="l" unicode="l" horiz-adv-x="303" 
d="M184 2q-32 -2 -61.5 8.5t-51.5 29.5q-35 30 -51 79q-14 41 -16.5 86t-2.5 87v52v71.5t-0.5 78t-0.5 73v56v26.5q1 17 13 25t28 8h1q16 0 26.5 -8.5t10.5 -24.5v-356q1 -38 3 -77.5t13 -71.5q22 -64 89 -64q47 0 77 42q18 25 26.5 48t15.5 40q6 15 20 19t29 -2
q34 -12 23 -49q-5 -17 -17 -46t-34 -58q-56 -72 -140 -72z" />
    <glyph glyph-name="m" unicode="m" horiz-adv-x="726" 
d="M775 227q15 -6 22.5 -17.5t1.5 -26.5q-7 -17 -18 -43t-27 -52q-42 -67 -96 -85q-18 -7 -39 -7q-39 0 -80 26q-46 28 -61 96q-5 26 -6.5 54.5t-3.5 56.5q-1 29 -2.5 58t-7.5 52q-8 25 -18 34t-21 12q-23 8 -40 -5q-23 -17 -37 -60q-8 -24 -12 -54.5t-4 -64.5q0 -1 0.5 -19
t0.5 -43.5v-54.5v-51q0 -16 -10.5 -23.5t-27.5 -7.5q-17 2 -29 8.5t-11 23.5q1 82 -1.5 158.5t-14.5 125.5q-6 22 -12.5 35.5t-14 20.5t-16 9t-16.5 3q-25 3 -48 -17q-12 -11 -21 -25.5t-14.5 -29.5t-8 -29t-2.5 -24v-17.5v-42.5t-0.5 -55t-0.5 -55v-42.5v-17.5
q0 -17 -12 -25t-27 -8q-15 1 -27.5 8.5t-12.5 24.5v24v60t0.5 83.5t0.5 93v89v72.5q0 17 11.5 24t28.5 8q16 1 27.5 -7t11.5 -25v-10t-1 -10q46 37 102 32q51 -5 85 -40q13 -14 23 -32q19 32 43 50q50 37 111 17q67 -21 90 -100q8 -29 10.5 -62t3.5 -66l2 -46t4.5 -42
t9.5 -33.5t17 -21.5q23 -14 36 -14t17 2q17 6 32 22.5t26.5 37t20.5 41t14 34.5q6 15 19.5 18t29.5 -3z" />
    <glyph glyph-name="n" unicode="n" horiz-adv-x="538" 
d="M590 226q14 -8 17.5 -22.5t-3.5 -28.5q-12 -23 -27 -54t-38 -58q-28 -32 -57 -47q-25 -14 -56 -14q-6 0 -12 0.5t-12 1.5q-38 7 -66 34q-23 24 -33 59q-9 29 -11 62t-2 66q0 23 -1 46t-4.5 42.5t-10.5 34t-19 21.5q-52 32 -99 6q-17 -10 -30.5 -26.5t-23 -35.5t-15 -40
t-6.5 -40q0 -45 -0.5 -94t-0.5 -105q-1 -16 -13 -24.5t-28 -8.5h-1q-16 0 -28 8.5t-12 25.5q2 110 2 213.5v206.5q0 16 11.5 23.5t27.5 7.5q17 0 28.5 -7.5t11.5 -23.5v-41q9 8 18 15.5t20 13.5q41 23 84 22q46 0 94 -28t65 -98q5 -27 6.5 -55.5t1.5 -57.5q1 -29 2 -57
t8 -49q5 -18 14 -27t26 -12q19 -4 36.5 9t33 34t28.5 45t22 42q8 14 22.5 18.5t29.5 -3.5z" />
    <glyph glyph-name="o" unicode="o" horiz-adv-x="489" 
d="M407 246q-11 0 -19 0.5t-14 1.5v-16q-2 -103 -50 -164q-52 -66 -142 -66h-4q-73 2 -118 49q-63 66 -60 212q3 94 50 150q23 29 58 45q33 16 75 16h10q87 -5 136 -70q24 -33 36 -76q8 -2 13 -2q10 -1 21 -2t25.5 0.5t33.5 7.5t46 19q14 8 29.5 2.5t23.5 -19.5t2.5 -29.5
t-19.5 -23.5q-32 -17 -65 -26t-65 -9h-3zM183 395q-46 0 -73 -32q-29 -37 -31 -102q-3 -113 38 -156q22 -24 63 -24h2q53 0 80 36q31 38 34 117q0 27 -3.5 54.5t-15.5 51t-33 38.5t-55 17h-6z" />
    <glyph glyph-name="p" unicode="p" horiz-adv-x="456" 
d="M502 226q25 -8 26.5 -23.5t-7.5 -35.5t-17.5 -36t-24.5 -41q-20 -32 -41 -54t-46 -33t-49 -11q-25 0 -53 11q-12 5 -24.5 14t-22.5 23.5t-17 35.5t-7 50q-1 34 5.5 69t13.5 64q4 17 7 34t3 25q0 27 -14 39t-40 9q-18 -2 -36 -12.5t-33.5 -24t-27.5 -27.5t-18 -22l5 -609
q0 -16 -10.5 -23.5t-27.5 -7.5t-28.5 7t-11.5 24l-6 723q0 17 11 24.5t27 7.5q17 0 28.5 -7.5t12.5 -23.5v-2q53 46 107 52q29 3 55 -4.5t45 -24.5q14 -12 27 -35t14 -62q0 -14 -3.5 -33.5t-8.5 -43.5q-7 -28 -12.5 -58t-5.5 -57q1 -32 9 -40.5t13 -10.5q14 -5 22.5 -5
t16.5 3q18 7 32 22.5t26 34.5t21.5 39.5t18.5 38.5q7 14 19 18t27 -1z" />
    <glyph glyph-name="q" unicode="q" horiz-adv-x="501" 
d="M572 216q6 -15 -0.5 -30t-22.5 -20q-25 -10 -47 -42.5t-43 -67.5q-27 -46 -44 -92.5t-26.5 -94t-14.5 -94t-8 -92.5q-2 -15 -13 -26t-26 -11h-2q-16 0 -27 11.5t-11 27.5v347q-32 -21 -67 -27.5t-64 -3.5q-16 2 -43.5 10t-55.5 37q-63 66 -57 208q4 116 56 172
q47 53 132 51q78 0 123 -56q55 -65 55 -205v-173q15 34 32 65.5t36.5 57t41 44t45.5 27.5q16 6 30.5 -0.5t20.5 -22.5zM253 104q21 17 28 43t6 71q-1 55 -9.5 94t-26.5 61q-12 14 -28 21t-40 7q-46 0 -69 -26q-31 -33 -36 -122q-2 -54 7 -92t29 -58q14 -14 28 -18t25 -6h1
q14 -2 38.5 3t46.5 22z" />
    <glyph glyph-name="r" unicode="r" horiz-adv-x="375" 
d="M430 334q7 -14 8.5 -27.5t-6.5 -21.5q-4 -3 -16.5 -11.5t-33 -16t-47 -12t-57.5 0.5q-56 9 -90 60q-10 14 -17 29.5t-13 29.5q-14 -12 -28 -28t-25 -36t-18 -45.5t-7 -56.5v-5v-161q0 -16 -10.5 -25t-27.5 -9t-29 9t-12 25v27.5v67v89.5v94.5t-0.5 82t-0.5 53.5
q-1 17 11 26.5t29 10.5t27.5 -8.5t11.5 -25.5v-52q15 15 29 27t25 21q5 4 9 7.5t7 5.5q15 14 34 9q18 -3 28 -21q4 -8 7 -16.5t6 -18.5q14 -35 27.5 -59.5t38.5 -28.5q19 -3 35.5 0t29 8t21 10t10.5 6q10 5 23 2t21 -16z" />
    <glyph glyph-name="s" unicode="s" horiz-adv-x="474" 
d="M216 -2q-85 0 -143 47q-29 24 -47.5 59.5t-28.5 80.5q-3 16 7 26.5t26 13.5t28.5 -2.5t15.5 -21.5q14 -69 53 -99t108 -25q30 3 47 23q18 21 15 47q-2 19 -12.5 34t-42.5 26q-12 5 -25 8.5t-26 7.5q-18 5 -35 10t-33 13q-41 20 -57 55q-12 26 -10.5 54.5t15.5 54.5
q17 29 47.5 47.5t68.5 22.5q18 2 37.5 0.5t37.5 -6t33.5 -11t26.5 -13.5q25 -19 5 -48q-9 -14 -22.5 -20t-27.5 3q-4 3 -13 6.5t-20 6.5t-24 4t-25 0q-40 -5 -55 -31q-4 -7 -5.5 -16.5t3.5 -21.5t26 -19.5t48 -14.5q14 -5 28.5 -9t29.5 -9q46 -18 71 -47q8 -9 12 -16.5
t9 -19.5q17 -2 49 6.5t75 29.5q14 8 31.5 3t25.5 -19t4 -29t-18 -24q-19 -13 -55.5 -26t-100.5 -24q-6 -36 -30 -65q-39 -46 -102 -51q-7 -1 -13 -1h-12z" />
    <glyph glyph-name="t" unicode="t" horiz-adv-x="301" 
d="M349 233q32 -12 23 -50q-9 -35 -25 -68t-39.5 -58.5t-54 -41t-68.5 -15.5q-10 0 -15 1q-58 4 -98 38q-34 29 -50 78q-14 41 -16.5 86.5t-3.5 87.5v24q0 18 -0.5 47t-0.5 62h-53q-16 0 -24 11.5t-8 27.5q0 17 8 28.5t24 11.5h53q0 27 0.5 52.5t0.5 45v32v14.5q0 17 12 25
t29 8t27.5 -8t9.5 -25v-144h153q17 0 25 -11.5t8 -28.5q0 -16 -8 -27.5t-25 -11.5h-153q0 -30 -1 -67t-0.5 -75.5t4 -75t13.5 -64.5q11 -31 29.5 -46t50.5 -17h10q45 0 77 41q16 21 24.5 47.5t13.5 39.5q6 18 19.5 24.5t28.5 1.5z" />
    <glyph glyph-name="u" unicode="u" horiz-adv-x="529" 
d="M579 229q15 -6 22 -18t1 -27q-11 -30 -24 -59.5t-31 -55.5q-12 -16 -25 -28.5t-27 -20.5q-29 -19 -64 -19q-8 0 -12 1q-13 1 -28 5t-30 13t-29.5 24t-26.5 38q-14 -19 -30.5 -35t-36.5 -27q-33 -18 -71 -20h-3q-40 0 -66.5 14.5t-43 34.5t-25.5 41t-13 34
q-8 26 -12.5 74.5t-3.5 120.5q1 52 2.5 89.5t1.5 39.5q2 17 13.5 24.5t28.5 6.5q16 -1 27 -10t10 -26q-2 -33 -3.5 -76t-1 -85.5t3.5 -78.5t9 -54q12 -35 27.5 -53t47.5 -17q37 0 68 39q17 20 26 44t11 49q1 31 1.5 72t0.5 77v61v25q-1 17 11 25.5t29 8.5t27.5 -8t10.5 -25
v-203q0 -22 2.5 -49.5t11 -52.5t23 -42.5t38.5 -19.5q17 -2 32 9t27.5 30t23.5 43t20 49q5 15 19.5 19t30.5 -1z" />
    <glyph glyph-name="v" unicode="v" horiz-adv-x="470" 
d="M174 -5q-15 0 -25 9q-2 1 -17.5 15.5t-37 40t-45.5 61.5t-43 81q-22 52 -25.5 98.5t-4.5 98.5v39q0 17 11 27t28 10t28 -9.5t12 -25.5v-41q0 -47 3 -86t20 -81q20 -48 47 -84t47 -57q10 13 23 29.5t24.5 36t21 41t13.5 43.5q7 34 11.5 70t7 65t3.5 47.5l1 18.5
q1 14 10.5 22t22.5 11q14 3 25 -1t17 -16q0 -1 10.5 -17.5t30 -35.5t47 -34.5t62.5 -15.5h1q17 0 25.5 -10.5t8.5 -27.5t-8.5 -28.5t-25.5 -11.5h-1q-50 0 -88.5 18t-65.5 43q-3 -26 -7 -54.5t-10 -57.5q-5 -28 -16.5 -54.5t-25.5 -51t-29 -45t-27.5 -35.5t-21 -24t-9.5 -10
q-11 -11 -28 -11z" />
    <glyph glyph-name="w" unicode="w" horiz-adv-x="672" 
d="M426 -4q-68 0 -113 44q-9 9 -16.5 19.5t-14.5 21.5q-10 -16 -20.5 -29t-22.5 -24q-22 -17 -48 -25t-55 -4q-87 11 -119 88q-13 32 -15.5 67t-1.5 64q1 40 6.5 78.5t12 69t11.5 49.5t6 21q5 16 17 21t28 0t25.5 -16t4.5 -27q0 -1 -4.5 -18.5t-10.5 -45.5t-11 -63t-6 -71
q-1 -23 1 -50t10 -49q14 -36 55 -40q25 -3 44 12q15 12 25 32t16.5 41t9.5 39.5t4 28.5q2 16 13 24.5t27 7.5t27.5 -10t11.5 -25q0 -9 2 -25.5t7 -35.5t13.5 -38t22.5 -32q23 -22 61 -22q22 1 31.5 7.5t12.5 8.5q10 11 14.5 29t5.5 37t0.5 36t-1.5 26q-2 25 -10.5 55.5
t-20 59t-22.5 52.5t-18 37t-4.5 26.5t13.5 22.5t24.5 9t24.5 -8q1 0 22 -15t54.5 -32.5t75.5 -32t85 -15.5q17 0 24.5 -11t7.5 -28q0 -16 -8 -27.5t-24 -11.5h-1q-47 1 -91.5 14.5t-82.5 30.5q11 -29 19.5 -60t10.5 -60q1 -23 1.5 -48.5t-3.5 -50t-13 -47t-25 -40.5
q-38 -41 -101 -42h-4v0z" />
    <glyph glyph-name="x" unicode="x" horiz-adv-x="575" 
d="M622 228q16 -6 23.5 -19t1.5 -28q-8 -21 -20.5 -51.5t-33.5 -59.5q-25 -36 -57 -54q-28 -14 -55 -14q-8 0 -16 1t-16 3q-21 6 -38.5 20.5t-33.5 34t-29.5 42.5t-26.5 47q-2 -3 -4 -6.5t-4 -6.5q-23 -38 -48.5 -74.5t-60.5 -50.5q-24 -8 -44 -8q-26 0 -50 12
q-26 13 -44.5 37t-32 50.5t-21.5 51t-12 39.5q-3 11 2.5 25t20.5 21t32 -1.5t21 -24.5q11 -44 30.5 -80.5t39.5 -47.5q13 -7 29 -1q3 2 10.5 7.5t20.5 22.5q10 14 19.5 29.5t19.5 32.5q5 8 10 16.5t10 16.5q3 5 6 9.5t7 9.5q-38 65 -71 105t-47 52q-5 4 -10.5 7.5t-13.5 5.5
t-19.5 1.5t-28.5 -4.5q-16 -4 -28 5.5t-17 25.5q-4 16 2.5 28.5t22.5 16.5q53 14 92 2q19 -5 31 -13.5t19 -13.5q20 -16 50 -53t65 -91q18 28 35.5 54.5t33 49.5t27.5 40.5t19 28.5q10 14 24.5 15.5t27.5 -8.5q14 -10 18 -25t-6 -28q-8 -11 -21.5 -31.5t-31.5 -47.5t-39 -59
t-43 -65q2 -5 4.5 -9t4.5 -8q12 -23 24.5 -46t26.5 -42q17 -24 27 -31t14 -9q3 -1 8.5 -1.5t13 2t17 10t20.5 22.5q17 23 27.5 48.5t17.5 44.5q5 15 19 20t29 0z" />
    <glyph glyph-name="y" unicode="y" horiz-adv-x="493" 
d="M543 230q14 -8 21 -21.5t0 -27.5q-8 -16 -22.5 -42.5t-33 -55.5t-41 -57.5t-44.5 -49.5q-12 -11 -27.5 -20.5t-33.5 -20.5v-41q0 -36 -6.5 -73.5t-17.5 -67.5q-16 -42 -37 -65q-30 -34 -72 -34q-50 0 -81 40q-12 16 -19 35.5t-10 40.5t-2 40.5t5 35.5q6 22 22 41t38 35.5
t48 31t53 28.5v51q-2 -1 -4 -3q-38 -29 -90 -29q-24 0 -49 6q-56 12 -90 61q-14 20 -23 44t-16 55q-10 51 -11 106t1 102q0 8 0.5 15t0.5 14q0 16 10.5 26t26.5 10q17 -1 29.5 -11t11.5 -27v-29q-2 -44 -1.5 -95t9.5 -96q6 -29 14.5 -47.5t18 -29.5t19 -15.5t17.5 -6.5
q49 -10 74 10q25 19 37 69q6 26 8 52t3 48v146q0 17 11 26.5t28 9.5q17 1 28 -8.5t12 -25.5q0 -2 0.5 -16.5t0.5 -36.5v-47.5t-1 -48.5q0 -10 0.5 -34t1 -56.5t1 -70t0.5 -73.5q7 5 9 8q18 16 37 40.5t35.5 50t30 49.5t20.5 39q7 14 21 18.5t29 -2.5zM264 -221q11 29 15 60
t5 54q-14 -8 -26.5 -15t-23.5 -15q-21 -15 -28 -24t-8 -14q-2 -9 -2.5 -20t1 -23t5 -22.5t8.5 -17.5q9 -10 19 -10q8 0 17.5 12.5t17.5 34.5z" />
    <glyph glyph-name="z" unicode="z" horiz-adv-x="522" 
d="M576 230q13 -10 17.5 -23.5t-5.5 -26.5q-93 -116 -183 -157q-51 -23 -97 -23q-58 0 -109 33q-92 61 -138.5 97.5t-48.5 38.5q-11 10 -13 24t6 26q5 12 17 18.5t26 4.5q53 -7 87.5 -6t57.5 7t37.5 15t26.5 18q21 15 40 37t30 36q-17 0 -33 3q-23 4 -40 11t-32 15
q-17 9 -31 16.5t-39 7.5q-14 0 -25.5 -11t-18.5 -19q-11 -13 -25 -13.5t-28 8.5t-18 22t5 27q2 3 11 13.5t23 22t33 20.5t40 9q38 -1 64 -11.5t46 -21.5q12 -6 23.5 -11.5t25.5 -7.5q26 -5 47 3t41 31q11 12 27 12.5t28 -10.5q11 -9 13 -21.5t-3 -24.5q-2 -6 -8 -17.5
t-13.5 -25.5t-16.5 -29t-18 -27q-15 -20 -36 -44t-45.5 -45.5t-53 -39t-58.5 -24.5q-13 -3 -26.5 -5t-29.5 -3q18 -14 39.5 -28.5t46.5 -31.5q57 -38 130 -5q76 35 154 135q10 13 23.5 12.5t26.5 -11.5z" />
    <glyph glyph-name="braceleft" unicode="{" horiz-adv-x="235" 
d="M213 -142q16 -2 25 -14t7 -29q-2 -15 -11.5 -25t-24.5 -10h-4q-98 9 -128 92q-12 32 -14 68.5t-1 73.5v17q0 60 3 113q1 25 1.5 48t0.5 41q-1 24 -2 32.5t-2 10.5q-2 4 -5.5 5t-18.5 1h-3q-16 0 -26 11.5t-10 27.5v1v1q0 17 10 28.5t26 11.5h3q15 -1 18.5 0.5t5.5 5.5
q1 1 2 9.5t2 32.5q0 19 -0.5 41.5t-1.5 48.5q-3 51 -3 112v18q-1 37 1 73.5t14 68.5q30 82 128 91q17 2 28 -7.5t13 -26.5q2 -16 -7.5 -29t-25.5 -15q-26 -2 -40.5 -11.5t-22 -28t-9 -47t-1.5 -68.5v-17q0 -29 1 -56.5t2 -53.5q2 -69 1.5 -109t-11.5 -61l-6 -12q2 -3 6 -11
q11 -22 11.5 -61.5t-1.5 -108.5q-1 -26 -2 -53.5t-1 -56.5v-18q0 -40 1.5 -68.5t9 -46.5t22 -27.5t40.5 -12.5z" />
    <glyph glyph-name="bar" unicode="|" horiz-adv-x="267" 
d="M158 -130q-17 0 -28.5 10t-11.5 27v927q0 17 11 27t28 10t28.5 -10t11.5 -27v-927q0 -17 -11.5 -27t-27.5 -10z" />
    <glyph glyph-name="braceright" unicode="}" horiz-adv-x="313" 
d="M46 -142q25 3 40 12.5t22.5 27.5t9 46.5t1.5 68.5v18q0 29 -1 56.5t-2 53.5q-2 69 -1.5 108.5t11.5 61.5q4 8 7 11q-3 4 -7 12q-11 21 -11.5 61t1.5 109q1 26 2 53.5t1 56.5v17q0 40 -1.5 68.5t-9 47t-22.5 28t-40 11.5q-16 2 -25.5 15t-7.5 29q2 17 13 26.5t28 7.5
q98 -9 128 -91q12 -32 14 -68.5t2 -73.5q0 -32 -1 -66.5t-2 -63.5q-3 -51 -3 -90q1 -24 2.5 -32.5t1.5 -9.5q2 -4 5.5 -5.5t18.5 -0.5h3q16 0 26 -11.5t10 -28.5v-1v-1q0 -16 -10 -27.5t-26 -11.5h-3q-15 0 -18.5 -1t-5.5 -5q0 -2 -1.5 -10.5t-2.5 -32.5q0 -18 0.5 -41
t2.5 -48q1 -30 2 -64t1 -66q0 -37 -2 -73.5t-14 -68.5q-30 -83 -128 -92h-4q-15 0 -24.5 10t-11.5 25q-2 17 7 29t25 14z" />
    <glyph glyph-name="uni00A0" unicode="&#xa0;" horiz-adv-x="320" 
 />
    <glyph glyph-name="exclamdown" unicode="&#xa1;" horiz-adv-x="240" 
d="M184 551q17 0 28 -8t11 -25v-483q0 -16 -11 -26t-28 -10t-28 10t-11 26v483q0 17 11 25t28 8zM236 702q2 -21 -12.5 -37t-36.5 -17q-21 -2 -36.5 12.5t-17.5 35.5q-2 22 12.5 37.5t35.5 17.5q22 1 37.5 -13t17.5 -36z" />
    <glyph glyph-name="sterling" unicode="&#xa3;" horiz-adv-x="417" 
d="M359 95q15 -6 23 -17t2 -25q-10 -23 -21.5 -36.5t-24 -20.5t-26 -9t-26.5 -2q-17 0 -27 5t-19 11t-18.5 11.5t-24.5 5.5q-14 0 -29.5 -9.5t-23.5 -15.5q-9 -7 -20 -7.5t-21 4.5q-21 11 -21 35v98q1 17 1 34v34h-42q-16 0 -24 11t-8 27q-1 17 6.5 28.5t24.5 11.5h12
q6 0 14 0.5t18 0.5q1 39 3.5 70t10.5 56q14 41 42 62q15 12 32.5 18t43.5 6q37 -1 63.5 -14t37.5 -21q14 -10 11 -24t-11 -24q-7 -10 -20.5 -16.5t-29.5 3.5q-8 5 -19.5 11.5t-31.5 5.5q-19 0 -28 -6.5t-15 -24.5q-5 -17 -7.5 -42.5t-3.5 -57.5q27 1 48.5 1h28.5
q35 0 36 -35q0 -17 -9 -30t-25 -13l-79 -2q-1 -19 -1 -36v-34v-33q11 3 20.5 5t18.5 2q20 0 32.5 -5t21 -11t15 -11t15.5 -5q14 -1 19 5t9 12q11 14 21 16t26 -3z" />
    <glyph glyph-name="section" unicode="&#xa7;" horiz-adv-x="400" 
d="M269 212q37 -52 37 -123q0 -41 -15.5 -78.5t-42.5 -63.5q-42 -42 -101 -42h-6q-86 3 -132 72q-10 14 -5 27.5t19 22.5t27.5 8.5t22.5 -14.5q25 -35 71 -38q27 0 50 20q15 16 24 38.5t9 47.5q0 24 -5.5 42t-15.5 33t-24.5 28t-33.5 26q-7 5 -14 9.5t-15 9.5
q-17 10 -35.5 22.5t-34.5 28.5t-28.5 37t-16.5 49q-3 18 -4 41t8 47q12 29 37 54q-5 5 -8 11q-37 52 -37 123q0 41 15.5 78.5t42.5 63.5q45 44 107 42q86 -3 132 -72q10 -14 6.5 -27t-17.5 -22t-29 -9t-24 14q-25 35 -71 38q-27 0 -50 -20q-15 -16 -24 -38.5t-9 -47.5
q0 -47 20.5 -75.5t58.5 -53.5q7 -5 14 -9.5t15 -9.5q17 -11 35.5 -23t34.5 -28t28 -37t17 -49q4 -18 4.5 -41t-8.5 -47q-6 -14 -14.5 -27t-22.5 -27q5 -5 8 -11zM81 386q5 -27 25 -44.5t54 -37.5l16 -10t16 -11q3 -2 5.5 -3.5t5.5 -3.5q20 18 23.5 34t-1.5 42
q-5 28 -25 45.5t-54 37.5l-16 10t-16 11q-5 2 -11 7q-20 -18 -23.5 -34t1.5 -43z" />
    <glyph glyph-name="dieresis" unicode="&#xa8;" horiz-adv-x="405" 
d="M155 572q-2 -21 -17.5 -35.5t-37.5 -13.5q-21 2 -35.5 17.5t-12.5 37.5q1 21 17 35.5t37 12.5q22 -1 36 -17t13 -37zM322 572q-1 -21 -17 -35.5t-37 -13.5q-21 2 -35.5 17.5t-12.5 37.5q1 21 17 35.5t37 12.5q21 -1 35.5 -17t12.5 -37z" />
    <glyph glyph-name="copyright" unicode="&#xa9;" horiz-adv-x="429" 
d="M201 403q-42 0 -78.5 16t-63.5 43t-43 63.5t-16 78.5t16 79t43 64t63.5 43t78.5 16t79 -16t64 -43t43 -64t16 -79t-16 -78.5t-43 -63.5t-64 -43t-79 -16zM201 758q-32 0 -59.5 -12t-48.5 -33t-33 -49t-12 -60t12 -59.5t33 -48.5t48.5 -33t59.5 -12t60 12t49 33t33 48.5
t12 59.5t-12 60t-33 49t-49 33t-60 12zM202 499q-29 0 -52 13q-22 12 -37 38q-13 26 -13 57q-1 29 13 53t40 38q27 14 57 13t57 -19q8 -6 10 -16t-3 -18q-6 -8 -16 -9.5t-18 3.5q-14 10 -31.5 11t-32.5 -7q-8 -5 -18 -16t-10 -33q0 -39 26 -54q15 -8 35.5 -6t42.5 15
q8 5 18 2t15 -11q5 -9 2 -18.5t-11 -14.5q-38 -21 -74 -21z" />
    <glyph glyph-name="guillemotleft" unicode="&#xab;" horiz-adv-x="485" 
d="M250 175q10 -13 6.5 -27t-17.5 -24q-11 -8 -23 -8q-9 0 -16.5 2.5t-13.5 10.5l-75 102q-6 9 -6 20q0 12 7 20l75 102q10 14 24 15t27 -9q14 -10 18 -24.5t-6 -27.5l-56 -76zM409 175q10 -13 6.5 -27t-17.5 -24q-11 -8 -23 -8q-9 0 -16.5 2.5t-13.5 10.5l-75 102
q-6 9 -6 20q0 12 7 20l75 102q10 14 24 15t27 -9q14 -10 18 -24.5t-6 -27.5l-56 -76z" />
    <glyph glyph-name="registered" unicode="&#xae;" horiz-adv-x="429" 
d="M201 403q-42 0 -78.5 16t-63.5 43t-43 63.5t-16 78.5t16 79t43 64t63.5 43t78.5 16t79 -16t64 -43t43 -64t16 -79t-16 -78.5t-43 -63.5t-64 -43t-79 -16zM201 758q-32 0 -59.5 -12t-48.5 -33t-33 -49t-12 -60t12 -59.5t33 -48.5t48.5 -33t59.5 -12t60 12t49 33t33 48.5
t12 59.5t-12 60t-33 49t-49 33t-60 12zM284 542q6 -8 4 -18t-10 -16q-5 -4 -14 -4q-13 0 -19 10l-51 72h-2q-8 0 -12 1v-68q0 -10 -6.5 -17t-17.5 -7q-10 0 -17 7t-7 17v172q0 10 7 17t17 7h3h2h8q18 1 44.5 -1.5t44.5 -19.5q17 -15 17 -40q1 -18 -5 -29.5t-12 -17.5
q-5 -5 -13 -9zM180 635q9 -1 23.5 0t20.5 7q4 0 3 11q0 6 -2 6q-5 6 -19 7t-26 1v-32z" />
    <glyph glyph-name="macron" unicode="&#xaf;" horiz-adv-x="833" 
d="M103 554q-16 0 -27.5 11t-11.5 28t11.5 28t27.5 11h174q17 0 28.5 -11t11.5 -28t-11.5 -28t-28.5 -11h-174z" />
    <glyph glyph-name="degree" unicode="&#xb0;" horiz-adv-x="255" 
d="M85 606q-27 0 -50.5 10t-41.5 28t-28 41.5t-10 50.5t10 50.5t28 41.5t41.5 28t50.5 10t50.5 -10t41.5 -28t28 -41.5t10 -50.5t-10 -50.5t-28 -41.5t-41.5 -28t-50.5 -10zM85 791q-23 0 -39 -16t-16 -39t16 -39t39 -16t39 16t16 39t-16 39t-39 16z" />
    <glyph glyph-name="uni00B2" unicode="&#xb2;" horiz-adv-x="258" 
d="M237 516q14 -6 20.5 -16.5t0.5 -24.5q-20 -43 -43.5 -57.5t-42.5 -14.5q-36 -1 -65 23q-5 3 -9.5 6t-9.5 4l-8 -16q-5 -10 -16.5 -14t-26.5 1q-14 6 -20.5 16.5t-0.5 23.5q2 5 9.5 20t19.5 37q9 18 21.5 42.5t24.5 48.5t21.5 44t12.5 30q6 21 5 29t-12 10q-13 1 -20 -14
t-10 -27q-7 -27 -36 -24q-15 2 -24 9.5t-8 22.5q2 11 7 28t17 34q32 44 78 40q27 -2 41.5 -12t22.5 -21q24 -35 6 -94q-5 -20 -24.5 -60.5t-45.5 -89.5l6 -3t7 -4l15 -12.5t18 -7.5q11 -2 26 32q6 13 18 15t25 -4z" />
    <glyph glyph-name="uni00B3" unicode="&#xb3;" horiz-adv-x="256" 
d="M133 403q-46 0 -78 26q-25 20 -40 55q-11 27 18 40q14 5 27.5 3t19.5 -16q8 -20 20.5 -30t32.5 -8q13 0 22 13t12.5 29.5t1.5 32.5t-9 23q-11 10 -27.5 7t-26.5 -6q-24 -7 -39 13q-7 9 -7 20.5t7 20.5l59 83l-69 1q-14 0 -20.5 10.5t-6.5 24.5q0 15 6.5 25t20.5 10
l136 -1q21 0 31 -19q10 -18 -3 -36l-56 -80q20 -3 35 -13q11 -7 23 -22t16 -41q5 -38 -4 -72.5t-29 -58.5q-31 -34 -73 -34z" />
    <glyph glyph-name="acute" unicode="&#xb4;" horiz-adv-x="833" 
d="M195 535q-12 0 -23 8q-14 10 -17 24t6 27l75 102q10 14 24 15t28 -9q13 -10 17.5 -24.5t-5.5 -27.5l-75 -102q-6 -8 -13.5 -10.5t-16.5 -2.5z" />
    <glyph glyph-name="paragraph" unicode="&#xb6;" horiz-adv-x="600" 
d="M553 616q-1 0 -21.5 8t-52.5 18q2 -76 4.5 -143t3.5 -128.5t1 -118.5t-2 -112q-3 -68 -34 -105.5t-94 -38.5q-32 0 -54 8t-35 16q-22 -14 -51 -19q-28 -5 -48 -5q-72 0 -114 44q-26 26 -37 57t-16 55q-3 16 5.5 26t25.5 13q16 4 29.5 -1.5t16.5 -21.5q9 -44 27.5 -68.5
t62.5 -24.5q14 0 34 3q7 1 16 5t17.5 12.5t16.5 23t13 38.5q11 51 11 105t-2 106q-30 0 -66.5 3t-73.5 14q-57 18 -93 51q-44 41 -53 102q-12 78 28 129q35 44 112 65q33 9 69.5 13t66.5 6q53 3 108 -5.5t100.5 -21t75.5 -23.5t33 -12q15 -6 17 -18.5t-4 -27.5t-17 -23.5
t-26 -3.5zM159 460q26 -8 57.5 -11.5t54.5 -3.5l-9 227q-28 -2 -56 -5.5t-52.5 -9.5t-43.5 -15.5t-30 -22.5q-19 -25 -13 -68q10 -65 92 -91zM344 140q-8 -35 -22 -61q9 -5 20 -8t25 -1q15 2 24 12.5t14.5 25t7.5 32.5t2 35q1 49 0 108.5t-3.5 123t-6 129t-6.5 125.5
q-29 6 -58 9q1 -41 3.5 -92t4 -101t3 -94t1.5 -71q0 -35 0.5 -81t-9.5 -91z" />
    <glyph glyph-name="cedilla" unicode="&#xb8;" horiz-adv-x="499" 
d="M216 -267q-16 0 -33.5 3t-34.5 11q-26 13 -42 34.5t-19 50.5q-8 65 46 102q12 8 25 13t24 8v76q0 17 11 26t28 9t28 -9t11 -26v-106q0 -14 -8 -24.5t-21 -13.5q-2 -1 -4 -1t-4 -1q-39 -10 -49.5 -19.5t-8.5 -24.5q1 -16 16 -23q10 -5 23 -6t25.5 0.5t24 5t17.5 8.5
q14 9 28 5.5t23 -17.5t8 -29.5t-15 -24.5q-31 -20 -78 -25q-5 -1 -10.5 -1.5t-10.5 -0.5z" />
    <glyph glyph-name="uni00B9" unicode="&#xb9;" horiz-adv-x="193" 
d="M128 403q-14 0 -24.5 7t-10.5 21v227l-36 -37q-11 -11 -23.5 -9.5t-23.5 12.5q-10 11 -11.5 23.5t8.5 23.5l97 96q17 17 38 7q10 -4 15.5 -12.5t5.5 -19.5v-311q0 -14 -10 -21t-25 -7z" />
    <glyph glyph-name="guillemotright" unicode="&#xbb;" horiz-adv-x="485" 
d="M284 327q-10 13 -6.5 27t16.5 24q11 8 24 8q9 0 16.5 -2.5t12.5 -10.5l75 -102q7 -8 7 -20t-7 -20l-75 -102q-10 -14 -24 -15t-28 9q-13 10 -17 24.5t5 27.5l56 76zM125 327q-10 13 -6.5 27t16.5 24q11 8 24 8q9 0 16.5 -2.5t12.5 -10.5l75 -102q7 -8 7 -20t-7 -20
l-75 -102q-10 -14 -24 -15t-28 9q-13 10 -17 24.5t5 27.5l56 76z" />
    <glyph glyph-name="onequarter" unicode="&#xbc;" horiz-adv-x="599" 
d="M526 178q15 0 25 -10.5t10 -24.5t-10 -24.5t-25 -10.5h-24v-72q0 -14 -10.5 -24.5t-24.5 -10.5t-24.5 10.5t-10.5 24.5v72h-85q-20 0 -29 15q-11 14 -4 32l3 8.5t7 20.5t8 26.5t6 26.5t1 26t-2.5 27.5t-4 24.5t-3.5 17q-4 14 4 26.5t22 15.5t26 -4.5t16 -21.5
q6 -26 10.5 -58.5t-0.5 -63.5q-2 -12 -5 -24.5t-7 -23.5h37v80q0 14 10.5 24.5t24.5 10.5t24.5 -10.5t10.5 -24.5v-80h24zM67 -6q-8 0 -18 5q-14 8 -20.5 20.5t1.5 27.5l353 691q7 14 21.5 17.5t28.5 -4.5q15 -8 21 -21.5t-1 -27.5l-353 -691q-5 -11 -13.5 -14t-19.5 -3z
M131 376q-14 0 -24.5 7t-10.5 21v227l-36 -37q-11 -11 -23.5 -9.5t-23.5 12.5q-10 11 -11.5 23.5t8.5 23.5l97 96q17 17 38 7q10 -4 15.5 -12.5t5.5 -19.5v-311q0 -14 -10 -21t-25 -7z" />
    <glyph glyph-name="onehalf" unicode="&#xbd;" horiz-adv-x="599" 
d="M67 -6q-8 0 -18 5q-14 8 -20.5 20.5t1.5 27.5l353 691q7 14 21.5 17.5t28.5 -4.5q15 -8 21 -21.5t-1 -27.5l-353 -691q-5 -11 -13.5 -14t-19.5 -3zM131 376q-14 0 -24.5 7t-10.5 21v227l-36 -37q-11 -11 -23.5 -9.5t-23.5 12.5q-10 11 -11.5 23.5t8.5 23.5l97 96
q17 17 38 7q10 -4 15.5 -12.5t5.5 -19.5v-311q0 -14 -10 -21t-25 -7zM520 116q14 -6 20.5 -16.5t0.5 -24.5q-20 -43 -43.5 -57.5t-42.5 -14.5q-36 -1 -65 23q-5 3 -9.5 6t-9.5 4l-8 -16q-5 -10 -16.5 -14t-26.5 1q-14 6 -20.5 16.5t-0.5 23.5q2 5 9.5 20t19.5 37
q9 18 21.5 42.5t24.5 48.5t21.5 44t12.5 30q6 21 5 29t-12 10q-13 1 -20 -14t-10 -27q-7 -27 -36 -24q-15 2 -24 9.5t-8 22.5q2 11 7 28t17 34q32 44 78 40q27 -2 41.5 -12t22.5 -21q24 -35 6 -94q-5 -20 -24.5 -60.5t-45.5 -89.5l6 -3t7 -4l15 -12.5t18 -7.5q11 -2 26 32
q6 13 18 15t25 -4z" />
    <glyph glyph-name="threequarters" unicode="&#xbe;" horiz-adv-x="639" 
d="M534 178q14 0 24.5 -10.5t10.5 -24.5t-10 -24.5t-25 -10.5h-24v-72q0 -14 -10.5 -24.5t-24.5 -10.5t-24.5 10.5t-10.5 24.5v72h-85h-1q-19 0 -28 15q-11 14 -4 32l3 8.5t6.5 20.5t7.5 26.5t6 26.5t1.5 26t-2.5 27.5t-4.5 24.5t-3.5 17q-3 14 4.5 26.5t21.5 15.5
t26.5 -4.5t15.5 -21.5q7 -26 11.5 -58.5t-0.5 -63.5q-2 -12 -5 -24.5t-7 -23.5h37v80q0 14 10.5 24.5t24.5 10.5t24.5 -10.5t10.5 -24.5v-80h24zM90 -6q-9 0 -17 5q-15 8 -21.5 20.5t1.5 27.5l353 691q8 14 22 17.5t29 -4.5q14 -8 20.5 -21.5t-1.5 -27.5l-353 -691
q-5 -11 -13.5 -14t-19.5 -3zM120 374q-46 0 -78 26q-25 20 -40 55q-11 27 18 40q14 5 27.5 3t19.5 -16q8 -20 20.5 -30t32.5 -8q13 0 22 13t12.5 29.5t1.5 32.5t-9 23q-11 10 -27.5 7t-26.5 -6q-24 -7 -39 13q-7 9 -7 20.5t7 20.5l59 83l-69 1q-14 0 -20.5 10.5t-6.5 24.5
q0 15 6.5 25t20.5 10l136 -1q21 0 31 -19q10 -18 -3 -36l-56 -80q20 -3 35 -13q11 -7 23 -22t16 -41q5 -38 -4 -72.5t-29 -58.5q-31 -34 -73 -34z" />
    <glyph glyph-name="questiondown" unicode="&#xbf;" horiz-adv-x="400" 
d="M230 532q16 0 27.5 -11t11.5 -28v-5q0 -23 -1 -46.5t-5.5 -47.5t-14.5 -48t-28 -48q-10 -12 -21.5 -23.5t-25.5 -22.5q-24 -20 -45 -41.5t-23 -46.5q-5 -51 22 -84q22 -25 56 -28q67 -5 96 86q5 15 19.5 22.5t30.5 2.5q15 -5 22.5 -19.5t2.5 -29.5q-23 -73 -71 -109
q-48 -35 -106 -31q-67 6 -110 55q-23 28 -33.5 64t-6.5 78q2 24 11.5 44.5t23 37.5t29 31.5t30.5 26.5q11 10 21 18.5t16 16.5q24 32 28 67.5t4 73.5v6q0 17 11.5 28t28.5 11zM178 697q2 22 17.5 36t37.5 13q21 -2 35.5 -17.5t12.5 -37.5q-2 -21 -17.5 -35.5t-36.5 -12.5
q-22 1 -36.5 17t-12.5 37z" />
    <glyph glyph-name="Agrave" unicode="&#xc0;" horiz-adv-x="727" 
d="M775 228q15 -6 21.5 -17.5t0.5 -26.5q-14 -36 -29.5 -64.5t-35.5 -50.5q-39 -40 -85 -52q-32 -8 -62.5 -1t-53.5 27q-19 16 -32.5 44.5t-22.5 64.5t-14.5 77.5t-9.5 84.5h-108q-11 -27 -23 -56t-24 -55t-22.5 -48t-17.5 -36q-11 -20 -25 -42t-33 -39q-39 -36 -85 -36
h-8.5t-8.5 1q-56 8 -91 57q-24 31 -36 81q-4 16 5 26.5t25 14.5t29 -1t17 -21q18 -73 62 -79q20 -3 38 14.5t42 60.5q12 23 31.5 66.5t39.5 91.5h-16q-17 0 -24 12t-7 29t7 27t24 10h48q5 13 9 23.5t7 18.5q6 15 17 45t24.5 65t27.5 72t26 67t19.5 49.5t7.5 20.5
q5 14 16.5 18t25.5 2t23.5 -10t10.5 -22q0 -1 1 -22t2.5 -54t3.5 -72.5t4.5 -77t4 -68t3.5 -45.5q0 -6 0.5 -13t1.5 -15q2 -31 5.5 -73.5t11.5 -85.5q6 -32 12 -53t11.5 -34t10 -18.5t6.5 -7.5q6 -5 18 -9t27 0q8 2 19.5 8.5t25 19.5t27.5 35t27 56q6 16 19.5 19t28.5 -3z
M381 406q-2 -3 -2.5 -6.5t-2.5 -7.5h70q0 2 -1 3q-2 20 -4.5 63t-4.5 93q-17 -45 -32.5 -85t-22.5 -60zM469 815q-9 0 -16.5 2.5t-13.5 10.5l-75 102q-10 13 -6 27.5t18 24.5q13 10 27.5 9t23.5 -15l75 -102q10 -13 6.5 -27t-16.5 -24q-11 -8 -23 -8z" />
    <glyph glyph-name="Aacute" unicode="&#xc1;" horiz-adv-x="727" 
d="M775 228q15 -6 21.5 -17.5t0.5 -26.5q-14 -36 -29.5 -64.5t-35.5 -50.5q-39 -40 -85 -52q-32 -8 -62.5 -1t-53.5 27q-19 16 -32.5 44.5t-22.5 64.5t-14.5 77.5t-9.5 84.5h-108q-11 -27 -23 -56t-24 -55t-22.5 -48t-17.5 -36q-11 -20 -25 -42t-33 -39q-39 -36 -85 -36
h-8.5t-8.5 1q-56 8 -91 57q-24 31 -36 81q-4 16 5 26.5t25 14.5t29 -1t17 -21q18 -73 62 -79q20 -3 38 14.5t42 60.5q12 23 31.5 66.5t39.5 91.5h-16q-17 0 -24 12t-7 29t7 27t24 10h48q5 13 9 23.5t7 18.5q6 15 17 45t24.5 65t27.5 72t26 67t19.5 49.5t7.5 20.5
q5 14 16.5 18t25.5 2t23.5 -10t10.5 -22q0 -1 1 -22t2.5 -54t3.5 -72.5t4.5 -77t4 -68t3.5 -45.5q0 -6 0.5 -13t1.5 -15q2 -31 5.5 -73.5t11.5 -85.5q6 -32 12 -53t11.5 -34t10 -18.5t6.5 -7.5q6 -5 18 -9t27 0q8 2 19.5 8.5t25 19.5t27.5 35t27 56q6 16 19.5 19t28.5 -3z
M381 406q-2 -3 -2.5 -6.5t-2.5 -7.5h70q0 2 -1 3q-2 20 -4.5 63t-4.5 93q-17 -45 -32.5 -85t-22.5 -60zM476 813q-12 0 -23 8q-14 10 -17 24t6 27l75 102q10 14 24 15t28 -9q13 -10 17.5 -24.5t-5.5 -27.5l-75 -102q-6 -8 -13.5 -10.5t-16.5 -2.5z" />
    <glyph glyph-name="Acircumflex" unicode="&#xc2;" horiz-adv-x="727" 
d="M775 228q15 -6 21.5 -17.5t0.5 -26.5q-14 -36 -29.5 -64.5t-35.5 -50.5q-39 -40 -85 -52q-32 -8 -62.5 -1t-53.5 27q-19 16 -32.5 44.5t-22.5 64.5t-14.5 77.5t-9.5 84.5h-108q-11 -27 -23 -56t-24 -55t-22.5 -48t-17.5 -36q-11 -20 -25 -42t-33 -39q-39 -36 -85 -36
h-8.5t-8.5 1q-56 8 -91 57q-24 31 -36 81q-4 16 5 26.5t25 14.5t29 -1t17 -21q18 -73 62 -79q20 -3 38 14.5t42 60.5q12 23 31.5 66.5t39.5 91.5h-16q-17 0 -24 12t-7 29t7 27t24 10h48q5 13 9 23.5t7 18.5q6 15 17 45t24.5 65t27.5 72t26 67t19.5 49.5t7.5 20.5
q5 14 16.5 18t25.5 2t23.5 -10t10.5 -22q0 -1 1 -22t2.5 -54t3.5 -72.5t4.5 -77t4 -68t3.5 -45.5q0 -6 0.5 -13t1.5 -15q2 -31 5.5 -73.5t11.5 -85.5q6 -32 12 -53t11.5 -34t10 -18.5t6.5 -7.5q6 -5 18 -9t27 0q8 2 19.5 8.5t25 19.5t27.5 35t27 56q6 16 19.5 19t28.5 -3z
M381 406q-2 -3 -2.5 -6.5t-2.5 -7.5h70q0 2 -1 3q-2 20 -4.5 63t-4.5 93q-17 -45 -32.5 -85t-22.5 -60zM566 874q10 -13 6.5 -27t-16.5 -24q-11 -8 -23 -8q-9 0 -16.5 2.5t-13.5 10.5l-41 56l-41 -56q-6 -8 -13.5 -10.5t-16.5 -2.5q-12 0 -23 8q-14 10 -17 24t6 27l75 102
q11 15 30 15t29 -15z" />
    <glyph glyph-name="Atilde" unicode="&#xc3;" horiz-adv-x="727" 
d="M775 228q15 -6 21.5 -17.5t0.5 -26.5q-14 -36 -29.5 -64.5t-35.5 -50.5q-39 -40 -85 -52q-32 -8 -62.5 -1t-53.5 27q-19 16 -32.5 44.5t-22.5 64.5t-14.5 77.5t-9.5 84.5h-108q-11 -27 -23 -56t-24 -55t-22.5 -48t-17.5 -36q-11 -20 -25 -42t-33 -39q-39 -36 -85 -36
h-8.5t-8.5 1q-56 8 -91 57q-24 31 -36 81q-4 16 5 26.5t25 14.5t29 -1t17 -21q18 -73 62 -79q20 -3 38 14.5t42 60.5q12 23 31.5 66.5t39.5 91.5h-16q-17 0 -24 12t-7 29t7 27t24 10h48q5 13 9 23.5t7 18.5q6 15 17 45t24.5 65t27.5 72t26 67t19.5 49.5t7.5 20.5
q5 14 16.5 18t25.5 2t23.5 -10t10.5 -22q0 -1 1 -22t2.5 -54t3.5 -72.5t4.5 -77t4 -68t3.5 -45.5q0 -6 0.5 -13t1.5 -15q2 -31 5.5 -73.5t11.5 -85.5q6 -32 12 -53t11.5 -34t10 -18.5t6.5 -7.5q6 -5 18 -9t27 0q8 2 19.5 8.5t25 19.5t27.5 35t27 56q6 16 19.5 19t28.5 -3z
M381 406q-2 -3 -2.5 -6.5t-2.5 -7.5h70q0 2 -1 3q-2 20 -4.5 63t-4.5 93q-17 -45 -32.5 -85t-22.5 -60zM522 809q-29 2 -50 15.5t-36 25.5q-7 6 -14 11.5t-12 6.5q-14 2 -26 -6.5t-26 -23.5l-5 -5q-11 -11 -24 -10t-24 12t-12.5 24t8.5 24l5 5q8 8 17.5 18t23.5 18
q35 21 74 15q19 -3 33.5 -13t27.5 -20q12 -10 22.5 -17t23.5 -8q12 -2 23 9.5t24 27.5q11 14 23.5 14t24.5 -10q11 -9 15 -21.5t-5 -24.5q-8 -11 -17 -23t-20.5 -22t-27 -16t-37.5 -6h-9z" />
    <glyph glyph-name="Adieresis" unicode="&#xc4;" horiz-adv-x="727" 
d="M775 228q15 -6 21.5 -17.5t0.5 -26.5q-14 -36 -29.5 -64.5t-35.5 -50.5q-39 -40 -85 -52q-32 -8 -62.5 -1t-53.5 27q-19 16 -32.5 44.5t-22.5 64.5t-14.5 77.5t-9.5 84.5h-108q-11 -27 -23 -56t-24 -55t-22.5 -48t-17.5 -36q-11 -20 -25 -42t-33 -39q-39 -36 -85 -36
h-8.5t-8.5 1q-56 8 -91 57q-24 31 -36 81q-4 16 5 26.5t25 14.5t29 -1t17 -21q18 -73 62 -79q20 -3 38 14.5t42 60.5q12 23 31.5 66.5t39.5 91.5h-16q-17 0 -24 12t-7 29t7 27t24 10h48q5 13 9 23.5t7 18.5q6 15 17 45t24.5 65t27.5 72t26 67t19.5 49.5t7.5 20.5
q5 14 16.5 18t25.5 2t23.5 -10t10.5 -22q0 -1 1 -22t2.5 -54t3.5 -72.5t4.5 -77t4 -68t3.5 -45.5q0 -6 0.5 -13t1.5 -15q2 -31 5.5 -73.5t11.5 -85.5q6 -32 12 -53t11.5 -34t10 -18.5t6.5 -7.5q6 -5 18 -9t27 0q8 2 19.5 8.5t25 19.5t27.5 35t27 56q6 16 19.5 19t28.5 -3z
M381 406q-2 -3 -2.5 -6.5t-2.5 -7.5h70q0 2 -1 3q-2 20 -4.5 63t-4.5 93q-17 -45 -32.5 -85t-22.5 -60zM434 852q-2 -21 -17.5 -35.5t-37.5 -13.5q-21 2 -35.5 17.5t-12.5 37.5q1 21 17 35.5t37 12.5q22 -1 36 -17t13 -37zM601 852q-1 -21 -17 -35.5t-37 -13.5
q-21 2 -35.5 17.5t-12.5 37.5q1 21 17 35.5t37 12.5q21 -1 35.5 -17t12.5 -37z" />
    <glyph glyph-name="Aring" unicode="&#xc5;" horiz-adv-x="727" 
d="M775 228q15 -6 21.5 -17.5t0.5 -26.5q-14 -36 -29.5 -64.5t-35.5 -50.5q-39 -40 -85 -52q-32 -8 -62.5 -1t-53.5 27q-19 16 -32.5 44.5t-22.5 64.5t-14.5 77.5t-9.5 84.5h-108q-11 -27 -23 -56t-24 -55t-22.5 -48t-17.5 -36q-11 -20 -25 -42t-33 -39q-39 -36 -85 -36
h-8.5t-8.5 1q-56 8 -91 57q-24 31 -36 81q-4 16 5 26.5t25 14.5t29 -1t17 -21q18 -73 62 -79q20 -3 38 14.5t42 60.5q12 23 31.5 66.5t39.5 91.5h-16q-17 0 -24 12t-7 29t7 27t24 10h48q5 13 9 23.5t7 18.5q6 15 17 45t24.5 65t27.5 72t26 67t19.5 49.5t7.5 20.5
q5 14 16.5 18t25.5 2t23.5 -10t10.5 -22q0 -1 1 -22t2.5 -54t3.5 -72.5t4.5 -77t4 -68t3.5 -45.5q0 -6 0.5 -13t1.5 -15q2 -31 5.5 -73.5t11.5 -85.5q6 -32 12 -53t11.5 -34t10 -18.5t6.5 -7.5q6 -5 18 -9t27 0q8 2 19.5 8.5t25 19.5t27.5 35t27 56q6 16 19.5 19t28.5 -3z
M381 406q-2 -3 -2.5 -6.5t-2.5 -7.5h70q0 2 -1 3q-2 20 -4.5 63t-4.5 93q-17 -45 -32.5 -85t-22.5 -60zM462 797q-21 0 -39 8t-32 21.5t-22 31.5t-8 39t8 39.5t22 32t32 21.5t39 8t39.5 -8t32 -21.5t21.5 -32t8 -39.5t-8 -39t-21.5 -31.5t-32 -21.5t-39.5 -8zM462 933
q-15 0 -25.5 -10.5t-10.5 -25.5q0 -14 10.5 -24.5t25.5 -10.5t25.5 10.5t10.5 24.5q0 15 -10.5 25.5t-25.5 10.5z" />
    <glyph glyph-name="AE" unicode="&#xc6;" horiz-adv-x="735" 
d="M748 54q1 -17 -7.5 -29.5t-24.5 -12.5l-240 -7h-1q-16 0 -27.5 11t-11.5 27v2q-1 66 -1 118.5v94.5v54h-91q-11 -27 -23 -55.5t-23.5 -55t-22 -48.5t-18.5 -36q-11 -20 -25 -42t-33 -39q-39 -36 -85 -36q-5 0 -8.5 0.5t-8.5 1.5q-56 8 -91 56q-24 33 -36 81q-4 16 4.5 27
t24.5 15t29.5 -1.5t17.5 -21.5q20 -73 62 -79q20 -2 38 15t42 61q13 23 32 66.5t39 90.5h-16q-17 0 -25.5 12t-8.5 29t8.5 27.5t25.5 10.5h48q5 12 9 22.5t7 18.5q6 15 16.5 44t24 63.5t27 71t25 67t19.5 51t10 23.5q5 9 12.5 16.5t22.5 8.5l188 6q17 1 25.5 -9t9.5 -27
t-7.5 -29.5t-25.5 -13.5l-148 -4q0 -23 0.5 -55.5t1.5 -68t1.5 -71t1.5 -63.5l75 6q17 2 25.5 -7.5t10.5 -26.5t-6 -30t-24 -14l-79 -7v-105v-78t1 -95l200 5q16 1 24.5 -9t9.5 -27zM434 391v6q-1 21 -1.5 58.5t-1.5 80.5q-16 -42 -29.5 -77.5t-20.5 -53.5q-2 -3 -2.5 -6.5
t-2.5 -7.5h58z" />
    <glyph glyph-name="Ccedilla" unicode="&#xc7;" horiz-adv-x="424" 
d="M253 -267q-16 0 -33.5 3t-34.5 11q-26 13 -42 34.5t-19 50.5q-8 65 46 102q12 8 25 13t24 8v54q-86 15 -137 75q-26 32 -39.5 64.5t-19.5 56.5q-16 60 -19.5 118t-2.5 100q2 51 7.5 91t11.5 62q19 78 54 116q40 44 105 53q58 8 104 -35q22 -20 34.5 -42.5t19.5 -39.5
q6 -15 -2 -27t-23 -17q-15 -6 -29 -2.5t-20 19.5q-2 4 -7 16t-14.5 24t-22.5 20t-30 6q-37 -6 -57 -27q-21 -24 -36 -83q-5 -20 -10 -56.5t-6 -82t3 -95.5t16 -98q6 -24 17 -49t29.5 -45t48 -33.5t73.5 -14.5q31 -1 56.5 10.5t45 30.5t33.5 42t22 46q6 16 19.5 20t29.5 -1
q15 -5 23 -17t3 -28q-8 -20 -26 -54t-52 -66q-27 -26 -58.5 -41t-65.5 -20v-80q0 -14 -8 -24.5t-21 -13.5l-8 -2q-39 -10 -49.5 -19.5t-8.5 -24.5q1 -16 16 -23q10 -5 23 -6t25.5 0.5t24 5t17.5 8.5q14 9 28 5.5t23 -17.5t8 -29.5t-15 -24.5q-31 -20 -78 -25
q-5 -1 -10.5 -1.5t-10.5 -0.5z" />
    <glyph glyph-name="Egrave" unicode="&#xc8;" horiz-adv-x="407" 
d="M455 228q15 -6 22 -18t2 -27q-44 -113 -135 -157q-34 -17 -66 -22t-58 -5h-17q-34 2 -67 13.5t-59 31.5q-68 51 -74 137q-3 61 18 111q17 39 47 68q-26 14 -47 36q-17 19 -28 43.5t-13 51.5q-2 16 -0.5 53.5t15.5 79.5q17 51 52 83t85 43q68 15 127 -10q44 -20 79 -62
q11 -13 7.5 -27t-15.5 -25q-13 -11 -27.5 -11t-24.5 13q-10 11 -21.5 21.5t-27 17.5t-35.5 9t-46 -3q-37 -8 -56 -33t-26.5 -53.5t-7.5 -54t1 -35.5q2 -25 19 -47.5t55 -26.5q13 -1 30 0.5t33.5 4.5t30 6.5t21.5 5.5q16 5 27.5 -4t16.5 -25t-1 -29t-21 -18q-2 0 -11 -2.5
t-19.5 -5.5t-20 -5.5t-10.5 -2.5q-25 -8 -49 -19.5t-42 -30t-28.5 -45.5t-7.5 -67q2 -30 16 -50.5t33 -33t40 -18t36 -6.5q25 -2 53 2.5t55 19t51 41t41 70.5q6 16 19 19.5t29 -2.5zM186 815q-9 0 -16.5 2.5t-13.5 10.5l-75 102q-10 13 -6 27.5t18 24.5q13 10 27.5 9
t23.5 -15l75 -102q10 -13 6.5 -27t-16.5 -24q-11 -8 -23 -8z" />
    <glyph glyph-name="Eacute" unicode="&#xc9;" horiz-adv-x="407" 
d="M455 228q15 -6 22 -18t2 -27q-44 -113 -135 -157q-34 -17 -66 -22t-58 -5h-17q-34 2 -67 13.5t-59 31.5q-68 51 -74 137q-3 61 18 111q17 39 47 68q-26 14 -47 36q-17 19 -28 43.5t-13 51.5q-2 16 -0.5 53.5t15.5 79.5q17 51 52 83t85 43q68 15 127 -10q44 -20 79 -62
q11 -13 7.5 -27t-15.5 -25q-13 -11 -27.5 -11t-24.5 13q-10 11 -21.5 21.5t-27 17.5t-35.5 9t-46 -3q-37 -8 -56 -33t-26.5 -53.5t-7.5 -54t1 -35.5q2 -25 19 -47.5t55 -26.5q13 -1 30 0.5t33.5 4.5t30 6.5t21.5 5.5q16 5 27.5 -4t16.5 -25t-1 -29t-21 -18q-2 0 -11 -2.5
t-19.5 -5.5t-20 -5.5t-10.5 -2.5q-25 -8 -49 -19.5t-42 -30t-28.5 -45.5t-7.5 -67q2 -30 16 -50.5t33 -33t40 -18t36 -6.5q25 -2 53 2.5t55 19t51 41t41 70.5q6 16 19 19.5t29 -2.5zM157 815q-12 0 -23 8q-14 10 -17 24t6 27l75 102q10 14 24 15t28 -9q13 -10 17.5 -24.5
t-5.5 -27.5l-75 -102q-6 -8 -13.5 -10.5t-16.5 -2.5z" />
    <glyph glyph-name="Ecircumflex" unicode="&#xca;" horiz-adv-x="407" 
d="M455 228q15 -6 22 -18t2 -27q-44 -113 -135 -157q-34 -17 -66 -22t-58 -5h-17q-34 2 -67 13.5t-59 31.5q-68 51 -74 137q-3 61 18 111q17 39 47 68q-26 14 -47 36q-17 19 -28 43.5t-13 51.5q-2 16 -0.5 53.5t15.5 79.5q17 51 52 83t85 43q68 15 127 -10q44 -20 79 -62
q11 -13 7.5 -27t-15.5 -25q-13 -11 -27.5 -11t-24.5 13q-10 11 -21.5 21.5t-27 17.5t-35.5 9t-46 -3q-37 -8 -56 -33t-26.5 -53.5t-7.5 -54t1 -35.5q2 -25 19 -47.5t55 -26.5q13 -1 30 0.5t33.5 4.5t30 6.5t21.5 5.5q16 5 27.5 -4t16.5 -25t-1 -29t-21 -18q-2 0 -11 -2.5
t-19.5 -5.5t-20 -5.5t-10.5 -2.5q-25 -8 -49 -19.5t-42 -30t-28.5 -45.5t-7.5 -67q2 -30 16 -50.5t33 -33t40 -18t36 -6.5q25 -2 53 2.5t55 19t51 41t41 70.5q6 16 19 19.5t29 -2.5zM284 874q10 -13 6.5 -27t-16.5 -24q-11 -8 -23 -8q-9 0 -16.5 2.5t-13.5 10.5l-41 56
l-41 -56q-6 -8 -13.5 -10.5t-16.5 -2.5q-12 0 -23 8q-14 10 -17 24t6 27l75 102q11 15 30 15t29 -15z" />
    <glyph glyph-name="Edieresis" unicode="&#xcb;" horiz-adv-x="407" 
d="M455 228q15 -6 22 -18t2 -27q-44 -113 -135 -157q-34 -17 -66 -22t-58 -5h-17q-34 2 -67 13.5t-59 31.5q-68 51 -74 137q-3 61 18 111q17 39 47 68q-26 14 -47 36q-17 19 -28 43.5t-13 51.5q-2 16 -0.5 53.5t15.5 79.5q17 51 52 83t85 43q68 15 127 -10q44 -20 79 -62
q11 -13 7.5 -27t-15.5 -25q-13 -11 -27.5 -11t-24.5 13q-10 11 -21.5 21.5t-27 17.5t-35.5 9t-46 -3q-37 -8 -56 -33t-26.5 -53.5t-7.5 -54t1 -35.5q2 -25 19 -47.5t55 -26.5q13 -1 30 0.5t33.5 4.5t30 6.5t21.5 5.5q16 5 27.5 -4t16.5 -25t-1 -29t-21 -18q-2 0 -11 -2.5
t-19.5 -5.5t-20 -5.5t-10.5 -2.5q-25 -8 -49 -19.5t-42 -30t-28.5 -45.5t-7.5 -67q2 -30 16 -50.5t33 -33t40 -18t36 -6.5q25 -2 53 2.5t55 19t51 41t41 70.5q6 16 19 19.5t29 -2.5zM145 852q-2 -21 -17.5 -35.5t-37.5 -13.5q-21 2 -35.5 17.5t-12.5 37.5q1 21 17 35.5
t37 12.5q22 -1 36 -17t13 -37zM312 852q-1 -21 -17 -35.5t-37 -13.5q-21 2 -35.5 17.5t-12.5 37.5q1 21 17 35.5t37 12.5q21 -1 35.5 -17t12.5 -37z" />
    <glyph glyph-name="Igrave" unicode="&#xcc;" horiz-adv-x="420" 
d="M181 -1q-57 0 -95 19q-38 17 -62 54q-20 29 -25.5 59.5t-7.5 48.5q0 2 -0.5 3.5t-0.5 3.5q-2 16 8 25.5t26 11.5q17 2 29.5 -5t14.5 -23q1 -3 1 -8q2 -15 5.5 -35.5t14.5 -37.5q27 -38 96 -37q29 0 47.5 14.5t29 41.5t14.5 65.5t5 86.5v10v55.5v78t-0.5 87t-0.5 83.5
q-41 -32 -88 -32q-34 -1 -60.5 9.5t-47.5 26.5q1 -32 0.5 -53.5t-0.5 -23.5q0 -17 -10.5 -25t-26.5 -8q-17 0 -29.5 8.5t-12.5 25.5l0.5 18t0.5 45t-0.5 58.5t-1.5 59.5q-1 13 6.5 23.5t19.5 14.5q13 5 25 1.5t20 -14.5l9 -12q11 -16 22 -30t24 -24.5t28 -16t33 -5.5
q26 1 45.5 20t42.5 50q4 4 8 10q8 11 20 14.5t24 -0.5t19 -14t8 -23q0 -11 0.5 -40.5t0.5 -68t0.5 -83t0.5 -86v-76.5v-54v-10q-1 -33 -4 -79t-17 -88q-16 -50 -51 -82q-40 -35 -102 -37h-5zM122 971q9 0 16.5 -2.5t13.5 -10.5l75 -102q10 -13 5.5 -27.5t-17.5 -24.5
q-14 -10 -28 -9t-24 15l-75 102q-9 13 -6 27t17 24q11 8 23 8z" />
    <glyph glyph-name="Iacute" unicode="&#xcd;" horiz-adv-x="420" 
d="M181 -1q-57 0 -95 19q-38 17 -62 54q-20 29 -25.5 59.5t-7.5 48.5q0 2 -0.5 3.5t-0.5 3.5q-2 16 8 25.5t26 11.5q17 2 29.5 -5t14.5 -23q1 -3 1 -8q2 -15 5.5 -35.5t14.5 -37.5q27 -38 96 -37q29 0 47.5 14.5t29 41.5t14.5 65.5t5 86.5v10v55.5v78t-0.5 87t-0.5 83.5
q-41 -32 -88 -32q-34 -1 -60.5 9.5t-47.5 26.5q1 -32 0.5 -53.5t-0.5 -23.5q0 -17 -10.5 -25t-26.5 -8q-17 0 -29.5 8.5t-12.5 25.5l0.5 18t0.5 45t-0.5 58.5t-1.5 59.5q-1 13 6.5 23.5t19.5 14.5q13 5 25 1.5t20 -14.5l9 -12q11 -16 22 -30t24 -24.5t28 -16t33 -5.5
q26 1 45.5 20t42.5 50q4 4 8 10q8 11 20 14.5t24 -0.5t19 -14t8 -23q0 -11 0.5 -40.5t0.5 -68t0.5 -83t0.5 -86v-76.5v-54v-10q-1 -33 -4 -79t-17 -88q-16 -50 -51 -82q-40 -35 -102 -37h-5zM177 791q-12 0 -23 8q-14 10 -17 24t6 27l75 102q10 14 24 15t28 -9
q13 -10 17.5 -24.5t-5.5 -27.5l-75 -102q-6 -8 -13.5 -10.5t-16.5 -2.5z" />
    <glyph glyph-name="Icircumflex" unicode="&#xce;" horiz-adv-x="420" 
d="M181 -1q-57 0 -95 19q-38 17 -62 54q-20 29 -25.5 59.5t-7.5 48.5q0 2 -0.5 3.5t-0.5 3.5q-2 16 8 25.5t26 11.5q17 2 29.5 -5t14.5 -23q1 -3 1 -8q2 -15 5.5 -35.5t14.5 -37.5q27 -38 96 -37q29 0 47.5 14.5t29 41.5t14.5 65.5t5 86.5v10v55.5v78t-0.5 87t-0.5 83.5
q-41 -32 -88 -32q-34 -1 -60.5 9.5t-47.5 26.5q1 -32 0.5 -53.5t-0.5 -23.5q0 -17 -10.5 -25t-26.5 -8q-17 0 -29.5 8.5t-12.5 25.5l0.5 18t0.5 45t-0.5 58.5t-1.5 59.5q-1 13 6.5 23.5t19.5 14.5q13 5 25 1.5t20 -14.5l9 -12q11 -16 22 -30t24 -24.5t28 -16t33 -5.5
q26 1 45.5 20t42.5 50q4 4 8 10q8 11 20 14.5t24 -0.5t19 -14t8 -23q0 -11 0.5 -40.5t0.5 -68t0.5 -83t0.5 -86v-76.5v-54v-10q-1 -33 -4 -79t-17 -88q-16 -50 -51 -82q-40 -35 -102 -37h-5zM293 874q10 -13 6.5 -27t-16.5 -24q-11 -8 -23 -8q-9 0 -16.5 2.5t-13.5 10.5
l-41 56l-41 -56q-6 -8 -13.5 -10.5t-16.5 -2.5q-12 0 -23 8q-14 10 -17 24t6 27l75 102q11 15 30 15t29 -15z" />
    <glyph glyph-name="Idieresis" unicode="&#xcf;" horiz-adv-x="420" 
d="M181 -1q-57 0 -95 19q-38 17 -62 54q-20 29 -25.5 59.5t-7.5 48.5q0 2 -0.5 3.5t-0.5 3.5q-2 16 8 25.5t26 11.5q17 2 29.5 -5t14.5 -23q1 -3 1 -8q2 -15 5.5 -35.5t14.5 -37.5q27 -38 96 -37q29 0 47.5 14.5t29 41.5t14.5 65.5t5 86.5v10v55.5v78t-0.5 87t-0.5 83.5
q-41 -32 -88 -32q-34 -1 -60.5 9.5t-47.5 26.5q1 -32 0.5 -53.5t-0.5 -23.5q0 -17 -10.5 -25t-26.5 -8q-17 0 -29.5 8.5t-12.5 25.5l0.5 18t0.5 45t-0.5 58.5t-1.5 59.5q-1 13 6.5 23.5t19.5 14.5q13 5 25 1.5t20 -14.5l9 -12q11 -16 22 -30t24 -24.5t28 -16t33 -5.5
q26 1 45.5 20t42.5 50q4 4 8 10q8 11 20 14.5t24 -0.5t19 -14t8 -23q0 -11 0.5 -40.5t0.5 -68t0.5 -83t0.5 -86v-76.5v-54v-10q-1 -33 -4 -79t-17 -88q-16 -50 -51 -82q-40 -35 -102 -37h-5zM153 852q-2 -21 -17.5 -35.5t-37.5 -13.5q-21 2 -35.5 17.5t-12.5 37.5
q1 21 17 35.5t37 12.5q22 -1 36 -17t13 -37zM320 852q-1 -21 -17 -35.5t-37 -13.5q-21 2 -35.5 17.5t-12.5 37.5q1 21 17 35.5t37 12.5q21 -1 35.5 -17t12.5 -37z" />
    <glyph glyph-name="Eth" unicode="&#xd0;" horiz-adv-x="641" 
d="M106 -51q-27 0 -48 9q-24 9 -42 24t-31.5 34t-21 39.5t-10.5 40.5q-4 35 3.5 65t25.5 50q11 11 30.5 22.5t51.5 11.5q33 0 63.5 -17.5t61.5 -42.5q1 8 1.5 16t0.5 17l2 44t1 43h-63q-16 0 -27.5 11t-11.5 28t11.5 28t27.5 11h64v13q-1 27 -3.5 61.5t-5.5 69.5t-5.5 66
t-4.5 52q-35 -8 -57.5 -23.5t-51.5 -38.5q-12 -11 -25 -6t-24 18t-12.5 25t11.5 23q25 21 47.5 37.5t49.5 27.5t62 17t86 7q53 1 98.5 -15t81.5 -42t61.5 -59.5t39.5 -67.5q27 -67 38 -133.5t8 -142.5q-2 -42 -7.5 -76t-15.5 -63q-13 -43 -38 -72q-29 -38 -72 -50
q-27 -8 -55 -10t-56 3q-25 4 -49 13t-47 23q-12 -31 -34.5 -51t-54.5 -31q-26 -9 -54 -9zM273 305l-3 -91l-6 -89l10 -8q80 -55 159 -31q38 12 59 72q15 47 18 117q3 68 -6.5 126t-33.5 118q-10 25 -29.5 50t-46.5 44t-60 30.5t-70 10.5q-7 0 -10 -1q2 -20 5 -52t6 -67.5
t5 -71.5t3 -64v-15h32q17 0 28.5 -11t11.5 -28t-11.5 -28t-28.5 -11h-32zM64 167q-11 0 -16 -3t-7 -5q-7 -8 -9.5 -22t-0.5 -31q3 -22 17 -44t37 -31q8 -3 22 -3t29 5q17 5 30.5 19t15.5 37l-15 13q-14 11 -28.5 22.5t-28 21t-25.5 15.5t-21 6z" />
    <glyph glyph-name="Ntilde" unicode="&#xd1;" horiz-adv-x="717" 
d="M145 0q-66 2 -108 35q-38 30 -55 79q-15 41 -17 83.5t-2 70.5v15q0 16 11.5 24t28.5 8q16 0 27.5 -8t11.5 -24v-16q-1 -26 0.5 -60.5t13.5 -65.5q22 -62 90 -62q11 0 23.5 2t24 9t22.5 21t19 38q6 18 10 37t6 37t3 34t1 28q1 62 -0.5 160.5t-3.5 213.5l-1 31q0 14 8.5 25
t22.5 14t26.5 -3t17.5 -19q7 -16 24 -53.5t39.5 -87t48 -107.5t51.5 -114q14 -30 26.5 -59t25.5 -57q1 58 3 121.5t5 120t6.5 100t8.5 62.5q11 43 38 69q11 11 22 17.5t15 8.5q11 3 26 0t23 -17q7 -15 3.5 -30.5t-19.5 -23.5q-6 -4 -16 -12t-16 -31q-3 -14 -6.5 -49t-6 -84
t-4.5 -106.5t-3.5 -115.5t-2 -112.5t-0.5 -95.5q0 -14 -8.5 -25t-22.5 -14q-14 -2 -26.5 4t-17.5 19q-5 12 -17.5 39t-29 64t-37 82t-41.5 93q-22 48 -43 95.5t-41 90.5q2 -69 2.5 -120.5t-1.5 -95.5q0 -13 -1 -31.5t-3 -40t-7 -44.5t-13 -45q-19 -54 -55 -85
q-45 -37 -106 -37h-3zM514 784q-29 2 -50 15.5t-36 25.5q-7 6 -14 11.5t-12 6.5q-14 2 -26 -6.5t-26 -23.5l-5 -5q-11 -11 -24 -10t-24 12t-12.5 24t8.5 24l5 5q8 8 17.5 18t23.5 18q35 21 74 15q19 -3 33.5 -13t27.5 -20q12 -10 22.5 -17t23.5 -8q12 -2 23 9.5t24 27.5
q11 14 23.5 14t24.5 -10q11 -9 15 -21.5t-5 -24.5q-8 -11 -17 -23t-20.5 -22t-27 -16t-37.5 -6h-9z" />
    <glyph glyph-name="Ograve" unicode="&#xd2;" horiz-adv-x="499" 
d="M222 -4q-37 0 -67 13q-44 17 -76 56q-37 45 -57 118q-22 78 -22 193q0 113 20 193q9 37 23 66t31 52q56 70 148 70q28 0 58 -14q31 -14 61 -44q18 -18 37.5 -47t35 -72t25 -100.5t8.5 -133.5q-2 -109 -24 -184q-11 -34 -25 -61.5t-34 -47.5q-33 -34 -77 -48
q-20 -6 -37 -7.5t-28 -1.5zM222 678q-53 0 -86 -40q-24 -30 -40 -88q-17 -71 -17 -174q0 -58 5.5 -101t14.5 -74.5t19.5 -52t21.5 -33.5q33 -41 82 -41q19 0 41.5 5.5t43.5 27.5q59 64 61 240q1 69 -7.5 119.5t-21.5 86t-27.5 57.5t-26.5 34q-19 19 -35.5 26.5t-27.5 7.5z
M231 815q-9 0 -16.5 2.5t-13.5 10.5l-75 102q-10 13 -6 27.5t18 24.5q13 10 27.5 9t23.5 -15l75 -102q10 -13 6.5 -27t-16.5 -24q-11 -8 -23 -8z" />
    <glyph glyph-name="Oacute" unicode="&#xd3;" horiz-adv-x="499" 
d="M222 -4q-37 0 -67 13q-44 17 -76 56q-37 45 -57 118q-22 78 -22 193q0 113 20 193q9 37 23 66t31 52q56 70 148 70q28 0 58 -14q31 -14 61 -44q18 -18 37.5 -47t35 -72t25 -100.5t8.5 -133.5q-2 -109 -24 -184q-11 -34 -25 -61.5t-34 -47.5q-33 -34 -77 -48
q-20 -6 -37 -7.5t-28 -1.5zM222 678q-53 0 -86 -40q-24 -30 -40 -88q-17 -71 -17 -174q0 -58 5.5 -101t14.5 -74.5t19.5 -52t21.5 -33.5q33 -41 82 -41q19 0 41.5 5.5t43.5 27.5q59 64 61 240q1 69 -7.5 119.5t-21.5 86t-27.5 57.5t-26.5 34q-19 19 -35.5 26.5t-27.5 7.5z
M213 815q-12 0 -23 8q-14 10 -17 24t6 27l75 102q10 14 24 15t28 -9q13 -10 17.5 -24.5t-5.5 -27.5l-75 -102q-6 -8 -13.5 -10.5t-16.5 -2.5z" />
    <glyph glyph-name="Ocircumflex" unicode="&#xd4;" horiz-adv-x="499" 
d="M222 -4q-37 0 -67 13q-44 17 -76 56q-37 45 -57 118q-22 78 -22 193q0 113 20 193q9 37 23 66t31 52q56 70 148 70q28 0 58 -14q31 -14 61 -44q18 -18 37.5 -47t35 -72t25 -100.5t8.5 -133.5q-2 -109 -24 -184q-11 -34 -25 -61.5t-34 -47.5q-33 -34 -77 -48
q-20 -6 -37 -7.5t-28 -1.5zM222 678q-53 0 -86 -40q-24 -30 -40 -88q-17 -71 -17 -174q0 -58 5.5 -101t14.5 -74.5t19.5 -52t21.5 -33.5q33 -41 82 -41q19 0 41.5 5.5t43.5 27.5q59 64 61 240q1 69 -7.5 119.5t-21.5 86t-27.5 57.5t-26.5 34q-19 19 -35.5 26.5t-27.5 7.5z
M322 874q10 -13 6.5 -27t-16.5 -24q-11 -8 -23 -8q-9 0 -16.5 2.5t-13.5 10.5l-41 56l-41 -56q-6 -8 -13.5 -10.5t-16.5 -2.5q-12 0 -23 8q-14 10 -17 24t6 27l75 102q11 15 30 15t29 -15z" />
    <glyph glyph-name="Otilde" unicode="&#xd5;" horiz-adv-x="499" 
d="M222 -4q-37 0 -67 13q-44 17 -76 56q-37 45 -57 118q-22 78 -22 193q0 113 20 193q9 37 23 66t31 52q56 70 148 70q28 0 58 -14q31 -14 61 -44q18 -18 37.5 -47t35 -72t25 -100.5t8.5 -133.5q-2 -109 -24 -184q-11 -34 -25 -61.5t-34 -47.5q-33 -34 -77 -48
q-20 -6 -37 -7.5t-28 -1.5zM222 678q-53 0 -86 -40q-24 -30 -40 -88q-17 -71 -17 -174q0 -58 5.5 -101t14.5 -74.5t19.5 -52t21.5 -33.5q33 -41 82 -41q19 0 41.5 5.5t43.5 27.5q59 64 61 240q1 69 -7.5 119.5t-21.5 86t-27.5 57.5t-26.5 34q-19 19 -35.5 26.5t-27.5 7.5z
M273 809q-29 2 -50 15.5t-36 25.5q-7 6 -14 11.5t-12 6.5q-14 2 -26 -6.5t-26 -23.5l-5 -5q-11 -11 -24 -10t-24 12t-12.5 24t8.5 24l5 5q8 8 17.5 18t23.5 18q35 21 74 15q19 -3 33.5 -13t27.5 -20q12 -10 22.5 -17t23.5 -8q12 -2 23 9.5t24 27.5q11 14 23.5 14t24.5 -10
q11 -9 15 -21.5t-5 -24.5q-8 -11 -17 -23t-20.5 -22t-27 -16t-37.5 -6h-9z" />
    <glyph glyph-name="Odieresis" unicode="&#xd6;" horiz-adv-x="499" 
d="M222 -4q-37 0 -67 13q-44 17 -76 56q-37 45 -57 118q-22 78 -22 193q0 113 20 193q9 37 23 66t31 52q56 70 148 70q28 0 58 -14q31 -14 61 -44q18 -18 37.5 -47t35 -72t25 -100.5t8.5 -133.5q-2 -109 -24 -184q-11 -34 -25 -61.5t-34 -47.5q-33 -34 -77 -48
q-20 -6 -37 -7.5t-28 -1.5zM222 678q-53 0 -86 -40q-24 -30 -40 -88q-17 -71 -17 -174q0 -58 5.5 -101t14.5 -74.5t19.5 -52t21.5 -33.5q33 -41 82 -41q19 0 41.5 5.5t43.5 27.5q59 64 61 240q1 69 -7.5 119.5t-21.5 86t-27.5 57.5t-26.5 34q-19 19 -35.5 26.5t-27.5 7.5z
M182 852q-2 -21 -17.5 -35.5t-37.5 -13.5q-21 2 -35.5 17.5t-12.5 37.5q1 21 17 35.5t37 12.5q22 -1 36 -17t13 -37zM349 852q-1 -21 -17 -35.5t-37 -13.5q-21 2 -35.5 17.5t-12.5 37.5q1 21 17 35.5t37 12.5q21 -1 35.5 -17t12.5 -37z" />
    <glyph glyph-name="multiply" unicode="&#xd7;" horiz-adv-x="426" 
d="M344 177q11 -11 11 -27.5t-11 -28.5q-12 -11 -28 -11t-28 11l-75 76l-75 -76q-11 -11 -27.5 -11t-28.5 11q-11 12 -11 28.5t11 27.5l76 75l-76 75q-11 12 -11 28t11 28q12 11 28.5 11t27.5 -11l75 -75l75 75q12 11 28 11t28 -11q11 -12 11 -28t-11 -28l-75 -75z" />
    <glyph glyph-name="Oslash" unicode="&#xd8;" horiz-adv-x="499" 
d="M222 -4q-37 0 -67 13q-37 13 -66 44l-27 -48q-10 -17 -32 -17q-9 0 -19 5q-14 8 -19.5 22.5t2.5 28.5l47 83q-5 13 -10 27t-9 29q-22 78 -22 193q0 113 20 193q9 37 23 66t31 52q56 70 148 70q28 0 58 -14q31 -14 61 -44l17 -19l34 60q8 14 23 17t29 -5t19 -22.5
t-3 -28.5l-56 -98q19 -45 31.5 -107.5t11.5 -149.5q-2 -109 -24 -184q-11 -34 -25 -61.5t-34 -47.5q-33 -34 -77 -48q-20 -6 -37 -7.5t-28 -1.5zM222 678q-53 0 -86 -40q-24 -30 -40 -88q-17 -71 -17 -174q0 -50 4 -88.5t11 -68.5l221 386q-17 25 -30 39q-19 19 -35.5 26.5
t-27.5 7.5zM140 115q33 -41 82 -41q19 0 41.5 5.5t43.5 27.5q59 64 61 240q0 98 -17 164l-220 -385z" />
    <glyph glyph-name="Ugrave" unicode="&#xd9;" horiz-adv-x="647" 
d="M694 235q16 -4 23.5 -15t2.5 -27q-2 -7 -5 -20.5t-8.5 -30t-14 -34.5t-20.5 -34q-55 -72 -132 -72h-4q-55 0 -94 42q-18 19 -32 49q-14 -25 -35 -46q-30 -27 -66 -37q-30 -9 -66 -9h-18q-65 5 -105 49q-33 36 -50 103q-14 56 -17 124.5t-4 137.5v45q-2 70 -4 114.5
t-8 72.5q-6 26 -13 32t-13 8q-14 4 -22 2t-12 -5q-11 -7 -18 -21.5t-12.5 -32t-8.5 -34.5t-5 -29q-2 -17 -15.5 -23t-29.5 -3q-16 2 -25.5 11.5t-7.5 26.5q4 20 8 42t12 45q21 60 58 83q41 28 97 14q36 -9 57 -36q9 -12 15.5 -27.5t11.5 -36.5q7 -32 9.5 -79.5t3.5 -122.5
q0 -11 0.5 -22.5t0.5 -22.5q1 -66 3.5 -130.5t14.5 -113.5q7 -29 17 -47t21 -27.5t22.5 -13t22.5 -4.5q62 -4 92 24q33 31 43 101.5t12 171.5q0 64 0.5 126t1 111t0.5 79v31q0 17 12 24t29 7t27.5 -7.5t10.5 -23.5v-31.5t-0.5 -79t-1 -110.5t-1.5 -126v-21t-0.5 -23
t-0.5 -18.5v-8.5v-26q0 -12 1 -27.5t3 -32.5q11 -88 42 -122q15 -17 39 -18h1q29 0 49.5 20t33 44t19 45t6.5 23q4 17 17.5 22t29.5 1zM175 950q9 0 16.5 -2.5t13.5 -10.5l75 -102q10 -13 5.5 -27.5t-17.5 -24.5q-14 -10 -28 -9t-24 15l-75 102q-9 13 -6 27t17 24q11 8 23 8
z" />
    <glyph glyph-name="Uacute" unicode="&#xda;" horiz-adv-x="647" 
d="M694 235q16 -4 23.5 -15t2.5 -27q-2 -7 -5 -20.5t-8.5 -30t-14 -34.5t-20.5 -34q-55 -72 -132 -72h-4q-55 0 -94 42q-18 19 -32 49q-14 -25 -35 -46q-30 -27 -66 -37q-30 -9 -66 -9h-18q-65 5 -105 49q-33 36 -50 103q-14 56 -17 124.5t-4 137.5v45q-2 70 -4 114.5
t-8 72.5q-6 26 -13 32t-13 8q-14 4 -22 2t-12 -5q-11 -7 -18 -21.5t-12.5 -32t-8.5 -34.5t-5 -29q-2 -17 -15.5 -23t-29.5 -3q-16 2 -25.5 11.5t-7.5 26.5q4 20 8 42t12 45q21 60 58 83q41 28 97 14q36 -9 57 -36q9 -12 15.5 -27.5t11.5 -36.5q7 -32 9.5 -79.5t3.5 -122.5
q0 -11 0.5 -22.5t0.5 -22.5q1 -66 3.5 -130.5t14.5 -113.5q7 -29 17 -47t21 -27.5t22.5 -13t22.5 -4.5q62 -4 92 24q33 31 43 101.5t12 171.5q0 64 0.5 126t1 111t0.5 79v31q0 17 12 24t29 7t27.5 -7.5t10.5 -23.5v-31.5t-0.5 -79t-1 -110.5t-1.5 -126v-21t-0.5 -23
t-0.5 -18.5v-8.5v-26q0 -12 1 -27.5t3 -32.5q11 -88 42 -122q15 -17 39 -18h1q29 0 49.5 20t33 44t19 45t6.5 23q4 17 17.5 22t29.5 1zM236 770q-12 0 -23 8q-14 10 -17 24t6 27l75 102q10 14 24 15t28 -9q13 -10 17.5 -24.5t-5.5 -27.5l-75 -102q-6 -8 -13.5 -10.5
t-16.5 -2.5z" />
    <glyph glyph-name="Ucircumflex" unicode="&#xdb;" horiz-adv-x="647" 
d="M694 235q16 -4 23.5 -15t2.5 -27q-2 -7 -5 -20.5t-8.5 -30t-14 -34.5t-20.5 -34q-55 -72 -132 -72h-4q-55 0 -94 42q-18 19 -32 49q-14 -25 -35 -46q-30 -27 -66 -37q-30 -9 -66 -9h-18q-65 5 -105 49q-33 36 -50 103q-14 56 -17 124.5t-4 137.5v45q-2 70 -4 114.5
t-8 72.5q-6 26 -13 32t-13 8q-14 4 -22 2t-12 -5q-11 -7 -18 -21.5t-12.5 -32t-8.5 -34.5t-5 -29q-2 -17 -15.5 -23t-29.5 -3q-16 2 -25.5 11.5t-7.5 26.5q4 20 8 42t12 45q21 60 58 83q41 28 97 14q36 -9 57 -36q9 -12 15.5 -27.5t11.5 -36.5q7 -32 9.5 -79.5t3.5 -122.5
q0 -11 0.5 -22.5t0.5 -22.5q1 -66 3.5 -130.5t14.5 -113.5q7 -29 17 -47t21 -27.5t22.5 -13t22.5 -4.5q62 -4 92 24q33 31 43 101.5t12 171.5q0 64 0.5 126t1 111t0.5 79v31q0 17 12 24t29 7t27.5 -7.5t10.5 -23.5v-31.5t-0.5 -79t-1 -110.5t-1.5 -126v-21t-0.5 -23
t-0.5 -18.5v-8.5v-26q0 -12 1 -27.5t3 -32.5q11 -88 42 -122q15 -17 39 -18h1q29 0 49.5 20t33 44t19 45t6.5 23q4 17 17.5 22t29.5 1zM337 874q10 -13 6.5 -27t-16.5 -24q-11 -8 -23 -8q-9 0 -16.5 2.5t-13.5 10.5l-41 56l-41 -56q-6 -8 -13.5 -10.5t-16.5 -2.5
q-12 0 -23 8q-14 10 -17 24t6 27l75 102q11 15 30 15t29 -15z" />
    <glyph glyph-name="Udieresis" unicode="&#xdc;" horiz-adv-x="647" 
d="M694 235q16 -4 23.5 -15t2.5 -27q-2 -7 -5 -20.5t-8.5 -30t-14 -34.5t-20.5 -34q-55 -72 -132 -72h-4q-55 0 -94 42q-18 19 -32 49q-14 -25 -35 -46q-30 -27 -66 -37q-30 -9 -66 -9h-18q-65 5 -105 49q-33 36 -50 103q-14 56 -17 124.5t-4 137.5v45q-2 70 -4 114.5
t-8 72.5q-6 26 -13 32t-13 8q-14 4 -22 2t-12 -5q-11 -7 -18 -21.5t-12.5 -32t-8.5 -34.5t-5 -29q-2 -17 -15.5 -23t-29.5 -3q-16 2 -25.5 11.5t-7.5 26.5q4 20 8 42t12 45q21 60 58 83q41 28 97 14q36 -9 57 -36q9 -12 15.5 -27.5t11.5 -36.5q7 -32 9.5 -79.5t3.5 -122.5
q0 -11 0.5 -22.5t0.5 -22.5q1 -66 3.5 -130.5t14.5 -113.5q7 -29 17 -47t21 -27.5t22.5 -13t22.5 -4.5q62 -4 92 24q33 31 43 101.5t12 171.5q0 64 0.5 126t1 111t0.5 79v31q0 17 12 24t29 7t27.5 -7.5t10.5 -23.5v-31.5t-0.5 -79t-1 -110.5t-1.5 -126v-21t-0.5 -23
t-0.5 -18.5v-8.5v-26q0 -12 1 -27.5t3 -32.5q11 -88 42 -122q15 -17 39 -18h1q29 0 49.5 20t33 44t19 45t6.5 23q4 17 17.5 22t29.5 1zM198 852q-2 -21 -17.5 -35.5t-37.5 -13.5q-21 2 -35.5 17.5t-12.5 37.5q1 21 17 35.5t37 12.5q22 -1 36 -17t13 -37zM365 852
q-1 -21 -17 -35.5t-37 -13.5q-21 2 -35.5 17.5t-12.5 37.5q1 21 17 35.5t37 12.5q21 -1 35.5 -17t12.5 -37z" />
    <glyph glyph-name="Yacute" unicode="&#xdd;" horiz-adv-x="603" 
d="M412 -317q7 32 7 69t-1 69v5q-1 8 -1 20t-1 29l-14 -18l-14 -18q-29 -38 -46 -66.5t-26 -48t-11.5 -32t-2.5 -18.5q1 -12 6.5 -20t11.5 -13q11 -9 24.5 -14t26.5 -3q3 0 8.5 1.5t11.5 7.5t11.5 17.5t9.5 32.5zM655 227q14 -8 19.5 -22t-2.5 -28q-18 -33 -104 -127
q-17 -20 -36 -41t-38 -43q1 -50 1.5 -86t1.5 -52v-5q1 -33 1 -75.5t-8 -81.5q-7 -34 -19.5 -56.5t-27.5 -36t-31 -20t-31 -7.5q-5 -1 -16 -1q-26 0 -51 9.5t-45 26.5q-42 36 -45 89q-2 38 23 90.5t79 124.5q20 27 43 55t46 55q-1 27 -1.5 56t-1.5 60q-25 -44 -55 -68
q-53 -45 -121 -45q-132 0 -173 123q-18 52 -23 125t-7 170q-2 87 -4 145t-9 87q-3 14 -7 18t-15 6q-9 1 -17.5 -4.5t-15.5 -16t-13.5 -24.5t-11.5 -29q-2 -5 -3 -8.5t-3 -6.5q-7 -15 -20.5 -18t-28.5 4t-22.5 19t-0.5 27q1 2 1.5 5t2.5 6q5 14 14.5 35t23.5 40
q27 36 55.5 44t49.5 5q13 -2 27.5 -6.5t28.5 -16.5q21 -20 32 -61q3 -16 5.5 -37t4 -50.5t3 -69t2.5 -92.5q2 -92 6.5 -159.5t18.5 -111.5q13 -38 35 -54t64 -16q78 0 123 103q20 45 31.5 106.5t13.5 128.5q1 57 1.5 110t0.5 93.5v65v24.5q0 17 11 26.5t28 9.5t28 -9.5
t12 -26.5v-14.5v-40t-0.5 -60t-0.5 -74.5q0 -1 0.5 -41.5t2 -104t2.5 -140.5t3 -150q5 5 9 10t9 10q15 17 30 35t27.5 33.5t22 27.5t13.5 18q12 16 25 17.5t27 -6.5zM239 815q-12 0 -23 8q-14 10 -17 24t6 27l75 102q10 14 24 15t28 -9q13 -10 17.5 -24.5t-5.5 -27.5
l-75 -102q-6 -8 -13.5 -10.5t-16.5 -2.5z" />
    <glyph glyph-name="Thorn" unicode="&#xde;" horiz-adv-x="635" 
d="M563 538q46 -45 43 -125q-3 -62 -42 -107q-31 -37 -87 -61q-40 -17 -81 -24.5t-70 -9.5q-1 -20 -3 -43t-8 -46q-8 -30 -20 -50t-26 -33.5t-29 -20.5t-28 -10q-14 -4 -26 -5t-23 -1q-39 0 -66 14.5t-44 31.5q-23 24 -35 51t-18 44q-2 6 -2 7q-6 16 2 28t24 18q15 5 28.5 1
t18.5 -19q1 -2 1.5 -4t1.5 -4q5 -14 13.5 -33.5t22.5 -34.5q10 -10 28.5 -18t54.5 0q21 5 32 24.5t16 44t6 51t1 44.5v1q0 11 -0.5 37.5t-1 61.5t-1 76.5t-0.5 82.5q-39 -9 -76.5 -22t-66.5 -25.5t-47 -21.5l-18 -9q-14 -8 -27.5 -1.5t-21.5 20.5t-5 28t17 22q2 1 23 12
t55 25t77 28.5t89 22.5q-1 53 -1.5 87.5t-0.5 36.5q0 16 11 26t28 10h1q16 0 27 -9.5t12 -25.5q0 -5 0.5 -36.5t0.5 -79.5q29 1 61 0.5t63 -5.5q77 -12 117 -52zM527 417q1 45 -20 66q-12 12 -32 19.5t-44.5 10.5t-52 3.5t-55.5 -0.5q2 -63 2.5 -124t0.5 -102q24 2 56.5 7.5
t63.5 19.5q78 34 81 100z" />
    <glyph glyph-name="germandbls" unicode="&#xdf;" horiz-adv-x="525" 
d="M5 -155q-16 3 -25 16.5t-6 29.5q9 46 14.5 93.5t8.5 100t4 111.5t1 127v52q0 62 0.5 113.5t7 92.5t20 72.5t38.5 53.5q26 23 66.5 34t82.5 7q46 -4 85 -31q22 -16 36.5 -38.5t22.5 -49.5q13 -49 -3 -98q-20 -63 -77 -88q-13 -6 -29 -9q-11 -4 -25 -8.5t-19 -11.5
q-2 -3 -2.5 -9.5t2.5 -12.5q1 -3 4.5 -7t12.5 -6l43 -8q17 -3 35.5 -6t35.5 -9q31 -10 50 -13q21 -3 61.5 -0.5t94.5 28.5q14 8 29.5 2.5t23.5 -19.5t3 -29.5t-19 -23.5q-14 -7 -31.5 -13.5t-36.5 -11t-38 -8t-35 -4.5l6 -19q11 -45 4.5 -89t-29.5 -79q-20 -29 -48.5 -47.5
t-62.5 -23.5q-50 -8 -89.5 0t-88.5 34q-15 8 -20 23t3 30q8 14 23.5 19t29.5 -3q21 -11 38 -17.5t31.5 -9t29 -2t31.5 3.5q23 3 36.5 14.5t20.5 22.5q14 21 18 48.5t-3 55.5q-10 37 -37 49t-78 20q-22 3 -47 9q-26 5 -44.5 20t-28.5 37q-10 23 -8.5 48.5t13.5 45.5
q8 13 19 22.5t23.5 16t25 10t22.5 6.5q5 2 10.5 3t7.5 3q15 7 23.5 19t12 26t3 27t-2.5 22q-5 19 -15 30.5t-21 18t-22 9t-18 3.5q-24 2 -50 -4.5t-40 -17.5q-15 -13 -23 -38t-11.5 -59.5t-4 -78.5t-0.5 -96v-53q0 -70 -1 -130.5t-4 -114.5t-9 -104t-15 -98
q-2 -14 -13 -22.5t-25 -8.5h-8z" />
    <glyph glyph-name="agrave" unicode="&#xe0;" horiz-adv-x="510" 
d="M566 228q14 -8 16.5 -24.5t-5.5 -30.5q-17 -30 -38.5 -63.5t-53.5 -63.5q-27 -26 -52.5 -35.5t-48.5 -9.5q-16 0 -30 3.5t-25 8.5q-34 15 -53 48q-41 -59 -122 -59h-4q-60 0 -99 42q-57 62 -51 205q3 50 13 88t29 66q44 68 130 68h9t9 -1q76 -6 106 -63q18 -34 23 -93
q0 -11 0.5 -31.5t-0.5 -37.5q0 -21 1 -44t5 -44q3 -20 11 -42t25 -30q13 -5 30 -4.5t41 23.5q25 23 43 53.5t35 56.5q9 14 25.5 18.5t30.5 -4.5zM154 80q17 0 31 4t25 20.5t18.5 49t11.5 88.5q1 17 1 33.5v25.5q-2 24 -4.5 41t-9.5 28q-6 10 -17.5 16t-37.5 7
q-9 0 -23.5 -2.5t-29 -16t-26 -44t-14.5 -85.5q-2 -54 5.5 -91.5t24.5 -56.5q14 -15 42 -17h3zM186 535q-9 0 -16.5 2.5t-13.5 10.5l-75 102q-10 13 -6 27.5t18 24.5q13 10 27.5 9t23.5 -15l75 -102q10 -13 6.5 -27t-16.5 -24q-11 -8 -23 -8z" />
    <glyph glyph-name="aacute" unicode="&#xe1;" horiz-adv-x="510" 
d="M566 228q14 -8 16.5 -24.5t-5.5 -30.5q-17 -30 -38.5 -63.5t-53.5 -63.5q-27 -26 -52.5 -35.5t-48.5 -9.5q-16 0 -30 3.5t-25 8.5q-34 15 -53 48q-41 -59 -122 -59h-4q-60 0 -99 42q-57 62 -51 205q3 50 13 88t29 66q44 68 130 68h9t9 -1q76 -6 106 -63q18 -34 23 -93
q0 -11 0.5 -31.5t-0.5 -37.5q0 -21 1 -44t5 -44q3 -20 11 -42t25 -30q13 -5 30 -4.5t41 23.5q25 23 43 53.5t35 56.5q9 14 25.5 18.5t30.5 -4.5zM154 80q17 0 31 4t25 20.5t18.5 49t11.5 88.5q1 17 1 33.5v25.5q-2 24 -4.5 41t-9.5 28q-6 10 -17.5 16t-37.5 7
q-9 0 -23.5 -2.5t-29 -16t-26 -44t-14.5 -85.5q-2 -54 5.5 -91.5t24.5 -56.5q14 -15 42 -17h3zM168 535q-12 0 -23 8q-14 10 -17 24t6 27l75 102q10 14 24 15t28 -9q13 -10 17.5 -24.5t-5.5 -27.5l-75 -102q-6 -8 -13.5 -10.5t-16.5 -2.5z" />
    <glyph glyph-name="acircumflex" unicode="&#xe2;" horiz-adv-x="510" 
d="M566 228q14 -8 16.5 -24.5t-5.5 -30.5q-17 -30 -38.5 -63.5t-53.5 -63.5q-27 -26 -52.5 -35.5t-48.5 -9.5q-16 0 -30 3.5t-25 8.5q-34 15 -53 48q-41 -59 -122 -59h-4q-60 0 -99 42q-57 62 -51 205q3 50 13 88t29 66q44 68 130 68h9t9 -1q76 -6 106 -63q18 -34 23 -93
q0 -11 0.5 -31.5t-0.5 -37.5q0 -21 1 -44t5 -44q3 -20 11 -42t25 -30q13 -5 30 -4.5t41 23.5q25 23 43 53.5t35 56.5q9 14 25.5 18.5t30.5 -4.5zM154 80q17 0 31 4t25 20.5t18.5 49t11.5 88.5q1 17 1 33.5v25.5q-2 24 -4.5 41t-9.5 28q-6 10 -17.5 16t-37.5 7
q-9 0 -23.5 -2.5t-29 -16t-26 -44t-14.5 -85.5q-2 -54 5.5 -91.5t24.5 -56.5q14 -15 42 -17h3zM276 594q10 -13 6.5 -27t-16.5 -24q-11 -8 -23 -8q-9 0 -16.5 2.5t-13.5 10.5l-41 56l-41 -56q-6 -8 -13.5 -10.5t-16.5 -2.5q-12 0 -23 8q-14 10 -17 24t6 27l75 102
q11 15 30 15t29 -15z" />
    <glyph glyph-name="atilde" unicode="&#xe3;" horiz-adv-x="510" 
d="M566 228q14 -8 16.5 -24.5t-5.5 -30.5q-17 -30 -38.5 -63.5t-53.5 -63.5q-27 -26 -52.5 -35.5t-48.5 -9.5q-16 0 -30 3.5t-25 8.5q-34 15 -53 48q-41 -59 -122 -59h-4q-60 0 -99 42q-57 62 -51 205q3 50 13 88t29 66q44 68 130 68h9t9 -1q76 -6 106 -63q18 -34 23 -93
q0 -11 0.5 -31.5t-0.5 -37.5q0 -21 1 -44t5 -44q3 -20 11 -42t25 -30q13 -5 30 -4.5t41 23.5q25 23 43 53.5t35 56.5q9 14 25.5 18.5t30.5 -4.5zM154 80q17 0 31 4t25 20.5t18.5 49t11.5 88.5q1 17 1 33.5v25.5q-2 24 -4.5 41t-9.5 28q-6 10 -17.5 16t-37.5 7
q-9 0 -23.5 -2.5t-29 -16t-26 -44t-14.5 -85.5q-2 -54 5.5 -91.5t24.5 -56.5q14 -15 42 -17h3zM239 529q-29 2 -50 15.5t-36 25.5q-7 6 -14 11.5t-12 6.5q-14 2 -26 -6.5t-26 -23.5l-5 -5q-11 -11 -24 -10t-24 12t-12.5 24t8.5 24l5 5q8 8 17.5 18t23.5 18q35 21 74 15
q19 -3 33.5 -13t27.5 -20q12 -10 22.5 -17t23.5 -8q12 -2 23 9.5t24 27.5q11 14 23.5 14t24.5 -10q11 -9 15 -21.5t-5 -24.5q-8 -11 -17 -23t-20.5 -22t-27 -16t-37.5 -6h-9z" />
    <glyph glyph-name="adieresis" unicode="&#xe4;" horiz-adv-x="510" 
d="M566 228q14 -8 16.5 -24.5t-5.5 -30.5q-17 -30 -38.5 -63.5t-53.5 -63.5q-27 -26 -52.5 -35.5t-48.5 -9.5q-16 0 -30 3.5t-25 8.5q-34 15 -53 48q-41 -59 -122 -59h-4q-60 0 -99 42q-57 62 -51 205q3 50 13 88t29 66q44 68 130 68h9t9 -1q76 -6 106 -63q18 -34 23 -93
q0 -11 0.5 -31.5t-0.5 -37.5q0 -21 1 -44t5 -44q3 -20 11 -42t25 -30q13 -5 30 -4.5t41 23.5q25 23 43 53.5t35 56.5q9 14 25.5 18.5t30.5 -4.5zM154 80q17 0 31 4t25 20.5t18.5 49t11.5 88.5q1 17 1 33.5v25.5q-2 24 -4.5 41t-9.5 28q-6 10 -17.5 16t-37.5 7
q-9 0 -23.5 -2.5t-29 -16t-26 -44t-14.5 -85.5q-2 -54 5.5 -91.5t24.5 -56.5q14 -15 42 -17h3zM143 572q-2 -21 -17.5 -35.5t-37.5 -13.5q-21 2 -35.5 17.5t-12.5 37.5q1 21 17 35.5t37 12.5q22 -1 36 -17t13 -37zM310 572q-1 -21 -17 -35.5t-37 -13.5q-21 2 -35.5 17.5
t-12.5 37.5q1 21 17 35.5t37 12.5q21 -1 35.5 -17t12.5 -37z" />
    <glyph glyph-name="aring" unicode="&#xe5;" horiz-adv-x="510" 
d="M566 228q14 -8 16.5 -24.5t-5.5 -30.5q-17 -30 -38.5 -63.5t-53.5 -63.5q-27 -26 -52.5 -35.5t-48.5 -9.5q-16 0 -30 3.5t-25 8.5q-34 15 -53 48q-41 -59 -122 -59h-4q-60 0 -99 42q-57 62 -51 205q3 50 13 88t29 66q44 68 130 68h9t9 -1q76 -6 106 -63q18 -34 23 -93
q0 -11 0.5 -31.5t-0.5 -37.5q0 -21 1 -44t5 -44q3 -20 11 -42t25 -30q13 -5 30 -4.5t41 23.5q25 23 43 53.5t35 56.5q9 14 25.5 18.5t30.5 -4.5zM154 80q17 0 31 4t25 20.5t18.5 49t11.5 88.5q1 17 1 33.5v25.5q-2 24 -4.5 41t-9.5 28q-6 10 -17.5 16t-37.5 7
q-9 0 -23.5 -2.5t-29 -16t-26 -44t-14.5 -85.5q-2 -54 5.5 -91.5t24.5 -56.5q14 -15 42 -17h3zM178 517q-21 0 -39 8t-32 21.5t-22 31.5t-8 39t8 39.5t22 32t32 21.5t39 8t39.5 -8t32 -21.5t21.5 -32t8 -39.5t-8 -39t-21.5 -31.5t-32 -21.5t-39.5 -8zM178 653
q-15 0 -25.5 -10.5t-10.5 -25.5q0 -14 10.5 -24.5t25.5 -10.5t25.5 10.5t10.5 24.5q0 15 -10.5 25.5t-25.5 10.5z" />
    <glyph glyph-name="ae" unicode="&#xe6;" horiz-adv-x="580" 
d="M628 226q34 -13 22 -42q-10 -26 -20 -49t-26 -43q-31 -38 -69 -62q-56 -33 -124 -33q-11 0 -23 1t-23 3q-49 7 -85 39q-13 -12 -30 -20q-41 -22 -111 -22h-3q-45 0 -73 16.5t-42 34.5q-23 27 -32 63.5t-2 71.5q8 36 26 60q21 27 48 40q32 16 72 16t84 -14q2 17 5 32t8 28
q-12 18 -21.5 27.5t-18.5 14.5t-18 6t-20 1q-41 0 -78 -17q-15 -7 -28.5 -0.5t-20.5 21.5t-3 29t19 21q55 25 111 25q38 0 66 -12t53 -40q30 33 64 45q44 16 80 -3q40 -21 53 -65q15 -55 -23 -118q-32 -52 -105 -86q-13 -6 -24.5 -10.5t-20.5 -7.5q3 -14 7 -28t11 -25
q21 -39 65 -46q69 -12 122 23t80 110q6 15 19.5 17.5t28.5 -2.5zM362 393q-12 -4 -27.5 -18.5t-26.5 -40.5q-5 -12 -9 -31.5t-6 -42.5q23 10 47.5 25.5t37.5 36.5q21 33 14 56q-3 10 -13 16q-2 1 -7 1q-4 0 -10 -2zM137 76q44 1 64 8.5t34 20.5q-11 24 -15.5 49t-5.5 48
q-35 16 -66 19t-52 -7q-26 -14 -32 -45q-3 -15 0.5 -34.5t16.5 -35.5q19 -23 56 -23z" />
    <glyph glyph-name="ccedilla" unicode="&#xe7;" horiz-adv-x="376" 
d="M214 -267q-16 0 -33.5 3t-34.5 11q-26 13 -42 34.5t-19 50.5q-8 65 46 102q12 8 25 13t24 8v55q-40 7 -73 27q-40 23 -66 67q-25 41 -32.5 85.5t-8.5 77.5q-2 85 30 139q18 32 40 47t39 20q20 6 42 7.5t43 -3.5q51 -11 85 -51q11 -12 9 -24.5t-14 -23.5
q-13 -11 -28.5 -13t-26.5 10q-18 22 -43 25t-44 -2q-20 -6 -37 -36.5t-16 -93.5q0 -26 5.5 -60t23.5 -63q34 -56 108 -60q37 -3 64 10t46.5 32.5t31 41t17.5 37.5q6 15 20.5 19.5t30.5 -0.5q15 -6 21 -18.5t0 -27.5q-16 -42 -36.5 -70.5t-48.5 -51.5q-23 -20 -49.5 -32
t-54.5 -17v-83q0 -14 -8 -24.5t-21 -13.5l-8 -2q-39 -10 -49.5 -19.5t-8.5 -24.5q1 -16 16 -23q10 -5 23 -6t25.5 0.5t24 5t17.5 8.5q14 9 28 5.5t23 -17.5t8 -29.5t-15 -24.5q-31 -20 -78 -25q-5 -1 -10.5 -1.5t-10.5 -0.5z" />
    <glyph glyph-name="egrave" unicode="&#xe8;" horiz-adv-x="368" 
d="M198 4q-11 0 -23 1t-23 3q-81 14 -121 84q-11 19 -17 40t-9.5 41t-4 39t-0.5 35q2 34 7.5 67t15.5 56q15 38 41 65.5t58 38.5q44 16 81 -3q41 -22 52 -65q15 -55 -23 -118q-32 -52 -105 -86q-13 -6 -24.5 -10.5t-19.5 -7.5q2 -14 6 -28t11 -25q21 -38 65 -46
q69 -12 121 19t81 106q5 11 17.5 15.5t28.5 1.5q17 -3 22 -19t-1 -31q-27 -80 -88 -127.5t-148 -45.5zM160 402q-5 0 -11 -2q-12 -4 -27 -18.5t-26 -40.5t-16 -74q23 10 47.5 25.5t37.5 36.5q21 33 14 56q-3 10 -13 16q-2 1 -6 1zM170 535q-9 0 -16.5 2.5t-13.5 10.5
l-75 102q-10 13 -6 27.5t18 24.5q13 10 27.5 9t23.5 -15l75 -102q10 -13 6.5 -27t-16.5 -24q-11 -8 -23 -8z" />
    <glyph glyph-name="eacute" unicode="&#xe9;" horiz-adv-x="368" 
d="M198 4q-11 0 -23 1t-23 3q-81 14 -121 84q-11 19 -17 40t-9.5 41t-4 39t-0.5 35q2 34 7.5 67t15.5 56q15 38 41 65.5t58 38.5q44 16 81 -3q41 -22 52 -65q15 -55 -23 -118q-32 -52 -105 -86q-13 -6 -24.5 -10.5t-19.5 -7.5q2 -14 6 -28t11 -25q21 -38 65 -46
q69 -12 121 19t81 106q5 11 17.5 15.5t28.5 1.5q17 -3 22 -19t-1 -31q-27 -80 -88 -127.5t-148 -45.5zM160 402q-5 0 -11 -2q-12 -4 -27 -18.5t-26 -40.5t-16 -74q23 10 47.5 25.5t37.5 36.5q21 33 14 56q-3 10 -13 16q-2 1 -6 1zM148 535q-12 0 -23 8q-14 10 -17 24t6 27
l75 102q10 14 24 15t28 -9q13 -10 17.5 -24.5t-5.5 -27.5l-75 -102q-6 -8 -13.5 -10.5t-16.5 -2.5z" />
    <glyph glyph-name="ecircumflex" unicode="&#xea;" horiz-adv-x="368" 
d="M198 4q-11 0 -23 1t-23 3q-81 14 -121 84q-11 19 -17 40t-9.5 41t-4 39t-0.5 35q2 34 7.5 67t15.5 56q15 38 41 65.5t58 38.5q44 16 81 -3q41 -22 52 -65q15 -55 -23 -118q-32 -52 -105 -86q-13 -6 -24.5 -10.5t-19.5 -7.5q2 -14 6 -28t11 -25q21 -38 65 -46
q69 -12 121 19t81 106q5 11 17.5 15.5t28.5 1.5q17 -3 22 -19t-1 -31q-27 -80 -88 -127.5t-148 -45.5zM160 402q-5 0 -11 -2q-12 -4 -27 -18.5t-26 -40.5t-16 -74q23 10 47.5 25.5t37.5 36.5q21 33 14 56q-3 10 -13 16q-2 1 -6 1zM269 594q10 -13 6.5 -27t-16.5 -24
q-11 -8 -23 -8q-9 0 -16.5 2.5t-13.5 10.5l-41 56l-41 -56q-6 -8 -13.5 -10.5t-16.5 -2.5q-12 0 -23 8q-14 10 -17 24t6 27l75 102q11 15 30 15t29 -15z" />
    <glyph glyph-name="edieresis" unicode="&#xeb;" horiz-adv-x="368" 
d="M198 4q-11 0 -23 1t-23 3q-81 14 -121 84q-11 19 -17 40t-9.5 41t-4 39t-0.5 35q2 34 7.5 67t15.5 56q15 38 41 65.5t58 38.5q44 16 81 -3q41 -22 52 -65q15 -55 -23 -118q-32 -52 -105 -86q-13 -6 -24.5 -10.5t-19.5 -7.5q2 -14 6 -28t11 -25q21 -38 65 -46
q69 -12 121 19t81 106q5 11 17.5 15.5t28.5 1.5q17 -3 22 -19t-1 -31q-27 -80 -88 -127.5t-148 -45.5zM160 402q-5 0 -11 -2q-12 -4 -27 -18.5t-26 -40.5t-16 -74q23 10 47.5 25.5t37.5 36.5q21 33 14 56q-3 10 -13 16q-2 1 -6 1zM125 572q-2 -21 -17.5 -35.5t-37.5 -13.5
q-21 2 -35.5 17.5t-12.5 37.5q1 21 17 35.5t37 12.5q22 -1 36 -17t13 -37zM292 572q-1 -21 -17 -35.5t-37 -13.5q-21 2 -35.5 17.5t-12.5 37.5q1 21 17 35.5t37 12.5q21 -1 35.5 -17t12.5 -37z" />
    <glyph glyph-name="igrave" unicode="&#xec;" horiz-adv-x="303" 
d="M173 1q-11 0 -21.5 1.5t-21.5 3.5q-50 11 -82 50q-25 31 -37 81q-11 42 -11.5 88t0.5 88v9q0 17 12.5 25t29.5 8q17 -1 27 -9.5t9 -24.5v-9q-1 -43 0 -82.5t8 -70t21 -51t40 -25.5q52 -11 90 24q20 20 36.5 49t29.5 58q7 14 22.5 17t30.5 -4t20.5 -19.5t-1.5 -26.5
q-17 -35 -36.5 -70t-47.5 -61q-52 -49 -118 -49zM-25 659q9 0 16.5 -2.5t13.5 -10.5l75 -102q10 -13 5.5 -27.5t-17.5 -24.5q-14 -10 -28 -9t-24 15l-75 102q-9 13 -6 27t17 24q11 8 23 8z" />
    <glyph glyph-name="iacute" unicode="&#xed;" horiz-adv-x="303" 
d="M173 1q-11 0 -21.5 1.5t-21.5 3.5q-50 11 -82 50q-25 31 -37 81q-11 42 -11.5 88t0.5 88v9q0 17 12.5 25t29.5 8q17 -1 27 -9.5t9 -24.5v-9q-1 -43 0 -82.5t8 -70t21 -51t40 -25.5q52 -11 90 24q20 20 36.5 49t29.5 58q7 14 22.5 17t30.5 -4t20.5 -19.5t-1.5 -26.5
q-17 -35 -36.5 -70t-47.5 -61q-52 -49 -118 -49zM46 479q-12 0 -23 8q-14 10 -17 24t6 27l75 102q10 14 24 15t28 -9q13 -10 17.5 -24.5t-5.5 -27.5l-75 -102q-6 -8 -13.5 -10.5t-16.5 -2.5z" />
    <glyph glyph-name="icircumflex" unicode="&#xee;" horiz-adv-x="303" 
d="M173 1q-11 0 -21.5 1.5t-21.5 3.5q-50 11 -82 50q-25 31 -37 81q-11 42 -11.5 88t0.5 88v9q0 17 12.5 25t29.5 8q17 -1 27 -9.5t9 -24.5v-9q-1 -43 0 -82.5t8 -70t21 -51t40 -25.5q52 -11 90 24q20 20 36.5 49t29.5 58q7 14 22.5 17t30.5 -4t20.5 -19.5t-1.5 -26.5
q-17 -35 -36.5 -70t-47.5 -61q-52 -49 -118 -49zM150 537q10 -13 6.5 -27t-16.5 -24q-11 -8 -23 -8q-9 0 -16.5 2.5t-13.5 10.5l-41 56l-41 -56q-6 -8 -13.5 -10.5t-16.5 -2.5q-12 0 -23 8q-14 10 -17 24t6 27l75 102q11 15 30 15t29 -15z" />
    <glyph glyph-name="idieresis" unicode="&#xef;" horiz-adv-x="303" 
d="M173 1q-11 0 -21.5 1.5t-21.5 3.5q-50 11 -82 50q-25 31 -37 81q-11 42 -11.5 88t0.5 88v9q0 17 12.5 25t29.5 8q17 -1 27 -9.5t9 -24.5v-9q-1 -43 0 -82.5t8 -70t21 -51t40 -25.5q52 -11 90 24q20 20 36.5 49t29.5 58q7 14 22.5 17t30.5 -4t20.5 -19.5t-1.5 -26.5
q-17 -35 -36.5 -70t-47.5 -61q-52 -49 -118 -49zM17 527q-2 -21 -17.5 -35.5t-37.5 -13.5q-21 2 -35.5 17.5t-12.5 37.5q1 21 17 35.5t37 12.5q22 -1 36 -17t13 -37zM184 527q-1 -21 -17 -35.5t-37 -13.5q-21 2 -35.5 17.5t-12.5 37.5q1 21 17 35.5t37 12.5q21 -1 35.5 -17
t12.5 -37z" />
    <glyph glyph-name="eth" unicode="&#xf0;" horiz-adv-x="432" 
d="M330 484q32 -79 40.5 -162t-5.5 -161t-62 -120q-24 -20 -54.5 -31.5t-66.5 -9.5q-43 1 -77 19.5t-57 49.5t-35.5 72.5t-12.5 88.5q-2 58 16 108t51 85q23 24 51.5 36.5t58.5 13.5q41 0 78 -14q-11 27 -24.5 53t-29.5 49q-22 -11 -44 -19.5t-45 -14.5q-20 -5 -28 5.5
t-13 23.5q-5 16 0.5 29.5t21.5 17.5q28 7 57 21q-29 28 -60 51q-14 10 -13 23t11 27q9 14 21 19t26 -4q45 -32 83 -74q32 24 53 49q11 13 25.5 11.5t27.5 -12.5q12 -11 14.5 -25t-8.5 -26q-30 -33 -63 -59q37 -56 63 -120zM286 173q8 32 9 59t-4 55q-10 61 -37.5 85
t-73.5 22q-27 -1 -46 -18.5t-31 -42.5t-17 -53t-5 -49q0 -19 5 -45t16.5 -49.5t31 -40.5t48.5 -18q45 0 68.5 23t35.5 72z" />
    <glyph glyph-name="ntilde" unicode="&#xf1;" horiz-adv-x="540" 
d="M592 226q14 -8 17.5 -22.5t-3.5 -28.5q-12 -23 -27 -54t-38 -58q-28 -32 -57 -47q-25 -14 -56 -14q-6 0 -12 0.5t-12 1.5q-38 7 -66 34q-23 24 -33 59q-9 29 -11 62t-2 66q0 23 -1 46t-4.5 42.5t-10.5 34t-19 21.5q-52 32 -99 6q-17 -10 -30.5 -26.5t-23 -35.5t-15 -40
t-6.5 -40q0 -45 -0.5 -94t-0.5 -105q-1 -16 -13 -24.5t-28 -8.5h-1q-16 0 -28 8.5t-12 25.5q2 110 2 213.5v206.5q0 16 11.5 23.5t27.5 7.5q17 0 28.5 -7.5t11.5 -23.5v-41q9 8 18 15.5t20 13.5q41 23 84 22q46 0 94 -28t65 -98q5 -27 6.5 -55.5t1.5 -57.5q1 -29 2 -57
t8 -49q5 -18 14 -27t26 -12q19 -4 36.5 9t33 34t28.5 45t22 42q8 14 22.5 18.5t29.5 -3.5zM252 529q-29 2 -50 15.5t-36 25.5q-7 6 -14 11.5t-12 6.5q-14 2 -26 -6.5t-26 -23.5l-5 -5q-11 -11 -24 -10t-24 12t-12.5 24t8.5 24l5 5q8 8 17.5 18t23.5 18q35 21 74 15
q19 -3 33.5 -13t27.5 -20q12 -10 22.5 -17t23.5 -8q12 -2 23 9.5t24 27.5q11 14 23.5 14t24.5 -10q11 -9 15 -21.5t-5 -24.5q-8 -11 -17 -23t-20.5 -22t-27 -16t-37.5 -6h-9z" />
    <glyph glyph-name="ograve" unicode="&#xf2;" horiz-adv-x="489" 
d="M407 246q-11 0 -19 0.5t-14 1.5v-16q-2 -103 -50 -164q-52 -66 -142 -66h-4q-73 2 -118 49q-63 66 -60 212q3 94 50 150q23 29 58 45q33 16 75 16h10q87 -5 136 -70q24 -33 36 -76q8 -2 13 -2q10 -1 21 -2t25.5 0.5t33.5 7.5t46 19q14 8 29.5 2.5t23.5 -19.5t2.5 -29.5
t-19.5 -23.5q-32 -17 -65 -26t-65 -9h-3zM183 395q-46 0 -73 -32q-29 -37 -31 -102q-3 -113 38 -156q22 -24 63 -24h2q53 0 80 36q31 38 34 117q0 27 -3.5 54.5t-15.5 51t-33 38.5t-55 17h-6zM205 535q-9 0 -16.5 2.5t-13.5 10.5l-75 102q-10 13 -6 27.5t18 24.5
q13 10 27.5 9t23.5 -15l75 -102q10 -13 6.5 -27t-16.5 -24q-11 -8 -23 -8z" />
    <glyph glyph-name="oacute" unicode="&#xf3;" horiz-adv-x="489" 
d="M407 246q-11 0 -19 0.5t-14 1.5v-16q-2 -103 -50 -164q-52 -66 -142 -66h-4q-73 2 -118 49q-63 66 -60 212q3 94 50 150q23 29 58 45q33 16 75 16h10q87 -5 136 -70q24 -33 36 -76q8 -2 13 -2q10 -1 21 -2t25.5 0.5t33.5 7.5t46 19q14 8 29.5 2.5t23.5 -19.5t2.5 -29.5
t-19.5 -23.5q-32 -17 -65 -26t-65 -9h-3zM183 395q-46 0 -73 -32q-29 -37 -31 -102q-3 -113 38 -156q22 -24 63 -24h2q53 0 80 36q31 38 34 117q0 27 -3.5 54.5t-15.5 51t-33 38.5t-55 17h-6zM182 535q-12 0 -23 8q-14 10 -17 24t6 27l75 102q10 14 24 15t28 -9
q13 -10 17.5 -24.5t-5.5 -27.5l-75 -102q-6 -8 -13.5 -10.5t-16.5 -2.5z" />
    <glyph glyph-name="ocircumflex" unicode="&#xf4;" horiz-adv-x="489" 
d="M407 246q-11 0 -19 0.5t-14 1.5v-16q-2 -103 -50 -164q-52 -66 -142 -66h-4q-73 2 -118 49q-63 66 -60 212q3 94 50 150q23 29 58 45q33 16 75 16h10q87 -5 136 -70q24 -33 36 -76q8 -2 13 -2q10 -1 21 -2t25.5 0.5t33.5 7.5t46 19q14 8 29.5 2.5t23.5 -19.5t2.5 -29.5
t-19.5 -23.5q-32 -17 -65 -26t-65 -9h-3zM183 395q-46 0 -73 -32q-29 -37 -31 -102q-3 -113 38 -156q22 -24 63 -24h2q53 0 80 36q31 38 34 117q0 27 -3.5 54.5t-15.5 51t-33 38.5t-55 17h-6zM293 594q10 -13 6.5 -27t-16.5 -24q-11 -8 -23 -8q-9 0 -16.5 2.5t-13.5 10.5
l-41 56l-41 -56q-6 -8 -13.5 -10.5t-16.5 -2.5q-12 0 -23 8q-14 10 -17 24t6 27l75 102q11 15 30 15t29 -15z" />
    <glyph glyph-name="otilde" unicode="&#xf5;" horiz-adv-x="489" 
d="M407 246q-11 0 -19 0.5t-14 1.5v-16q-2 -103 -50 -164q-52 -66 -142 -66h-4q-73 2 -118 49q-63 66 -60 212q3 94 50 150q23 29 58 45q33 16 75 16h10q87 -5 136 -70q24 -33 36 -76q8 -2 13 -2q10 -1 21 -2t25.5 0.5t33.5 7.5t46 19q14 8 29.5 2.5t23.5 -19.5t2.5 -29.5
t-19.5 -23.5q-32 -17 -65 -26t-65 -9h-3zM183 395q-46 0 -73 -32q-29 -37 -31 -102q-3 -113 38 -156q22 -24 63 -24h2q53 0 80 36q31 38 34 117q0 27 -3.5 54.5t-15.5 51t-33 38.5t-55 17h-6zM257 529q-29 2 -50 15.5t-36 25.5q-7 6 -14 11.5t-12 6.5q-14 2 -26 -6.5
t-26 -23.5l-5 -5q-11 -11 -24 -10t-24 12t-12.5 24t8.5 24l5 5q8 8 17.5 18t23.5 18q35 21 74 15q19 -3 33.5 -13t27.5 -20q12 -10 22.5 -17t23.5 -8q12 -2 23 9.5t24 27.5q11 14 23.5 14t24.5 -10q11 -9 15 -21.5t-5 -24.5q-8 -11 -17 -23t-20.5 -22t-27 -16t-37.5 -6h-9z
" />
    <glyph glyph-name="odieresis" unicode="&#xf6;" horiz-adv-x="489" 
d="M407 246q-11 0 -19 0.5t-14 1.5v-16q-2 -103 -50 -164q-52 -66 -142 -66h-4q-73 2 -118 49q-63 66 -60 212q3 94 50 150q23 29 58 45q33 16 75 16h10q87 -5 136 -70q24 -33 36 -76q8 -2 13 -2q10 -1 21 -2t25.5 0.5t33.5 7.5t46 19q14 8 29.5 2.5t23.5 -19.5t2.5 -29.5
t-19.5 -23.5q-32 -17 -65 -26t-65 -9h-3zM183 395q-46 0 -73 -32q-29 -37 -31 -102q-3 -113 38 -156q22 -24 63 -24h2q53 0 80 36q31 38 34 117q0 27 -3.5 54.5t-15.5 51t-33 38.5t-55 17h-6zM157 572q-2 -21 -17.5 -35.5t-37.5 -13.5q-21 2 -35.5 17.5t-12.5 37.5
q1 21 17 35.5t37 12.5q22 -1 36 -17t13 -37zM324 572q-1 -21 -17 -35.5t-37 -13.5q-21 2 -35.5 17.5t-12.5 37.5q1 21 17 35.5t37 12.5q21 -1 35.5 -17t12.5 -37z" />
    <glyph glyph-name="divide" unicode="&#xf7;" horiz-adv-x="510" 
d="M306 402q-1 -21 -17 -35.5t-37 -13.5q-22 2 -36 17.5t-13 37.5q2 21 17.5 35.5t37.5 12.5q21 -1 35.5 -17t12.5 -37zM306 92q-1 -21 -17 -35.5t-37 -12.5q-22 2 -36 17.5t-13 36.5q2 22 17.5 36t37.5 13q21 -2 35.5 -17.5t12.5 -37.5zM109 212q-16 0 -27.5 11t-11.5 28
t11.5 28t27.5 11h291q17 0 28.5 -11t11.5 -28t-11.5 -28t-28.5 -11h-291z" />
    <glyph glyph-name="oslash" unicode="&#xf8;" horiz-adv-x="489" 
d="M407 246q-11 0 -19 0.5t-14 1.5v-16q-2 -103 -50 -164q-52 -66 -142 -66h-4q-49 0 -90 25l-21 -31q-5 -8 -12 -9.5t-15 -2.5q-13 -1 -26 7q-14 10 -17.5 23.5t6.5 26.5l31 45q-36 64 -34 177q3 94 50 150q23 29 58 45q33 16 75 16h10q52 -3 92 -29l20 29q9 13 22.5 14.5
t27.5 -7.5q14 -10 19 -24.5t-5 -27.5l-29 -42q8 -13 14 -27.5t11 -31.5q8 -2 13 -2q10 -1 21 -2t25.5 0.5t33.5 7.5t46 19q14 8 29.5 2.5t23.5 -19.5t2.5 -29.5t-19.5 -23.5q-32 -17 -65 -26t-65 -9h-3zM183 395q-46 0 -73 -32q-29 -37 -31 -102q-2 -59 9 -99l152 219
q-22 13 -51 14h-6zM182 81q53 0 80 36q31 38 34 117q0 19 -2 39t-7 39l-154 -221q19 -10 47 -10h2z" />
    <glyph glyph-name="ugrave" unicode="&#xf9;" horiz-adv-x="529" 
d="M579 229q15 -6 22 -18t1 -27q-11 -30 -24 -59.5t-31 -55.5q-12 -16 -25 -28.5t-27 -20.5q-29 -19 -64 -19q-8 0 -12 1q-13 1 -28 5t-30 13t-29.5 24t-26.5 38q-14 -19 -30.5 -35t-36.5 -27q-33 -18 -71 -20h-3q-40 0 -66.5 14.5t-43 34.5t-25.5 41t-13 34
q-8 26 -12.5 74.5t-3.5 120.5q1 52 2.5 89.5t1.5 39.5q2 17 13.5 24.5t28.5 6.5q16 -1 27 -10t10 -26q-2 -33 -3.5 -76t-1 -85.5t3.5 -78.5t9 -54q12 -35 27.5 -53t47.5 -17q37 0 68 39q17 20 26 44t11 49q1 31 1.5 72t0.5 77v61v25q-1 17 11 25.5t29 8.5t27.5 -8t10.5 -25
v-203q0 -22 2.5 -49.5t11 -52.5t23 -42.5t38.5 -19.5q17 -2 32 9t27.5 30t23.5 43t20 49q5 15 19.5 19t30.5 -1zM187 535q-9 0 -16.5 2.5t-13.5 10.5l-75 102q-10 13 -6 27.5t18 24.5q13 10 27.5 9t23.5 -15l75 -102q10 -13 6.5 -27t-16.5 -24q-11 -8 -23 -8z" />
    <glyph glyph-name="uacute" unicode="&#xfa;" horiz-adv-x="529" 
d="M579 229q15 -6 22 -18t1 -27q-11 -30 -24 -59.5t-31 -55.5q-12 -16 -25 -28.5t-27 -20.5q-29 -19 -64 -19q-8 0 -12 1q-13 1 -28 5t-30 13t-29.5 24t-26.5 38q-14 -19 -30.5 -35t-36.5 -27q-33 -18 -71 -20h-3q-40 0 -66.5 14.5t-43 34.5t-25.5 41t-13 34
q-8 26 -12.5 74.5t-3.5 120.5q1 52 2.5 89.5t1.5 39.5q2 17 13.5 24.5t28.5 6.5q16 -1 27 -10t10 -26q-2 -33 -3.5 -76t-1 -85.5t3.5 -78.5t9 -54q12 -35 27.5 -53t47.5 -17q37 0 68 39q17 20 26 44t11 49q1 31 1.5 72t0.5 77v61v25q-1 17 11 25.5t29 8.5t27.5 -8t10.5 -25
v-203q0 -22 2.5 -49.5t11 -52.5t23 -42.5t38.5 -19.5q17 -2 32 9t27.5 30t23.5 43t20 49q5 15 19.5 19t30.5 -1zM183 535q-12 0 -23 8q-14 10 -17 24t6 27l75 102q10 14 24 15t28 -9q13 -10 17.5 -24.5t-5.5 -27.5l-75 -102q-6 -8 -13.5 -10.5t-16.5 -2.5z" />
    <glyph glyph-name="ucircumflex" unicode="&#xfb;" horiz-adv-x="529" 
d="M579 229q15 -6 22 -18t1 -27q-11 -30 -24 -59.5t-31 -55.5q-12 -16 -25 -28.5t-27 -20.5q-29 -19 -64 -19q-8 0 -12 1q-13 1 -28 5t-30 13t-29.5 24t-26.5 38q-14 -19 -30.5 -35t-36.5 -27q-33 -18 -71 -20h-3q-40 0 -66.5 14.5t-43 34.5t-25.5 41t-13 34
q-8 26 -12.5 74.5t-3.5 120.5q1 52 2.5 89.5t1.5 39.5q2 17 13.5 24.5t28.5 6.5q16 -1 27 -10t10 -26q-2 -33 -3.5 -76t-1 -85.5t3.5 -78.5t9 -54q12 -35 27.5 -53t47.5 -17q37 0 68 39q17 20 26 44t11 49q1 31 1.5 72t0.5 77v61v25q-1 17 11 25.5t29 8.5t27.5 -8t10.5 -25
v-203q0 -22 2.5 -49.5t11 -52.5t23 -42.5t38.5 -19.5q17 -2 32 9t27.5 30t23.5 43t20 49q5 15 19.5 19t30.5 -1zM280 594q10 -13 6.5 -27t-16.5 -24q-11 -8 -23 -8q-9 0 -16.5 2.5t-13.5 10.5l-41 56l-41 -56q-6 -8 -13.5 -10.5t-16.5 -2.5q-12 0 -23 8q-14 10 -17 24t6 27
l75 102q11 15 30 15t29 -15z" />
    <glyph glyph-name="udieresis" unicode="&#xfc;" horiz-adv-x="529" 
d="M579 229q15 -6 22 -18t1 -27q-11 -30 -24 -59.5t-31 -55.5q-12 -16 -25 -28.5t-27 -20.5q-29 -19 -64 -19q-8 0 -12 1q-13 1 -28 5t-30 13t-29.5 24t-26.5 38q-14 -19 -30.5 -35t-36.5 -27q-33 -18 -71 -20h-3q-40 0 -66.5 14.5t-43 34.5t-25.5 41t-13 34
q-8 26 -12.5 74.5t-3.5 120.5q1 52 2.5 89.5t1.5 39.5q2 17 13.5 24.5t28.5 6.5q16 -1 27 -10t10 -26q-2 -33 -3.5 -76t-1 -85.5t3.5 -78.5t9 -54q12 -35 27.5 -53t47.5 -17q37 0 68 39q17 20 26 44t11 49q1 31 1.5 72t0.5 77v61v25q-1 17 11 25.5t29 8.5t27.5 -8t10.5 -25
v-203q0 -22 2.5 -49.5t11 -52.5t23 -42.5t38.5 -19.5q17 -2 32 9t27.5 30t23.5 43t20 49q5 15 19.5 19t30.5 -1zM144 572q-2 -21 -17.5 -35.5t-37.5 -13.5q-21 2 -35.5 17.5t-12.5 37.5q1 21 17 35.5t37 12.5q22 -1 36 -17t13 -37zM311 572q-1 -21 -17 -35.5t-37 -13.5
q-21 2 -35.5 17.5t-12.5 37.5q1 21 17 35.5t37 12.5q21 -1 35.5 -17t12.5 -37z" />
    <glyph glyph-name="yacute" unicode="&#xfd;" horiz-adv-x="493" 
d="M543 230q14 -8 21 -21.5t0 -27.5q-8 -16 -22.5 -42.5t-33 -55.5t-41 -57.5t-44.5 -49.5q-12 -11 -27.5 -20.5t-33.5 -20.5v-41q0 -36 -6.5 -73.5t-17.5 -67.5q-16 -42 -37 -65q-30 -34 -72 -34q-50 0 -81 40q-12 16 -19 35.5t-10 40.5t-2 40.5t5 35.5q6 22 22 41t38 35.5
t48 31t53 28.5v51q-2 -1 -4 -3q-38 -29 -90 -29q-24 0 -49 6q-56 12 -90 61q-14 20 -23 44t-16 55q-10 51 -11 106t1 102q0 8 0.5 15t0.5 14q0 16 10.5 26t26.5 10q17 -1 29.5 -11t11.5 -27v-29q-2 -44 -1.5 -95t9.5 -96q6 -29 14.5 -47.5t18 -29.5t19 -15.5t17.5 -6.5
q49 -10 74 10q25 19 37 69q6 26 8 52t3 48v146q0 17 11 26.5t28 9.5q17 1 28 -8.5t12 -25.5q0 -2 0.5 -16.5t0.5 -36.5v-47.5t-1 -48.5q0 -10 0.5 -34t1 -56.5t1 -70t0.5 -73.5q7 5 9 8q18 16 37 40.5t35.5 50t30 49.5t20.5 39q7 14 21 18.5t29 -2.5zM264 -221q11 29 15 60
t5 54q-14 -8 -26.5 -15t-23.5 -15q-21 -15 -28 -24t-8 -14q-2 -9 -2.5 -20t1 -23t5 -22.5t8.5 -17.5q9 -10 19 -10q8 0 17.5 12.5t17.5 34.5zM185 535q-12 0 -23 8q-14 10 -17 24t6 27l75 102q10 14 24 15t28 -9q13 -10 17.5 -24.5t-5.5 -27.5l-75 -102q-6 -8 -13.5 -10.5
t-16.5 -2.5z" />
    <glyph glyph-name="thorn" unicode="&#xfe;" horiz-adv-x="513" 
d="M363 354q4 -8 8 -16.5t7 -16.5q3 -1 8 -1q10 -1 21 -2.5t25.5 0t33.5 7.5t46 19q14 8 29.5 3t23.5 -19t3 -29.5t-19 -23.5q-32 -17 -65 -26t-65 -10h-4h-11.5t-10.5 1v-15q-6 -106 -69 -157q-41 -34 -103 -44q-15 -3 -31 -4t-33 -1t-35.5 1t-38.5 4l2 -333
q0 -17 -10.5 -26t-27.5 -9t-28.5 9t-11.5 26l-7 944q0 16 11.5 25.5t27.5 9.5q17 0 28 -9t12 -26l1 -207q30 14 72.5 23.5t90.5 -2.5q79 -20 120 -95zM314 229q1 17 -3.5 39t-15 43t-28 38t-43.5 24q-26 6 -50.5 2t-44 -11.5t-32.5 -16t-16 -10.5l1 -234q77 -11 126 -2
q43 8 66 28q37 30 40 100z" />
    <glyph glyph-name="ydieresis" unicode="&#xff;" horiz-adv-x="493" 
d="M543 230q14 -8 21 -21.5t0 -27.5q-8 -16 -22.5 -42.5t-33 -55.5t-41 -57.5t-44.5 -49.5q-12 -11 -27.5 -20.5t-33.5 -20.5v-41q0 -36 -6.5 -73.5t-17.5 -67.5q-16 -42 -37 -65q-30 -34 -72 -34q-50 0 -81 40q-12 16 -19 35.5t-10 40.5t-2 40.5t5 35.5q6 22 22 41t38 35.5
t48 31t53 28.5v51q-2 -1 -4 -3q-38 -29 -90 -29q-24 0 -49 6q-56 12 -90 61q-14 20 -23 44t-16 55q-10 51 -11 106t1 102q0 8 0.5 15t0.5 14q0 16 10.5 26t26.5 10q17 -1 29.5 -11t11.5 -27v-29q-2 -44 -1.5 -95t9.5 -96q6 -29 14.5 -47.5t18 -29.5t19 -15.5t17.5 -6.5
q49 -10 74 10q25 19 37 69q6 26 8 52t3 48v146q0 17 11 26.5t28 9.5q17 1 28 -8.5t12 -25.5q0 -2 0.5 -16.5t0.5 -36.5v-47.5t-1 -48.5q0 -10 0.5 -34t1 -56.5t1 -70t0.5 -73.5q7 5 9 8q18 16 37 40.5t35.5 50t30 49.5t20.5 39q7 14 21 18.5t29 -2.5zM264 -221q11 29 15 60
t5 54q-14 -8 -26.5 -15t-23.5 -15q-21 -15 -28 -24t-8 -14q-2 -9 -2.5 -20t1 -23t5 -22.5t8.5 -17.5q9 -10 19 -10q8 0 17.5 12.5t17.5 34.5zM150 572q-2 -21 -17.5 -35.5t-37.5 -13.5q-21 2 -35.5 17.5t-12.5 37.5q1 21 17 35.5t37 12.5q22 -1 36 -17t13 -37zM317 572
q-1 -21 -17 -35.5t-37 -13.5q-21 2 -35.5 17.5t-12.5 37.5q1 21 17 35.5t37 12.5q21 -1 35.5 -17t12.5 -37z" />
    <glyph glyph-name="Amacron" unicode="&#x100;" horiz-adv-x="727" 
d="M775 228q15 -6 21.5 -17.5t0.5 -26.5q-14 -36 -29.5 -64.5t-35.5 -50.5q-39 -40 -85 -52q-32 -8 -62.5 -1t-53.5 27q-19 16 -32.5 44.5t-22.5 64.5t-14.5 77.5t-9.5 84.5h-108q-11 -27 -23 -56t-24 -55t-22.5 -48t-17.5 -36q-11 -20 -25 -42t-33 -39q-39 -36 -85 -36
h-8.5t-8.5 1q-56 8 -91 57q-24 31 -36 81q-4 16 5 26.5t25 14.5t29 -1t17 -21q18 -73 62 -79q20 -3 38 14.5t42 60.5q12 23 31.5 66.5t39.5 91.5h-16q-17 0 -24 12t-7 29t7 27t24 10h48q5 13 9 23.5t7 18.5q6 15 17 45t24.5 65t27.5 72t26 67t19.5 49.5t7.5 20.5
q5 14 16.5 18t25.5 2t23.5 -10t10.5 -22q0 -1 1 -22t2.5 -54t3.5 -72.5t4.5 -77t4 -68t3.5 -45.5q0 -6 0.5 -13t1.5 -15q2 -31 5.5 -73.5t11.5 -85.5q6 -32 12 -53t11.5 -34t10 -18.5t6.5 -7.5q6 -5 18 -9t27 0q8 2 19.5 8.5t25 19.5t27.5 35t27 56q6 16 19.5 19t28.5 -3z
M381 406q-2 -3 -2.5 -6.5t-2.5 -7.5h70q0 2 -1 3q-2 20 -4.5 63t-4.5 93q-17 -45 -32.5 -85t-22.5 -60zM376 834q-16 0 -27.5 11t-11.5 28t11.5 28t27.5 11h174q17 0 28.5 -11t11.5 -28t-11.5 -28t-28.5 -11h-174z" />
    <glyph glyph-name="amacron" unicode="&#x101;" horiz-adv-x="510" 
d="M566 228q14 -8 16.5 -24.5t-5.5 -30.5q-17 -30 -38.5 -63.5t-53.5 -63.5q-27 -26 -52.5 -35.5t-48.5 -9.5q-16 0 -30 3.5t-25 8.5q-34 15 -53 48q-41 -59 -122 -59h-4q-60 0 -99 42q-57 62 -51 205q3 50 13 88t29 66q44 68 130 68h9t9 -1q76 -6 106 -63q18 -34 23 -93
q0 -11 0.5 -31.5t-0.5 -37.5q0 -21 1 -44t5 -44q3 -20 11 -42t25 -30q13 -5 30 -4.5t41 23.5q25 23 43 53.5t35 56.5q9 14 25.5 18.5t30.5 -4.5zM154 80q17 0 31 4t25 20.5t18.5 49t11.5 88.5q1 17 1 33.5v25.5q-2 24 -4.5 41t-9.5 28q-6 10 -17.5 16t-37.5 7
q-9 0 -23.5 -2.5t-29 -16t-26 -44t-14.5 -85.5q-2 -54 5.5 -91.5t24.5 -56.5q14 -15 42 -17h3zM93 554q-16 0 -27.5 11t-11.5 28t11.5 28t27.5 11h174q17 0 28.5 -11t11.5 -28t-11.5 -28t-28.5 -11h-174z" />
    <glyph glyph-name="Abreve" unicode="&#x102;" horiz-adv-x="727" 
d="M775 228q15 -6 21.5 -17.5t0.5 -26.5q-14 -36 -29.5 -64.5t-35.5 -50.5q-39 -40 -85 -52q-32 -8 -62.5 -1t-53.5 27q-19 16 -32.5 44.5t-22.5 64.5t-14.5 77.5t-9.5 84.5h-108q-11 -27 -23 -56t-24 -55t-22.5 -48t-17.5 -36q-11 -20 -25 -42t-33 -39q-39 -36 -85 -36
h-8.5t-8.5 1q-56 8 -91 57q-24 31 -36 81q-4 16 5 26.5t25 14.5t29 -1t17 -21q18 -73 62 -79q20 -3 38 14.5t42 60.5q12 23 31.5 66.5t39.5 91.5h-16q-17 0 -24 12t-7 29t7 27t24 10h48q5 13 9 23.5t7 18.5q6 15 17 45t24.5 65t27.5 72t26 67t19.5 49.5t7.5 20.5
q5 14 16.5 18t25.5 2t23.5 -10t10.5 -22q0 -1 1 -22t2.5 -54t3.5 -72.5t4.5 -77t4 -68t3.5 -45.5q0 -6 0.5 -13t1.5 -15q2 -31 5.5 -73.5t11.5 -85.5q6 -32 12 -53t11.5 -34t10 -18.5t6.5 -7.5q6 -5 18 -9t27 0q8 2 19.5 8.5t25 19.5t27.5 35t27 56q6 16 19.5 19t28.5 -3z
M381 406q-2 -3 -2.5 -6.5t-2.5 -7.5h70q0 2 -1 3q-2 20 -4.5 63t-4.5 93q-17 -45 -32.5 -85t-22.5 -60zM454 807q-32 0 -56 9.5t-41.5 24t-29.5 32t-20 33.5q-8 14 -2 28t20 22q15 8 29.5 4t22.5 -18q14 -28 32 -43t51 -13q21 1 35 5t24 11t17.5 17t15.5 24t22.5 17.5
t28.5 -4.5t19.5 -23t-2.5 -29q-10 -17 -23 -34.5t-33 -31.5q-21 -16 -49.5 -23t-60.5 -8z" />
    <glyph glyph-name="abreve" unicode="&#x103;" horiz-adv-x="510" 
d="M566 228q14 -8 16.5 -24.5t-5.5 -30.5q-17 -30 -38.5 -63.5t-53.5 -63.5q-27 -26 -52.5 -35.5t-48.5 -9.5q-16 0 -30 3.5t-25 8.5q-34 15 -53 48q-41 -59 -122 -59h-4q-60 0 -99 42q-57 62 -51 205q3 50 13 88t29 66q44 68 130 68h9t9 -1q76 -6 106 -63q18 -34 23 -93
q0 -11 0.5 -31.5t-0.5 -37.5q0 -21 1 -44t5 -44q3 -20 11 -42t25 -30q13 -5 30 -4.5t41 23.5q25 23 43 53.5t35 56.5q9 14 25.5 18.5t30.5 -4.5zM154 80q17 0 31 4t25 20.5t18.5 49t11.5 88.5q1 17 1 33.5v25.5q-2 24 -4.5 41t-9.5 28q-6 10 -17.5 16t-37.5 7
q-9 0 -23.5 -2.5t-29 -16t-26 -44t-14.5 -85.5q-2 -54 5.5 -91.5t24.5 -56.5q14 -15 42 -17h3zM169 527q-32 0 -56 9.5t-41.5 24t-29.5 32t-20 33.5q-8 14 -2 28t20 22q15 8 29.5 4t22.5 -18q14 -28 32 -43t51 -13q21 1 35 5t24 11t17.5 17t15.5 24t22.5 17.5t28.5 -4.5
t19.5 -23t-2.5 -29q-10 -17 -23 -34.5t-33 -31.5q-21 -16 -49.5 -23t-60.5 -8z" />
    <glyph glyph-name="Aogonek" unicode="&#x104;" horiz-adv-x="727" 
d="M630 -267q-19 0 -33.5 5t-25.5 12q-20 12 -30.5 28t-15.5 26q-11 22 -12.5 58t15.5 78q8 19 19 41t22 40q-23 8 -38 22q-19 16 -32.5 44.5t-22.5 64.5t-14.5 77.5t-9.5 84.5h-108q-11 -27 -23 -56t-24 -55t-22.5 -48t-17.5 -36q-11 -20 -25 -42t-33 -39q-39 -36 -85 -36
h-8.5t-8.5 1q-56 8 -91 57q-24 31 -36 81q-4 16 5 26.5t25 14.5t29 -1t17 -21q18 -73 62 -79q20 -3 38 14.5t42 60.5q12 23 31.5 66.5t39.5 91.5h-16q-17 0 -24 12t-7 29t7 27t24 10h48l16 42q6 15 17 45t24.5 65t27.5 72t26 67t19.5 49.5t7.5 20.5q5 14 16.5 18t25.5 2
t23.5 -10t10.5 -22q0 -1 1 -22t2.5 -54t3.5 -72.5t4.5 -77t4 -68t3.5 -45.5q0 -6 0.5 -13t1.5 -15q2 -31 5.5 -73.5t11.5 -85.5q6 -32 12 -53t11.5 -34t10 -18.5t6.5 -7.5q6 -5 18 -9t27 0q8 2 19.5 8.5t25 19.5t27.5 35t27 56q6 16 19.5 19t28.5 -3t23 -17.5t2 -26.5
q-26 -70 -68 -115q-34 -36 -73 -49l-3 -6l-6.5 -11t-15.5 -27t-18 -34t-15 -32q-11 -24 -10.5 -44t5.5 -28q7 -15 15.5 -20.5t17 -6t16 2.5l12.5 5q15 7 28 0.5t20 -21.5t3 -29.5t-19 -21.5q-31 -14 -59 -14zM381 406q-2 -3 -2.5 -6.5t-2.5 -7.5h70q0 2 -1 3q-2 20 -4.5 63
t-4.5 93q-17 -45 -32.5 -85t-22.5 -60z" />
    <glyph glyph-name="aogonek" unicode="&#x105;" horiz-adv-x="510" 
d="M397 -267q-19 0 -33.5 5t-25.5 12q-20 12 -30.5 28t-15.5 26q-11 22 -12.5 58t15.5 78q7 17 16.5 36t19.5 36q-1 0 -2 1q-34 15 -53 48q-41 -59 -122 -59h-4q-60 0 -99 42q-57 62 -51 205q3 50 13 88t29 66q44 68 130 68h9t9 -1q76 -6 106 -63q18 -34 23 -93
q0 -11 0.5 -31.5t-0.5 -37.5q0 -21 1 -44t5 -44q3 -20 11 -42t25 -30q13 -5 30 -4.5t41 23.5q25 23 43 52.5t35 55.5q8 14 22.5 20t32.5 -2q15 -7 18.5 -23.5t-6.5 -32.5q-19 -30 -39.5 -64t-52.5 -64q-17 -17 -34 -26t-33 -14q-4 -6 -10.5 -17.5t-14 -25t-14.5 -27.5
t-11 -26q-11 -24 -10.5 -44t5.5 -28q7 -15 15.5 -20.5t17 -6t16 2.5l12.5 5q15 7 28 0.5t20 -21.5t3 -29.5t-19 -21.5q-31 -14 -59 -14zM154 80q17 0 31 4t25 20.5t18.5 49t11.5 88.5q1 17 1 33.5v25.5q-2 24 -4.5 41t-9.5 28q-6 10 -17.5 16t-37.5 7q-9 0 -23.5 -2.5
t-29 -16t-26 -44t-14.5 -85.5q-2 -54 5.5 -91.5t24.5 -56.5q14 -15 42 -17h3z" />
    <glyph glyph-name="Cacute" unicode="&#x106;" horiz-adv-x="424" 
d="M265 4q-118 5 -183 80q-26 32 -39.5 64.5t-19.5 56.5q-16 60 -19.5 118t-2.5 100q2 51 7.5 91t11.5 62q19 78 54 116q40 44 105 53q58 8 104 -35q22 -20 34.5 -42.5t19.5 -39.5q6 -15 -2 -27t-23 -17q-15 -6 -29 -2.5t-20 19.5q-2 4 -7 16t-14.5 24t-22.5 20t-30 6
q-37 -6 -57 -27q-21 -24 -36 -83q-5 -20 -10 -56.5t-6 -82t3 -95.5t16 -98q6 -24 17 -49t29.5 -45t48 -33.5t73.5 -14.5q31 -1 56.5 10.5t45 30.5t33.5 42t22 46q6 16 19.5 20t29.5 -1q15 -5 21.5 -17t1.5 -28q-8 -20 -24.5 -54t-50.5 -66q-65 -62 -150 -62h-6zM191 815
q-12 0 -23 8q-14 10 -17 24t6 27l75 102q10 14 24 15t28 -9q13 -10 17.5 -24.5t-5.5 -27.5l-75 -102q-6 -8 -13.5 -10.5t-16.5 -2.5z" />
    <glyph glyph-name="cacute" unicode="&#x107;" horiz-adv-x="376" 
d="M211 6q-60 5 -104 31q-40 23 -66 67q-25 41 -32.5 85.5t-8.5 77.5q-2 85 30 139q18 32 40 47t39 20q20 6 42 7.5t43 -3.5q51 -11 85 -51q11 -12 9 -24.5t-14 -23.5q-13 -11 -28.5 -13t-26.5 10q-18 22 -43 25t-44 -2q-20 -6 -37 -36.5t-16 -93.5q0 -26 5.5 -60t23.5 -63
q34 -56 108 -60q37 -3 64 10t46.5 32.5t31 41t17.5 37.5q6 15 20.5 19.5t30.5 -0.5q15 -6 21 -18.5t0 -27.5q-16 -42 -36.5 -70.5t-48.5 -51.5q-60 -51 -137 -51h-14zM162 535q-12 0 -23 8q-14 10 -17 24t6 27l75 102q10 14 24 15t28 -9q13 -10 17.5 -24.5t-5.5 -27.5
l-75 -102q-6 -8 -13.5 -10.5t-16.5 -2.5z" />
    <glyph glyph-name="Ccircumflex" unicode="&#x108;" horiz-adv-x="424" 
d="M271 4h-6q-118 5 -183 80q-26 32 -39.5 64.5t-19.5 56.5q-16 60 -19.5 118t-2.5 100q2 51 7.5 91t11.5 62q19 78 54 116q40 44 105 53q58 8 104 -35q22 -20 34.5 -42.5t19.5 -39.5q6 -15 -2 -27t-23 -17q-15 -6 -29 -2.5t-20 19.5q-2 4 -7 16t-14.5 24t-22.5 20t-30 6
q-37 -6 -57 -27q-21 -24 -36 -83q-5 -20 -10 -56.5t-6 -82t3 -95.5t16 -98q6 -24 17 -49t29.5 -45t48 -33.5t73.5 -14.5q31 -1 56.5 10.5t45 30.5t33.5 42t22 46q6 16 19.5 20t29.5 -1q15 -5 21.5 -17t1.5 -28q-8 -20 -24.5 -54t-50.5 -66q-65 -62 -150 -62zM305 874
q10 -13 6.5 -27t-16.5 -24q-11 -8 -23 -8q-9 0 -16.5 2.5t-13.5 10.5l-41 56l-41 -56q-6 -8 -13.5 -10.5t-16.5 -2.5q-12 0 -23 8q-14 10 -17 24t6 27l75 102q11 15 30 15t29 -15z" />
    <glyph glyph-name="ccircumflex" unicode="&#x109;" horiz-adv-x="376" 
d="M225 6h-14q-60 5 -104 31q-40 23 -66 67q-25 41 -32.5 85.5t-8.5 77.5q-2 85 30 139q18 32 40 47t39 20q20 6 42 7.5t43 -3.5q51 -11 85 -51q11 -12 9 -24.5t-14 -23.5q-13 -11 -28.5 -13t-26.5 10q-18 22 -43 25t-44 -2q-20 -6 -37 -36.5t-16 -93.5q0 -26 5.5 -60
t23.5 -63q34 -56 108 -60q37 -3 64 10t46.5 32.5t31 41t17.5 37.5q6 15 20.5 19.5t30.5 -0.5q15 -6 21 -18.5t0 -27.5q-16 -42 -36.5 -70.5t-48.5 -51.5q-60 -51 -137 -51zM272 594q10 -13 6.5 -27t-16.5 -24q-11 -8 -23 -8q-9 0 -16.5 2.5t-13.5 10.5l-41 56l-41 -56
q-6 -8 -13.5 -10.5t-16.5 -2.5q-12 0 -23 8q-14 10 -17 24t6 27l75 102q11 15 30 15t29 -15z" />
    <glyph glyph-name="Cdotaccent" unicode="&#x10a;" horiz-adv-x="424" 
d="M265 4q-118 5 -183 80q-26 32 -39.5 64.5t-19.5 56.5q-16 60 -19.5 118t-2.5 100q2 51 7.5 91t11.5 62q19 78 54 116q40 44 105 53q58 8 104 -35q22 -20 34.5 -42.5t19.5 -39.5q6 -15 -2 -27t-23 -17q-15 -6 -29 -2.5t-20 19.5q-2 4 -7 16t-14.5 24t-22.5 20t-30 6
q-37 -6 -57 -27q-21 -24 -36 -83q-5 -20 -10 -56.5t-6 -82t3 -95.5t16 -98q6 -24 17 -49t29.5 -45t48 -33.5t73.5 -14.5q31 -1 56.5 10.5t45 30.5t33.5 42t22 46q6 16 19.5 20t29.5 -1q15 -5 21.5 -17t1.5 -28q-8 -20 -24.5 -54t-50.5 -66q-65 -62 -150 -62h-6zM244 852
q-1 -21 -17 -35.5t-37 -13.5q-21 2 -35.5 17.5t-12.5 37.5q1 21 17 35.5t37 12.5q21 -1 35.5 -17t12.5 -37z" />
    <glyph glyph-name="cdotaccent" unicode="&#x10b;" horiz-adv-x="376" 
d="M211 6q-60 5 -104 31q-40 23 -66 67q-25 41 -32.5 85.5t-8.5 77.5q-2 85 30 139q18 32 40 47t39 20q20 6 42 7.5t43 -3.5q51 -11 85 -51q11 -12 9 -24.5t-14 -23.5q-13 -11 -28.5 -13t-26.5 10q-18 22 -43 25t-44 -2q-20 -6 -37 -36.5t-16 -93.5q0 -26 5.5 -60t23.5 -63
q34 -56 108 -60q37 -3 64 10t46.5 32.5t31 41t17.5 37.5q6 15 20.5 19.5t30.5 -0.5q15 -6 21 -18.5t0 -27.5q-16 -42 -36.5 -70.5t-48.5 -51.5q-60 -51 -137 -51h-14zM207 572q-1 -21 -17 -35.5t-37 -13.5q-21 2 -35.5 17.5t-12.5 37.5q1 21 17 35.5t37 12.5q21 -1 35.5 -17
t12.5 -37z" />
    <glyph glyph-name="Ccaron" unicode="&#x10c;" horiz-adv-x="424" 
d="M265 4q-118 5 -183 80q-26 32 -39.5 64.5t-19.5 56.5q-16 60 -19.5 118t-2.5 100q2 51 7.5 91t11.5 62q19 78 54 116q40 44 105 53q58 8 104 -35q22 -20 34.5 -42.5t19.5 -39.5q6 -15 -2 -27t-23 -17q-15 -6 -29 -2.5t-20 19.5q-2 4 -7 16t-14.5 24t-22.5 20t-30 6
q-37 -6 -57 -27q-21 -24 -36 -83q-5 -20 -10 -56.5t-6 -82t3 -95.5t16 -98q6 -24 17 -49t29.5 -45t48 -33.5t73.5 -14.5q31 -1 56.5 10.5t45 30.5t33.5 42t22 46q6 16 19.5 20t29.5 -1q15 -5 21.5 -17t1.5 -28q-8 -20 -24.5 -54t-50.5 -66q-65 -62 -150 -62h-6zM296 932
q-9 -14 -21 -30.5t-23.5 -31.5t-20 -26.5t-10.5 -13.5q-8 -9 -14.5 -12t-14.5 -3q-19 0 -30 15l-75 102q-7 8 -7 20q0 14 12 26.5t29 12.5q9 0 16.5 -2.5t13.5 -10.5l41 -56l41 56q6 8 13.5 10.5t16.5 2.5q17 0 28.5 -12.5t11.5 -26.5q0 -9 -7 -20z" />
    <glyph glyph-name="ccaron" unicode="&#x10d;" horiz-adv-x="376" 
d="M211 6q-60 5 -104 31q-40 23 -66 67q-25 41 -32.5 85.5t-8.5 77.5q-2 85 30 139q18 32 40 47t39 20q20 6 42 7.5t43 -3.5q51 -11 85 -51q11 -12 9 -24.5t-14 -23.5q-13 -11 -28.5 -13t-26.5 10q-18 22 -43 25t-44 -2q-20 -6 -37 -36.5t-16 -93.5q0 -26 5.5 -60t23.5 -63
q34 -56 108 -60q37 -3 64 10t46.5 32.5t31 41t17.5 37.5q6 15 20.5 19.5t30.5 -0.5q15 -6 21 -18.5t0 -27.5q-16 -42 -36.5 -70.5t-48.5 -51.5q-60 -51 -137 -51h-14zM264 652q-9 -14 -21 -30.5t-23.5 -31.5t-20 -26.5t-10.5 -13.5q-8 -9 -14.5 -12t-14.5 -3q-19 0 -30 15
l-75 102q-7 8 -7 20q0 14 12 26.5t29 12.5q9 0 16.5 -2.5t13.5 -10.5l41 -56l41 56q6 8 13.5 10.5t16.5 2.5q17 0 28.5 -12.5t11.5 -26.5q0 -9 -7 -20z" />
    <glyph glyph-name="Dcaron" unicode="&#x10e;" horiz-adv-x="641" 
d="M106 -51q-27 0 -48 9q-24 9 -42 24t-31.5 34t-21 39.5t-10.5 40.5q-4 35 3.5 65t25.5 50q11 11 30.5 22.5t51.5 11.5q33 0 63.5 -17.5t61.5 -42.5q1 8 1.5 16t0.5 17q3 53 4 102.5t0 75.5q-1 27 -3.5 61.5t-5.5 69.5t-5.5 66t-4.5 52q-35 -8 -57.5 -23.5t-51.5 -38.5
q-12 -11 -25 -6t-24 18t-12.5 25t11.5 23q25 21 47.5 37.5t49.5 27.5t62 17t86 7q53 1 98.5 -15t81.5 -42t61.5 -59.5t39.5 -67.5q27 -67 38 -133.5t8 -142.5q-2 -42 -7.5 -76t-15.5 -63q-13 -43 -38 -72q-29 -38 -72 -50q-27 -8 -55 -10t-56 3q-25 4 -49 13t-47 23l-2 -4
q-11 -28 -33 -47.5t-54 -30.5q-26 -9 -54 -9zM64 167q-11 0 -16 -3t-7 -5q-7 -8 -9.5 -22t-0.5 -31q3 -22 17 -44t37 -31q8 -3 22 -3t29 5q10 3 21.5 10t16.5 21q3 7 6 27q-3 3 -6.5 5.5t-6.5 5.5q-14 11 -28.5 22.5t-28 21t-25.5 15.5t-21 6zM264 125q2 -2 5 -4t5 -4
q80 -55 159 -31q38 12 59 72q15 47 18 117q3 68 -6.5 126t-33.5 118q-10 25 -29.5 50t-46.5 44t-60 30.5t-70 10.5q-7 0 -10 -1q2 -20 5 -52t6 -67.5t5 -71.5t3 -64q1 -27 0 -78t-3 -106q-3 -53 -6 -89zM365 932q-9 -14 -21 -30.5t-23.5 -31.5t-20 -26.5t-10.5 -13.5
q-8 -9 -14.5 -12t-14.5 -3q-19 0 -30 15l-75 102q-7 8 -7 20q0 14 12 26.5t29 12.5q9 0 16.5 -2.5t13.5 -10.5l41 -56l41 56q6 8 13.5 10.5t16.5 2.5q17 0 28.5 -12.5t11.5 -26.5q0 -9 -7 -20z" />
    <glyph glyph-name="dcaron" unicode="&#x10f;" horiz-adv-x="525" 
d="M574 227q15 -6 22 -16.5t2 -25.5q-12 -32 -29.5 -62t-39.5 -53q-57 -62 -128 -62h-7q-62 3 -101 48q-6 -7 -13 -13t-15 -11q-48 -31 -105 -31h-11q-67 5 -109 71q-39 62 -40 150q-1 60 17.5 111.5t53.5 86.5q48 47 109 45q36 -2 70 -21q1 22 4 56t6 66t5 56.5t2 26.5
q2 17 14.5 24t29.5 5q16 -2 26.5 -10.5t8.5 -25.5l-2.5 -26.5t-5.5 -61.5t-6 -70.5t-4 -53.5q-1 -19 -2 -53.5t-1 -71v-67.5t2 -44v-2q6 -56 22 -79.5t48 -25.5q38 -2 75 37q17 17 30.5 40t22.5 48q6 15 19.5 17.5t29.5 -2.5zM153 80q23 -2 39.5 3.5t27.5 13t17 14.5t8 10
q3 4 7 12q2 3 3 6v1q-4 26 -6 44v1q-1 10 -1.5 28t-1 40t0 46.5t0.5 47.5q-9 10 -28 24t-42 15q-17 1 -30 -6.5t-21 -15.5q-23 -23 -35.5 -60t-11.5 -81q0 -32 7 -60.5t20 -48.5q6 -9 18 -21t29 -13zM439 478q-11 0 -20 6q-14 8 -20 22t2 28q11 18 18 34t11.5 33.5t6 38.5
t1.5 48q0 17 11.5 25.5t28.5 8.5t27.5 -8.5t10.5 -25.5q0 -29 -1.5 -53.5t-7 -47.5t-14.5 -46t-24 -48q-6 -9 -12.5 -12t-17.5 -3z" />
    <glyph glyph-name="Dcroat" unicode="&#x110;" horiz-adv-x="641" 
d="M106 -51q-27 0 -48 9q-24 9 -42 24t-31.5 34t-21 39.5t-10.5 40.5q-4 35 3.5 65t25.5 50q11 11 30.5 22.5t51.5 11.5q33 0 63.5 -17.5t61.5 -42.5q1 8 1.5 16t0.5 17l2 44t1 43h-63q-16 0 -27.5 11t-11.5 28t11.5 28t27.5 11h64v13q-1 27 -3.5 61.5t-5.5 69.5t-5.5 66
t-4.5 52q-35 -8 -57.5 -23.5t-51.5 -38.5q-12 -11 -25 -6t-24 18t-12.5 25t11.5 23q25 21 47.5 37.5t49.5 27.5t62 17t86 7q53 1 98.5 -15t81.5 -42t61.5 -59.5t39.5 -67.5q27 -67 38 -133.5t8 -142.5q-2 -42 -7.5 -76t-15.5 -63q-13 -43 -38 -72q-29 -38 -72 -50
q-27 -8 -55 -10t-56 3q-25 4 -49 13t-47 23l-2 -4q-11 -28 -33 -47.5t-54 -30.5q-26 -9 -54 -9zM264 125l10 -8q80 -55 159 -31q38 12 59 72q15 47 18 117q3 68 -6.5 126t-33.5 118q-10 25 -29.5 50t-46.5 44t-60 30.5t-70 10.5q-7 0 -10 -1q2 -20 5 -52t6 -67.5t5 -71.5
t3 -64v-15h32q17 0 28.5 -11t11.5 -28t-11.5 -28t-28.5 -11h-32l-3 -91zM64 167q-11 0 -16 -3t-7 -5q-7 -8 -9.5 -22t-0.5 -31q3 -22 17 -44t37 -31q8 -3 22 -3t29 5q10 3 21.5 10t16.5 21q3 7 6 27l-13 11q-14 11 -28.5 22.5t-28 21t-25.5 15.5t-21 6z" />
    <glyph glyph-name="dcroat" unicode="&#x111;" horiz-adv-x="525" 
d="M574 227q15 -6 22.5 -16.5t2.5 -25.5q-12 -32 -30 -62t-40 -53q-57 -62 -128 -62h-7q-62 3 -101 48q-6 -7 -13 -13t-15 -11q-48 -31 -105 -31h-11q-67 5 -109 71q-39 62 -40 150q-1 60 17.5 111.5t53.5 86.5q48 47 109 45q36 -2 70 -21q0 4 0.5 15.5t1 24.5t1 25t1.5 19
h-43q-16 0 -27.5 11t-11.5 28t11.5 28t27.5 11h49q2 29 4 44t5 26q9 32 42 29q16 -2 25.5 -10.5t7.5 -25.5q0 -1 -1 -17.5t-4 -45.5h44q17 0 28.5 -11t11.5 -28t-11.5 -28t-28.5 -11h-51l-4 -98q-1 -19 -2 -53.5t-1 -71v-67.5t2 -44v-2q6 -56 22 -79.5t48 -25.5q38 -2 75 37
q17 17 30.5 40t22.5 48q6 15 19.5 17.5t29.5 -2.5zM153 80q23 -2 40.5 4t30 15t20 20t10.5 19q1 0 1 2q-4 26 -6 44v1q-1 10 -1.5 28t-1 40t0 46.5t0.5 47.5q-9 10 -28 24t-42 15q-17 1 -30 -6.5t-21 -15.5q-23 -23 -35.5 -60t-11.5 -81q0 -32 7 -60.5t20 -48.5q6 -9 18 -21
t29 -13z" />
    <glyph glyph-name="Emacron" unicode="&#x112;" horiz-adv-x="407" 
d="M455 228q15 -6 22 -18t2 -27q-44 -113 -135 -157q-34 -17 -66 -22t-58 -5h-17q-34 2 -67 13.5t-59 31.5q-68 51 -74 137q-3 61 18 111q17 39 47 68q-26 14 -47 36q-17 19 -28 43.5t-13 51.5q-2 16 -0.5 53.5t15.5 79.5q17 51 52 83t85 43q68 15 127 -10q44 -20 79 -62
q11 -13 7.5 -27t-15.5 -25q-13 -11 -27.5 -11t-24.5 13q-10 11 -21.5 21.5t-27 17.5t-35.5 9t-46 -3q-37 -8 -56 -33t-26.5 -53.5t-7.5 -54t1 -35.5q2 -25 19 -47.5t55 -26.5q13 -1 30 0.5t33.5 4.5t30 6.5t21.5 5.5q16 5 27.5 -4t16.5 -25t-1 -29t-21 -18q-2 0 -11 -2.5
t-19.5 -5.5t-20 -5.5t-10.5 -2.5q-25 -8 -49 -19.5t-42 -30t-28.5 -45.5t-7.5 -67q2 -30 16 -50.5t33 -33t40 -18t36 -6.5q25 -2 53 2.5t55 19t51 41t41 70.5q6 16 19 19.5t29 -2.5zM84 834q-16 0 -27.5 11t-11.5 28t11.5 28t27.5 11h174q17 0 28.5 -11t11.5 -28t-11.5 -28
t-28.5 -11h-174z" />
    <glyph glyph-name="emacron" unicode="&#x113;" horiz-adv-x="368" 
d="M198 4q-11 0 -23 1t-23 3q-81 14 -121 84q-11 19 -17 40t-9.5 41t-4 39t-0.5 35q2 34 7.5 67t15.5 56q15 38 41 65.5t58 38.5q44 16 81 -3q41 -22 52 -65q15 -55 -23 -118q-32 -52 -105 -86q-13 -6 -24.5 -10.5t-19.5 -7.5q2 -14 6 -28t11 -25q21 -38 65 -46
q69 -12 121 19t81 106q5 11 17.5 15.5t28.5 1.5q17 -3 22 -19t-1 -31q-27 -80 -88 -127.5t-148 -45.5zM160 402q-5 0 -11 -2q-12 -4 -27 -18.5t-26 -40.5t-16 -74q23 10 47.5 25.5t37.5 36.5q21 33 14 56q-3 10 -13 16q-2 1 -6 1zM74 554q-16 0 -27.5 11t-11.5 28t11.5 28
t27.5 11h174q17 0 28.5 -11t11.5 -28t-11.5 -28t-28.5 -11h-174z" />
    <glyph glyph-name="Ebreve" unicode="&#x114;" horiz-adv-x="407" 
d="M455 228q15 -6 22 -18t2 -27q-44 -113 -135 -157q-34 -17 -66 -22t-58 -5h-17q-34 2 -67 13.5t-59 31.5q-68 51 -74 137q-3 61 18 111q17 39 47 68q-26 14 -47 36q-17 19 -28 43.5t-13 51.5q-2 16 -0.5 53.5t15.5 79.5q17 51 52 83t85 43q68 15 127 -10q44 -20 79 -62
q11 -13 7.5 -27t-15.5 -25q-13 -11 -27.5 -11t-24.5 13q-10 11 -21.5 21.5t-27 17.5t-35.5 9t-46 -3q-37 -8 -56 -33t-26.5 -53.5t-7.5 -54t1 -35.5q2 -25 19 -47.5t55 -26.5q13 -1 30 0.5t33.5 4.5t30 6.5t21.5 5.5q16 5 27.5 -4t16.5 -25t-1 -29t-21 -18q-2 0 -11 -2.5
t-19.5 -5.5t-20 -5.5t-10.5 -2.5q-25 -8 -49 -19.5t-42 -30t-28.5 -45.5t-7.5 -67q2 -30 16 -50.5t33 -33t40 -18t36 -6.5q25 -2 53 2.5t55 19t51 41t41 70.5q6 16 19 19.5t29 -2.5zM155 807q-32 0 -56 9.5t-41.5 24t-29.5 32t-20 33.5q-8 14 -2 28t20 22q15 8 29.5 4
t22.5 -18q14 -28 32 -43t51 -13q21 1 35 5t24 11t17.5 17t15.5 24t22.5 17.5t28.5 -4.5t19.5 -23t-2.5 -29q-10 -17 -23 -34.5t-33 -31.5q-21 -16 -49.5 -23t-60.5 -8z" />
    <glyph glyph-name="ebreve" unicode="&#x115;" horiz-adv-x="368" 
d="M198 4q-11 0 -23 1t-23 3q-81 14 -121 84q-11 19 -17 40t-9.5 41t-4 39t-0.5 35q2 34 7.5 67t15.5 56q15 38 41 65.5t58 38.5q44 16 81 -3q41 -22 52 -65q15 -55 -23 -118q-32 -52 -105 -86q-13 -6 -24.5 -10.5t-19.5 -7.5q2 -14 6 -28t11 -25q21 -38 65 -46
q69 -12 121 19t81 106q5 11 17.5 15.5t28.5 1.5q17 -3 22 -19t-1 -31q-27 -80 -88 -127.5t-148 -45.5zM160 402q-5 0 -11 -2q-12 -4 -27 -18.5t-26 -40.5t-16 -74q23 10 47.5 25.5t37.5 36.5q21 33 14 56q-3 10 -13 16q-2 1 -6 1zM144 527q-32 0 -56 9.5t-41.5 24t-29.5 32
t-20 33.5q-8 14 -2 28t20 22q15 8 29.5 4t22.5 -18q14 -28 32 -43t51 -13q21 1 35 5t24 11t17.5 17t15.5 24t22.5 17.5t28.5 -4.5t19.5 -23t-2.5 -29q-10 -17 -23 -34.5t-33 -31.5q-21 -16 -49.5 -23t-60.5 -8z" />
    <glyph glyph-name="Edotaccent" unicode="&#x116;" horiz-adv-x="407" 
d="M455 228q15 -6 22 -18t2 -27q-44 -113 -135 -157q-34 -17 -66 -22t-58 -5h-17q-34 2 -67 13.5t-59 31.5q-68 51 -74 137q-3 61 18 111q17 39 47 68q-26 14 -47 36q-17 19 -28 43.5t-13 51.5q-2 16 -0.5 53.5t15.5 79.5q17 51 52 83t85 43q68 15 127 -10q44 -20 79 -62
q11 -13 7.5 -27t-15.5 -25q-13 -11 -27.5 -11t-24.5 13q-10 11 -21.5 21.5t-27 17.5t-35.5 9t-46 -3q-37 -8 -56 -33t-26.5 -53.5t-7.5 -54t1 -35.5q2 -25 19 -47.5t55 -26.5q13 -1 30 0.5t33.5 4.5t30 6.5t21.5 5.5q16 5 27.5 -4t16.5 -25t-1 -29t-21 -18q-2 0 -11 -2.5
t-19.5 -5.5t-20 -5.5t-10.5 -2.5q-25 -8 -49 -19.5t-42 -30t-28.5 -45.5t-7.5 -67q2 -30 16 -50.5t33 -33t40 -18t36 -6.5q25 -2 53 2.5t55 19t51 41t41 70.5q6 16 19 19.5t29 -2.5zM223 852q-1 -21 -17 -35.5t-37 -13.5q-21 2 -35.5 17.5t-12.5 37.5q1 21 17 35.5t37 12.5
q21 -1 35.5 -17t12.5 -37z" />
    <glyph glyph-name="edotaccent" unicode="&#x117;" horiz-adv-x="368" 
d="M198 4q-11 0 -23 1t-23 3q-81 14 -121 84q-11 19 -17 40t-9.5 41t-4 39t-0.5 35q2 34 7.5 67t15.5 56q15 38 41 65.5t58 38.5q44 16 81 -3q41 -22 52 -65q15 -55 -23 -118q-32 -52 -105 -86q-13 -6 -24.5 -10.5t-19.5 -7.5q2 -14 6 -28t11 -25q21 -38 65 -46
q69 -12 121 19t81 106q5 11 17.5 15.5t28.5 1.5q17 -3 22 -19t-1 -31q-27 -80 -88 -127.5t-148 -45.5zM160 402q-5 0 -11 -2q-12 -4 -27 -18.5t-26 -40.5t-16 -74q23 10 47.5 25.5t37.5 36.5q21 33 14 56q-3 10 -13 16q-2 1 -6 1zM207 572q-1 -21 -17 -35.5t-37 -13.5
q-21 2 -35.5 17.5t-12.5 37.5q1 21 17 35.5t37 12.5q21 -1 35.5 -17t12.5 -37z" />
    <glyph glyph-name="Eogonek" unicode="&#x118;" horiz-adv-x="407" 
d="M455 228q15 -6 23 -18t3 -27q-44 -112 -137 -157q-19 -10 -38 -15t-36 -8q-4 -7 -10.5 -18.5t-13.5 -24t-13.5 -26t-10.5 -24.5q-11 -24 -10.5 -44t5.5 -28q7 -15 15.5 -20.5t17 -6t16 2.5l12.5 5q15 7 28 0.5t20 -21.5t3 -29.5t-19 -21.5q-31 -14 -59 -14q-19 0 -33.5 5
t-25.5 12q-20 12 -30.5 28t-15.5 26q-11 22 -12.5 58t15.5 78q5 14 13.5 30t16.5 31q-58 9 -102 43q-68 51 -74 137q-3 61 18 111q17 39 47 68q-26 14 -47 36q-17 19 -28 43.5t-13 51.5q-2 16 -0.5 53.5t15.5 79.5q17 51 52 83t85 43q68 15 127 -10q44 -20 79 -62
q11 -13 7.5 -27t-15.5 -25q-13 -11 -27.5 -11t-24.5 13q-10 11 -21.5 21.5t-27 17.5t-35.5 9t-46 -3q-37 -8 -56 -33t-26.5 -53.5t-7.5 -54t1 -35.5q2 -25 19 -47.5t55 -26.5q13 -1 30 0.5t33.5 4.5t30 6.5t21.5 5.5q16 5 27.5 -4t16.5 -25t-1 -29t-21 -18l-61 -16
q-25 -8 -49 -19.5t-42 -30t-28.5 -45.5t-7.5 -67q2 -30 16 -50.5t33 -33t40 -18t36 -6.5q25 -2 53 2.5t55 19t51 41t41 70.5q6 16 19 19.5t29 -2.5z" />
    <glyph glyph-name="eogonek" unicode="&#x119;" horiz-adv-x="368" 
d="M223 -267q-19 0 -33.5 5t-25.5 12q-20 12 -30.5 28t-15.5 26q-11 22 -12.5 58t15.5 78q6 16 15.5 33.5t18.5 33.5q-1 0 -1.5 0.5t-1.5 0.5q-81 14 -121 84q-11 19 -17 40t-9.5 41t-4 39t-0.5 35q2 34 7.5 67t15.5 56q15 38 41 65.5t58 38.5q44 16 81 -3q41 -22 52 -65
q15 -55 -23 -118q-32 -52 -105 -86q-13 -6 -24.5 -10.5t-19.5 -7.5q2 -14 6 -28t11 -25q21 -38 65 -46q69 -12 121.5 18t80.5 105q5 15 19 19t29 -1q16 -6 21 -21.5t-1 -27.5q-11 -31 -29 -59.5t-42 -51t-53.5 -37.5t-64.5 -21q-3 -5 -10 -16.5t-14.5 -25.5t-15 -29
t-12.5 -27q-11 -24 -10.5 -44t5.5 -28q7 -15 15.5 -20.5t17 -6t16 2.5l12.5 5q15 7 28 0.5t20 -21.5t3 -29.5t-19 -21.5q-31 -14 -59 -14zM160 402q-5 0 -11 -2q-12 -4 -27 -18.5t-26 -40.5t-16 -74q23 10 47.5 25.5t37.5 36.5q21 33 14 56q-3 10 -13 16q-2 1 -6 1z" />
    </font>
</defs>
</svg>
